<svg xmlns="http://www.w3.org/2000/svg" viewBox="0 0 438.66 438.66"><g id="레이어_2" data-name="레이어 2"><g id="style1-svg"><rect width="15.24" height="15.24"/><rect x="15.12" width="15.24" height="15.24"/><rect x="30.24" width="15.24" height="15.24"/><rect x="45.37" width="15.24" height="15.24"/><rect x="60.49" width="15.24" height="15.24"/><rect x="75.61" width="15.24" height="15.24"/><rect x="90.73" width="15.24" height="15.24"/><rect x="166.34" width="15.24" height="15.24"/><rect x="181.47" width="15.24" height="15.24"/><rect x="196.59" width="15.24" height="15.24"/><rect x="211.71" width="15.24" height="15.24"/><rect x="272.2" width="15.24" height="15.24"/><rect x="332.69" width="15.24" height="15.24"/><rect x="347.81" width="15.24" height="15.24"/><rect x="362.93" width="15.24" height="15.24"/><rect x="378.06" width="15.24" height="15.24"/><rect x="393.18" width="15.24" height="15.24"/><rect x="408.3" width="15.24" height="15.24"/><rect x="423.42" width="15.24" height="15.24"/><rect y="15.12" width="15.24" height="15.24"/><rect x="90.73" y="15.12" width="15.24" height="15.24"/><rect x="136.1" y="15.12" width="15.24" height="15.24"/><rect x="151.22" y="15.12" width="15.24" height="15.24"/><rect x="196.59" y="15.12" width="15.24" height="15.24"/><rect x="211.71" y="15.12" width="15.24" height="15.24"/><rect x="241.96" y="15.12" width="15.24" height="15.24"/><rect x="257.08" y="15.12" width="15.24" height="15.24"/><rect x="272.2" y="15.12" width="15.24" height="15.24"/><rect x="332.69" y="15.12" width="15.24" height="15.24"/><rect x="423.42" y="15.12" width="15.24" height="15.24"/><rect y="30.24" width="15.24" height="15.24"/><rect x="30.24" y="30.24" width="15.24" height="15.24"/><rect x="45.37" y="30.24" width="15.24" height="15.24"/><rect x="60.49" y="30.24" width="15.24" height="15.24"/><rect x="90.73" y="30.24" width="15.24" height="15.24"/><rect x="181.47" y="30.24" width="15.24" height="15.24"/><rect x="226.83" y="30.24" width="15.24" height="15.24"/><rect x="287.32" y="30.24" width="15.24" height="15.24"/><rect x="302.45" y="30.24" width="15.24" height="15.24"/><rect x="332.69" y="30.24" width="15.24" height="15.24"/><rect x="362.93" y="30.24" width="15.24" height="15.24"/><rect x="378.06" y="30.24" width="15.24" height="15.24"/><rect x="393.18" y="30.24" width="15.24" height="15.24"/><rect x="423.42" y="30.24" width="15.24" height="15.24"/><rect y="45.37" width="15.24" height="15.24"/><rect x="30.24" y="45.37" width="15.24" height="15.24"/><rect x="45.37" y="45.37" width="15.24" height="15.24"/><rect x="60.49" y="45.37" width="15.24" height="15.24"/><rect x="90.73" y="45.37" width="15.24" height="15.24"/><rect x="120.98" y="45.37" width="15.24" height="15.24"/><rect x="181.47" y="45.37" width="15.24" height="15.24"/><rect x="196.59" y="45.37" width="15.24" height="15.24"/><rect x="211.71" y="45.37" width="15.24" height="15.24"/><rect x="257.08" y="45.37" width="15.24" height="15.24"/><rect x="272.2" y="45.37" width="15.24" height="15.24"/><rect x="287.32" y="45.37" width="15.24" height="15.24"/><rect x="302.45" y="45.37" width="15.24" height="15.24"/><rect x="332.69" y="45.37" width="15.24" height="15.24"/><rect x="362.93" y="45.37" width="15.24" height="15.24"/><rect x="378.06" y="45.37" width="15.24" height="15.24"/><rect x="393.18" y="45.37" width="15.24" height="15.24"/><rect x="423.42" y="45.37" width="15.24" height="15.24"/><rect y="60.49" width="15.24" height="15.24"/><rect x="30.24" y="60.49" width="15.24" height="15.24"/><rect x="45.37" y="60.49" width="15.24" height="15.24"/><rect x="60.49" y="60.49" width="15.24" height="15.24"/><rect x="90.73" y="60.49" width="15.24" height="15.24"/><rect x="120.98" y="60.49" width="15.24" height="15.24"/><rect x="136.1" y="60.49" width="15.24" height="15.24"/><rect x="211.71" y="60.49" width="15.24" height="15.24"/><rect x="257.08" y="60.49" width="15.24" height="15.24"/><rect x="272.2" y="60.49" width="15.24" height="15.24"/><rect x="287.32" y="60.49" width="15.24" height="15.24"/><rect x="302.45" y="60.49" width="15.24" height="15.24"/><rect x="332.69" y="60.49" width="15.24" height="15.24"/><rect x="362.93" y="60.49" width="15.24" height="15.24"/><rect x="378.06" y="60.49" width="15.24" height="15.24"/><rect x="393.18" y="60.49" width="15.24" height="15.24"/><rect x="423.42" y="60.49" width="15.24" height="15.24"/><rect y="75.61" width="15.24" height="15.24"/><rect x="90.73" y="75.61" width="15.24" height="15.24"/><rect x="166.34" y="75.61" width="15.24" height="15.24"/><rect x="181.47" y="75.61" width="15.24" height="15.24"/><rect x="196.59" y="75.61" width="15.24" height="15.24"/><rect x="211.71" y="75.61" width="15.24" height="15.24"/><rect x="241.96" y="75.61" width="15.24" height="15.24"/><rect x="257.08" y="75.61" width="15.24" height="15.24"/><rect x="302.45" y="75.61" width="15.24" height="15.24"/><rect x="332.69" y="75.61" width="15.24" height="15.24"/><rect x="423.42" y="75.61" width="15.24" height="15.24"/><rect y="90.73" width="15.24" height="15.24"/><rect x="15.12" y="90.73" width="15.24" height="15.24"/><rect x="30.24" y="90.73" width="15.24" height="15.24"/><rect x="45.37" y="90.73" width="15.24" height="15.24"/><rect x="60.49" y="90.73" width="15.24" height="15.24"/><rect x="75.61" y="90.73" width="15.24" height="15.24"/><rect x="90.73" y="90.73" width="15.24" height="15.24"/><rect x="120.98" y="90.73" width="15.24" height="15.24"/><rect x="151.22" y="90.73" width="15.24" height="15.24"/><rect x="181.47" y="90.73" width="15.24" height="15.24"/><rect x="211.71" y="90.73" width="15.24" height="15.24"/><rect x="241.96" y="90.73" width="15.24" height="15.24"/><rect x="272.2" y="90.73" width="15.24" height="15.24"/><rect x="302.45" y="90.73" width="15.24" height="15.24"/><rect x="332.69" y="90.73" width="15.24" height="15.24"/><rect x="347.81" y="90.73" width="15.24" height="15.24"/><rect x="362.93" y="90.73" width="15.24" height="15.24"/><rect x="378.06" y="90.73" width="15.24" height="15.24"/><rect x="393.18" y="90.73" width="15.24" height="15.24"/><rect x="408.3" y="90.73" width="15.24" height="15.24"/><rect x="423.42" y="90.73" width="15.24" height="15.24"/><rect x="151.22" y="105.86" width="15.24" height="15.24"/><rect x="166.34" y="105.86" width="15.24" height="15.24"/><rect x="241.96" y="105.86" width="15.24" height="15.24"/><rect x="272.2" y="105.86" width="15.24" height="15.24"/><rect y="120.98" width="15.24" height="15.24"/><rect x="15.12" y="120.98" width="15.24" height="15.24"/><rect x="75.61" y="120.98" width="15.24" height="15.24"/><rect x="90.73" y="120.98" width="15.24" height="15.24"/><rect x="105.86" y="120.98" width="15.24" height="15.24"/><rect x="136.1" y="120.98" width="15.24" height="15.24"/><rect x="166.34" y="120.98" width="15.24" height="15.24"/><rect x="196.59" y="120.98" width="15.24" height="15.24"/><rect x="211.71" y="120.98" width="15.24" height="15.24"/><rect x="226.83" y="120.98" width="15.24" height="15.24"/><rect x="241.96" y="120.98" width="15.24" height="15.24"/><rect x="257.08" y="120.98" width="15.24" height="15.24"/><rect x="287.32" y="120.98" width="15.24" height="15.24"/><rect x="362.93" y="120.98" width="15.24" height="15.24"/><rect x="378.06" y="120.98" width="15.24" height="15.24"/><rect y="136.1" width="15.24" height="15.24"/><rect x="45.37" y="136.1" width="15.24" height="15.24"/><rect x="60.49" y="136.1" width="15.24" height="15.24"/><rect x="75.61" y="136.1" width="15.24" height="15.24"/><rect x="105.86" y="136.1" width="15.24" height="15.24"/><rect x="136.1" y="136.1" width="15.24" height="15.24"/><rect x="181.47" y="136.1" width="15.24" height="15.24"/><rect x="211.71" y="136.1" width="15.24" height="15.24"/><rect x="226.83" y="136.1" width="15.24" height="15.24"/><rect x="241.96" y="136.1" width="15.24" height="15.24"/><rect x="257.08" y="136.1" width="15.24" height="15.24"/><rect x="272.2" y="136.1" width="15.24" height="15.24"/><rect x="287.32" y="136.1" width="15.24" height="15.24"/><rect x="347.81" y="136.1" width="15.24" height="15.24"/><rect x="362.93" y="136.1" width="15.24" height="15.24"/><rect x="393.18" y="136.1" width="15.24" height="15.24"/><rect x="408.3" y="136.1" width="15.24" height="15.24"/><rect x="30.24" y="151.22" width="15.24" height="15.24"/><rect x="75.61" y="151.22" width="15.24" height="15.24"/><rect x="90.73" y="151.22" width="15.24" height="15.24"/><rect x="105.86" y="151.22" width="15.24" height="15.24"/><rect x="151.22" y="151.22" width="15.24" height="15.24"/><rect x="196.59" y="151.22" width="15.24" height="15.24"/><rect x="226.83" y="151.22" width="15.24" height="15.24"/><rect x="317.57" y="151.22" width="15.24" height="15.24"/><rect x="332.69" y="151.22" width="15.24" height="15.24"/><rect y="166.34" width="15.24" height="15.24"/><rect x="15.12" y="166.34" width="15.24" height="15.24"/><rect x="60.49" y="166.34" width="15.24" height="15.24"/><rect x="105.86" y="166.34" width="15.24" height="15.24"/><rect x="136.1" y="166.34" width="15.24" height="15.24"/><rect x="181.47" y="166.34" width="15.24" height="15.24"/><rect x="211.71" y="166.34" width="15.24" height="15.24"/><rect x="226.83" y="166.34" width="15.24" height="15.24"/><rect x="302.45" y="166.34" width="15.24" height="15.24"/><rect x="317.57" y="166.34" width="15.24" height="15.24"/><rect x="332.69" y="166.34" width="15.24" height="15.24"/><rect x="347.81" y="166.34" width="15.24" height="15.24"/><rect x="378.06" y="166.34" width="15.24" height="15.24"/><rect x="30.24" y="181.47" width="15.24" height="15.24"/><rect x="45.37" y="181.47" width="15.24" height="15.24"/><rect x="60.49" y="181.47" width="15.24" height="15.24"/><rect x="75.61" y="181.47" width="15.24" height="15.24"/><rect x="90.73" y="181.47" width="15.24" height="15.24"/><rect x="105.86" y="181.47" width="15.24" height="15.24"/><rect x="120.98" y="181.47" width="15.24" height="15.24"/><rect x="136.1" y="181.47" width="15.24" height="15.24"/><rect x="166.34" y="181.47" width="15.24" height="15.24"/><rect x="181.47" y="181.47" width="15.24" height="15.24"/><rect x="226.83" y="181.47" width="15.24" height="15.24"/><rect x="302.45" y="181.47" width="15.24" height="15.24"/><rect x="332.69" y="181.47" width="15.24" height="15.24"/><rect x="347.81" y="181.47" width="15.24" height="15.24"/><rect x="423.42" y="181.47" width="15.24" height="15.24"/><rect x="15.12" y="196.59" width="15.24" height="15.24"/><rect x="60.49" y="196.59" width="15.24" height="15.24"/><rect x="75.61" y="196.59" width="15.24" height="15.24"/><rect x="105.86" y="196.59" width="15.24" height="15.24"/><rect x="136.1" y="196.59" width="15.24" height="15.24"/><rect x="226.83" y="196.59" width="15.24" height="15.24"/><rect x="272.2" y="196.59" width="15.24" height="15.24"/><rect x="287.32" y="196.59" width="15.24" height="15.24"/><rect x="302.45" y="196.59" width="15.24" height="15.24"/><rect x="332.69" y="196.59" width="15.24" height="15.24"/><rect x="347.81" y="196.59" width="15.24" height="15.24"/><rect x="362.93" y="196.59" width="15.24" height="15.24"/><rect x="408.3" y="196.59" width="15.24" height="15.24"/><rect x="423.42" y="196.59" width="15.24" height="15.24"/><rect x="15.12" y="211.71" width="15.24" height="15.24"/><rect x="30.24" y="211.71" width="15.24" height="15.24"/><rect x="60.49" y="211.71" width="15.24" height="15.24"/><rect x="90.73" y="211.71" width="15.24" height="15.24"/><rect x="166.34" y="211.71" width="15.24" height="15.24"/><rect x="181.47" y="211.71" width="15.24" height="15.24"/><rect x="196.59" y="211.71" width="15.24" height="15.24"/><rect x="226.83" y="211.71" width="15.24" height="15.24"/><rect x="302.45" y="211.71" width="15.24" height="15.24"/><rect x="347.81" y="211.71" width="15.24" height="15.24"/><rect x="362.93" y="211.71" width="15.24" height="15.24"/><rect x="378.06" y="211.71" width="15.24" height="15.24"/><rect x="393.18" y="211.71" width="15.24" height="15.24"/><rect y="226.83" width="15.24" height="15.24"/><rect x="30.24" y="226.83" width="15.24" height="15.24"/><rect x="60.49" y="226.83" width="15.24" height="15.24"/><rect x="75.61" y="226.83" width="15.24" height="15.24"/><rect x="105.86" y="226.83" width="15.24" height="15.24"/><rect x="120.98" y="226.83" width="15.24" height="15.24"/><rect x="151.22" y="226.83" width="15.24" height="15.24"/><rect x="166.34" y="226.83" width="15.24" height="15.24"/><rect x="226.83" y="226.83" width="15.24" height="15.24"/><rect x="317.57" y="226.83" width="15.24" height="15.24"/><rect x="332.69" y="226.83" width="15.24" height="15.24"/><rect x="393.18" y="226.83" width="15.24" height="15.24"/><rect x="423.42" y="226.83" width="15.24" height="15.24"/><rect x="30.24" y="241.96" width="15.24" height="15.24"/><rect x="45.37" y="241.96" width="15.24" height="15.24"/><rect x="75.61" y="241.96" width="15.24" height="15.24"/><rect x="90.73" y="241.96" width="15.24" height="15.24"/><rect x="105.86" y="241.96" width="15.24" height="15.24"/><rect x="120.98" y="241.96" width="15.24" height="15.24"/><rect x="151.22" y="241.96" width="15.24" height="15.24"/><rect x="166.34" y="241.96" width="15.24" height="15.24"/><rect x="226.83" y="241.96" width="15.24" height="15.24"/><rect x="241.96" y="241.96" width="15.24" height="15.24"/><rect x="257.08" y="241.96" width="15.24" height="15.24"/><rect x="272.2" y="241.96" width="15.24" height="15.24"/><rect x="378.06" y="241.96" width="15.24" height="15.24"/><rect x="393.18" y="241.96" width="15.24" height="15.24"/><rect y="257.08" width="15.24" height="15.24"/><rect x="15.12" y="257.08" width="15.24" height="15.24"/><rect x="60.49" y="257.08" width="15.24" height="15.24"/><rect x="75.61" y="257.08" width="15.24" height="15.24"/><rect x="105.86" y="257.08" width="15.24" height="15.24"/><rect x="120.98" y="257.08" width="15.24" height="15.24"/><rect x="136.1" y="257.08" width="15.24" height="15.24"/><rect x="151.22" y="257.08" width="15.24" height="15.24"/><rect x="181.47" y="257.08" width="15.24" height="15.24"/><rect x="196.59" y="257.08" width="15.24" height="15.24"/><rect x="226.83" y="257.08" width="15.24" height="15.24"/><rect x="257.08" y="257.08" width="15.24" height="15.24"/><rect x="272.2" y="257.08" width="15.24" height="15.24"/><rect x="287.32" y="257.08" width="15.24" height="15.24"/><rect x="302.45" y="257.08" width="15.24" height="15.24"/><rect x="317.57" y="257.08" width="15.24" height="15.24"/><rect x="332.69" y="257.08" width="15.24" height="15.24"/><rect x="347.81" y="257.08" width="15.24" height="15.24"/><rect x="362.93" y="257.08" width="15.24" height="15.24"/><rect x="393.18" y="257.08" width="15.24" height="15.24"/><rect x="408.3" y="257.08" width="15.24" height="15.24"/><rect x="423.42" y="257.08" width="15.24" height="15.24"/><rect y="272.2" width="15.24" height="15.24"/><rect x="15.12" y="272.2" width="15.24" height="15.24"/><rect x="45.37" y="272.2" width="15.24" height="15.24"/><rect x="60.49" y="272.2" width="15.24" height="15.24"/><rect x="75.61" y="272.2" width="15.24" height="15.24"/><rect x="90.73" y="272.2" width="15.24" height="15.24"/><rect x="105.86" y="272.2" width="15.24" height="15.24"/><rect x="120.98" y="272.2" width="15.24" height="15.24"/><rect x="151.22" y="272.2" width="15.24" height="15.24"/><rect x="166.34" y="272.2" width="15.24" height="15.24"/><rect x="226.83" y="272.2" width="15.24" height="15.24"/><rect x="287.32" y="272.2" width="15.24" height="15.24"/><rect x="302.45" y="272.2" width="15.24" height="15.24"/><rect x="317.57" y="272.2" width="15.24" height="15.24"/><rect x="332.69" y="272.2" width="15.24" height="15.24"/><rect x="347.81" y="272.2" width="15.24" height="15.24"/><rect x="362.93" y="272.2" width="15.24" height="15.24"/><rect x="378.06" y="272.2" width="15.24" height="15.24"/><rect x="423.42" y="272.2" width="15.24" height="15.24"/><rect y="287.32" width="15.24" height="15.24"/><rect x="45.37" y="287.32" width="15.24" height="15.24"/><rect x="120.98" y="287.32" width="15.24" height="15.24"/><rect x="181.47" y="287.32" width="15.24" height="15.24"/><rect x="196.59" y="287.32" width="15.24" height="15.24"/><rect x="226.83" y="287.32" width="15.24" height="15.24"/><rect x="241.96" y="287.32" width="15.24" height="15.24"/><rect x="287.32" y="287.32" width="15.24" height="15.24"/><rect x="302.45" y="287.32" width="15.24" height="15.24"/><rect x="332.69" y="287.32" width="15.24" height="15.24"/><rect x="347.81" y="287.32" width="15.24" height="15.24"/><rect y="302.45" width="15.24" height="15.24"/><rect x="30.24" y="302.45" width="15.24" height="15.24"/><rect x="75.61" y="302.45" width="15.24" height="15.24"/><rect x="90.73" y="302.45" width="15.24" height="15.24"/><rect x="105.86" y="302.45" width="15.24" height="15.24"/><rect x="120.98" y="302.45" width="15.24" height="15.24"/><rect x="151.22" y="302.45" width="15.24" height="15.24"/><rect x="181.47" y="302.45" width="15.24" height="15.24"/><rect x="211.71" y="302.45" width="15.24" height="15.24"/><rect x="257.08" y="302.45" width="15.24" height="15.24"/><rect x="287.32" y="302.45" width="15.24" height="15.24"/><rect x="302.45" y="302.45" width="15.24" height="15.24"/><rect x="317.57" y="302.45" width="15.24" height="15.24"/><rect x="332.69" y="302.45" width="15.24" height="15.24"/><rect x="347.81" y="302.45" width="15.24" height="15.24"/><rect x="362.93" y="302.45" width="15.24" height="15.24"/><rect x="393.18" y="302.45" width="15.24" height="15.24"/><rect x="408.3" y="302.45" width="15.24" height="15.24"/><rect x="423.42" y="302.45" width="15.24" height="15.24"/><rect x="120.98" y="317.57" width="15.24" height="15.24"/><rect x="136.1" y="317.57" width="15.24" height="15.24"/><rect x="211.71" y="317.57" width="15.24" height="15.24"/><rect x="226.83" y="317.57" width="15.24" height="15.24"/><rect x="241.96" y="317.57" width="15.24" height="15.24"/><rect x="257.08" y="317.57" width="15.24" height="15.24"/><rect x="302.45" y="317.57" width="15.24" height="15.24"/><rect x="362.93" y="317.57" width="15.24" height="15.24"/><rect x="378.06" y="317.57" width="15.24" height="15.24"/><rect y="332.69" width="15.24" height="15.24"/><rect x="15.12" y="332.69" width="15.24" height="15.24"/><rect x="30.24" y="332.69" width="15.24" height="15.24"/><rect x="45.37" y="332.69" width="15.24" height="15.24"/><rect x="60.49" y="332.69" width="15.24" height="15.24"/><rect x="75.61" y="332.69" width="15.24" height="15.24"/><rect x="90.73" y="332.69" width="15.24" height="15.24"/><rect x="120.98" y="332.69" width="15.24" height="15.24"/><rect x="166.34" y="332.69" width="15.24" height="15.24"/><rect x="181.47" y="332.69" width="15.24" height="15.24"/><rect x="226.83" y="332.69" width="15.24" height="15.24"/><rect x="272.2" y="332.69" width="15.24" height="15.24"/><rect x="287.32" y="332.69" width="15.24" height="15.24"/><rect x="302.45" y="332.69" width="15.24" height="15.24"/><rect x="332.69" y="332.69" width="15.24" height="15.24"/><rect x="362.93" y="332.69" width="15.24" height="15.24"/><rect x="378.06" y="332.69" width="15.24" height="15.24"/><rect x="393.18" y="332.69" width="15.24" height="15.24"/><rect y="347.81" width="15.24" height="15.24"/><rect x="90.73" y="347.81" width="15.24" height="15.24"/><rect x="120.98" y="347.81" width="15.24" height="15.24"/><rect x="136.1" y="347.81" width="15.24" height="15.24"/><rect x="166.34" y="347.81" width="15.24" height="15.24"/><rect x="211.71" y="347.81" width="15.24" height="15.24"/><rect x="226.83" y="347.81" width="15.24" height="15.24"/><rect x="241.96" y="347.81" width="15.24" height="15.24"/><rect x="272.2" y="347.81" width="15.24" height="15.24"/><rect x="287.32" y="347.81" width="15.24" height="15.24"/><rect x="302.45" y="347.81" width="15.24" height="15.24"/><rect x="362.93" y="347.81" width="15.24" height="15.24"/><rect y="362.93" width="15.24" height="15.24"/><rect x="30.24" y="362.93" width="15.24" height="15.24"/><rect x="45.37" y="362.93" width="15.24" height="15.24"/><rect x="60.49" y="362.93" width="15.24" height="15.24"/><rect x="90.73" y="362.93" width="15.24" height="15.24"/><rect x="136.1" y="362.93" width="15.24" height="15.24"/><rect x="151.22" y="362.93" width="15.24" height="15.24"/><rect x="196.59" y="362.93" width="15.24" height="15.24"/><rect x="211.71" y="362.93" width="15.24" height="15.24"/><rect x="226.83" y="362.93" width="15.24" height="15.24"/><rect x="257.08" y="362.93" width="15.24" height="15.24"/><rect x="287.32" y="362.93" width="15.24" height="15.24"/><rect x="302.45" y="362.93" width="15.24" height="15.24"/><rect x="317.57" y="362.93" width="15.24" height="15.24"/><rect x="332.69" y="362.93" width="15.24" height="15.24"/><rect x="347.81" y="362.93" width="15.24" height="15.24"/><rect x="362.93" y="362.93" width="15.24" height="15.24"/><rect x="378.06" y="362.93" width="15.24" height="15.24"/><rect x="408.3" y="362.93" width="15.24" height="15.24"/><rect y="378.06" width="15.24" height="15.24"/><rect x="30.24" y="378.06" width="15.24" height="15.24"/><rect x="45.37" y="378.06" width="15.24" height="15.24"/><rect x="60.49" y="378.06" width="15.24" height="15.24"/><rect x="90.73" y="378.06" width="15.24" height="15.24"/><rect x="151.22" y="378.06" width="15.24" height="15.24"/><rect x="181.47" y="378.06" width="15.24" height="15.24"/><rect x="196.59" y="378.06" width="15.24" height="15.24"/><rect x="211.71" y="378.06" width="15.24" height="15.24"/><rect x="241.96" y="378.06" width="15.24" height="15.24"/><rect x="257.08" y="378.06" width="15.24" height="15.24"/><rect x="272.2" y="378.06" width="15.24" height="15.24"/><rect x="287.32" y="378.06" width="15.24" height="15.24"/><rect x="302.45" y="378.06" width="15.24" height="15.24"/><rect x="378.06" y="378.06" width="15.24" height="15.24"/><rect x="393.18" y="378.06" width="15.24" height="15.24"/><rect x="423.42" y="378.06" width="15.24" height="15.24"/><rect y="393.18" width="15.24" height="15.24"/><rect x="30.24" y="393.18" width="15.24" height="15.24"/><rect x="45.37" y="393.18" width="15.24" height="15.24"/><rect x="60.49" y="393.18" width="15.24" height="15.24"/><rect x="90.73" y="393.18" width="15.24" height="15.24"/><rect x="151.22" y="393.18" width="15.24" height="15.24"/><rect x="196.59" y="393.18" width="15.24" height="15.24"/><rect x="211.71" y="393.18" width="15.24" height="15.24"/><rect x="226.83" y="393.18" width="15.24" height="15.24"/><rect x="287.32" y="393.18" width="15.24" height="15.24"/><rect x="302.45" y="393.18" width="15.24" height="15.24"/><rect x="317.57" y="393.18" width="15.24" height="15.24"/><rect x="332.69" y="393.18" width="15.24" height="15.24"/><rect x="347.81" y="393.18" width="15.24" height="15.24"/><rect x="362.93" y="393.18" width="15.24" height="15.24"/><rect x="378.06" y="393.18" width="15.24" height="15.24"/><rect x="393.18" y="393.18" width="15.24" height="15.24"/><rect x="408.3" y="393.18" width="15.24" height="15.24"/><rect y="408.3" width="15.24" height="15.24"/><rect x="90.73" y="408.3" width="15.24" height="15.24"/><rect x="120.98" y="408.3" width="15.24" height="15.24"/><rect x="136.1" y="408.3" width="15.24" height="15.24"/><rect x="181.47" y="408.3" width="15.24" height="15.24"/><rect x="196.59" y="408.3" width="15.24" height="15.24"/><rect x="211.71" y="408.3" width="15.24" height="15.24"/><rect x="272.2" y="408.3" width="15.24" height="15.24"/><rect x="317.57" y="408.3" width="15.24" height="15.24"/><rect x="347.81" y="408.3" width="15.24" height="15.24"/><rect x="362.93" y="408.3" width="15.24" height="15.24"/><rect x="378.06" y="408.3" width="15.24" height="15.24"/><rect x="393.18" y="408.3" width="15.24" height="15.24"/><rect x="423.42" y="408.3" width="15.24" height="15.24"/><rect y="423.42" width="15.24" height="15.24"/><rect x="15.12" y="423.42" width="15.24" height="15.24"/><rect x="30.24" y="423.42" width="15.24" height="15.24"/><rect x="45.37" y="423.42" width="15.24" height="15.24"/><rect x="60.49" y="423.42" width="15.24" height="15.24"/><rect x="75.61" y="423.42" width="15.24" height="15.24"/><rect x="90.73" y="423.42" width="15.24" height="15.24"/><rect x="120.98" y="423.42" width="15.24" height="15.24"/><rect x="151.22" y="423.42" width="15.24" height="15.24"/><rect x="181.47" y="423.42" width="15.24" height="15.24"/><rect x="211.71" y="423.42" width="15.24" height="15.24"/><rect x="226.83" y="423.42" width="15.24" height="15.24"/><rect x="257.08" y="423.42" width="15.24" height="15.24"/><rect x="287.32" y="423.42" width="15.24" height="15.24"/><rect x="317.57" y="423.42" width="15.24" height="15.24"/><rect x="332.69" y="423.42" width="15.24" height="15.24"/><rect x="393.18" y="423.42" width="15.24" height="15.24"/></g></g></svg>