<svg width="183" height="50" viewBox="0 0 183 50" fill="none" xmlns="http://www.w3.org/2000/svg">
<g filter="url(#filter0_d_255_149)">
<path d="M4 21C4 9.40202 13.402 0 25 0H158C169.598 0 179 9.40202 179 21C179 32.598 169.598 42 158 42H25C13.402 42 4 32.598 4 21Z" fill="white"/>
<path d="M4.6 21C4.6 9.73339 13.7334 0.6 25 0.6H158C169.267 0.6 178.4 9.73339 178.4 21C178.4 32.2666 169.267 41.4 158 41.4H25C13.7334 41.4 4.6 32.2666 4.6 21Z" stroke="#978EFF" stroke-width="1.2"/>
</g>
<path d="M50.716 14.366V20.96H52.186V14.366H50.716ZM43.8 21.534V22.668H50.73V23.718H43.828V26.378H45.256V24.768H52.186V21.534H43.8ZM43.828 25.902V27.05H52.564V25.902H43.828ZM44.906 15.542V16.13C44.906 17.74 43.772 19.28 41.756 19.896L42.442 21.044C44.752 20.33 46.11 18.384 46.11 16.13V15.542H44.906ZM45.214 15.542V16.13C45.214 18.272 46.558 20.106 48.854 20.778L49.54 19.644C47.552 19.07 46.404 17.642 46.404 16.13V15.542H45.214ZM42.148 15.024V16.2H49.134V15.024H42.148ZM53.9489 20.806V21.982H65.5409V20.806H53.9489ZM59.1289 21.548V24.376H60.5849V21.548H59.1289ZM55.4049 14.94V19.546H64.0429V14.94H55.4049ZM62.6009 16.102V18.384H56.8469V16.102H62.6009ZM55.3629 25.72V26.91H64.2529V25.72H55.3629ZM55.3629 23.214V26.126H56.8189V23.214H55.3629ZM66.2678 21.212V22.388H77.8318V21.212H66.2678ZM71.3078 19.574V21.562H72.7638V19.574H71.3078ZM67.5558 23.354V24.53H74.9058V27.162H76.3758V23.354H67.5558ZM67.7518 18.93V20.064H76.5298V18.93H67.7518ZM67.7518 14.688V19.49H69.2078V15.822H76.4458V14.688H67.7518ZM68.7878 16.802V17.894H76.1378V16.802H68.7878ZM90.2432 14.352V27.176H91.7132V14.352H90.2432ZM84.8952 15.304C82.9912 15.304 81.6052 17.054 81.6052 19.812C81.6052 22.57 82.9912 24.334 84.8952 24.334C86.8132 24.334 88.1992 22.57 88.1992 19.812C88.1992 17.054 86.8132 15.304 84.8952 15.304ZM84.8952 16.634C86.0152 16.634 86.7852 17.824 86.7852 19.812C86.7852 21.814 86.0152 23.018 84.8952 23.018C83.7752 23.018 83.0052 21.814 83.0052 19.812C83.0052 17.824 83.7752 16.634 84.8952 16.634ZM102.94 14.366V24.054H104.326V14.366H102.94ZM98.6002 17.992V19.182H100.854V17.992H98.6002ZM100.434 14.604V23.676H101.82V14.604H100.434ZM94.0082 15.374V21.73H99.0062V15.374H97.6342V17.432H95.3942V15.374H94.0082ZM95.3942 18.566H97.6342V20.554H95.3942V18.566ZM95.8702 25.72V26.91H104.69V25.72H95.8702ZM95.8702 22.766V26.392H97.3402V22.766H95.8702ZM107.251 21.128V22.29H116.127V21.128H107.251ZM105.823 24.39V25.594H117.415V24.39H105.823ZM107.251 15.388V21.464H108.735V16.578H116.001V15.388H107.251ZM108.273 18.23V19.378H115.721V18.23H108.273ZM129.252 14.366V21.87H130.722V14.366H129.252ZM130.302 17.558V18.762H132.514V17.558H130.302ZM126.592 22.122C123.974 22.122 122.322 23.06 122.322 24.642C122.322 26.224 123.974 27.162 126.592 27.162C129.196 27.162 130.848 26.224 130.848 24.642C130.848 23.06 129.196 22.122 126.592 22.122ZM126.592 23.298C128.356 23.298 129.406 23.76 129.406 24.642C129.406 25.496 128.356 25.972 126.592 25.972C124.814 25.972 123.764 25.496 123.764 24.642C123.764 23.76 124.814 23.298 126.592 23.298ZM121.23 19.826V21.016H122.252C125.038 21.016 126.536 20.946 128.216 20.596L128.062 19.406C126.424 19.756 124.982 19.826 122.252 19.826H121.23ZM121.23 15.29V20.624H122.686V16.48H126.914V15.29H121.23ZM136.083 16.564V17.082C136.083 18.65 134.963 20.092 132.989 20.666L133.689 21.814C135.971 21.114 137.273 19.266 137.273 17.082V16.564H136.083ZM136.349 16.564V17.082C136.349 19.182 137.693 20.946 139.989 21.59L140.661 20.442C138.687 19.896 137.553 18.552 137.553 17.082V16.564H136.349ZM133.395 15.766V16.928H140.241V15.766H133.395ZM136.083 14.31V16.256H137.553V14.31H136.083ZM139.905 17.838V19.028H142.565V17.838H139.905ZM142.173 14.366V21.898H143.643V14.366H142.173ZM135.243 22.514V27.008H143.643V22.514H135.243ZM142.201 23.676V25.832H136.685V23.676H142.201ZM148.388 16.284V18.076C148.388 20.218 147.072 22.626 145.112 23.564L145.952 24.726C148.108 23.662 149.55 20.834 149.55 18.076V16.284H148.388ZM148.682 16.284V18.076C148.682 20.694 150.068 23.368 152.224 24.404L153.05 23.242C151.09 22.332 149.844 20.064 149.844 18.076V16.284H148.682ZM145.588 15.64V16.858H152.546V15.64H145.588ZM153.806 14.366V27.162H155.276V14.366H153.806ZM154.94 19.406V20.624H157.264V19.406H154.94Z" fill="#242424"/>
<path d="M23.9515 19.3125C23.9506 18.6457 24.0816 17.9852 24.337 17.3692C24.5924 16.7532 24.9672 16.1938 25.4397 15.7232C25.9122 15.2527 26.4731 14.8802 27.0902 14.6274C27.7073 14.3746 28.3683 14.2463 29.0351 14.25C31.8195 14.2711 34.0484 16.5844 34.0484 19.3758V19.875C34.0484 22.3922 34.5758 23.8547 35.0398 24.6563C35.0891 24.7416 35.1151 24.8385 35.1152 24.937C35.1153 25.0356 35.0894 25.1325 35.0403 25.2179C34.9912 25.3034 34.9204 25.3744 34.8352 25.4239C34.75 25.4734 34.6532 25.4997 34.5547 25.5H23.4453C23.3467 25.4997 23.25 25.4734 23.1647 25.4239C23.0795 25.3744 23.0088 25.3034 22.9596 25.2179C22.9105 25.1325 22.8847 25.0356 22.8848 24.937C22.8849 24.8385 22.9108 24.7416 22.9601 24.6563C23.4242 23.8547 23.9515 22.3922 23.9515 19.875V19.3125Z" stroke="#242424" stroke-width="1.2" stroke-linecap="round" stroke-linejoin="round"/>
<path d="M26.75 25.5V26.0625C26.75 26.6592 26.9871 27.2315 27.409 27.6535C27.831 28.0754 28.4033 28.3125 29 28.3125C29.5967 28.3125 30.169 28.0754 30.591 27.6535C31.0129 27.2315 31.25 26.6592 31.25 26.0625V25.5" stroke="#242424" stroke-width="1.2" stroke-linecap="round" stroke-linejoin="round"/>
<defs>
<filter id="filter0_d_255_149" x="0" y="0" width="183" height="50" filterUnits="userSpaceOnUse" color-interpolation-filters="sRGB">
<feFlood flood-opacity="0" result="BackgroundImageFix"/>
<feColorMatrix in="SourceAlpha" type="matrix" values="0 0 0 0 0 0 0 0 0 0 0 0 0 0 0 0 0 0 127 0" result="hardAlpha"/>
<feOffset dy="4"/>
<feGaussianBlur stdDeviation="2"/>
<feComposite in2="hardAlpha" operator="out"/>
<feColorMatrix type="matrix" values="0 0 0 0 0 0 0 0 0 0 0 0 0 0 0 0 0 0 0.1 0"/>
<feBlend mode="normal" in2="BackgroundImageFix" result="effect1_dropShadow_255_149"/>
<feBlend mode="normal" in="SourceGraphic" in2="effect1_dropShadow_255_149" result="shape"/>
</filter>
</defs>
</svg>
