<svg width="328" height="247" viewBox="0 0 328 247" fill="none" xmlns="http://www.w3.org/2000/svg">
<path d="M0 18C0 8.05887 8.05888 0 18 0H310C319.941 0 328 8.05888 328 18V285C328 294.941 319.941 303 310 303H18C8.05888 303 0 294.941 0 285V18Z" fill="#FFFAEA"/>
<path d="M80.2753 113.23C80.3173 112.754 80.3033 111.956 80.2753 111.466C79.7293 111.452 78.6933 111.438 77.5593 111.438C77.5733 111.06 77.5593 110.668 77.5453 110.36C76.9853 110.276 75.7253 110.276 75.3473 110.36C75.3193 110.668 75.3193 111.074 75.3193 111.438C73.8773 111.438 72.6593 111.452 72.3793 111.466C72.3233 111.984 72.3233 112.698 72.3793 113.23C73.2053 113.258 79.0573 113.258 80.2753 113.23ZM80.6393 115.82C80.5973 116.352 80.5973 117.164 80.6393 117.696C80.9613 117.71 81.4513 117.724 81.9553 117.724C81.9553 118.942 81.9693 119.922 81.9833 120.3C82.4733 120.342 83.6353 120.356 84.0693 120.3C84.1113 118.914 84.0973 112.082 84.0693 110.57C83.5793 110.5 82.3613 110.514 81.9833 110.57C81.9693 110.836 81.9693 111.48 81.9553 112.334C81.4373 112.334 80.9473 112.334 80.6393 112.348C80.5973 112.88 80.5973 113.692 80.6393 114.224C80.9613 114.238 81.4373 114.252 81.9553 114.252V115.806C81.4233 115.806 80.9473 115.806 80.6393 115.82ZM80.1913 116.296C80.1913 114.28 79.1833 113.65 76.4393 113.65C73.6953 113.65 72.6873 114.28 72.6873 116.296C72.6873 118.312 73.6953 118.942 76.4393 118.942C79.1833 118.942 80.1913 118.312 80.1913 116.296ZM74.6473 116.296C74.6473 115.554 75.0113 115.302 76.4393 115.302C77.8673 115.302 78.2313 115.554 78.2313 116.296C78.2313 117.038 77.8673 117.29 76.4393 117.29C75.0113 117.29 74.6473 117.038 74.6473 116.296ZM84.3073 121.392C83.2573 121.364 79.0573 121.378 75.9633 121.392C75.9913 120.636 75.9913 120.244 75.9633 119.544C75.4593 119.502 74.3113 119.502 73.8773 119.544C73.8353 120.37 73.8073 122.176 73.8773 123.212C75.1513 123.282 83.1873 123.282 84.3073 123.212C84.3633 122.694 84.3633 121.896 84.3073 121.392ZM96.9622 110.57C96.5422 110.486 95.3382 110.486 94.9602 110.57C94.9602 111.172 94.9462 113.118 94.9462 115.316C94.7222 115.302 94.4982 115.302 94.2742 115.302C94.2742 113.216 94.2602 111.34 94.2462 110.64C93.8262 110.57 92.6222 110.556 92.2442 110.64C92.2022 112.11 92.1882 121.35 92.2442 123.044C92.7342 123.086 93.8682 123.086 94.2462 123.044C94.2462 122.246 94.2602 119.782 94.2602 117.234H94.9462C94.9462 119.838 94.9462 122.372 94.9602 123.17C95.4502 123.198 96.5842 123.226 96.9622 123.17C96.9902 121.476 96.9902 112.32 96.9622 110.57ZM89.6402 112.824C90.4242 112.81 91.1382 112.81 91.6002 112.796C91.6422 112.306 91.6422 111.494 91.6002 110.962C89.0942 110.906 86.6022 110.934 85.4682 110.962C85.4122 111.466 85.4122 112.236 85.4682 112.796C85.8462 112.81 86.5742 112.824 87.4142 112.824C87.4002 113.944 87.3862 115.582 87.4142 116.856C86.5742 118.536 85.6922 120.37 85.0762 121.672C85.4402 121.966 86.3222 122.386 86.7702 122.484C87.2042 121.686 87.8622 120.342 88.5342 118.886C89.2342 120.286 89.9062 121.588 90.3542 122.33C90.8722 122.19 91.6842 121.728 92.0342 121.378C91.4042 120.118 90.5222 118.48 89.6402 116.884C89.6682 115.638 89.6542 113.972 89.6402 112.824ZM113.509 112.712C113.215 112.698 112.795 112.684 112.305 112.684C112.291 111.844 112.291 111.074 112.277 110.57C111.787 110.5 110.569 110.514 110.191 110.57C110.149 111.634 110.149 116.114 110.191 117.318C110.681 117.36 111.843 117.374 112.277 117.318C112.291 116.744 112.305 115.736 112.305 114.644C112.865 114.644 113.285 114.63 113.509 114.602C113.551 114.07 113.551 113.244 113.509 112.712ZM109.449 116.968C109.491 116.324 109.491 115.792 109.449 115.246C109.127 115.232 108.693 115.232 108.203 115.218C108.203 114.42 108.203 113.3 108.189 112.558C108.637 112.544 109.029 112.544 109.337 112.53C109.365 111.914 109.365 111.326 109.337 110.808C108.035 110.752 103.681 110.766 101.357 110.808C101.315 111.326 101.315 111.984 101.357 112.53C101.637 112.544 102.015 112.544 102.449 112.558C102.435 113.314 102.435 114.42 102.449 115.232C101.959 115.232 101.553 115.232 101.245 115.246C101.203 115.792 101.203 116.394 101.245 116.968C102.897 117.024 107.643 117.024 109.449 116.968ZM104.493 112.572H106.159C106.145 113.314 106.145 114.42 106.159 115.204C105.599 115.204 105.039 115.204 104.493 115.218V112.572ZM110.219 118.83C108.441 118.816 105.683 118.816 103.933 118.83V117.892C103.611 117.864 102.253 117.836 101.875 117.892C101.805 118.9 101.805 121.686 101.875 123.212C102.967 123.31 111.339 123.296 112.277 123.212C112.333 121.588 112.319 119.404 112.277 117.892C111.759 117.864 110.807 117.864 110.219 117.892V118.83ZM103.933 120.566C105.669 120.58 108.343 120.58 110.219 120.566V121.462C109.197 121.49 105.235 121.49 103.933 121.462V120.566ZM123.531 114.728C123.531 115.708 123.545 116.59 123.559 117.038C124.049 117.08 125.211 117.094 125.645 117.038C125.687 115.652 125.673 112.082 125.645 110.57C125.155 110.5 123.937 110.514 123.559 110.57C123.545 110.962 123.531 111.802 123.531 112.754C122.929 112.754 122.369 112.754 122.019 112.768C121.977 113.3 121.977 114.168 122.019 114.7C122.383 114.714 122.943 114.728 123.531 114.728ZM121.683 113.79C121.683 111.774 120.535 110.654 117.903 110.654C115.271 110.654 114.123 111.774 114.123 113.79C114.123 115.82 115.271 116.926 117.903 116.926C120.535 116.926 121.683 115.82 121.683 113.79ZM116.153 113.79C116.153 112.894 116.643 112.418 117.903 112.418C119.135 112.418 119.653 112.894 119.653 113.79C119.653 114.686 119.135 115.162 117.903 115.162C116.643 115.162 116.153 114.686 116.153 113.79ZM125.645 117.682C125.127 117.654 124.315 117.654 123.587 117.682V118.746C121.823 118.732 119.065 118.732 117.301 118.746V117.682C116.979 117.654 115.621 117.626 115.243 117.682C115.173 118.69 115.173 121.686 115.243 123.212C116.335 123.31 124.707 123.296 125.645 123.212C125.701 121.588 125.687 119.194 125.645 117.682ZM117.301 120.482C119.037 120.496 121.725 120.496 123.587 120.482V121.462C122.565 121.49 118.603 121.49 117.301 121.462V120.482ZM138.678 110.57C138.258 110.486 137.054 110.486 136.676 110.57C136.662 112.04 136.648 121.476 136.676 123.17C137.166 123.198 138.3 123.226 138.678 123.17C138.706 121.476 138.706 112.32 138.678 110.57ZM133.974 110.64C133.96 111.242 133.946 113.132 133.946 115.274H133.036C132.868 111.718 131.958 110.64 129.956 110.64C127.73 110.64 126.834 111.984 126.834 116.604C126.834 121.224 127.73 122.568 129.956 122.568C132.07 122.568 132.98 121.35 133.064 117.248C133.344 117.248 133.638 117.248 133.932 117.234C133.932 119.782 133.946 122.246 133.974 123.044C134.464 123.086 135.598 123.086 135.976 123.044C135.99 121.378 136.018 112.404 135.976 110.64C135.556 110.57 134.352 110.556 133.974 110.64ZM129.956 120.608C129.13 120.608 128.92 120.048 128.92 116.604C128.92 113.16 129.13 112.6 129.956 112.6C130.782 112.6 130.978 113.16 130.978 116.604C130.978 120.048 130.782 120.608 129.956 120.608ZM151.403 110.57C150.913 110.5 149.681 110.486 149.303 110.57C149.289 111.158 149.275 112.754 149.275 114.63C148.435 114.616 147.469 114.63 146.699 114.658C146.643 115.19 146.643 116.114 146.699 116.646C147.343 116.674 148.351 116.688 149.261 116.688C149.261 119.488 149.275 122.344 149.303 123.17C149.793 123.212 150.969 123.226 151.403 123.17C151.459 121.504 151.459 112.488 151.403 110.57ZM144.893 110.906C144.403 110.822 143.073 110.836 142.695 110.906C142.667 111.564 142.653 113.762 142.667 115.512C141.715 117.388 140.301 120.16 139.643 121.476C139.993 121.84 141.015 122.33 141.421 122.428C141.897 121.644 142.933 119.6 143.815 117.71C144.865 119.53 146.111 121.504 146.629 122.232C147.021 122.106 147.945 121.476 148.281 121.084C147.567 119.852 146.013 117.43 144.921 115.666C144.935 113.944 144.921 111.69 144.893 110.906ZM165.024 113.776C164.73 113.762 164.31 113.748 163.82 113.748C163.806 112.362 163.806 111.144 163.792 110.57C163.302 110.5 162.084 110.514 161.706 110.57C161.664 111.634 161.664 118.396 161.706 119.6C162.196 119.642 163.358 119.656 163.792 119.6C163.806 118.984 163.82 117.402 163.82 115.708C164.38 115.708 164.8 115.694 165.024 115.666C165.066 115.134 165.066 114.308 165.024 113.776ZM160.04 117.416C160.11 116.086 160.11 112.334 160.04 110.808C158.976 110.752 153.768 110.752 152.9 110.808C152.844 112.236 152.844 115.89 152.9 117.416C153.992 117.486 159.102 117.472 160.04 117.416ZM154.916 112.558C155.798 112.544 157.324 112.53 158.052 112.558C158.08 113.062 158.08 115.176 158.052 115.666C157.31 115.708 155.658 115.694 154.916 115.666C154.888 115.162 154.888 113.062 154.916 112.558ZM155.686 121.392C155.714 120.636 155.714 119.194 155.686 118.494C155.182 118.452 154.034 118.452 153.6 118.494C153.558 119.32 153.53 122.176 153.6 123.212C154.874 123.282 162.91 123.282 164.03 123.212C164.086 122.694 164.086 121.896 164.03 121.392C162.98 121.364 158.78 121.378 155.686 121.392Z" fill="#FF7A00"/>
<path d="M169.321 123.856C169.965 123.884 172.443 123.926 173.003 123.856C173.045 123.436 173.045 122.834 173.003 122.386C172.429 122.358 171.477 122.358 170.987 122.386V111.97C171.477 111.998 172.429 111.998 173.003 111.97C173.045 111.522 173.045 110.92 173.003 110.486C172.443 110.416 169.965 110.458 169.321 110.486C169.265 113.104 169.265 121.644 169.321 123.856ZM184.831 115.764C184.873 115.134 184.873 111.48 184.831 110.584C184.411 110.542 183.641 110.542 183.207 110.584V111.774C181.583 111.76 177.985 111.76 176.431 111.774V110.584C176.053 110.542 175.227 110.542 174.807 110.584C174.779 111.396 174.779 114.784 174.807 115.764C175.913 115.834 183.865 115.82 184.831 115.764ZM183.207 114.406C182.087 114.434 177.635 114.434 176.431 114.406V113.132C177.971 113.146 181.583 113.146 183.207 113.132V114.406ZM185.797 116.94C183.991 116.898 176.809 116.884 173.841 116.94C173.799 117.346 173.799 117.934 173.841 118.312C174.807 118.34 176.991 118.354 179.245 118.354C179.245 119.054 179.259 119.768 179.273 120.258C179.721 120.286 180.617 120.314 180.939 120.258C180.953 119.726 180.953 119.026 180.953 118.354C183.095 118.354 185.055 118.34 185.797 118.312C185.839 117.892 185.839 117.318 185.797 116.94ZM176.333 121.714C176.361 121.098 176.361 120.16 176.333 119.432C175.941 119.39 175.003 119.376 174.667 119.418C174.625 120.244 174.597 122.134 174.667 123.142C175.927 123.212 184.089 123.212 185.307 123.142C185.363 122.736 185.363 122.106 185.307 121.714C184.145 121.686 178.965 121.7 176.333 121.714ZM196.548 114.084C196.548 115.526 196.562 116.968 196.576 117.612C196.982 117.654 197.85 117.668 198.2 117.612C198.242 116.198 198.228 112.082 198.2 110.612C197.808 110.556 196.898 110.556 196.576 110.612C196.562 110.99 196.548 111.718 196.548 112.572C195.638 112.558 194.434 112.558 193.972 112.572C193.93 112.978 193.93 113.65 193.972 114.07C194.434 114.098 195.652 114.112 196.548 114.084ZM194.154 117.108C194.42 116.87 194.896 116.226 195.064 115.862L191.676 113.258C191.69 112.516 191.676 111.41 191.662 110.752C191.256 110.682 190.304 110.682 189.968 110.752C189.954 111.41 189.94 112.53 189.954 113.272C188.918 114.224 187.602 115.428 186.692 116.282C186.888 116.632 187.42 117.22 187.714 117.444C188.694 116.59 189.842 115.54 190.836 114.574C191.886 115.428 193.104 116.352 194.154 117.108ZM198.2 118.284C196.856 118.214 189.058 118.228 187.924 118.284C187.868 118.69 187.868 119.32 187.924 119.74C189.002 119.782 193.944 119.74 196.59 119.74C196.59 120.65 196.562 122.344 196.59 123.114C196.982 123.156 197.864 123.156 198.2 123.114C198.242 122.358 198.27 119.614 198.2 118.284ZM214.76 115.442C214.396 115.428 213.92 115.428 213.388 115.428C213.388 113.286 213.374 111.368 213.346 110.612C212.954 110.556 212.03 110.542 211.708 110.612C211.666 112.292 211.652 121.476 211.708 123.128C212.114 123.17 212.996 123.17 213.346 123.128C213.374 122.302 213.388 119.684 213.388 117.01C213.976 117.024 214.438 117.01 214.76 116.982C214.802 116.562 214.802 115.848 214.76 115.442ZM207.396 112.516C208.642 112.516 209.776 112.502 210.28 112.488C210.322 112.11 210.322 111.466 210.28 111.046C208.306 111.004 203.84 111.018 202.776 111.046C202.734 111.438 202.734 112.068 202.776 112.488C203.196 112.516 204.358 112.516 205.66 112.516C205.646 113.496 205.646 114.952 205.66 116.114C204.456 118.13 203.14 120.328 202.412 121.602C202.692 121.882 203.392 122.288 203.784 122.386C204.414 121.406 205.59 119.39 206.556 117.64C207.564 119.222 208.684 120.888 209.58 122.134C210.07 121.938 210.546 121.602 210.84 121.21C210.028 119.978 208.544 117.822 207.41 116.17C207.424 115.022 207.41 113.538 207.396 112.516ZM226.701 118.452C226.757 118.046 226.757 117.43 226.701 117.024C225.525 116.996 219.015 117.01 217.909 117.024V115.456C219.155 115.47 225.217 115.512 226.421 115.456C226.505 113.972 226.519 112.53 226.421 111.046C225.035 110.976 217.363 110.976 216.299 111.032C216.243 111.438 216.243 112.054 216.299 112.46C217.461 112.488 223.649 112.488 224.769 112.46V114.028C223.901 114 217.405 114 216.243 114.028C216.159 115.484 216.145 116.954 216.243 118.452C217.699 118.522 225.539 118.494 226.701 118.452ZM227.373 121.308C226.981 121.294 226.043 121.294 224.867 121.294C224.867 120.454 224.867 119.516 224.853 119.096C224.489 119.04 223.621 119.04 223.201 119.096C223.187 119.572 223.173 120.482 223.187 121.28H219.603C219.603 120.482 219.603 119.572 219.589 119.096C219.169 119.04 218.287 119.04 217.937 119.096C217.923 119.516 217.909 120.454 217.923 121.294C216.901 121.294 216.005 121.294 215.417 121.308C215.375 121.742 215.375 122.33 215.417 122.736C217.153 122.792 226.057 122.82 227.373 122.736C227.415 122.274 227.415 121.728 227.373 121.308ZM239.636 116.94C239.678 115.582 239.664 112.04 239.636 110.612C239.244 110.556 238.334 110.556 238.012 110.612C237.97 111.732 237.97 115.708 238.012 116.94C238.418 116.982 239.286 116.996 239.636 116.94ZM235.898 116.744C236.136 116.478 236.514 115.862 236.64 115.484C235.52 114.896 234.4 114.28 233.294 113.692C233.308 113.258 233.308 112.768 233.294 112.334C234.568 112.32 235.716 112.32 236.22 112.306C236.262 111.928 236.262 111.312 236.22 110.906C234.246 110.85 229.668 110.878 228.604 110.906C228.548 111.298 228.548 111.872 228.604 112.306C229.024 112.32 230.242 112.334 231.586 112.334C231.572 112.782 231.572 113.286 231.586 113.706C230.494 114.434 229.374 115.204 228.31 115.904C228.464 116.268 228.912 116.856 229.164 117.108C230.2 116.464 231.404 115.68 232.468 114.924C233.588 115.554 234.792 116.184 235.898 116.744ZM239.636 117.612C239.23 117.584 238.6 117.584 238.026 117.612V118.914C236.108 118.9 233.056 118.9 231.166 118.914V117.612C230.886 117.584 229.892 117.57 229.57 117.612C229.5 118.592 229.5 121.63 229.57 123.114C231.096 123.212 238.208 123.198 239.636 123.114C239.692 121.532 239.678 119.082 239.636 117.612ZM231.166 120.286C233.042 120.3 236.038 120.3 238.026 120.286V121.742C236.808 121.77 232.608 121.77 231.166 121.742V120.286ZM241.077 123.856C241.651 123.926 244.129 123.884 244.773 123.856C244.829 121.644 244.829 113.202 244.773 110.584C244.129 110.556 241.651 110.514 241.077 110.584C241.035 111.018 241.035 111.62 241.077 112.068C241.651 112.096 242.603 112.096 243.107 112.068V122.386C242.603 122.358 241.651 122.358 241.077 122.386C241.035 122.834 241.035 123.436 241.077 123.856ZM53.6223 145.856C54.2663 145.884 56.7443 145.926 57.3043 145.856C57.3463 145.436 57.3463 144.834 57.3043 144.386C56.7303 144.358 55.7783 144.358 55.2883 144.386V133.97C55.7783 133.998 56.7303 133.998 57.3043 133.97C57.3463 133.522 57.3463 132.92 57.3043 132.486C56.7443 132.416 54.2663 132.458 53.6223 132.486C53.5663 135.104 53.5663 143.644 53.6223 145.856ZM65.5487 135.16C65.5067 135.566 65.5067 136.238 65.5487 136.658C65.9687 136.672 66.9907 136.686 67.8307 136.686C67.8307 137.904 67.8447 139.052 67.8587 139.598C68.2647 139.64 69.1327 139.654 69.4827 139.598C69.5247 138.198 69.5107 134.082 69.4827 132.612C69.0907 132.556 68.1807 132.556 67.8587 132.612C67.8447 133.074 67.8307 134.054 67.8307 135.146C66.9767 135.146 65.9547 135.146 65.5487 135.16ZM65.3527 139.276C65.6187 139.01 66.0107 138.352 66.1507 137.988C65.1007 137.386 64.0087 136.756 62.9447 136.154V134.334C64.1347 134.32 65.2407 134.32 65.7307 134.306C65.7727 133.928 65.7727 133.312 65.7307 132.906C63.7567 132.85 59.4307 132.878 58.3807 132.906C58.3247 133.298 58.3247 133.872 58.3807 134.306C58.8007 134.32 59.9487 134.334 61.2227 134.334V136.21C60.2007 136.938 59.1087 137.708 58.1147 138.422C58.2827 138.786 58.7307 139.388 59.0107 139.626C59.9767 138.982 61.1107 138.198 62.1327 137.442C63.1687 138.072 64.3027 138.716 65.3527 139.276ZM64.3867 139.976C60.3127 139.976 59.0527 140.732 59.0527 142.65C59.0527 144.456 60.1727 145.338 64.3867 145.338C68.4607 145.338 69.7207 144.568 69.7207 142.65C69.7207 140.858 68.6007 139.976 64.3867 139.976ZM64.3867 143.924C61.1947 143.924 60.7047 143.448 60.7047 142.65C60.7047 141.838 61.1807 141.39 64.3867 141.39C67.5787 141.39 68.0687 141.866 68.0687 142.65C68.0687 143.476 67.5927 143.924 64.3867 143.924ZM82.5156 132.612C82.1236 132.556 81.1996 132.542 80.8636 132.612C80.8216 134.292 80.8216 143.476 80.8636 145.128C81.2696 145.17 82.1656 145.17 82.5156 145.128C82.5576 143.462 82.5576 134.488 82.5156 132.612ZM75.8936 132.948C75.4876 132.878 74.5076 132.878 74.1716 132.948C74.1436 133.732 74.1296 135.986 74.1576 137.694C73.1636 139.542 71.6656 142.314 70.9796 143.63C71.2596 143.924 72.0436 144.302 72.3796 144.386C72.9396 143.476 74.1156 141.236 75.0396 139.374C76.1176 141.18 77.5176 143.322 78.1336 144.19C78.4696 144.078 79.1696 143.602 79.4356 143.28C78.6656 142.034 77.0416 139.57 75.9076 137.834C75.9356 136.168 75.9216 133.816 75.8936 132.948ZM98.4739 132.612C98.1379 132.542 97.2279 132.542 96.9059 132.612C96.8919 133.256 96.8919 135.23 96.8919 137.428C96.4579 137.414 95.9679 137.414 95.5059 137.414C95.5059 135.3 95.4919 133.396 95.4779 132.682C95.1419 132.612 94.2319 132.612 93.9099 132.682C93.8679 134.236 93.8539 143.308 93.9099 145.002C94.3159 145.044 95.1699 145.044 95.4779 145.002C95.4919 144.176 95.5059 141.572 95.5059 138.94C95.9819 138.94 96.4719 138.94 96.8919 138.926C96.8919 141.614 96.8919 144.288 96.9059 145.128C97.3119 145.156 98.1659 145.184 98.4739 145.128C98.5019 143.448 98.5159 134.362 98.4739 132.612ZM91.0259 133.004V136.798C90.3539 136.784 89.4299 136.784 88.7019 136.798C88.7019 135.048 88.7019 133.494 88.6879 133.004C88.3099 132.962 87.5679 132.962 87.1479 133.004C87.0919 135.608 87.1059 142.692 87.1479 144.134C88.2399 144.232 91.6139 144.204 92.5939 144.134C92.6079 142.664 92.6219 135.552 92.5939 133.004C92.1599 132.962 91.4599 132.962 91.0259 133.004ZM91.0259 142.72C90.5499 142.748 89.2339 142.748 88.6879 142.72C88.6879 141.978 88.6879 140.144 88.7019 138.254C89.4159 138.268 90.3399 138.268 91.0259 138.254V142.72ZM104.563 135.468C105.893 135.468 107.125 135.454 107.629 135.44C107.671 135.062 107.671 134.418 107.629 134.012C106.887 133.998 105.753 133.984 104.563 133.984C104.577 133.424 104.563 132.808 104.549 132.472C104.143 132.402 103.163 132.402 102.841 132.472C102.827 132.808 102.813 133.424 102.813 133.984C101.441 133.984 100.237 133.998 99.7608 134.012C99.7188 134.404 99.7188 135.02 99.7608 135.44C100.181 135.468 101.441 135.468 102.827 135.468C102.813 136.182 102.799 137.218 102.813 138.198C101.735 139.99 100.363 142.3 99.5928 143.63C99.8588 143.924 100.531 144.288 100.923 144.386C101.553 143.42 102.743 141.404 103.723 139.654C104.815 141.32 106.159 143.308 106.831 144.176C107.321 143.98 107.769 143.63 108.063 143.238C107.237 142.02 105.739 139.822 104.563 138.184C104.577 137.232 104.577 136.21 104.563 135.468ZM111.213 132.612C110.821 132.556 109.897 132.542 109.561 132.612C109.519 134.292 109.519 143.476 109.561 145.128C109.967 145.17 110.863 145.17 111.213 145.128C111.255 143.462 111.255 134.488 111.213 132.612ZM123.98 139.738C124.022 139.234 124.022 138.73 123.98 138.31C123.504 138.296 122.748 138.282 121.838 138.282C121.852 137.232 121.852 135.664 121.838 134.628C122.678 134.614 123.378 134.614 123.84 134.6C123.882 134.124 123.882 133.578 123.84 133.172C122.174 133.116 115.678 133.13 113.326 133.172C113.284 133.578 113.284 134.166 113.326 134.6C113.76 134.614 114.46 134.614 115.314 134.628C115.3 135.664 115.3 137.246 115.314 138.282C114.404 138.296 113.648 138.296 113.186 138.31C113.144 138.73 113.144 139.29 113.186 139.738C115.118 139.78 121.95 139.78 123.98 139.738ZM116.938 134.628H120.214C120.2 135.678 120.2 137.232 120.214 138.268C119.15 138.268 118.002 138.268 116.938 138.282C116.952 137.232 116.952 135.678 116.938 134.628ZM124.554 143.308C124.162 143.294 123.28 143.294 122.132 143.294C122.146 142.314 122.146 141.054 122.118 140.508C121.768 140.452 120.9 140.452 120.466 140.508C120.438 141.096 120.452 142.342 120.452 143.28H116.686C116.686 142.342 116.7 141.096 116.672 140.508C116.252 140.452 115.384 140.452 115.02 140.508C115.006 141.054 114.992 142.314 115.006 143.294C114.026 143.294 113.172 143.294 112.598 143.308C112.556 143.742 112.556 144.33 112.598 144.736C114.334 144.792 123.238 144.82 124.554 144.736C124.596 144.274 124.596 143.728 124.554 143.308ZM125.379 145.856C125.953 145.926 128.431 145.884 129.075 145.856C129.131 143.644 129.131 135.202 129.075 132.584C128.431 132.556 125.953 132.514 125.379 132.584C125.337 133.018 125.337 133.62 125.379 134.068C125.953 134.096 126.905 134.096 127.409 134.068V144.386C126.905 144.358 125.953 144.358 125.379 144.386C125.337 144.834 125.337 145.436 125.379 145.856ZM134.532 145.856C135.176 145.884 137.654 145.926 138.214 145.856C138.256 145.436 138.256 144.834 138.214 144.386C137.64 144.358 136.688 144.358 136.198 144.386V133.97C136.688 133.998 137.64 133.998 138.214 133.97C138.256 133.522 138.256 132.92 138.214 132.486C137.654 132.416 135.176 132.458 134.532 132.486C134.476 135.104 134.476 143.644 134.532 145.856ZM150.687 132.612C150.351 132.542 149.441 132.542 149.119 132.612C149.105 133.256 149.105 135.244 149.105 137.442H147.677C147.677 135.314 147.663 133.396 147.649 132.682C147.299 132.612 146.403 132.612 146.081 132.682C146.039 134.236 146.025 143.308 146.081 145.002C146.487 145.044 147.341 145.044 147.649 145.002C147.649 144.176 147.663 141.586 147.663 138.954C148.167 138.968 148.685 138.968 149.105 138.954C149.105 141.628 149.105 144.288 149.119 145.128C149.525 145.156 150.379 145.184 150.687 145.128C150.715 143.448 150.729 134.362 150.687 132.612ZM140.943 142.678C140.957 140.69 140.957 136.42 140.943 134.53C141.853 134.558 143.729 134.558 144.667 134.53C144.723 134.11 144.723 133.466 144.667 133.06C143.561 133.004 140.579 133.018 139.361 133.06C139.291 134.642 139.277 142.524 139.361 144.134C140.397 144.19 144.275 144.176 145.227 144.134C145.283 143.728 145.283 143.098 145.227 142.678C144.163 142.65 141.867 142.65 140.943 142.678ZM159.996 135.02C160.038 134.642 160.024 134.04 159.996 133.648C159.45 133.634 158.246 133.634 156.902 133.634C156.916 133.186 156.902 132.682 156.888 132.36C156.44 132.276 155.502 132.276 155.166 132.36C155.152 132.682 155.138 133.2 155.152 133.634C153.57 133.634 152.156 133.634 151.82 133.648C151.764 134.054 151.764 134.614 151.82 135.02C152.702 135.048 158.848 135.048 159.996 135.02ZM164.224 135.566C163.93 135.552 163.426 135.538 162.908 135.538C162.894 134.334 162.894 133.214 162.88 132.612C162.488 132.556 161.578 132.556 161.256 132.612C161.214 133.83 161.214 138.982 161.256 140.312C161.662 140.354 162.53 140.368 162.88 140.312C162.894 139.668 162.908 138.408 162.908 137.064C163.468 137.078 163.986 137.064 164.224 137.036C164.266 136.616 164.266 135.972 164.224 135.566ZM156.02 140.102C158.652 140.102 159.828 139.542 159.828 137.82C159.828 136.14 158.736 135.538 156.02 135.538C153.388 135.538 152.212 136.098 152.212 137.82C152.212 139.5 153.304 140.102 156.02 140.102ZM156.02 136.854C157.7 136.854 158.288 137.12 158.288 137.82C158.288 138.52 157.742 138.8 156.02 138.8C154.34 138.8 153.752 138.52 153.752 137.82C153.752 137.12 154.298 136.854 156.02 136.854ZM152.646 140.984C152.59 141.39 152.59 142.02 152.646 142.44C153.71 142.482 158.624 142.44 161.256 142.44C161.256 143.28 161.228 144.4 161.256 145.114C161.662 145.156 162.544 145.156 162.88 145.114C162.922 144.4 162.936 142.23 162.88 140.984C161.536 140.914 153.766 140.928 152.646 140.984ZM172.763 136.294C172.721 136.7 172.721 137.33 172.763 137.75C173.169 137.764 173.953 137.778 174.653 137.778C174.653 138.212 174.653 138.59 174.667 138.856C175.073 138.898 175.941 138.912 176.291 138.856C176.333 137.498 176.319 134.04 176.291 132.612C175.899 132.556 174.989 132.556 174.667 132.612C174.653 132.822 174.653 133.144 174.653 133.508C173.939 133.508 173.155 133.508 172.763 133.522C172.721 133.928 172.721 134.558 172.763 134.978C173.155 134.992 173.953 135.006 174.639 135.006V136.28C173.939 136.28 173.155 136.28 172.763 136.294ZM172.105 138.366C172.147 137.68 172.147 133.984 172.105 132.808C171.671 132.766 170.943 132.766 170.509 132.808V134.25C169.473 134.236 167.877 134.236 166.841 134.25V132.808C166.463 132.766 165.665 132.766 165.245 132.808C165.217 133.858 165.217 137.33 165.245 138.366C166.435 138.436 171.041 138.422 172.105 138.366ZM166.841 135.594C167.863 135.608 169.473 135.608 170.509 135.594V136.994C169.781 137.022 167.667 137.022 166.841 136.994V135.594ZM167.709 143.812V142.888H176.291C176.361 142.244 176.361 139.99 176.291 139.43C174.499 139.388 169.487 139.388 166.099 139.43C166.057 139.724 166.057 140.382 166.099 140.746H174.653V141.656H166.071C166.001 142.832 166.029 144.414 166.071 145.114C167.835 145.198 175.395 145.198 176.529 145.114C176.557 144.764 176.571 144.176 176.529 143.812H167.709ZM189.841 134.628C189.813 135.342 189.813 140.41 189.841 141.292C190.233 141.348 191.157 141.348 191.493 141.292C191.563 140.382 191.563 134.418 191.493 133.172C190.065 133.102 182.659 133.13 181.455 133.172C181.399 133.578 181.399 134.222 181.455 134.628C182.617 134.67 187.419 134.628 189.841 134.628ZM192.585 143.308C191.843 143.294 189.239 143.28 186.579 143.28C186.593 141.698 186.579 138.352 186.565 137.582C186.159 137.512 185.277 137.498 184.913 137.582C184.885 138.296 184.871 141.67 184.885 143.28C183.135 143.28 181.539 143.294 180.629 143.308C180.587 143.742 180.587 144.33 180.629 144.736C182.365 144.792 191.269 144.82 192.585 144.736C192.627 144.274 192.627 143.728 192.585 143.308ZM205.87 137.442C205.506 137.428 205.03 137.428 204.498 137.428C204.498 135.286 204.484 133.368 204.456 132.612C204.064 132.556 203.14 132.542 202.818 132.612C202.776 134.292 202.762 143.476 202.818 145.128C203.224 145.17 204.106 145.17 204.456 145.128C204.484 144.302 204.498 141.684 204.498 139.01C205.086 139.024 205.548 139.01 205.87 138.982C205.912 138.562 205.912 137.848 205.87 137.442ZM198.324 132.948C197.932 132.878 196.938 132.878 196.616 132.948C196.588 133.732 196.574 135.986 196.602 137.68C195.594 139.542 194.11 142.314 193.424 143.63C193.704 143.924 194.488 144.302 194.824 144.386C195.384 143.476 196.56 141.25 197.484 139.388C198.562 141.18 199.948 143.322 200.564 144.19C200.9 144.078 201.614 143.602 201.866 143.28C201.11 142.034 199.472 139.556 198.352 137.834C198.366 136.168 198.352 133.816 198.324 132.948ZM219.182 138.45C219.588 138.492 220.456 138.492 220.806 138.45C220.848 137.106 220.834 134.026 220.806 132.612C220.414 132.556 219.504 132.556 219.182 132.612C219.14 133.718 219.14 137.232 219.182 138.45ZM213.274 138.156C215.892 138.156 217.068 137.19 217.068 135.412C217.068 133.662 215.892 132.668 213.274 132.668C210.656 132.668 209.48 133.662 209.48 135.412C209.48 137.19 210.656 138.156 213.274 138.156ZM213.274 136.756C211.664 136.756 211.104 136.252 211.104 135.412C211.104 134.572 211.664 134.068 213.274 134.068C214.87 134.068 215.444 134.572 215.444 135.412C215.444 136.252 214.87 136.756 213.274 136.756ZM210.586 145.114C212.35 145.198 219.91 145.198 221.044 145.114C221.072 144.764 221.086 144.162 221.044 143.798H212.224V142.748H220.806C220.876 141.908 220.876 139.878 220.806 139.122C219.014 139.08 214.002 139.08 210.614 139.122C210.572 139.402 210.572 140.088 210.614 140.452H219.168V141.474H210.586C210.516 142.678 210.544 144.4 210.586 145.114ZM229.611 135.16C229.569 135.566 229.569 136.238 229.611 136.658C230.031 136.672 231.053 136.686 231.893 136.686C231.893 137.904 231.907 139.052 231.921 139.598C232.327 139.64 233.195 139.654 233.545 139.598C233.587 138.198 233.573 134.082 233.545 132.612C233.153 132.556 232.243 132.556 231.921 132.612C231.907 133.074 231.893 134.054 231.893 135.146C231.039 135.146 230.017 135.146 229.611 135.16ZM229.415 139.276C229.681 139.01 230.073 138.352 230.213 137.988C229.163 137.386 228.071 136.756 227.007 136.154V134.334C228.197 134.32 229.303 134.32 229.793 134.306C229.835 133.928 229.835 133.312 229.793 132.906C227.819 132.85 223.493 132.878 222.443 132.906C222.387 133.298 222.387 133.872 222.443 134.306C222.863 134.32 224.011 134.334 225.285 134.334V136.21C224.263 136.938 223.171 137.708 222.177 138.422C222.345 138.786 222.793 139.388 223.073 139.626C224.039 138.982 225.173 138.198 226.195 137.442C227.231 138.072 228.365 138.716 229.415 139.276ZM228.449 139.976C224.375 139.976 223.115 140.732 223.115 142.65C223.115 144.456 224.235 145.338 228.449 145.338C232.523 145.338 233.783 144.568 233.783 142.65C233.783 140.858 232.663 139.976 228.449 139.976ZM228.449 143.924C225.257 143.924 224.767 143.448 224.767 142.65C224.767 141.838 225.243 141.39 228.449 141.39C231.641 141.39 232.131 141.866 232.131 142.65C232.131 143.476 231.655 143.924 228.449 143.924ZM246.466 139.738C246.508 139.234 246.508 138.73 246.466 138.31C245.99 138.296 245.234 138.282 244.324 138.282C244.338 137.232 244.338 135.664 244.324 134.628C245.164 134.614 245.864 134.614 246.326 134.6C246.368 134.124 246.368 133.578 246.326 133.172C244.66 133.116 238.164 133.13 235.812 133.172C235.77 133.578 235.77 134.166 235.812 134.6C236.246 134.614 236.946 134.614 237.8 134.628C237.786 135.664 237.786 137.246 237.8 138.282C236.89 138.296 236.134 138.296 235.672 138.31C235.63 138.73 235.63 139.29 235.672 139.738C237.604 139.78 244.436 139.78 246.466 139.738ZM239.424 134.628H242.7C242.686 135.678 242.686 137.232 242.7 138.268C241.636 138.268 240.488 138.268 239.424 138.282C239.438 137.232 239.438 135.678 239.424 134.628ZM247.04 143.308C246.648 143.294 245.766 143.294 244.618 143.294C244.632 142.314 244.632 141.054 244.604 140.508C244.254 140.452 243.386 140.452 242.952 140.508C242.924 141.096 242.938 142.342 242.938 143.28H239.172C239.172 142.342 239.186 141.096 239.158 140.508C238.738 140.452 237.87 140.452 237.506 140.508C237.492 141.054 237.478 142.314 237.492 143.294C236.512 143.294 235.658 143.294 235.084 143.308C235.042 143.742 235.042 144.33 235.084 144.736C236.82 144.792 245.724 144.82 247.04 144.736C247.082 144.274 247.082 143.728 247.04 143.308ZM247.865 145.856C248.439 145.926 250.917 145.884 251.561 145.856C251.617 143.644 251.617 135.202 251.561 132.584C250.917 132.556 248.439 132.514 247.865 132.584C247.823 133.018 247.823 133.62 247.865 134.068C248.439 134.096 249.391 134.096 249.895 134.068V144.386C249.391 144.358 248.439 144.358 247.865 144.386C247.823 144.834 247.823 145.436 247.865 145.856ZM254.247 137.484C256.011 137.568 263.165 137.554 264.271 137.484C264.299 137.12 264.327 136.686 264.271 136.308H255.871V135.636H264.131C264.201 135.034 264.201 133.158 264.131 132.626C262.451 132.584 257.551 132.598 254.275 132.64C254.219 132.892 254.219 133.466 254.275 133.83H262.507V134.502H254.247C254.163 135.538 254.191 136.742 254.247 137.484ZM253.281 139.472C255.409 139.514 263.515 139.528 265.237 139.472C265.279 139.052 265.279 138.646 265.237 138.254C263.431 138.226 256.249 138.198 253.281 138.254C253.239 138.66 253.239 139.08 253.281 139.472ZM254.107 145.142C255.857 145.226 263.795 145.212 264.691 145.142C264.733 144.778 264.747 144.344 264.691 143.966H255.745V143.28H264.369C264.439 142.692 264.439 140.844 264.369 140.27C262.549 140.228 257.649 140.228 254.135 140.27C254.079 140.536 254.079 141.096 254.135 141.474H262.731V142.146H254.107C254.023 143.266 254.051 144.4 254.107 145.142ZM112.286 159.442C111.922 159.428 111.446 159.428 110.914 159.428C110.914 157.286 110.9 155.368 110.872 154.612C110.48 154.556 109.556 154.542 109.234 154.612C109.192 156.292 109.178 165.476 109.234 167.128C109.64 167.17 110.522 167.17 110.872 167.128C110.9 166.302 110.914 163.684 110.914 161.01C111.502 161.024 111.964 161.01 112.286 160.982C112.328 160.562 112.328 159.848 112.286 159.442ZM102.192 164.678C102.206 162.69 102.206 158.42 102.192 156.53C103.27 156.558 105.986 156.558 107.036 156.53C107.092 156.11 107.092 155.466 107.036 155.06C105.65 155.004 101.94 155.018 100.512 155.06C100.442 156.642 100.428 164.524 100.512 166.134C101.744 166.19 106.672 166.176 107.736 166.134C107.792 165.728 107.792 165.098 107.736 164.678C106.462 164.65 103.466 164.65 102.192 164.678ZM118.781 159.68C122.995 159.68 124.101 158.826 124.101 157.076C124.101 155.34 122.995 154.486 118.781 154.486C114.567 154.486 113.461 155.34 113.461 157.076C113.461 158.826 114.567 159.68 118.781 159.68ZM118.781 155.928C121.945 155.928 122.421 156.348 122.421 157.076C122.421 157.804 121.945 158.238 118.781 158.238C115.617 158.238 115.141 157.804 115.141 157.076C115.141 156.362 115.617 155.928 118.781 155.928ZM124.759 160.73C122.953 160.688 115.771 160.674 112.803 160.73C112.761 161.136 112.761 161.724 112.803 162.102C113.755 162.13 115.883 162.144 118.109 162.144C118.109 162.9 118.123 163.726 118.137 164.272C118.585 164.328 119.383 164.328 119.803 164.272C119.817 163.684 119.831 162.886 119.817 162.144C122.001 162.144 124.003 162.13 124.759 162.102C124.801 161.682 124.801 161.108 124.759 160.73ZM115.295 165.714C115.323 165.084 115.323 163.978 115.295 163.222C114.903 163.18 113.965 163.166 113.629 163.208C113.587 164.048 113.559 166.12 113.629 167.142C114.889 167.212 123.051 167.212 124.269 167.142C124.325 166.736 124.325 166.106 124.269 165.714C123.107 165.686 117.927 165.7 115.295 165.714ZM136.966 162.452C137.022 162.046 137.022 161.43 136.966 161.024C135.79 160.996 129.28 161.01 128.174 161.024V159.456C129.42 159.47 135.482 159.512 136.686 159.456C136.77 157.972 136.784 156.53 136.686 155.046C135.3 154.976 127.628 154.976 126.564 155.032C126.508 155.438 126.508 156.054 126.564 156.46C127.726 156.488 133.914 156.488 135.034 156.46V158.028C134.166 158 127.67 158 126.508 158.028C126.424 159.484 126.41 160.954 126.508 162.452C127.964 162.522 135.804 162.494 136.966 162.452ZM137.638 165.308C136.98 165.294 134.852 165.28 132.514 165.28C132.514 164.496 132.514 163.614 132.5 163.096C132.08 163.04 131.184 163.026 130.834 163.096C130.82 163.558 130.806 164.468 130.806 165.28C128.748 165.28 126.746 165.294 125.682 165.308C125.64 165.742 125.64 166.33 125.682 166.736C127.418 166.792 136.322 166.82 137.638 166.736C137.68 166.274 137.68 165.728 137.638 165.308ZM139.387 162.2C140.773 162.242 148.711 162.256 149.845 162.2C149.887 161.85 149.887 161.15 149.845 160.73C148.795 160.716 142.201 160.73 141.067 160.73C141.053 159.946 141.053 157.496 141.067 156.656C142.159 156.684 148.515 156.684 149.565 156.656C149.621 156.25 149.621 155.578 149.565 155.172C148.235 155.13 140.773 155.102 139.387 155.172C139.317 156.782 139.303 160.562 139.387 162.2ZM138.561 166.736C140.297 166.792 149.201 166.82 150.517 166.736C150.559 166.274 150.559 165.728 150.517 165.308C149.117 165.28 141.137 165.266 138.561 165.308C138.519 165.742 138.519 166.33 138.561 166.736ZM166.741 159.442C166.377 159.428 165.901 159.428 165.369 159.428C165.369 157.286 165.355 155.368 165.327 154.612C164.935 154.556 164.011 154.542 163.689 154.612C163.647 156.292 163.633 165.476 163.689 167.128C164.095 167.17 164.977 167.17 165.327 167.128C165.355 166.302 165.369 163.684 165.369 161.01C165.957 161.024 166.419 161.01 166.741 160.982C166.783 160.562 166.783 159.848 166.741 159.442ZM154.561 155.06C154.519 155.452 154.519 156.124 154.561 156.544C155.667 156.572 158.873 156.572 159.755 156.544C159.769 157.566 159.755 165 159.755 166.19C160.147 166.246 161.113 166.246 161.421 166.19C161.505 164.608 161.477 156.684 161.379 155.06C160.021 154.99 155.709 155.004 154.561 155.06ZM168.224 158.714C169.568 158.77 177.156 158.77 178.304 158.714C178.346 158.308 178.346 157.72 178.304 157.3C177.198 157.258 171.108 157.258 169.89 157.3C169.918 156.866 169.918 155.284 169.89 154.724C169.498 154.682 168.574 154.682 168.224 154.724C168.168 155.648 168.154 157.566 168.224 158.714ZM167.258 161.248C169.386 161.29 177.492 161.304 179.214 161.248C179.256 160.814 179.256 160.212 179.214 159.82C177.408 159.792 170.226 159.778 167.258 159.82C167.216 160.226 167.216 160.856 167.258 161.248ZM173.236 167.31C177.408 167.31 178.64 166.568 178.64 164.776C178.64 163.11 177.548 162.256 173.236 162.256C169.064 162.256 167.832 162.998 167.832 164.776C167.832 166.442 168.924 167.31 173.236 167.31ZM173.236 165.938C169.974 165.938 169.484 165.546 169.484 164.776C169.484 164.006 169.974 163.628 173.236 163.628C176.498 163.628 176.988 164.02 176.988 164.776C176.988 165.56 176.498 165.938 173.236 165.938ZM188.201 156.754C188.243 156.376 188.229 155.76 188.201 155.368C187.655 155.354 186.451 155.354 185.107 155.354C185.121 154.99 185.107 154.626 185.093 154.36C184.645 154.276 183.707 154.276 183.371 154.36C183.357 154.626 183.343 154.99 183.357 155.354C181.775 155.354 180.361 155.354 180.025 155.368C179.969 155.774 179.969 156.348 180.025 156.754C180.907 156.782 187.053 156.782 188.201 156.754ZM192.429 157.384C192.135 157.37 191.631 157.37 191.113 157.37C191.099 156.25 191.099 155.2 191.085 154.612C190.693 154.556 189.783 154.556 189.461 154.612C189.419 155.788 189.419 160.492 189.461 161.78C189.867 161.822 190.735 161.836 191.085 161.78C191.099 161.178 191.113 160.086 191.113 158.896C191.673 158.896 192.191 158.882 192.429 158.868C192.471 158.434 192.471 157.804 192.429 157.384ZM184.225 161.71C186.857 161.71 188.033 161.15 188.033 159.484C188.033 157.86 186.941 157.258 184.225 157.258C181.593 157.258 180.417 157.818 180.417 159.484C180.417 161.108 181.509 161.71 184.225 161.71ZM184.225 158.574C185.905 158.574 186.493 158.896 186.493 159.484C186.493 160.086 185.947 160.408 184.225 160.408C182.545 160.408 181.957 160.086 181.957 159.484C181.957 158.896 182.503 158.574 184.225 158.574ZM189.475 163.32C187.543 163.306 184.421 163.306 182.517 163.32V162.452C182.237 162.424 181.243 162.41 180.921 162.452C180.851 163.39 180.851 165.7 180.921 167.114C182.447 167.212 189.657 167.198 191.085 167.114C191.141 165.616 191.127 163.852 191.085 162.452C190.679 162.424 190.049 162.424 189.475 162.452V163.32ZM182.517 164.692C184.407 164.706 187.473 164.706 189.475 164.692V165.742C188.257 165.77 183.959 165.77 182.517 165.742V164.692ZM202.858 167.128C203.264 167.17 204.16 167.17 204.51 167.128C204.552 165.462 204.552 156.488 204.51 154.612C204.118 154.556 203.194 154.542 202.858 154.612C202.816 156.292 202.816 165.476 202.858 167.128ZM193.562 166.134C195.018 166.19 200.1 166.176 201.29 166.134C201.346 165.728 201.346 165.07 201.29 164.65C200.142 164.622 196.292 164.622 195.214 164.65C195.242 162.298 195.256 157.048 195.214 155.004C194.822 154.962 193.898 154.962 193.548 155.004C193.492 156.936 193.478 163.474 193.562 166.134ZM218.257 159.442C217.893 159.428 217.417 159.428 216.885 159.428C216.885 157.286 216.871 155.368 216.843 154.612C216.451 154.556 215.527 154.542 215.205 154.612C215.163 156.292 215.149 165.476 215.205 167.128C215.611 167.17 216.493 167.17 216.843 167.128C216.871 166.302 216.885 163.684 216.885 161.01C217.473 161.024 217.935 161.01 218.257 160.982C218.299 160.562 218.299 159.848 218.257 159.442ZM208.163 164.678C208.177 162.69 208.177 158.42 208.163 156.53C209.241 156.558 211.957 156.558 213.007 156.53C213.063 156.11 213.063 155.466 213.007 155.06C211.621 155.004 207.911 155.018 206.483 155.06C206.413 156.642 206.399 164.524 206.483 166.134C207.715 166.19 212.643 166.176 213.707 166.134C213.763 165.728 213.763 165.098 213.707 164.678C212.433 164.65 209.437 164.65 208.163 164.678ZM218.998 166.568C219.6 166.596 220.244 166.61 220.846 166.554C220.874 165.98 220.874 165.35 220.846 164.762C220.258 164.72 219.628 164.72 218.998 164.762C218.97 165.336 218.97 165.98 218.998 166.568Z" fill="#504E48"/>
<path d="M72 125H165V127H72V125Z" fill="#FF7A00"/>
<path d="M159.395 71.84C158.765 71.81 157.865 71.78 156.815 71.78C156.785 69.71 156.785 67.82 156.755 66.65C155.705 66.5 153.095 66.53 152.285 66.65C152.195 68.93 152.195 78.83 152.285 81.41C153.335 81.5 155.825 81.53 156.755 81.41C156.785 80.24 156.815 78.2 156.815 75.98C158.015 75.98 158.915 75.95 159.395 75.89C159.485 74.75 159.485 72.98 159.395 71.84ZM135.815 81.83C137.945 80.45 140.045 79.01 142.055 77.45C144.215 78.74 146.435 79.94 148.595 81.05C149.255 80.3 150.395 78.5 150.785 77.57C148.475 76.25 146.465 75.14 144.335 73.97V71.09C146.675 71.06 148.775 71.06 149.885 71.03C149.975 69.98 149.975 68.3 149.885 67.16C144.515 67.04 136.385 67.1 133.955 67.16C133.835 68.24 133.835 69.83 133.955 71.03C134.855 71.09 137.075 71.09 139.625 71.09V74.15C137.525 75.62 135.575 76.94 133.325 78.53C133.745 79.46 135.125 81.14 135.815 81.83ZM134.765 82.76C134.675 85.79 134.615 90.47 134.765 93.74C137.105 93.95 154.745 93.92 156.755 93.74C156.875 91.49 156.875 85.13 156.755 82.76C155.945 82.67 136.625 82.64 134.765 82.76ZM152.345 89.99C151.085 90.05 140.555 90.08 139.175 89.99C139.085 88.79 139.115 87.47 139.175 86.54C141.155 86.48 150.665 86.45 152.345 86.54C152.405 87.62 152.405 89.12 152.345 89.99ZM187.292 73.52C186.662 73.49 185.762 73.46 184.712 73.46C184.682 70.49 184.682 67.88 184.652 66.65C183.602 66.5 180.992 66.53 180.182 66.65C180.092 68.93 180.092 83.42 180.182 86C181.232 86.09 183.722 86.12 184.652 86C184.682 84.68 184.712 81.29 184.712 77.66C185.912 77.66 186.812 77.63 187.292 77.57C187.382 76.43 187.382 74.66 187.292 73.52ZM164.342 71.06C164.372 73.25 164.342 79.16 164.342 81.38C165.422 81.5 167.972 81.53 168.752 81.38C168.932 77.9 168.872 70.64 168.662 67.16C167.522 67.1 162.602 67.07 161.102 67.16C160.982 68.27 160.982 69.89 161.102 71.06C161.732 71.03 163.772 71.03 164.342 71.06ZM172.742 71.06C172.772 73.25 172.742 79.16 172.742 81.38C173.822 81.5 176.372 81.53 177.152 81.38C177.332 77.9 177.272 70.64 177.062 67.16C175.922 67.1 171.302 67.07 169.802 67.16C169.682 68.27 169.682 69.89 169.802 71.06C170.432 71.03 172.172 71.03 172.742 71.06ZM167.282 89.78C167.342 88.16 167.342 85.13 167.282 83.63C166.202 83.54 163.742 83.54 162.812 83.63C162.722 85.4 162.662 91.52 162.812 93.74C165.542 93.89 182.762 93.89 185.162 93.74C185.282 92.63 185.282 90.86 185.162 89.78C182.912 89.72 173.912 89.75 167.282 89.78ZM190.35 85.67C191.85 85.76 193.44 85.76 194.76 85.67C194.88 83.15 195.06 70.52 195.06 67.73C193.17 67.58 192.03 67.58 190.08 67.73C190.11 70.52 190.23 83.12 190.35 85.67ZM190.26 92.51C191.73 92.6 193.47 92.63 194.97 92.48C195.03 91.1 195.03 89.57 194.97 88.16C193.5 88.04 191.79 88.04 190.26 88.16C190.17 89.54 190.2 91.1 190.26 92.51Z" fill="#504E48"/>
<path d="M85.9838 204.839C85.6458 204.826 85.2038 204.826 84.7098 204.826C84.7098 202.837 84.6968 201.056 84.6708 200.354C84.3068 200.302 83.4488 200.289 83.1498 200.354C83.1108 201.914 83.0978 210.442 83.1498 211.976C83.5268 212.015 84.3458 212.015 84.6708 211.976C84.6968 211.209 84.7098 208.778 84.7098 206.295C85.2558 206.308 85.6848 206.295 85.9838 206.269C86.0228 205.879 86.0228 205.216 85.9838 204.839ZM79.1458 202.122C80.3028 202.122 81.3558 202.109 81.8238 202.096C81.8628 201.745 81.8628 201.147 81.8238 200.757C79.9908 200.718 75.8438 200.731 74.8558 200.757C74.8168 201.121 74.8168 201.706 74.8558 202.096C75.2458 202.122 76.3248 202.122 77.5338 202.122C77.5208 203.032 77.5208 204.384 77.5338 205.463C76.4158 207.335 75.1938 209.376 74.5178 210.559C74.7778 210.819 75.4278 211.196 75.7918 211.287C76.3768 210.377 77.4688 208.505 78.3658 206.88C79.3018 208.349 80.3418 209.896 81.1738 211.053C81.6288 210.871 82.0708 210.559 82.3438 210.195C81.5898 209.051 80.2118 207.049 79.1588 205.515C79.1718 204.449 79.1588 203.071 79.1458 202.122ZM96.8118 207.634C96.8638 207.257 96.8638 206.685 96.8118 206.308C95.7198 206.282 89.6748 206.295 88.6478 206.308V204.852C89.8048 204.865 95.4338 204.904 96.5518 204.852C96.6298 203.474 96.6428 202.135 96.5518 200.757C95.2648 200.692 88.1408 200.692 87.1528 200.744C87.1008 201.121 87.1008 201.693 87.1528 202.07C88.2318 202.096 93.9778 202.096 95.0178 202.07V203.526C94.2118 203.5 88.1798 203.5 87.1008 203.526C87.0228 204.878 87.0098 206.243 87.1008 207.634C88.4528 207.699 95.7328 207.673 96.8118 207.634ZM97.4358 210.286C97.0718 210.273 96.2008 210.273 95.1088 210.273C95.1088 209.493 95.1088 208.622 95.0958 208.232C94.7578 208.18 93.9518 208.18 93.5618 208.232C93.5488 208.674 93.5358 209.519 93.5488 210.26H90.2208C90.2208 209.519 90.2208 208.674 90.2078 208.232C89.8178 208.18 88.9988 208.18 88.6738 208.232C88.6608 208.622 88.6478 209.493 88.6608 210.273C87.7118 210.273 86.8798 210.273 86.3338 210.286C86.2948 210.689 86.2948 211.235 86.3338 211.612C87.9458 211.664 96.2138 211.69 97.4358 211.612C97.4748 211.183 97.4748 210.676 97.4358 210.286ZM111.981 204.839C111.643 204.826 111.201 204.826 110.707 204.826C110.707 202.837 110.694 201.056 110.668 200.354C110.304 200.302 109.446 200.289 109.147 200.354C109.108 201.914 109.095 210.442 109.147 211.976C109.524 212.015 110.343 212.015 110.668 211.976C110.694 211.209 110.707 208.778 110.707 206.295C111.253 206.308 111.682 206.295 111.981 206.269C112.02 205.879 112.02 205.216 111.981 204.839ZM102.608 209.701C102.621 207.855 102.621 203.89 102.608 202.135C103.609 202.161 106.131 202.161 107.106 202.135C107.158 201.745 107.158 201.147 107.106 200.77C105.819 200.718 102.374 200.731 101.048 200.77C100.983 202.239 100.97 209.558 101.048 211.053C102.192 211.105 106.768 211.092 107.756 211.053C107.808 210.676 107.808 210.091 107.756 209.701C106.573 209.675 103.791 209.675 102.608 209.701ZM117.752 205.06C121.665 205.06 122.692 204.267 122.692 202.642C122.692 201.03 121.665 200.237 117.752 200.237C113.839 200.237 112.812 201.03 112.812 202.642C112.812 204.267 113.839 205.06 117.752 205.06ZM117.752 201.576C120.69 201.576 121.132 201.966 121.132 202.642C121.132 203.318 120.69 203.721 117.752 203.721C114.814 203.721 114.372 203.318 114.372 202.642C114.372 201.979 114.814 201.576 117.752 201.576ZM123.303 206.035C121.626 205.996 114.957 205.983 112.201 206.035C112.162 206.412 112.162 206.958 112.201 207.309C113.085 207.335 115.061 207.348 117.128 207.348C117.128 208.05 117.141 208.817 117.154 209.324C117.57 209.376 118.311 209.376 118.701 209.324C118.714 208.778 118.727 208.037 118.714 207.348C120.742 207.348 122.601 207.335 123.303 207.309C123.342 206.919 123.342 206.386 123.303 206.035ZM114.515 210.663C114.541 210.078 114.541 209.051 114.515 208.349C114.151 208.31 113.28 208.297 112.968 208.336C112.929 209.116 112.903 211.04 112.968 211.989C114.138 212.054 121.717 212.054 122.848 211.989C122.9 211.612 122.9 211.027 122.848 210.663C121.769 210.637 116.959 210.65 114.515 210.663ZM134.378 207.634C134.43 207.257 134.43 206.685 134.378 206.308C133.286 206.282 127.241 206.295 126.214 206.308V204.852C127.371 204.865 133 204.904 134.118 204.852C134.196 203.474 134.209 202.135 134.118 200.757C132.831 200.692 125.707 200.692 124.719 200.744C124.667 201.121 124.667 201.693 124.719 202.07C125.798 202.096 131.544 202.096 132.584 202.07V203.526C131.778 203.5 125.746 203.5 124.667 203.526C124.589 204.878 124.576 206.243 124.667 207.634C126.019 207.699 133.299 207.673 134.378 207.634ZM135.002 210.286C134.391 210.273 132.415 210.26 130.244 210.26C130.244 209.532 130.244 208.713 130.231 208.232C129.841 208.18 129.009 208.167 128.684 208.232C128.671 208.661 128.658 209.506 128.658 210.26C126.747 210.26 124.888 210.273 123.9 210.286C123.861 210.689 123.861 211.235 123.9 211.612C125.512 211.664 133.78 211.69 135.002 211.612C135.041 211.183 135.041 210.676 135.002 210.286ZM136.366 207.4C137.653 207.439 145.024 207.452 146.077 207.4C146.116 207.075 146.116 206.425 146.077 206.035C145.102 206.022 138.979 206.035 137.926 206.035C137.913 205.307 137.913 203.032 137.926 202.252C138.94 202.278 144.842 202.278 145.817 202.252C145.869 201.875 145.869 201.251 145.817 200.874C144.582 200.835 137.653 200.809 136.366 200.874C136.301 202.369 136.288 205.879 136.366 207.4ZM135.599 211.612C137.211 211.664 145.479 211.69 146.701 211.612C146.74 211.183 146.74 210.676 146.701 210.286C145.401 210.26 137.991 210.247 135.599 210.286C135.56 210.689 135.56 211.235 135.599 211.612ZM148.195 204.878C149.833 204.956 156.476 204.943 157.503 204.878C157.529 204.54 157.555 204.137 157.503 203.786H149.703V203.162H157.373C157.438 202.603 157.438 200.861 157.373 200.367C155.813 200.328 151.263 200.341 148.221 200.38C148.169 200.614 148.169 201.147 148.221 201.485H155.865V202.109H148.195C148.117 203.071 148.143 204.189 148.195 204.878ZM147.298 206.724C149.274 206.763 156.801 206.776 158.4 206.724C158.439 206.334 158.439 205.957 158.4 205.593C156.723 205.567 150.054 205.541 147.298 205.593C147.259 205.97 147.259 206.36 147.298 206.724ZM148.065 211.989C149.69 212.067 157.061 212.054 157.893 211.989C157.932 211.651 157.945 211.248 157.893 210.897H149.586V210.26H157.594C157.659 209.714 157.659 207.998 157.594 207.465C155.904 207.426 151.354 207.426 148.091 207.465C148.039 207.712 148.039 208.232 148.091 208.583H156.073V209.207H148.065C147.987 210.247 148.013 211.3 148.065 211.989ZM167.928 207.465C167.889 207.842 167.889 208.336 167.928 208.739C168.448 208.765 169.592 208.765 170.606 208.739C170.619 209.064 170.619 209.337 170.619 209.545C170.996 209.571 171.802 209.597 172.127 209.545C172.166 207.855 172.166 202.044 172.127 200.354C171.763 200.289 170.918 200.289 170.619 200.354C170.606 201.472 170.593 205.008 170.606 207.465C169.644 207.439 168.513 207.452 167.928 207.465ZM165.575 204.813C168.084 204.813 169.163 204.059 169.163 202.59C169.163 201.134 168.084 200.367 165.575 200.367C163.053 200.367 161.974 201.134 161.974 202.59C161.974 204.059 163.053 204.813 165.575 204.813ZM165.575 201.68C167.213 201.68 167.707 201.992 167.707 202.59C167.707 203.188 167.213 203.5 165.575 203.5C163.911 203.5 163.43 203.188 163.43 202.59C163.43 201.992 163.911 201.68 165.575 201.68ZM165.003 208.791C165.393 208.856 166.108 208.856 166.524 208.791C166.537 208.349 166.537 207.465 166.537 206.75C167.967 206.75 169.241 206.737 169.722 206.724C169.774 206.347 169.774 205.866 169.722 205.437C168.513 205.411 162.728 205.398 161.48 205.437C161.415 205.814 161.415 206.347 161.48 206.724C162.182 206.737 163.547 206.75 164.977 206.75C164.977 207.478 164.99 208.336 165.003 208.791ZM172.348 210.65C171.217 210.624 166.303 210.637 164.041 210.65C164.067 210.13 164.067 208.726 164.041 208.232C163.677 208.193 162.871 208.193 162.533 208.232C162.494 208.908 162.468 210.923 162.533 211.963C163.742 212.028 171.178 212.028 172.348 211.963C172.4 211.599 172.4 211.027 172.348 210.65ZM177.872 201.459C177.885 200.978 177.872 200.406 177.846 200.055C177.469 199.99 176.598 199.977 176.286 200.055C176.247 200.406 176.234 201.004 176.247 201.459C174.765 201.459 173.439 201.472 173.127 201.485C173.075 201.862 173.075 202.46 173.127 202.837C173.946 202.876 179.692 202.85 180.758 202.837C180.797 202.486 180.784 201.849 180.758 201.485C180.264 201.459 179.12 201.459 177.872 201.459ZM184.645 205.099C184.307 205.086 183.865 205.086 183.371 205.086C183.371 203.006 183.358 201.095 183.332 200.354C182.968 200.302 182.11 200.289 181.811 200.354C181.772 201.914 181.759 210.442 181.811 211.976C182.188 212.015 183.007 212.015 183.332 211.976C183.358 211.235 183.371 208.947 183.371 206.555C183.917 206.568 184.346 206.555 184.645 206.529C184.684 206.139 184.684 205.476 184.645 205.099ZM177.079 203.643C174.466 203.643 173.543 204.761 173.543 207.608C173.543 210.455 174.466 211.573 177.079 211.573C179.692 211.573 180.615 210.455 180.615 207.608C180.615 204.761 179.692 203.643 177.079 203.643ZM177.079 210.299C175.532 210.299 175.012 209.649 175.012 207.608C175.012 205.567 175.532 204.917 177.079 204.917C178.626 204.917 179.146 205.567 179.146 207.608C179.146 209.649 178.626 210.299 177.079 210.299ZM195.538 200.354C195.174 200.302 194.316 200.289 194.004 200.354C193.965 201.914 193.965 210.442 194.004 211.976C194.381 212.015 195.213 212.015 195.538 211.976C195.577 210.429 195.577 202.096 195.538 200.354ZM189.389 200.666C189.012 200.601 188.102 200.601 187.79 200.666C187.764 201.394 187.751 203.487 187.777 205.073C186.854 206.789 185.463 209.363 184.826 210.585C185.086 210.858 185.814 211.209 186.126 211.287C186.646 210.442 187.738 208.362 188.596 206.633C189.597 208.31 190.897 210.299 191.469 211.105C191.781 211.001 192.431 210.559 192.678 210.26C191.963 209.103 190.455 206.815 189.402 205.203C189.428 203.656 189.415 201.472 189.389 200.666ZM203.948 204.696C203.909 205.086 203.909 205.671 203.948 206.061C204.312 206.074 205.053 206.087 205.69 206.087C205.69 207.244 205.703 208.245 205.716 208.7C206.093 208.739 206.899 208.752 207.224 208.7C207.263 207.257 207.25 201.849 207.224 200.354C206.86 200.302 206.015 200.302 205.716 200.354C205.703 200.614 205.703 201.082 205.69 201.654C205.04 201.654 204.312 201.654 203.948 201.667C203.909 202.044 203.909 202.629 203.948 203.032C204.312 203.045 205.053 203.058 205.69 203.045V204.683C205.04 204.683 204.312 204.683 203.948 204.696ZM203.337 206.711C203.402 205.476 203.402 202.044 203.337 200.627C202.284 200.575 197.838 200.575 196.967 200.627C196.915 201.953 196.915 205.294 196.967 206.711C198.033 206.776 202.401 206.763 203.337 206.711ZM198.423 201.901C199.424 201.888 201.062 201.875 201.881 201.901C201.907 202.499 201.907 204.852 201.881 205.437C201.049 205.476 199.268 205.463 198.423 205.437C198.397 204.839 198.397 202.499 198.423 201.901ZM207.445 210.65C206.314 210.624 201.946 210.637 199.45 210.65C199.463 209.896 199.463 208.544 199.45 207.842C199.073 207.803 198.254 207.803 197.929 207.842C197.903 208.622 197.877 211.001 197.929 211.963C199.528 212.028 206.275 212.028 207.445 211.976C207.497 211.586 207.497 211.014 207.445 210.65ZM221.834 205.086C221.041 205.073 219.143 205.06 217.076 205.06V204.293C218.844 204.293 220.456 204.28 220.937 204.254C220.976 203.929 220.976 203.409 220.937 203.019C219.91 203.006 214.177 203.019 213.163 203.019V201.719C214.125 201.745 219.832 201.745 220.807 201.719C220.859 201.329 220.859 200.874 220.807 200.484C219.572 200.445 212.903 200.419 211.629 200.484C211.564 201.407 211.551 203.305 211.629 204.254C212.175 204.267 213.774 204.28 215.49 204.293V205.06C213.657 205.06 211.863 205.073 210.732 205.086C210.693 205.463 210.693 205.944 210.732 206.308C212.708 206.347 220.235 206.36 221.834 206.308C221.873 205.905 221.873 205.45 221.834 205.086ZM213.02 210.078H221.028C221.093 209.506 221.093 207.556 221.028 207.036C219.338 206.997 214.788 206.997 211.525 207.036C211.473 207.27 211.473 207.842 211.525 208.18H219.507V208.96H211.499C211.421 210.026 211.447 211.274 211.499 211.989C213.124 212.067 220.495 212.054 221.327 211.989C221.366 211.651 221.379 211.196 221.327 210.858H213.02V210.078ZM233.91 204.839C233.572 204.826 233.13 204.826 232.636 204.826C232.636 202.837 232.623 201.056 232.597 200.354C232.233 200.302 231.375 200.289 231.076 200.354C231.037 201.914 231.024 210.442 231.076 211.976C231.453 212.015 232.272 212.015 232.597 211.976C232.623 211.209 232.636 208.778 232.636 206.295C233.182 206.308 233.611 206.295 233.91 206.269C233.949 205.879 233.949 205.216 233.91 204.839ZM226.071 200.471C223.64 200.471 222.574 201.719 222.574 205.918C222.574 210.117 223.64 211.365 226.071 211.365C228.489 211.365 229.542 210.117 229.542 205.918C229.542 201.719 228.489 200.471 226.071 200.471ZM226.071 209.948C224.667 209.948 224.147 209.142 224.147 205.918C224.147 202.694 224.667 201.888 226.071 201.888C227.475 201.888 227.982 202.694 227.982 205.918C227.982 209.142 227.475 209.948 226.071 209.948ZM245.609 204.839C245.271 204.826 244.829 204.826 244.335 204.826C244.335 202.837 244.322 201.056 244.296 200.354C243.932 200.302 243.074 200.289 242.775 200.354C242.736 201.914 242.723 210.442 242.775 211.976C243.152 212.015 243.971 212.015 244.296 211.976C244.322 211.209 244.335 208.778 244.335 206.295C244.881 206.308 245.31 206.295 245.609 206.269C245.648 205.879 245.648 205.216 245.609 204.839ZM234.299 200.77C234.26 201.134 234.26 201.758 234.299 202.148C235.326 202.174 238.303 202.174 239.122 202.148C239.135 203.097 239.122 210 239.122 211.105C239.486 211.157 240.383 211.157 240.669 211.105C240.747 209.636 240.721 202.278 240.63 200.77C239.369 200.705 235.365 200.718 234.299 200.77ZM256.632 200.354C256.32 200.289 255.475 200.289 255.176 200.354C255.15 201.81 255.15 210.403 255.176 211.976C255.553 212.002 256.346 212.028 256.632 211.976C256.658 210.416 256.671 201.979 256.632 200.354ZM252.615 200.419C252.602 200.965 252.589 202.499 252.589 204.28C251.926 204.28 251.25 204.28 250.769 204.293C250.73 204.566 250.73 205.372 250.769 205.697C251.263 205.723 251.926 205.723 252.576 205.71C252.576 208.31 252.589 211.027 252.615 211.859C252.992 211.898 253.785 211.898 254.071 211.859C254.084 210.312 254.11 202.044 254.071 200.419C253.746 200.354 252.914 200.354 252.615 200.419ZM249.599 200.666C249.222 200.601 248.312 200.601 248.013 200.666C247.987 201.407 247.974 203.63 247.987 205.229C247.22 206.984 246.128 209.519 245.608 210.728C245.894 210.975 246.583 211.235 246.908 211.287C247.311 210.481 248.117 208.596 248.793 206.919C249.521 208.557 250.379 210.39 250.795 211.157C251.12 211.092 251.77 210.767 252.043 210.507C251.536 209.337 250.418 207.023 249.612 205.32C249.638 203.773 249.625 201.485 249.599 200.666ZM263.079 206.984C266.966 206.984 268.149 205.944 268.149 203.799C268.149 201.706 267.031 200.614 263.079 200.614C259.192 200.614 258.009 201.654 258.009 203.799C258.009 205.905 259.127 206.984 263.079 206.984ZM263.079 201.992C265.822 201.992 266.576 202.551 266.576 203.799C266.576 205.112 265.744 205.606 263.079 205.606C260.336 205.606 259.582 205.047 259.582 203.799C259.582 202.486 260.414 201.992 263.079 201.992ZM268.63 210.286C268.266 210.286 267.434 210.273 266.381 210.273C266.394 209.337 266.394 208.024 266.368 207.504C266.043 207.452 265.237 207.452 264.834 207.504C264.808 208.089 264.821 209.376 264.834 210.273C263.703 210.26 262.468 210.26 261.311 210.26C261.324 209.363 261.337 208.089 261.311 207.504C260.921 207.452 260.115 207.452 259.777 207.504C259.764 208.024 259.751 209.337 259.764 210.273C258.854 210.273 258.061 210.273 257.528 210.286C257.489 210.689 257.489 211.235 257.528 211.612C259.14 211.664 267.408 211.69 268.63 211.612C268.669 211.183 268.669 210.676 268.63 210.286ZM269.435 211.456C269.994 211.482 270.592 211.495 271.151 211.443C271.177 210.91 271.177 210.325 271.151 209.779C270.605 209.74 270.02 209.74 269.435 209.779C269.409 210.312 269.409 210.91 269.435 211.456Z" fill="#504E48"/>
<rect x="56.5" y="199.5" width="13" height="13" rx="6.5" stroke="#FF4B4B"/>
<rect x="62" y="202" width="2" height="5" fill="#FF4B4B"/>
<rect x="62" y="208" width="2" height="2" fill="#FF4B4B"/>
<path d="M108.724 16.4472C108.391 15.7823 108.875 15 109.618 15H218.382C219.125 15 219.609 15.7823 219.276 16.4472L214.224 26.5528C214.083 26.8343 214.083 27.1657 214.224 27.4472L219.276 37.5528C219.609 38.2177 219.125 39 218.382 39H109.618C108.875 39 108.391 38.2177 108.724 37.5528L113.776 27.4472C113.917 27.1657 113.917 26.8343 113.776 26.5528L108.724 16.4472Z" fill="#FF8A00"/>
<path d="M138.959 26.697C138.998 25.449 138.985 22.667 138.959 21.354C138.595 21.302 137.75 21.302 137.451 21.354C137.412 22.381 137.412 25.566 137.451 26.697C137.828 26.736 138.634 26.736 138.959 26.697ZM135.631 26.463C135.852 26.177 136.099 25.605 136.177 25.241C135.436 24.942 134.11 24.474 133.07 24.123C133.083 23.746 133.083 23.317 133.07 22.914C134.253 22.901 135.319 22.901 135.787 22.888C135.826 22.524 135.826 21.965 135.787 21.575C133.954 21.536 129.703 21.549 128.715 21.575C128.663 21.939 128.663 22.485 128.715 22.888C129.105 22.901 130.223 22.914 131.484 22.914C131.471 23.343 131.471 23.811 131.484 24.188C130.418 24.682 129.053 25.306 128.468 25.618C128.559 25.956 128.845 26.489 129.118 26.801C130.054 26.385 131.354 25.787 132.355 25.28C133.408 25.683 134.825 26.19 135.631 26.463ZM131.12 31.741V30.714H138.959C139.024 29.947 139.024 28.01 138.959 27.295C137.308 27.256 132.758 27.256 129.625 27.295C129.586 27.555 129.586 28.192 129.625 28.53H137.438V29.544H129.599C129.534 30.649 129.56 32.3 129.599 32.963C131.237 33.041 138.14 33.041 139.18 32.963C139.206 32.638 139.219 32.079 139.18 31.741H131.12ZM150.333 25.852C150.411 25.033 150.411 22.823 150.333 21.484C149.514 21.445 141.883 21.432 141.025 21.484C140.96 22.758 140.934 24.552 141.025 25.852C142.026 25.917 149.423 25.904 150.333 25.852ZM142.468 22.732C143.326 22.706 148.123 22.719 148.89 22.732V24.617C148.24 24.643 143.144 24.643 142.468 24.617V22.732ZM151.23 26.97C149.553 26.931 142.884 26.918 140.128 26.97C140.089 27.347 140.089 27.893 140.128 28.244C141.012 28.27 142.988 28.283 145.055 28.283C145.055 28.998 145.068 29.791 145.081 30.311C145.497 30.35 146.238 30.35 146.628 30.311C146.641 29.739 146.654 28.972 146.641 28.283C148.669 28.283 150.528 28.27 151.23 28.244C151.269 27.854 151.269 27.321 151.23 26.97ZM142.442 31.663C142.468 31.078 142.468 29.986 142.442 29.284C142.078 29.245 141.207 29.232 140.895 29.271C140.856 30.051 140.83 32.027 140.895 32.989C142.065 33.054 149.644 33.054 150.775 32.989C150.827 32.612 150.827 32.027 150.775 31.663C149.696 31.637 144.886 31.65 142.442 31.663ZM162.929 27.464C162.136 27.451 160.238 27.438 158.171 27.438V26.606C159.939 26.606 161.551 26.593 162.032 26.567C162.071 26.229 162.071 25.761 162.032 25.358C161.005 25.345 155.272 25.358 154.245 25.358V24.552C156.13 24.565 160.238 24.578 161.525 24.552C161.564 24.175 161.564 23.772 161.525 23.395C160.212 23.395 156.143 23.382 154.245 23.395V22.576C155.22 22.602 160.927 22.602 161.902 22.576C161.954 22.186 161.954 21.77 161.902 21.38C160.667 21.341 153.998 21.315 152.724 21.38C152.659 22.407 152.646 25.514 152.724 26.567C153.27 26.58 154.869 26.593 156.598 26.606C156.585 26.866 156.585 27.152 156.585 27.438C154.752 27.438 152.958 27.451 151.827 27.464C151.788 27.841 151.788 28.361 151.827 28.712C153.803 28.764 161.33 28.777 162.929 28.712C162.968 28.322 162.968 27.815 162.929 27.464ZM152.555 29.557C152.503 29.947 152.503 30.454 152.555 30.844C153.621 30.883 158.379 30.844 160.615 30.844C160.615 31.468 160.589 32.313 160.615 32.976C160.979 33.002 161.798 33.002 162.162 32.976C162.201 32.313 162.24 30.571 162.162 29.557C160.836 29.492 153.673 29.505 152.555 29.557ZM175.134 32.976C175.511 33.015 176.343 33.015 176.668 32.976C176.707 31.429 176.707 23.096 176.668 21.354C176.304 21.302 175.446 21.289 175.134 21.354C175.095 22.914 175.095 31.442 175.134 32.976ZM169.726 32.365C172.235 32.365 173.314 31.117 173.314 26.918C173.314 22.719 172.235 21.471 169.726 21.471C167.217 21.471 166.125 22.719 166.125 26.918C166.125 31.117 167.217 32.365 169.726 32.365ZM169.726 30.948C168.231 30.948 167.685 30.142 167.685 26.918C167.685 23.694 168.231 22.888 169.726 22.888C171.234 22.888 171.754 23.694 171.754 26.918C171.754 30.142 171.234 30.948 169.726 30.948ZM188.497 29.895C188.523 28.725 188.536 22.498 188.497 21.354C188.185 21.289 187.353 21.289 187.054 21.354C187.028 22.316 187.015 28.725 187.054 29.895C187.431 29.921 188.211 29.947 188.497 29.895ZM183.024 27.75C183.037 27.451 183.05 26.463 183.05 25.358C183.505 25.371 183.999 25.371 184.441 25.358C184.441 27.243 184.454 29.206 184.48 29.804C184.857 29.843 185.624 29.843 185.923 29.804C185.936 28.66 185.962 22.563 185.923 21.419C185.598 21.367 184.779 21.354 184.48 21.419C184.467 21.77 184.454 22.784 184.454 24.019C183.999 24.006 183.505 24.006 183.05 24.019C183.05 23.044 183.037 22.16 183.024 21.718C182.621 21.679 181.997 21.679 181.607 21.718V23.486C180.931 23.473 180.073 23.473 179.397 23.486V21.718C179.046 21.679 178.357 21.679 177.967 21.718C177.941 22.745 177.941 26.736 177.967 27.75C178.981 27.815 182.114 27.802 183.024 27.75ZM179.397 24.76C180.06 24.773 180.931 24.773 181.607 24.76V26.502C181.009 26.528 180.06 26.528 179.397 26.502V24.76ZM188.718 31.65C187.574 31.624 182.985 31.637 180.463 31.65C180.489 30.896 180.489 29.544 180.463 28.842C180.086 28.803 179.28 28.803 178.955 28.842C178.916 29.622 178.89 32.001 178.955 32.963C180.567 33.028 187.535 33.028 188.718 32.976C188.77 32.586 188.77 32.014 188.718 31.65ZM199.871 28.894C199.91 28.569 199.91 27.958 199.871 27.555C198.896 27.542 192.773 27.555 191.72 27.555C191.72 27.269 191.707 26.671 191.707 25.995C193.54 26.008 197.869 26.021 199.221 25.995C199.26 25.618 199.273 25.033 199.221 24.643C197.856 24.643 193.553 24.63 191.707 24.643C191.707 23.98 191.72 23.395 191.72 23.096C192.734 23.122 198.636 23.122 199.611 23.096C199.663 22.706 199.663 22.121 199.611 21.744C198.376 21.705 191.447 21.679 190.16 21.744C190.095 23.291 190.082 27.321 190.16 28.894C191.447 28.933 198.818 28.946 199.871 28.894ZM200.495 31.286C199.195 31.26 191.785 31.247 189.393 31.286C189.354 31.689 189.354 32.235 189.393 32.612C191.005 32.664 199.273 32.69 200.495 32.612C200.534 32.183 200.534 31.676 200.495 31.286Z" fill="white"/>
</svg>
