<svg width="328" height="247" viewBox="0 0 328 247" fill="none" xmlns="http://www.w3.org/2000/svg">
<path d="M0 18C0 8.05887 8.05888 0 18 0H310C319.941 0 328 8.05888 328 18V285C328 294.941 319.941 303 310 303H18C8.05888 303 0 294.941 0 285V18Z" fill="#FFFAEA"/>
<path d="M121.715 110.87C121.295 110.81 120.305 110.795 119.945 110.87C119.9 112.67 119.9 122.51 119.945 124.28C120.38 124.325 121.34 124.325 121.715 124.28C121.76 122.495 121.76 112.88 121.715 110.87ZM114.755 112.91C116.09 112.91 117.305 112.895 117.845 112.88C117.89 112.475 117.89 111.785 117.845 111.335C115.73 111.29 110.945 111.305 109.805 111.335C109.76 111.755 109.76 112.43 109.805 112.88C110.255 112.91 111.5 112.91 112.895 112.91C112.88 113.96 112.88 115.52 112.895 116.765C111.605 118.925 110.195 121.28 109.415 122.645C109.715 122.945 110.465 123.38 110.885 123.485C111.56 122.435 112.82 120.275 113.855 118.4C114.935 120.095 116.135 121.88 117.095 123.215C117.62 123.005 118.13 122.645 118.445 122.225C117.575 120.905 115.985 118.595 114.77 116.825C114.785 115.595 114.77 114.005 114.755 112.91ZM133.219 115.22C133.549 115.265 134.644 115.265 134.974 115.22C135.049 114.395 135.049 112.31 134.974 111.05C133.444 110.99 125.644 110.975 124.384 111.05C124.324 111.485 124.324 112.13 124.384 112.58C125.599 112.61 130.624 112.58 133.219 112.565C133.204 113.285 133.204 114.335 133.219 115.22ZM123.349 117.65C125.629 117.71 134.314 117.725 136.159 117.65C136.204 117.2 136.204 116.555 136.159 116.135C134.224 116.105 126.529 116.075 123.349 116.135C123.304 116.57 123.304 117.245 123.349 117.65ZM124.234 124.295C125.569 124.4 133.954 124.385 135.274 124.295C135.349 123.14 135.334 120.275 135.274 118.955C134.164 118.91 125.404 118.91 124.234 118.955C124.174 120.215 124.159 123.11 124.234 124.295ZM125.914 120.38C126.874 120.35 132.724 120.365 133.594 120.38V122.87C132.874 122.9 126.679 122.915 125.914 122.87V120.38ZM141.107 118.325C142.277 117.68 143.507 116.96 144.632 116.24C145.847 116.84 147.122 117.425 148.307 117.92C148.547 117.605 148.922 116.9 149.042 116.495C147.857 115.94 146.717 115.43 145.562 114.905V113.45C146.942 113.45 148.187 113.435 148.727 113.42C148.772 113.015 148.772 112.355 148.727 111.905C147.962 111.89 146.792 111.875 145.562 111.875C145.577 111.455 145.562 110.975 145.547 110.645C145.112 110.57 144.077 110.57 143.732 110.645C143.702 110.99 143.687 111.455 143.702 111.875C142.232 111.875 140.927 111.89 140.417 111.905C140.372 112.325 140.372 112.97 140.417 113.42C140.882 113.45 142.232 113.45 143.717 113.45C143.717 113.96 143.717 114.485 143.717 114.905L140.237 116.945C140.387 117.35 140.837 118.025 141.107 118.325ZM153.467 113.615C153.152 113.6 152.612 113.6 152.057 113.6C152.042 112.49 152.042 111.47 152.027 110.87C151.607 110.81 150.632 110.81 150.287 110.87C150.242 112.13 150.242 116.975 150.287 118.355C150.722 118.4 151.652 118.415 152.027 118.355C152.042 117.71 152.057 116.51 152.057 115.235C152.657 115.235 153.212 115.22 153.467 115.205C153.512 114.74 153.512 114.065 153.467 113.615ZM146.582 118.76C142.247 118.76 140.897 119.57 140.897 121.625C140.897 123.56 142.097 124.505 146.582 124.505C150.932 124.505 152.282 123.68 152.282 121.625C152.282 119.705 151.082 118.76 146.582 118.76ZM146.582 123.035C143.177 123.035 142.667 122.51 142.667 121.625C142.667 120.725 143.177 120.23 146.582 120.23C149.987 120.23 150.497 120.755 150.497 121.625C150.497 122.54 150.002 123.035 146.582 123.035ZM160.501 115.25C165.166 115.25 166.201 114.56 166.201 112.985C166.201 111.425 165.166 110.735 160.501 110.735C155.836 110.735 154.801 111.425 154.801 112.985C154.801 114.56 155.836 115.25 160.501 115.25ZM160.501 113.81C157.081 113.81 156.616 113.54 156.616 112.985C156.616 112.445 157.081 112.175 160.501 112.175C163.921 112.175 164.386 112.445 164.386 112.985C164.386 113.54 163.921 113.81 160.501 113.81ZM154.096 117.5C156.376 117.56 165.061 117.56 166.906 117.5C166.951 117.035 166.951 116.54 166.906 116.12C164.971 116.09 157.276 116.06 154.096 116.12C154.051 116.555 154.051 117.095 154.096 117.5ZM154.981 124.295C156.856 124.385 165.361 124.37 166.321 124.295C166.366 123.905 166.381 123.35 166.321 122.96H156.736V122.045H165.976C166.051 121.4 166.051 119.09 165.976 118.475C164.026 118.43 158.776 118.43 155.011 118.475C154.951 118.76 154.951 119.435 155.011 119.84H164.221V120.74H154.981C154.891 121.97 154.921 123.47 154.981 124.295ZM184.214 113.315C183.899 113.3 183.359 113.3 182.804 113.3C182.789 112.325 182.789 111.425 182.774 110.87C182.354 110.81 181.379 110.81 181.034 110.87C180.989 112.1 180.989 116.555 181.034 117.905C181.469 117.95 182.399 117.965 182.774 117.905C182.789 117.26 182.804 116.135 182.804 114.935C183.404 114.935 183.959 114.92 184.214 114.905C184.259 114.44 184.259 113.765 184.214 113.315ZM179.459 117.155C179.504 116.78 179.504 116.12 179.459 115.655C178.229 115.64 174.284 115.655 173.099 115.655C173.084 114.89 173.084 113.495 173.099 112.67C174.239 112.7 177.674 112.7 178.859 112.67C178.919 112.22 178.919 111.62 178.859 111.185C177.374 111.14 172.784 111.125 171.359 111.185C171.284 112.82 171.269 115.49 171.359 117.155C172.694 117.2 178.154 117.215 179.459 117.155ZM173.624 122.795C173.609 122.225 173.609 120.695 173.624 120.11C175.289 120.125 181.619 120.125 182.774 120.11C182.819 119.66 182.819 119.075 182.774 118.625C181.244 118.58 173.579 118.565 171.884 118.625C171.809 120.305 171.794 122.555 171.884 124.265C175.064 124.355 181.799 124.31 183.029 124.265C183.074 123.815 183.074 123.245 183.029 122.795C181.589 122.78 175.709 122.78 173.624 122.795ZM191.248 119.42C195.733 119.42 197.098 118.07 197.098 115.34C197.098 112.61 195.733 111.26 191.248 111.26C186.763 111.26 185.398 112.61 185.398 115.34C185.398 118.07 186.763 119.42 191.248 119.42ZM191.248 117.83C188.173 117.83 187.213 117.125 187.213 115.34C187.213 113.54 188.173 112.835 191.248 112.835C194.323 112.835 195.283 113.54 195.283 115.34C195.283 117.125 194.323 117.83 191.248 117.83ZM184.843 123.86C186.703 123.92 196.243 123.95 197.653 123.86C197.698 123.365 197.698 122.78 197.653 122.33C196.153 122.3 187.603 122.285 184.843 122.33C184.798 122.795 184.798 123.425 184.843 123.86ZM207.161 115.88C207.116 116.33 207.116 117.005 207.161 117.455C207.581 117.47 208.436 117.485 209.171 117.485C209.171 118.82 209.186 119.975 209.201 120.5C209.636 120.545 210.566 120.56 210.941 120.5C210.986 118.835 210.971 112.595 210.941 110.87C210.521 110.81 209.546 110.81 209.201 110.87C209.186 111.17 209.186 111.71 209.171 112.37C208.421 112.37 207.581 112.37 207.161 112.385C207.116 112.82 207.116 113.495 207.161 113.96C207.581 113.975 208.436 113.99 209.171 113.975V115.865C208.421 115.865 207.581 115.865 207.161 115.88ZM206.456 118.205C206.531 116.78 206.531 112.82 206.456 111.185C205.241 111.125 200.111 111.125 199.106 111.185C199.046 112.715 199.046 116.57 199.106 118.205C200.336 118.28 205.376 118.265 206.456 118.205ZM200.786 112.655C201.941 112.64 203.831 112.625 204.776 112.655C204.806 113.345 204.806 116.06 204.776 116.735C203.816 116.78 201.761 116.765 200.786 116.735C200.756 116.045 200.756 113.345 200.786 112.655ZM211.196 122.75C209.891 122.72 204.851 122.735 201.971 122.75C201.986 121.88 201.986 120.32 201.971 119.51C201.536 119.465 200.591 119.465 200.216 119.51C200.186 120.41 200.156 123.155 200.216 124.265C202.061 124.34 209.846 124.34 211.196 124.28C211.256 123.83 211.256 123.17 211.196 122.75ZM159.591 138.09C161.481 138.18 169.146 138.165 170.331 138.09C170.361 137.7 170.391 137.235 170.331 136.83H161.331V136.11H170.181C170.256 135.465 170.256 133.455 170.181 132.885C168.381 132.84 163.131 132.855 159.621 132.9C159.561 133.17 159.561 133.785 159.621 134.175H168.441V134.895H159.591C159.501 136.005 159.531 137.295 159.591 138.09ZM158.556 140.22C160.836 140.265 169.521 140.28 171.366 140.22C171.411 139.77 171.411 139.335 171.366 138.915C169.431 138.885 161.736 138.855 158.556 138.915C158.511 139.35 158.511 139.8 158.556 140.22ZM159.441 146.295C161.316 146.385 169.821 146.37 170.781 146.295C170.826 145.905 170.841 145.44 170.781 145.035H161.196V144.3H170.436C170.511 143.67 170.511 141.69 170.436 141.075C168.486 141.03 163.236 141.03 159.471 141.075C159.411 141.36 159.411 141.96 159.471 142.365H168.681V143.085H159.441C159.351 144.285 159.381 145.5 159.441 146.295ZM184.144 135.03C184.189 134.625 184.174 134.055 184.144 133.65C183.574 133.635 182.269 133.62 180.829 133.62C180.844 133.245 180.829 132.87 180.814 132.6C180.334 132.51 179.329 132.51 178.969 132.6C178.954 132.87 178.939 133.26 178.954 133.62C177.259 133.62 175.744 133.635 175.384 133.65C175.324 134.07 175.324 134.58 175.384 135.03C176.329 135.06 182.914 135.06 184.144 135.03ZM188.674 135.495C188.359 135.48 187.819 135.48 187.264 135.48C187.249 134.43 187.249 133.47 187.234 132.87C186.814 132.81 185.839 132.81 185.494 132.87C185.449 134.115 185.449 138.645 185.494 139.995C185.929 140.04 186.859 140.055 187.234 139.995C187.249 139.365 187.264 138.285 187.264 137.115C187.864 137.115 188.419 137.1 188.674 137.085C188.719 136.62 188.719 135.945 188.674 135.495ZM183.964 137.685C183.964 136.11 182.794 135.555 179.884 135.555C177.064 135.555 175.804 136.065 175.804 137.685C175.804 139.275 176.974 139.845 179.884 139.845C182.704 139.845 183.964 139.305 183.964 137.685ZM177.454 137.685C177.454 137.13 178.039 136.905 179.884 136.905C181.684 136.905 182.314 137.13 182.314 137.685C182.314 138.24 181.729 138.48 179.884 138.48C178.084 138.48 177.454 138.255 177.454 137.685ZM178.099 144.075H187.234C187.309 143.22 187.309 141.36 187.234 140.565C185.329 140.52 179.884 140.52 176.374 140.565C176.314 140.865 176.314 141.555 176.374 141.945H185.479V142.755H176.344C176.254 144 176.284 145.53 176.344 146.265C178.219 146.355 186.289 146.355 187.489 146.265C187.534 145.89 187.534 145.275 187.489 144.885H178.099V144.075ZM193.863 139.845C194.883 139.275 197.103 137.955 198.873 136.83C200.688 137.91 202.953 139.17 203.958 139.74C204.198 139.485 204.723 138.66 204.843 138.255C203.598 137.505 201.498 136.305 199.803 135.345C199.818 134.535 199.803 133.47 199.773 132.945C199.353 132.885 198.288 132.9 197.943 132.945C197.913 133.485 197.898 134.535 197.913 135.36C196.248 136.365 194.193 137.61 192.933 138.39C193.053 138.795 193.593 139.59 193.863 139.845ZM205.263 140.955C203.763 140.925 195.213 140.91 192.453 140.955C192.408 141.42 192.408 142.05 192.453 142.485C193.263 142.515 195.528 142.53 197.958 142.545C197.928 143.835 197.943 145.785 197.973 146.4C198.453 146.43 199.353 146.43 199.758 146.4C199.788 145.74 199.773 143.805 199.773 142.545C202.293 142.545 204.618 142.53 205.263 142.485C205.308 141.99 205.308 141.405 205.263 140.955ZM219.931 136.845C219.931 137.94 219.946 138.945 219.961 139.485C220.396 139.53 221.326 139.545 221.701 139.485C221.746 138.045 221.731 134.385 221.701 132.87C221.281 132.81 220.306 132.81 219.961 132.87C219.946 133.335 219.931 134.205 219.931 135.195C219.196 135.195 218.371 135.195 217.966 135.21C217.921 135.66 217.921 136.365 217.966 136.83C218.386 136.845 219.211 136.86 219.931 136.845ZM213.511 139.23C216.241 139.23 217.456 138.12 217.456 136.125C217.456 134.13 216.241 133.02 213.511 133.02C210.781 133.02 209.566 134.13 209.566 136.125C209.566 138.12 210.781 139.23 213.511 139.23ZM213.511 134.505C215.131 134.505 215.761 135.12 215.761 136.125C215.761 137.13 215.131 137.745 213.511 137.745C211.861 137.745 211.261 137.13 211.261 136.125C211.261 135.12 211.861 134.505 213.511 134.505ZM220.036 142.62C220.051 141.855 220.051 140.625 220.021 140.055C219.601 139.995 218.581 139.995 218.236 140.055C218.221 140.64 218.206 141.885 218.221 142.665C217.366 143.49 216.331 144.555 215.656 145.305C215.686 143.79 215.671 141.195 215.641 140.07C215.176 140.025 214.561 140.025 214.081 140.07V141.72C213.376 141.705 212.536 141.705 211.816 141.72V140.07C211.411 140.025 210.736 140.025 210.271 140.07C210.241 141.18 210.241 144.975 210.271 146.265C211.501 146.34 214.501 146.325 215.641 146.265C215.656 146.07 215.656 145.77 215.656 145.395C215.911 145.725 216.421 146.22 216.766 146.43C217.576 145.68 218.596 144.585 219.151 143.925C219.706 144.585 220.786 145.74 221.536 146.43C221.926 146.19 222.436 145.71 222.676 145.35C221.986 144.555 220.906 143.445 220.036 142.62ZM211.816 143.145C212.521 143.16 213.376 143.16 214.081 143.145V144.885H211.816V143.145ZM224.295 137.895C225.36 137.55 227.775 136.65 229.635 135.885C231.495 136.62 233.895 137.49 234.99 137.85C235.26 137.505 235.545 136.815 235.62 136.38C234.345 135.885 232.26 135.15 230.55 134.55C230.565 133.965 230.55 133.32 230.52 132.825C230.1 132.765 229.035 132.78 228.69 132.825C228.66 133.305 228.645 133.95 228.66 134.55C226.965 135.18 224.91 135.96 223.65 136.44C223.71 136.845 224.04 137.595 224.295 137.895ZM236.01 138.735C234.075 138.705 226.38 138.675 223.2 138.735C223.155 139.17 223.155 139.8 223.2 140.22C225.48 140.265 234.165 140.28 236.01 140.22C236.055 139.755 236.055 139.155 236.01 138.735ZM233.445 142.26C231.33 142.245 227.85 142.245 225.765 142.26V141.195C225.45 141.165 224.415 141.135 224.07 141.195C224.01 142.365 224.01 144.66 224.085 146.295C225.51 146.385 233.805 146.385 235.125 146.295C235.185 144.6 235.17 142.725 235.125 141.195C234.69 141.165 234.045 141.165 233.445 141.195V142.26ZM225.765 143.7C227.835 143.715 231.24 143.7 233.445 143.7V144.855C232.155 144.885 227.25 144.885 225.765 144.855V143.7ZM247.543 146.28C247.978 146.325 248.938 146.325 249.313 146.28C249.358 144.495 249.358 134.88 249.313 132.87C248.893 132.81 247.903 132.795 247.543 132.87C247.498 134.67 247.498 144.51 247.543 146.28ZM237.583 145.215C239.143 145.275 244.588 145.26 245.863 145.215C245.923 144.78 245.923 144.075 245.863 143.625C244.633 143.595 240.508 143.595 239.353 143.625C239.383 141.105 239.398 135.48 239.353 133.29C238.933 133.245 237.943 133.245 237.568 133.29C237.508 135.36 237.493 142.365 237.583 145.215ZM264.042 138.045C263.652 138.03 263.142 138.03 262.572 138.03C262.572 135.735 262.557 133.68 262.527 132.87C262.107 132.81 261.117 132.795 260.772 132.87C260.727 134.67 260.712 144.51 260.772 146.28C261.207 146.325 262.152 146.325 262.527 146.28C262.557 145.395 262.572 142.59 262.572 139.725C263.202 139.74 263.697 139.725 264.042 139.695C264.087 139.245 264.087 138.48 264.042 138.045ZM253.227 143.655C253.242 141.525 253.242 136.95 253.227 134.925C254.382 134.955 257.292 134.955 258.417 134.925C258.477 134.475 258.477 133.785 258.417 133.35C256.932 133.29 252.957 133.305 251.427 133.35C251.352 135.045 251.337 143.49 251.427 145.215C252.747 145.275 258.027 145.26 259.167 145.215C259.227 144.78 259.227 144.105 259.167 143.655C257.802 143.625 254.592 143.625 253.227 143.655ZM264.836 145.68C265.481 145.71 266.171 145.725 266.816 145.665C266.846 145.05 266.846 144.375 266.816 143.745C266.186 143.7 265.511 143.7 264.836 143.745C264.806 144.36 264.806 145.05 264.836 145.68Z" fill="#504E48"/>
<path d="M53.9819 136.44C54.4019 136.5 55.8419 136.5 56.3219 136.44C56.3519 135.75 56.3669 133.635 56.3219 132.885C55.8719 132.84 54.7319 132.81 54.2819 132.885C54.1469 133.815 53.9969 135.54 53.9819 136.44ZM57.8589 145.665C58.4589 145.755 59.3589 145.755 60.0339 145.665C60.0789 144.315 60.0039 139.77 60.0189 136.275C60.7089 139.455 62.0289 144.6 62.3289 145.62C63.0039 145.665 63.9639 145.68 64.5639 145.62C64.8639 144.6 66.1839 139.455 66.8739 136.275C66.8889 139.77 66.8139 144.315 66.8589 145.665C67.5339 145.755 68.4339 145.755 69.0339 145.665C69.0789 143.115 69.0489 136.08 69.0339 133.5C68.1489 133.44 66.1839 133.44 65.3889 133.5C65.0439 135 64.1439 138.96 63.4539 142.47C62.7489 138.96 61.8489 135 61.5039 133.5C60.7089 133.44 58.7439 133.44 57.8589 133.5C57.8439 136.08 57.8139 143.115 57.8589 145.665ZM75.6796 145.89C78.9196 145.89 80.8546 144.135 80.8546 139.605C80.8546 135.195 79.0396 133.32 75.6796 133.32C72.3196 133.32 70.5046 135.195 70.5046 139.605C70.5046 144.045 72.3346 145.89 75.6796 145.89ZM75.6796 143.745C73.8196 143.745 72.8146 142.695 72.8146 139.605C72.8146 136.59 73.7596 135.465 75.6796 135.465C77.7796 135.465 78.5446 136.83 78.5446 139.605C78.5446 142.755 77.4946 143.745 75.6796 143.745ZM84.4738 145.89C86.9788 145.89 88.1488 144.48 88.1938 141.555C88.2388 138.93 88.2088 136.2 88.1938 133.5C87.6688 133.395 86.5288 133.41 85.8838 133.5C85.8988 136.185 85.9138 138.915 85.8838 141.495C85.8688 143.04 85.4788 143.64 84.3688 143.64C83.6788 143.64 83.0788 143.325 82.6288 142.785C82.0738 143.265 81.5788 143.79 81.1888 144.375C81.9238 145.455 83.0338 145.89 84.4738 145.89ZM89.9833 145.665C90.6733 145.755 91.4833 145.755 92.2483 145.665C92.2783 143.19 92.2783 136.14 92.2483 133.5C91.6483 133.425 90.5233 133.425 89.9833 133.5C89.9233 136.23 89.9233 143.295 89.9833 145.665ZM105.062 136.98C105.017 137.55 105.017 138.42 105.062 138.99C105.512 139.02 106.262 139.02 106.982 139.005C106.997 139.59 106.997 140.07 107.012 140.355C107.537 140.4 108.782 140.415 109.247 140.355C109.292 138.87 109.277 134.445 109.247 132.825C108.722 132.75 107.417 132.765 107.012 132.825C106.997 133.035 106.997 133.365 106.997 133.785C106.247 133.785 105.497 133.785 105.062 133.8C105.017 134.37 105.017 135.24 105.062 135.81C105.512 135.84 106.262 135.84 106.982 135.825V136.965C106.232 136.965 105.497 136.965 105.062 136.98ZM102.062 135.06C102.077 136.155 102.062 138.525 102.062 139.635C102.602 139.695 103.757 139.695 104.297 139.635C104.387 137.895 104.357 134.82 104.252 133.08C102.932 133.005 98.2522 133.02 97.0522 133.08C96.9922 133.635 96.9922 134.475 97.0522 135.06C98.1922 135.09 101.132 135.09 102.062 135.06ZM103.682 140.64C99.2422 140.64 97.8622 141.435 97.8622 143.595C97.8622 145.56 99.0172 146.55 103.682 146.55C108.122 146.55 109.502 145.755 109.502 143.595C109.502 141.63 108.347 140.64 103.682 140.64ZM103.682 144.69C100.532 144.69 100.142 144.285 100.142 143.595C100.142 142.86 100.517 142.5 103.682 142.5C106.832 142.5 107.222 142.905 107.222 143.595C107.222 144.33 106.847 144.69 103.682 144.69ZM122.836 137.91C122.881 137.22 122.881 136.68 122.836 136.095C122.431 136.08 121.756 136.08 120.916 136.065V134.79C121.666 134.775 122.296 134.775 122.686 134.76C122.716 134.1 122.716 133.5 122.686 132.945C121.291 132.885 113.911 132.9 111.421 132.945C111.376 133.5 111.376 134.175 111.421 134.76C111.796 134.775 112.411 134.775 113.176 134.79V136.065C112.336 136.08 111.646 136.08 111.271 136.095C111.226 136.68 111.226 137.295 111.271 137.91C113.041 137.97 120.901 137.97 122.836 137.91ZM115.381 134.805C116.461 134.805 117.631 134.805 118.711 134.805V136.05C117.631 136.05 116.461 136.05 115.381 136.065V134.805ZM123.496 138.66C122.086 138.63 113.716 138.6 110.596 138.66C110.536 139.215 110.536 140.025 110.596 140.535C111.346 140.565 113.521 140.58 115.876 140.595C115.876 140.955 115.876 141.315 115.891 141.63C113.731 141.63 111.811 141.63 111.421 141.645C111.376 142.875 111.346 145.185 111.421 146.37C112.591 146.475 121.516 146.46 122.671 146.37C122.731 145.245 122.731 142.98 122.671 141.645C122.311 141.63 120.376 141.63 118.216 141.63C118.216 141.3 118.231 140.955 118.216 140.595C120.691 140.595 122.926 140.58 123.496 140.535C123.556 139.95 123.556 139.185 123.496 138.66ZM120.511 144.57C119.881 144.6 114.271 144.615 113.581 144.57V143.46C114.571 143.43 119.671 143.445 120.511 143.46V144.57ZM133.994 137.985C138.614 137.985 139.799 137.13 139.799 135.315C139.799 133.515 138.614 132.66 133.994 132.66C129.374 132.66 128.189 133.515 128.189 135.315C128.189 137.13 129.374 137.985 133.994 137.985ZM133.994 136.02C130.874 136.02 130.514 135.75 130.514 135.315C130.514 134.895 130.874 134.625 133.994 134.625C137.114 134.625 137.474 134.895 137.474 135.315C137.474 135.75 137.114 136.02 133.994 136.02ZM127.544 140.505C129.314 140.565 139.154 140.595 140.444 140.505C140.504 139.92 140.504 139.155 140.444 138.63C139.034 138.6 130.664 138.57 127.544 138.63C127.484 139.185 127.484 139.995 127.544 140.505ZM133.994 146.55C138.704 146.55 139.919 145.695 139.919 143.88C139.919 142.08 138.704 141.225 133.994 141.225C129.284 141.225 128.069 142.08 128.069 143.88C128.069 145.695 129.284 146.55 133.994 146.55ZM133.994 144.585C130.814 144.585 130.454 144.3 130.454 143.88C130.454 143.475 130.814 143.19 133.994 143.19C137.174 143.19 137.534 143.475 137.534 143.88C137.534 144.3 137.174 144.585 133.994 144.585ZM153.433 140.505C153.523 139.605 153.523 135.165 153.433 133.365C153.043 133.305 143.098 133.305 142.168 133.365C142.093 135.045 142.063 138.705 142.168 140.505C143.338 140.625 152.428 140.61 153.433 140.505ZM144.403 135.39C146.143 135.36 149.758 135.375 151.198 135.39C151.228 135.87 151.228 138.03 151.198 138.51C149.968 138.54 145.843 138.54 144.403 138.51C144.373 138.03 144.373 135.87 144.403 135.39ZM154.243 144.015C153.583 144 151.408 143.985 148.963 143.985C148.963 143.055 148.963 141.945 148.948 141.345C148.393 141.27 147.103 141.255 146.653 141.345C146.623 141.87 146.623 142.995 146.623 143.985C144.553 143.985 142.558 143.985 141.343 144.015C141.283 144.6 141.283 145.425 141.343 145.965C143.113 146.025 152.953 146.055 154.243 145.965C154.303 145.335 154.303 144.57 154.243 144.015ZM155.187 136.59C155.637 136.635 156.777 136.665 157.227 136.59C157.362 135.66 157.512 133.935 157.527 133.035C157.107 132.975 155.667 132.975 155.187 133.035C155.157 133.725 155.142 135.84 155.187 136.59Z" fill="#FF7A00"/>
<path d="M55 149H155V151H55V149Z" fill="#FF7A00"/>
<path d="M159.395 71.84C158.765 71.81 157.865 71.78 156.815 71.78C156.785 69.71 156.785 67.82 156.755 66.65C155.705 66.5 153.095 66.53 152.285 66.65C152.195 68.93 152.195 78.83 152.285 81.41C153.335 81.5 155.825 81.53 156.755 81.41C156.785 80.24 156.815 78.2 156.815 75.98C158.015 75.98 158.915 75.95 159.395 75.89C159.485 74.75 159.485 72.98 159.395 71.84ZM135.815 81.83C137.945 80.45 140.045 79.01 142.055 77.45C144.215 78.74 146.435 79.94 148.595 81.05C149.255 80.3 150.395 78.5 150.785 77.57C148.475 76.25 146.465 75.14 144.335 73.97V71.09C146.675 71.06 148.775 71.06 149.885 71.03C149.975 69.98 149.975 68.3 149.885 67.16C144.515 67.04 136.385 67.1 133.955 67.16C133.835 68.24 133.835 69.83 133.955 71.03C134.855 71.09 137.075 71.09 139.625 71.09V74.15C137.525 75.62 135.575 76.94 133.325 78.53C133.745 79.46 135.125 81.14 135.815 81.83ZM134.765 82.76C134.675 85.79 134.615 90.47 134.765 93.74C137.105 93.95 154.745 93.92 156.755 93.74C156.875 91.49 156.875 85.13 156.755 82.76C155.945 82.67 136.625 82.64 134.765 82.76ZM152.345 89.99C151.085 90.05 140.555 90.08 139.175 89.99C139.085 88.79 139.115 87.47 139.175 86.54C141.155 86.48 150.665 86.45 152.345 86.54C152.405 87.62 152.405 89.12 152.345 89.99ZM187.292 73.52C186.662 73.49 185.762 73.46 184.712 73.46C184.682 70.49 184.682 67.88 184.652 66.65C183.602 66.5 180.992 66.53 180.182 66.65C180.092 68.93 180.092 83.42 180.182 86C181.232 86.09 183.722 86.12 184.652 86C184.682 84.68 184.712 81.29 184.712 77.66C185.912 77.66 186.812 77.63 187.292 77.57C187.382 76.43 187.382 74.66 187.292 73.52ZM164.342 71.06C164.372 73.25 164.342 79.16 164.342 81.38C165.422 81.5 167.972 81.53 168.752 81.38C168.932 77.9 168.872 70.64 168.662 67.16C167.522 67.1 162.602 67.07 161.102 67.16C160.982 68.27 160.982 69.89 161.102 71.06C161.732 71.03 163.772 71.03 164.342 71.06ZM172.742 71.06C172.772 73.25 172.742 79.16 172.742 81.38C173.822 81.5 176.372 81.53 177.152 81.38C177.332 77.9 177.272 70.64 177.062 67.16C175.922 67.1 171.302 67.07 169.802 67.16C169.682 68.27 169.682 69.89 169.802 71.06C170.432 71.03 172.172 71.03 172.742 71.06ZM167.282 89.78C167.342 88.16 167.342 85.13 167.282 83.63C166.202 83.54 163.742 83.54 162.812 83.63C162.722 85.4 162.662 91.52 162.812 93.74C165.542 93.89 182.762 93.89 185.162 93.74C185.282 92.63 185.282 90.86 185.162 89.78C182.912 89.72 173.912 89.75 167.282 89.78ZM190.35 85.67C191.85 85.76 193.44 85.76 194.76 85.67C194.88 83.15 195.06 70.52 195.06 67.73C193.17 67.58 192.03 67.58 190.08 67.73C190.11 70.52 190.23 83.12 190.35 85.67ZM190.26 92.51C191.73 92.6 193.47 92.63 194.97 92.48C195.03 91.1 195.03 89.57 194.97 88.16C193.5 88.04 191.79 88.04 190.26 88.16C190.17 89.54 190.2 91.1 190.26 92.51Z" fill="#504E48"/>
<path d="M86.553 186.098C86.514 186.475 86.514 187.06 86.553 187.45C86.982 187.476 87.853 187.489 88.555 187.463C88.568 188.048 88.568 188.542 88.581 188.841C88.958 188.88 89.764 188.893 90.089 188.841C90.128 187.541 90.115 183.719 90.089 182.354C89.725 182.302 88.88 182.302 88.581 182.354C88.568 182.588 88.568 182.939 88.568 183.394C87.84 183.381 86.969 183.381 86.553 183.394C86.514 183.771 86.514 184.356 86.553 184.746C86.982 184.772 87.853 184.785 88.555 184.759V186.098C87.827 186.085 86.956 186.085 86.553 186.098ZM84.291 183.953C84.304 184.902 84.291 187.125 84.291 188.178C84.668 188.23 85.448 188.23 85.812 188.178C85.877 186.761 85.864 184.122 85.773 182.627C84.551 182.562 80.729 182.575 79.65 182.614C79.611 182.991 79.611 183.563 79.65 183.966C80.69 183.979 83.498 183.979 84.291 183.953ZM85.357 189.153C81.574 189.153 80.404 189.868 80.404 191.649C80.404 193.313 81.444 194.145 85.357 194.145C89.14 194.145 90.31 193.43 90.31 191.649C90.31 189.972 89.27 189.153 85.357 189.153ZM85.357 192.858C82.393 192.858 81.938 192.403 81.938 191.649C81.938 190.856 82.38 190.427 85.357 190.427C88.321 190.427 88.776 190.882 88.776 191.649C88.776 192.429 88.334 192.858 85.357 192.858ZM101.905 186.618C101.944 186.163 101.944 185.773 101.905 185.383C101.476 185.37 100.813 185.357 100.033 185.357V183.771C100.748 183.758 101.372 183.758 101.775 183.745C101.814 183.303 101.814 182.887 101.775 182.51C100.228 182.458 94.287 182.471 92.116 182.51C92.077 182.887 92.077 183.342 92.116 183.745C92.506 183.758 93.117 183.758 93.845 183.771C93.832 184.265 93.832 184.863 93.845 185.357C93.052 185.37 92.402 185.37 91.986 185.383C91.947 185.773 91.947 186.202 91.986 186.618C93.767 186.657 100.02 186.657 101.905 186.618ZM95.34 183.771H98.538C98.525 184.265 98.525 184.85 98.538 185.344C97.498 185.344 96.367 185.344 95.34 185.357V183.771ZM102.49 187.541C100.813 187.502 94.144 187.489 91.388 187.541C91.349 187.918 91.349 188.464 91.388 188.815C92.246 188.841 94.144 188.854 96.146 188.854C96.146 189.244 96.146 189.634 96.159 189.985C94.3 189.985 92.597 189.998 92.155 190.011C92.103 191.038 92.09 193.001 92.155 193.989C93.312 194.08 100.579 194.067 101.723 193.989C101.788 193.04 101.775 191.103 101.723 190.011C101.294 189.998 99.591 189.985 97.732 189.985C97.745 189.621 97.745 189.244 97.732 188.854C99.825 188.854 101.762 188.841 102.49 188.815C102.529 188.425 102.529 187.892 102.49 187.541ZM100.267 192.754C99.643 192.78 94.274 192.793 93.611 192.754V191.246C94.443 191.22 99.513 191.233 100.267 191.246V192.754ZM111.627 186.696C115.553 186.696 116.567 185.955 116.567 184.46C116.567 182.978 115.553 182.237 111.627 182.237C107.701 182.237 106.687 182.978 106.687 184.46C106.687 185.955 107.701 186.696 111.627 186.696ZM111.627 185.357C108.663 185.357 108.247 185.006 108.247 184.46C108.247 183.927 108.663 183.576 111.627 183.576C114.591 183.576 115.007 183.927 115.007 184.46C115.007 185.006 114.591 185.357 111.627 185.357ZM106.076 188.802C108.052 188.854 115.579 188.854 117.178 188.802C117.217 188.399 117.217 187.879 117.178 187.515C115.501 187.489 108.832 187.476 106.076 187.515C106.037 187.892 106.037 188.451 106.076 188.802ZM111.627 194.145C115.631 194.145 116.671 193.391 116.671 191.883C116.671 190.388 115.631 189.634 111.627 189.634C107.623 189.634 106.583 190.388 106.583 191.883C106.583 193.391 107.623 194.145 111.627 194.145ZM111.627 192.806C108.611 192.806 108.182 192.442 108.182 191.883C108.182 191.337 108.611 190.973 111.627 190.973C114.643 190.973 115.072 191.337 115.072 191.883C115.072 192.442 114.643 192.806 111.627 192.806ZM128.383 188.841C128.461 187.879 128.461 184.33 128.383 182.874C127.694 182.822 119.816 182.822 118.802 182.874C118.737 184.265 118.711 187.359 118.802 188.841C119.946 188.945 127.343 188.932 128.383 188.841ZM120.31 184.239C121.727 184.213 125.653 184.226 126.875 184.239C126.901 184.681 126.901 187.06 126.875 187.502C125.77 187.528 121.558 187.528 120.31 187.502C120.284 187.06 120.284 184.681 120.31 184.239ZM129.137 192.286C128.526 192.273 126.537 192.26 124.379 192.26C124.379 191.363 124.392 190.167 124.366 189.621C123.976 189.556 123.144 189.543 122.819 189.621C122.793 190.115 122.78 191.337 122.806 192.26C120.882 192.26 119.023 192.273 118.035 192.286C117.996 192.689 117.996 193.235 118.035 193.612C119.647 193.664 127.915 193.69 129.137 193.612C129.176 193.183 129.176 192.676 129.137 192.286ZM130.891 186.878C132.529 186.956 139.172 186.943 140.199 186.878C140.225 186.54 140.251 186.137 140.199 185.786H132.399V185.162H140.069C140.134 184.603 140.134 182.861 140.069 182.367C138.509 182.328 133.959 182.341 130.917 182.38C130.865 182.614 130.865 183.147 130.917 183.485H138.561V184.109H130.891C130.813 185.071 130.839 186.189 130.891 186.878ZM129.994 188.724C131.97 188.763 139.497 188.776 141.096 188.724C141.135 188.334 141.135 187.957 141.096 187.593C139.419 187.567 132.75 187.541 129.994 187.593C129.955 187.97 129.955 188.36 129.994 188.724ZM130.761 193.989C132.386 194.067 139.757 194.054 140.589 193.989C140.628 193.651 140.641 193.248 140.589 192.897H132.282V192.26H140.29C140.355 191.714 140.355 189.998 140.29 189.465C138.6 189.426 134.05 189.426 130.787 189.465C130.735 189.712 130.735 190.232 130.787 190.583H138.769V191.207H130.761C130.683 192.247 130.709 193.3 130.761 193.989ZM151.144 189.465C151.105 189.842 151.105 190.336 151.144 190.739C151.664 190.765 152.808 190.765 153.822 190.739C153.835 191.064 153.835 191.337 153.835 191.545C154.212 191.571 155.018 191.597 155.343 191.545C155.382 189.855 155.382 184.044 155.343 182.354C154.979 182.289 154.134 182.289 153.835 182.354C153.822 183.472 153.809 187.008 153.822 189.465C152.86 189.439 151.729 189.452 151.144 189.465ZM148.791 186.813C151.3 186.813 152.379 186.059 152.379 184.59C152.379 183.134 151.3 182.367 148.791 182.367C146.269 182.367 145.19 183.134 145.19 184.59C145.19 186.059 146.269 186.813 148.791 186.813ZM148.791 183.68C150.429 183.68 150.923 183.992 150.923 184.59C150.923 185.188 150.429 185.5 148.791 185.5C147.127 185.5 146.646 185.188 146.646 184.59C146.646 183.992 147.127 183.68 148.791 183.68ZM148.219 190.791C148.609 190.856 149.324 190.856 149.74 190.791C149.753 190.349 149.753 189.465 149.753 188.75C151.183 188.75 152.457 188.737 152.938 188.724C152.99 188.347 152.99 187.866 152.938 187.437C151.729 187.411 145.944 187.398 144.696 187.437C144.631 187.814 144.631 188.347 144.696 188.724C145.398 188.737 146.763 188.75 148.193 188.75C148.193 189.478 148.206 190.336 148.219 190.791ZM155.564 192.65C154.433 192.624 149.519 192.637 147.257 192.65C147.283 192.13 147.283 190.726 147.257 190.232C146.893 190.193 146.087 190.193 145.749 190.232C145.71 190.908 145.684 192.923 145.749 193.963C146.958 194.028 154.394 194.028 155.564 193.963C155.616 193.599 155.616 193.027 155.564 192.65ZM161.348 183.459C161.361 182.978 161.348 182.406 161.322 182.055C160.945 181.99 160.074 181.977 159.762 182.055C159.723 182.406 159.71 183.004 159.723 183.459C158.241 183.459 156.915 183.472 156.603 183.485C156.551 183.862 156.551 184.46 156.603 184.837C157.422 184.876 163.168 184.85 164.234 184.837C164.273 184.486 164.26 183.849 164.234 183.485C163.74 183.459 162.596 183.459 161.348 183.459ZM168.121 187.099C167.783 187.086 167.341 187.086 166.847 187.086C166.847 185.006 166.834 183.095 166.808 182.354C166.444 182.302 165.586 182.289 165.287 182.354C165.248 183.914 165.235 192.442 165.287 193.976C165.664 194.015 166.483 194.015 166.808 193.976C166.834 193.235 166.847 190.947 166.847 188.555C167.393 188.568 167.822 188.555 168.121 188.529C168.16 188.139 168.16 187.476 168.121 187.099ZM160.555 185.643C157.942 185.643 157.019 186.761 157.019 189.608C157.019 192.455 157.942 193.573 160.555 193.573C163.168 193.573 164.091 192.455 164.091 189.608C164.091 186.761 163.168 185.643 160.555 185.643ZM160.555 192.299C159.008 192.299 158.488 191.649 158.488 189.608C158.488 187.567 159.008 186.917 160.555 186.917C162.102 186.917 162.622 187.567 162.622 189.608C162.622 191.649 162.102 192.299 160.555 192.299ZM179.274 182.354C178.91 182.302 178.052 182.289 177.74 182.354C177.701 183.914 177.701 192.442 177.74 193.976C178.117 194.015 178.949 194.015 179.274 193.976C179.313 192.429 179.313 184.096 179.274 182.354ZM173.125 182.666C172.748 182.601 171.838 182.601 171.526 182.666C171.5 183.394 171.487 185.487 171.513 187.073C170.59 188.789 169.199 191.363 168.562 192.585C168.822 192.858 169.55 193.209 169.862 193.287C170.382 192.442 171.474 190.362 172.332 188.633C173.333 190.31 174.633 192.299 175.205 193.105C175.517 193.001 176.167 192.559 176.414 192.26C175.699 191.103 174.191 188.815 173.138 187.203C173.164 185.656 173.151 183.472 173.125 182.666ZM187.944 186.696C187.905 187.086 187.905 187.671 187.944 188.061C188.308 188.074 189.049 188.087 189.686 188.087C189.686 189.244 189.699 190.245 189.712 190.7C190.089 190.739 190.895 190.752 191.22 190.7C191.259 189.257 191.246 183.849 191.22 182.354C190.856 182.302 190.011 182.302 189.712 182.354C189.699 182.614 189.699 183.082 189.686 183.654C189.036 183.654 188.308 183.654 187.944 183.667C187.905 184.044 187.905 184.629 187.944 185.032C188.308 185.045 189.049 185.058 189.686 185.045V186.683C189.036 186.683 188.308 186.683 187.944 186.696ZM187.333 188.711C187.398 187.476 187.398 184.044 187.333 182.627C186.28 182.575 181.834 182.575 180.963 182.627C180.911 183.953 180.911 187.294 180.963 188.711C182.029 188.776 186.397 188.763 187.333 188.711ZM182.419 183.901C183.42 183.888 185.058 183.875 185.877 183.901C185.903 184.499 185.903 186.852 185.877 187.437C185.045 187.476 183.264 187.463 182.419 187.437C182.393 186.839 182.393 184.499 182.419 183.901ZM191.441 192.65C190.31 192.624 185.942 192.637 183.446 192.65C183.459 191.896 183.459 190.544 183.446 189.842C183.069 189.803 182.25 189.803 181.925 189.842C181.899 190.622 181.873 193.001 181.925 193.963C183.524 194.028 190.271 194.028 191.441 193.976C191.493 193.586 191.493 193.014 191.441 192.65ZM206.35 187.086C205.557 187.073 203.659 187.06 201.592 187.06V186.293C203.36 186.293 204.972 186.28 205.453 186.254C205.492 185.929 205.492 185.409 205.453 185.019C204.426 185.006 198.693 185.019 197.679 185.019V183.719C198.641 183.745 204.348 183.745 205.323 183.719C205.375 183.329 205.375 182.874 205.323 182.484C204.088 182.445 197.419 182.419 196.145 182.484C196.08 183.407 196.067 185.305 196.145 186.254C196.691 186.267 198.29 186.28 200.006 186.293V187.06C198.173 187.06 196.379 187.073 195.248 187.086C195.209 187.463 195.209 187.944 195.248 188.308C197.224 188.347 204.751 188.36 206.35 188.308C206.389 187.905 206.389 187.45 206.35 187.086ZM197.536 192.078H205.544C205.609 191.506 205.609 189.556 205.544 189.036C203.854 188.997 199.304 188.997 196.041 189.036C195.989 189.27 195.989 189.842 196.041 190.18H204.023V190.96H196.015C195.937 192.026 195.963 193.274 196.015 193.989C197.64 194.067 205.011 194.054 205.843 193.989C205.882 193.651 205.895 193.196 205.843 192.858H197.536V192.078ZM218.686 186.839C218.348 186.826 217.906 186.826 217.412 186.826C217.412 184.837 217.399 183.056 217.373 182.354C217.009 182.302 216.151 182.289 215.852 182.354C215.813 183.914 215.8 192.442 215.852 193.976C216.229 194.015 217.048 194.015 217.373 193.976C217.399 193.209 217.412 190.778 217.412 188.295C217.958 188.308 218.387 188.295 218.686 188.269C218.725 187.879 218.725 187.216 218.686 186.839ZM210.847 182.471C208.416 182.471 207.35 183.719 207.35 187.918C207.35 192.117 208.416 193.365 210.847 193.365C213.265 193.365 214.318 192.117 214.318 187.918C214.318 183.719 213.265 182.471 210.847 182.471ZM210.847 191.948C209.443 191.948 208.923 191.142 208.923 187.918C208.923 184.694 209.443 183.888 210.847 183.888C212.251 183.888 212.758 184.694 212.758 187.918C212.758 191.142 212.251 191.948 210.847 191.948ZM230.645 186.839C230.307 186.826 229.865 186.826 229.371 186.826C229.371 184.837 229.358 183.056 229.332 182.354C228.968 182.302 228.11 182.289 227.811 182.354C227.772 183.914 227.759 192.442 227.811 193.976C228.188 194.015 229.007 194.015 229.332 193.976C229.358 193.209 229.371 190.778 229.371 188.295C229.917 188.308 230.346 188.295 230.645 188.269C230.684 187.879 230.684 187.216 230.645 186.839ZM219.335 182.77C219.296 183.134 219.296 183.758 219.335 184.148C220.362 184.174 223.339 184.174 224.158 184.148C224.171 185.097 224.158 192 224.158 193.105C224.522 193.157 225.419 193.157 225.705 193.105C225.783 191.636 225.757 184.278 225.666 182.77C224.405 182.705 220.401 182.718 219.335 182.77ZM241.798 182.354C241.434 182.302 240.576 182.289 240.264 182.354C240.251 182.939 240.238 184.499 240.238 186.293C239.354 186.293 238.262 186.306 237.508 186.319C237.456 186.696 237.456 187.359 237.508 187.749C238.158 187.775 239.289 187.788 240.238 187.775C240.238 190.427 240.238 193.17 240.264 193.976C240.641 194.015 241.473 194.015 241.798 193.976C241.837 192.429 241.837 184.096 241.798 182.354ZM235.649 182.666C235.272 182.601 234.362 182.601 234.05 182.666C234.024 183.394 234.011 185.487 234.037 187.073C233.114 188.789 231.723 191.363 231.086 192.585C231.346 192.858 232.074 193.209 232.386 193.287C232.906 192.442 233.998 190.362 234.856 188.633C235.857 190.31 237.157 192.299 237.729 193.105C238.041 193.001 238.691 192.559 238.938 192.26C238.223 191.103 236.715 188.815 235.662 187.203C235.688 185.656 235.675 183.472 235.649 182.666ZM243.292 194.574C243.63 194.613 244.384 194.639 244.709 194.574C244.826 193.872 244.982 192.481 245.008 191.779C244.644 191.727 243.695 191.727 243.292 191.779C243.279 192.364 243.266 193.976 243.292 194.574ZM79.468 205.448C79.832 205.5 81.08 205.5 81.496 205.448C81.522 204.85 81.535 203.017 81.496 202.367C81.106 202.328 80.118 202.302 79.728 202.367C79.611 203.173 79.481 204.668 79.468 205.448ZM82.8281 213.443C83.3481 213.521 84.1281 213.521 84.7131 213.443C84.7521 212.273 84.6871 208.334 84.7001 205.305C85.2981 208.061 86.4421 212.52 86.7021 213.404C87.2871 213.443 88.1191 213.456 88.6391 213.404C88.8991 212.52 90.0431 208.061 90.6411 205.305C90.6541 208.334 90.5891 212.273 90.6281 213.443C91.2131 213.521 91.9931 213.521 92.5131 213.443C92.5521 211.233 92.5261 205.136 92.5131 202.9C91.7461 202.848 90.0431 202.848 89.3541 202.9C89.0551 204.2 88.2751 207.632 87.6771 210.674C87.0661 207.632 86.2861 204.2 85.9871 202.9C85.2981 202.848 83.5951 202.848 82.8281 202.9C82.8151 205.136 82.7891 211.233 82.8281 213.443ZM98.2727 213.638C101.081 213.638 102.758 212.117 102.758 208.191C102.758 204.369 101.185 202.744 98.2727 202.744C95.3607 202.744 93.7877 204.369 93.7877 208.191C93.7877 212.039 95.3737 213.638 98.2727 213.638ZM98.2727 211.779C96.6607 211.779 95.7897 210.869 95.7897 208.191C95.7897 205.578 96.6087 204.603 98.2727 204.603C100.093 204.603 100.756 205.786 100.756 208.191C100.756 210.921 99.8457 211.779 98.2727 211.779ZM105.894 213.638C108.065 213.638 109.079 212.416 109.118 209.881C109.157 207.606 109.131 205.24 109.118 202.9C108.663 202.809 107.675 202.822 107.116 202.9C107.129 205.227 107.142 207.593 107.116 209.829C107.103 211.168 106.765 211.688 105.803 211.688C105.205 211.688 104.685 211.415 104.295 210.947C103.814 211.363 103.385 211.818 103.047 212.325C103.684 213.261 104.646 213.638 105.894 213.638ZM110.669 213.443C111.267 213.521 111.969 213.521 112.632 213.443C112.658 211.298 112.658 205.188 112.632 202.9C112.112 202.835 111.137 202.835 110.669 202.9C110.617 205.266 110.617 211.389 110.669 213.443ZM123.738 205.916C123.699 206.41 123.699 207.164 123.738 207.658C124.128 207.684 124.778 207.684 125.402 207.671C125.415 208.178 125.415 208.594 125.428 208.841C125.883 208.88 126.962 208.893 127.365 208.841C127.404 207.554 127.391 203.719 127.365 202.315C126.91 202.25 125.779 202.263 125.428 202.315C125.415 202.497 125.415 202.783 125.415 203.147C124.765 203.147 124.115 203.147 123.738 203.16C123.699 203.654 123.699 204.408 123.738 204.902C124.128 204.928 124.778 204.928 125.402 204.915V205.903C124.752 205.903 124.115 205.903 123.738 205.916ZM121.138 204.252C121.151 205.201 121.138 207.255 121.138 208.217C121.606 208.269 122.607 208.269 123.075 208.217C123.153 206.709 123.127 204.044 123.036 202.536C121.892 202.471 117.836 202.484 116.796 202.536C116.744 203.017 116.744 203.745 116.796 204.252C117.784 204.278 120.332 204.278 121.138 204.252ZM122.542 209.088C118.694 209.088 117.498 209.777 117.498 211.649C117.498 213.352 118.499 214.21 122.542 214.21C126.39 214.21 127.586 213.521 127.586 211.649C127.586 209.946 126.585 209.088 122.542 209.088ZM122.542 212.598C119.812 212.598 119.474 212.247 119.474 211.649C119.474 211.012 119.799 210.7 122.542 210.7C125.272 210.7 125.61 211.051 125.61 211.649C125.61 212.286 125.285 212.598 122.542 212.598ZM139.142 206.722C139.181 206.124 139.181 205.656 139.142 205.149C138.791 205.136 138.206 205.136 137.478 205.123V204.018C138.128 204.005 138.674 204.005 139.012 203.992C139.038 203.42 139.038 202.9 139.012 202.419C137.803 202.367 131.407 202.38 129.249 202.419C129.21 202.9 129.21 203.485 129.249 203.992C129.574 204.005 130.107 204.005 130.77 204.018V205.123C130.042 205.136 129.444 205.136 129.119 205.149C129.08 205.656 129.08 206.189 129.119 206.722C130.653 206.774 137.465 206.774 139.142 206.722ZM132.681 204.031C133.617 204.031 134.631 204.031 135.567 204.031V205.11C134.631 205.11 133.617 205.11 132.681 205.123V204.031ZM139.714 207.372C138.492 207.346 131.238 207.32 128.534 207.372C128.482 207.853 128.482 208.555 128.534 208.997C129.184 209.023 131.069 209.036 133.11 209.049C133.11 209.361 133.11 209.673 133.123 209.946C131.251 209.946 129.587 209.946 129.249 209.959C129.21 211.025 129.184 213.027 129.249 214.054C130.263 214.145 137.998 214.132 138.999 214.054C139.051 213.079 139.051 211.116 138.999 209.959C138.687 209.946 137.01 209.946 135.138 209.946C135.138 209.66 135.151 209.361 135.138 209.049C137.283 209.049 139.22 209.036 139.714 208.997C139.766 208.49 139.766 207.827 139.714 207.372ZM137.127 212.494C136.581 212.52 131.719 212.533 131.121 212.494V211.532C131.979 211.506 136.399 211.519 137.127 211.532V212.494ZM148.812 206.787C152.816 206.787 153.843 206.046 153.843 204.473C153.843 202.913 152.816 202.172 148.812 202.172C144.808 202.172 143.781 202.913 143.781 204.473C143.781 206.046 144.808 206.787 148.812 206.787ZM148.812 205.084C146.108 205.084 145.796 204.85 145.796 204.473C145.796 204.109 146.108 203.875 148.812 203.875C151.516 203.875 151.828 204.109 151.828 204.473C151.828 204.85 151.516 205.084 148.812 205.084ZM143.222 208.971C144.756 209.023 153.284 209.049 154.402 208.971C154.454 208.464 154.454 207.801 154.402 207.346C153.18 207.32 145.926 207.294 143.222 207.346C143.17 207.827 143.17 208.529 143.222 208.971ZM148.812 214.21C152.894 214.21 153.947 213.469 153.947 211.896C153.947 210.336 152.894 209.595 148.812 209.595C144.73 209.595 143.677 210.336 143.677 211.896C143.677 213.469 144.73 214.21 148.812 214.21ZM148.812 212.507C146.056 212.507 145.744 212.26 145.744 211.896C145.744 211.545 146.056 211.298 148.812 211.298C151.568 211.298 151.88 211.545 151.88 211.896C151.88 212.26 151.568 212.507 148.812 212.507ZM165.659 208.971C165.737 208.191 165.737 204.343 165.659 202.783C165.321 202.731 156.702 202.731 155.896 202.783C155.831 204.239 155.805 207.411 155.896 208.971C156.91 209.075 164.788 209.062 165.659 208.971ZM157.833 204.538C159.341 204.512 162.474 204.525 163.722 204.538C163.748 204.954 163.748 206.826 163.722 207.242C162.656 207.268 159.081 207.268 157.833 207.242C157.807 206.826 157.807 204.954 157.833 204.538ZM166.361 212.013C165.789 212 163.904 211.987 161.785 211.987C161.785 211.181 161.785 210.219 161.772 209.699C161.291 209.634 160.173 209.621 159.783 209.699C159.757 210.154 159.757 211.129 159.757 211.987C157.963 211.987 156.234 211.987 155.181 212.013C155.129 212.52 155.129 213.235 155.181 213.703C156.715 213.755 165.243 213.781 166.361 213.703C166.413 213.157 166.413 212.494 166.361 212.013ZM172.106 203.225C172.119 202.835 172.106 202.393 172.08 202.055C171.625 201.99 170.442 201.977 170.078 202.055C170.039 202.393 170.026 202.861 170.039 203.238C168.622 203.238 167.4 203.251 167.14 203.264C167.088 203.745 167.088 204.499 167.14 204.993C167.907 205.032 173.627 205.006 174.771 204.993C174.81 204.538 174.797 203.719 174.771 203.264C174.251 203.238 173.237 203.225 172.106 203.225ZM178.671 206.891C178.385 206.878 177.995 206.865 177.514 206.865C177.514 204.863 177.501 203.043 177.475 202.315C177.02 202.25 175.876 202.237 175.525 202.315C175.486 203.823 175.473 212.507 175.525 214.015C175.98 214.054 177.072 214.067 177.475 214.015C177.501 213.3 177.514 211.103 177.514 208.776C178.06 208.776 178.463 208.763 178.671 208.737C178.723 208.243 178.723 207.385 178.671 206.891ZM171.092 205.552C168.375 205.552 167.465 206.683 167.465 209.608C167.465 212.533 168.375 213.664 171.092 213.664C173.809 213.664 174.719 212.533 174.719 209.608C174.719 206.683 173.809 205.552 171.092 205.552ZM171.092 212.065C169.727 212.065 169.324 211.506 169.324 209.608C169.324 207.71 169.727 207.151 171.092 207.151C172.457 207.151 172.86 207.71 172.86 209.608C172.86 211.506 172.457 212.065 171.092 212.065ZM187.939 214.015C188.394 214.054 189.486 214.067 189.889 214.015C189.941 212.468 189.941 204.096 189.889 202.315C189.434 202.25 188.29 202.237 187.939 202.315C187.9 203.823 187.887 212.507 187.939 214.015ZM183.766 213.144C184.234 213.196 185.404 213.209 185.742 213.144C185.82 211.636 185.794 204.187 185.703 202.679C184.559 202.614 180.308 202.627 179.268 202.679C179.216 203.16 179.216 203.953 179.268 204.46C180.256 204.486 182.96 204.486 183.766 204.46C183.779 205.409 183.766 212.182 183.766 213.144ZM191.097 205.578C191.487 205.617 192.475 205.643 192.865 205.578C192.982 204.772 193.112 203.277 193.125 202.497C192.761 202.445 191.513 202.445 191.097 202.497C191.071 203.095 191.058 204.928 191.097 205.578ZM194.914 206.878C196.552 206.956 203.195 206.943 204.222 206.878C204.248 206.54 204.274 206.137 204.222 205.786H196.422V205.162H204.092C204.157 204.603 204.157 202.861 204.092 202.367C202.532 202.328 197.982 202.341 194.94 202.38C194.888 202.614 194.888 203.147 194.94 203.485H202.584V204.109H194.914C194.836 205.071 194.862 206.189 194.914 206.878ZM194.017 208.724C195.993 208.763 203.52 208.776 205.119 208.724C205.158 208.334 205.158 207.957 205.119 207.593C203.442 207.567 196.773 207.541 194.017 207.593C193.978 207.97 193.978 208.36 194.017 208.724ZM194.784 213.989C196.409 214.067 203.78 214.054 204.612 213.989C204.651 213.651 204.664 213.248 204.612 212.897H196.305V212.26H204.313C204.378 211.714 204.378 209.998 204.313 209.465C202.623 209.426 198.073 209.426 194.81 209.465C194.758 209.712 194.758 210.232 194.81 210.583H202.792V211.207H194.784C194.706 212.247 194.732 213.3 194.784 213.989ZM217.272 203.706C217.272 203.862 217.259 204.174 217.259 204.538C214.698 204.525 210.759 204.538 209.732 204.564C209.68 204.941 209.68 205.331 209.732 205.721C210.889 205.747 214.659 205.734 217.259 205.721C217.259 206.046 217.272 206.319 217.272 206.514C217.558 206.553 218.494 206.553 218.78 206.514C218.845 205.76 218.845 203.654 218.78 202.51C217.454 202.458 210.694 202.445 209.602 202.51C209.55 202.887 209.55 203.329 209.602 203.719C210.655 203.745 215.023 203.719 217.272 203.706ZM219.807 206.891C218.13 206.865 211.461 206.839 208.705 206.891C208.666 207.268 208.666 207.749 208.705 208.1C210.681 208.152 218.208 208.165 219.807 208.1C219.846 207.71 219.846 207.255 219.807 206.891ZM210.993 212.052H219.001C219.066 211.493 219.066 209.53 219.001 208.997C217.311 208.958 212.761 208.958 209.498 208.997C209.446 209.244 209.446 209.803 209.498 210.154H217.48V210.934H209.472C209.394 212.013 209.42 213.287 209.472 213.989C211.097 214.067 218.468 214.054 219.3 213.989C219.339 213.651 219.352 213.196 219.3 212.858H210.993V212.052ZM229.816 209.114C230.193 209.153 230.999 209.166 231.324 209.114C231.363 207.788 231.35 203.745 231.324 202.354C230.96 202.302 230.115 202.302 229.816 202.354C229.777 203.459 229.777 207.905 229.816 209.114ZM221.067 208.581C223.836 208.646 227.437 208.62 228.347 208.581C228.373 208.204 228.386 207.671 228.347 207.32H222.549V206.189C223.68 206.215 226.345 206.215 227.411 206.189C227.45 205.513 227.463 203.303 227.411 202.627C226.15 202.614 222.042 202.601 221.119 202.627C221.067 203.004 221.067 203.498 221.119 203.888C222.237 203.901 224.967 203.901 225.955 203.888V205.019C225.227 205.006 222.094 205.006 221.067 205.019C221.015 205.591 221.015 207.879 221.067 208.581ZM229.829 213.963C230.193 214.002 231.012 214.002 231.324 213.963C231.363 213.274 231.389 210.947 231.324 209.738C230.076 209.673 222.835 209.686 221.782 209.738C221.73 210.115 221.73 210.7 221.782 211.09C222.783 211.129 227.372 211.09 229.829 211.09C229.829 211.909 229.803 213.261 229.829 213.963ZM237.329 203.459C237.342 202.978 237.329 202.406 237.303 202.055C236.926 201.99 236.055 201.977 235.743 202.055C235.704 202.406 235.691 203.004 235.704 203.459C234.222 203.459 232.896 203.472 232.584 203.485C232.532 203.862 232.532 204.46 232.584 204.837C233.403 204.876 239.149 204.85 240.215 204.837C240.254 204.486 240.241 203.849 240.215 203.485C239.721 203.459 238.577 203.459 237.329 203.459ZM244.102 207.099C243.764 207.086 243.322 207.086 242.828 207.086C242.828 205.006 242.815 203.095 242.789 202.354C242.425 202.302 241.567 202.289 241.268 202.354C241.229 203.914 241.216 212.442 241.268 213.976C241.645 214.015 242.464 214.015 242.789 213.976C242.815 213.235 242.828 210.947 242.828 208.555C243.374 208.568 243.803 208.555 244.102 208.529C244.141 208.139 244.141 207.476 244.102 207.099ZM236.536 205.643C233.923 205.643 233 206.761 233 209.608C233 212.455 233.923 213.573 236.536 213.573C239.149 213.573 240.072 212.455 240.072 209.608C240.072 206.761 239.149 205.643 236.536 205.643ZM236.536 212.299C234.989 212.299 234.469 211.649 234.469 209.608C234.469 207.567 234.989 206.917 236.536 206.917C238.083 206.917 238.603 207.567 238.603 209.608C238.603 211.649 238.083 212.299 236.536 212.299ZM255.385 202.354C255.073 202.289 254.228 202.289 253.929 202.354C253.903 203.81 253.903 212.403 253.929 213.976C254.306 214.002 255.099 214.028 255.385 213.976C255.411 212.416 255.424 203.979 255.385 202.354ZM251.368 202.419C251.355 202.965 251.342 204.499 251.342 206.28C250.679 206.28 250.003 206.28 249.522 206.293C249.483 206.566 249.483 207.372 249.522 207.697C250.016 207.723 250.679 207.723 251.329 207.71C251.329 210.31 251.342 213.027 251.368 213.859C251.745 213.898 252.538 213.898 252.824 213.859C252.837 212.312 252.863 204.044 252.824 202.419C252.499 202.354 251.667 202.354 251.368 202.419ZM248.352 202.666C247.975 202.601 247.065 202.601 246.766 202.666C246.74 203.407 246.727 205.63 246.74 207.229C245.973 208.984 244.881 211.519 244.361 212.728C244.647 212.975 245.336 213.235 245.661 213.287C246.064 212.481 246.87 210.596 247.546 208.919C248.274 210.557 249.132 212.39 249.548 213.157C249.873 213.092 250.523 212.767 250.796 212.507C250.289 211.337 249.171 209.023 248.365 207.32C248.391 205.773 248.378 203.485 248.352 202.666ZM262.092 208.984C265.979 208.984 267.162 207.944 267.162 205.799C267.162 203.706 266.044 202.614 262.092 202.614C258.205 202.614 257.022 203.654 257.022 205.799C257.022 207.905 258.14 208.984 262.092 208.984ZM262.092 203.992C264.835 203.992 265.589 204.551 265.589 205.799C265.589 207.112 264.757 207.606 262.092 207.606C259.349 207.606 258.595 207.047 258.595 205.799C258.595 204.486 259.427 203.992 262.092 203.992ZM267.643 212.286C267.279 212.286 266.447 212.273 265.394 212.273C265.407 211.337 265.407 210.024 265.381 209.504C265.056 209.452 264.25 209.452 263.847 209.504C263.821 210.089 263.834 211.376 263.847 212.273C262.716 212.26 261.481 212.26 260.324 212.26C260.337 211.363 260.35 210.089 260.324 209.504C259.934 209.452 259.128 209.452 258.79 209.504C258.777 210.024 258.764 211.337 258.777 212.273C257.867 212.273 257.074 212.273 256.541 212.286C256.502 212.689 256.502 213.235 256.541 213.612C258.153 213.664 266.421 213.69 267.643 213.612C267.682 213.183 267.682 212.676 267.643 212.286ZM268.708 213.456C269.267 213.482 269.865 213.495 270.424 213.443C270.45 212.91 270.45 212.325 270.424 211.779C269.878 211.74 269.293 211.74 268.708 211.779C268.682 212.312 268.682 212.91 268.708 213.456Z" fill="#504E48"/>
<rect x="61.5" y="181.5" width="13" height="13" rx="6.5" stroke="#FF4B4B"/>
<rect x="67" y="184" width="2" height="5" fill="#FF4B4B"/>
<rect x="67" y="190" width="2" height="2" fill="#FF4B4B"/>
<path d="M108.724 16.4472C108.391 15.7823 108.875 15 109.618 15H218.382C219.125 15 219.609 15.7823 219.276 16.4472L214.224 26.5528C214.083 26.8343 214.083 27.1657 214.224 27.4472L219.276 37.5528C219.609 38.2177 219.125 39 218.382 39H109.618C108.875 39 108.391 38.2177 108.724 37.5528L113.776 27.4472C113.917 27.1657 113.917 26.8343 113.776 26.5528L108.724 16.4472Z" fill="#FF8A00"/>
<path d="M138.959 26.697C138.998 25.449 138.985 22.667 138.959 21.354C138.595 21.302 137.75 21.302 137.451 21.354C137.412 22.381 137.412 25.566 137.451 26.697C137.828 26.736 138.634 26.736 138.959 26.697ZM135.631 26.463C135.852 26.177 136.099 25.605 136.177 25.241C135.436 24.942 134.11 24.474 133.07 24.123C133.083 23.746 133.083 23.317 133.07 22.914C134.253 22.901 135.319 22.901 135.787 22.888C135.826 22.524 135.826 21.965 135.787 21.575C133.954 21.536 129.703 21.549 128.715 21.575C128.663 21.939 128.663 22.485 128.715 22.888C129.105 22.901 130.223 22.914 131.484 22.914C131.471 23.343 131.471 23.811 131.484 24.188C130.418 24.682 129.053 25.306 128.468 25.618C128.559 25.956 128.845 26.489 129.118 26.801C130.054 26.385 131.354 25.787 132.355 25.28C133.408 25.683 134.825 26.19 135.631 26.463ZM131.12 31.741V30.714H138.959C139.024 29.947 139.024 28.01 138.959 27.295C137.308 27.256 132.758 27.256 129.625 27.295C129.586 27.555 129.586 28.192 129.625 28.53H137.438V29.544H129.599C129.534 30.649 129.56 32.3 129.599 32.963C131.237 33.041 138.14 33.041 139.18 32.963C139.206 32.638 139.219 32.079 139.18 31.741H131.12ZM150.333 25.852C150.411 25.033 150.411 22.823 150.333 21.484C149.514 21.445 141.883 21.432 141.025 21.484C140.96 22.758 140.934 24.552 141.025 25.852C142.026 25.917 149.423 25.904 150.333 25.852ZM142.468 22.732C143.326 22.706 148.123 22.719 148.89 22.732V24.617C148.24 24.643 143.144 24.643 142.468 24.617V22.732ZM151.23 26.97C149.553 26.931 142.884 26.918 140.128 26.97C140.089 27.347 140.089 27.893 140.128 28.244C141.012 28.27 142.988 28.283 145.055 28.283C145.055 28.998 145.068 29.791 145.081 30.311C145.497 30.35 146.238 30.35 146.628 30.311C146.641 29.739 146.654 28.972 146.641 28.283C148.669 28.283 150.528 28.27 151.23 28.244C151.269 27.854 151.269 27.321 151.23 26.97ZM142.442 31.663C142.468 31.078 142.468 29.986 142.442 29.284C142.078 29.245 141.207 29.232 140.895 29.271C140.856 30.051 140.83 32.027 140.895 32.989C142.065 33.054 149.644 33.054 150.775 32.989C150.827 32.612 150.827 32.027 150.775 31.663C149.696 31.637 144.886 31.65 142.442 31.663ZM162.929 27.464C162.136 27.451 160.238 27.438 158.171 27.438V26.606C159.939 26.606 161.551 26.593 162.032 26.567C162.071 26.229 162.071 25.761 162.032 25.358C161.005 25.345 155.272 25.358 154.245 25.358V24.552C156.13 24.565 160.238 24.578 161.525 24.552C161.564 24.175 161.564 23.772 161.525 23.395C160.212 23.395 156.143 23.382 154.245 23.395V22.576C155.22 22.602 160.927 22.602 161.902 22.576C161.954 22.186 161.954 21.77 161.902 21.38C160.667 21.341 153.998 21.315 152.724 21.38C152.659 22.407 152.646 25.514 152.724 26.567C153.27 26.58 154.869 26.593 156.598 26.606C156.585 26.866 156.585 27.152 156.585 27.438C154.752 27.438 152.958 27.451 151.827 27.464C151.788 27.841 151.788 28.361 151.827 28.712C153.803 28.764 161.33 28.777 162.929 28.712C162.968 28.322 162.968 27.815 162.929 27.464ZM152.555 29.557C152.503 29.947 152.503 30.454 152.555 30.844C153.621 30.883 158.379 30.844 160.615 30.844C160.615 31.468 160.589 32.313 160.615 32.976C160.979 33.002 161.798 33.002 162.162 32.976C162.201 32.313 162.24 30.571 162.162 29.557C160.836 29.492 153.673 29.505 152.555 29.557ZM175.134 32.976C175.511 33.015 176.343 33.015 176.668 32.976C176.707 31.429 176.707 23.096 176.668 21.354C176.304 21.302 175.446 21.289 175.134 21.354C175.095 22.914 175.095 31.442 175.134 32.976ZM169.726 32.365C172.235 32.365 173.314 31.117 173.314 26.918C173.314 22.719 172.235 21.471 169.726 21.471C167.217 21.471 166.125 22.719 166.125 26.918C166.125 31.117 167.217 32.365 169.726 32.365ZM169.726 30.948C168.231 30.948 167.685 30.142 167.685 26.918C167.685 23.694 168.231 22.888 169.726 22.888C171.234 22.888 171.754 23.694 171.754 26.918C171.754 30.142 171.234 30.948 169.726 30.948ZM188.497 29.895C188.523 28.725 188.536 22.498 188.497 21.354C188.185 21.289 187.353 21.289 187.054 21.354C187.028 22.316 187.015 28.725 187.054 29.895C187.431 29.921 188.211 29.947 188.497 29.895ZM183.024 27.75C183.037 27.451 183.05 26.463 183.05 25.358C183.505 25.371 183.999 25.371 184.441 25.358C184.441 27.243 184.454 29.206 184.48 29.804C184.857 29.843 185.624 29.843 185.923 29.804C185.936 28.66 185.962 22.563 185.923 21.419C185.598 21.367 184.779 21.354 184.48 21.419C184.467 21.77 184.454 22.784 184.454 24.019C183.999 24.006 183.505 24.006 183.05 24.019C183.05 23.044 183.037 22.16 183.024 21.718C182.621 21.679 181.997 21.679 181.607 21.718V23.486C180.931 23.473 180.073 23.473 179.397 23.486V21.718C179.046 21.679 178.357 21.679 177.967 21.718C177.941 22.745 177.941 26.736 177.967 27.75C178.981 27.815 182.114 27.802 183.024 27.75ZM179.397 24.76C180.06 24.773 180.931 24.773 181.607 24.76V26.502C181.009 26.528 180.06 26.528 179.397 26.502V24.76ZM188.718 31.65C187.574 31.624 182.985 31.637 180.463 31.65C180.489 30.896 180.489 29.544 180.463 28.842C180.086 28.803 179.28 28.803 178.955 28.842C178.916 29.622 178.89 32.001 178.955 32.963C180.567 33.028 187.535 33.028 188.718 32.976C188.77 32.586 188.77 32.014 188.718 31.65ZM199.871 28.894C199.91 28.569 199.91 27.958 199.871 27.555C198.896 27.542 192.773 27.555 191.72 27.555C191.72 27.269 191.707 26.671 191.707 25.995C193.54 26.008 197.869 26.021 199.221 25.995C199.26 25.618 199.273 25.033 199.221 24.643C197.856 24.643 193.553 24.63 191.707 24.643C191.707 23.98 191.72 23.395 191.72 23.096C192.734 23.122 198.636 23.122 199.611 23.096C199.663 22.706 199.663 22.121 199.611 21.744C198.376 21.705 191.447 21.679 190.16 21.744C190.095 23.291 190.082 27.321 190.16 28.894C191.447 28.933 198.818 28.946 199.871 28.894ZM200.495 31.286C199.195 31.26 191.785 31.247 189.393 31.286C189.354 31.689 189.354 32.235 189.393 32.612C191.005 32.664 199.273 32.69 200.495 32.612C200.534 32.183 200.534 31.676 200.495 31.286Z" fill="white"/>
</svg>
