<svg width="308" height="170" viewBox="0 0 308 170" fill="none" xmlns="http://www.w3.org/2000/svg">
<g filter="url(#filter0_d_160_367)">
<path d="M4 18C4 8.05887 12.0589 0 22 0H286C295.941 0 304 8.05888 304 18V144C304 153.941 295.941 162 286 162H22C12.0589 162 4 153.941 4 144V18Z" fill="#FFFAEA"/>
<path d="M43.7319 105.44C44.1519 105.5 45.5919 105.5 46.0719 105.44C46.1019 104.75 46.1169 102.635 46.0719 101.885C45.6219 101.84 44.4819 101.81 44.0319 101.885C43.8969 102.815 43.7469 104.54 43.7319 105.44ZM47.6089 114.665C48.2089 114.755 49.1089 114.755 49.7839 114.665C49.8289 113.315 49.7539 108.77 49.7689 105.275C50.4589 108.455 51.7789 113.6 52.0789 114.62C52.7539 114.665 53.7139 114.68 54.3139 114.62C54.6139 113.6 55.9339 108.455 56.6239 105.275C56.6389 108.77 56.5639 113.315 56.6089 114.665C57.2839 114.755 58.1839 114.755 58.7839 114.665C58.8289 112.115 58.7989 105.08 58.7839 102.5C57.8989 102.44 55.9339 102.44 55.1389 102.5C54.7939 104 53.8939 107.96 53.2039 111.47C52.4989 107.96 51.5989 104 51.2539 102.5C50.4589 102.44 48.4939 102.44 47.6089 102.5C47.5939 105.08 47.5639 112.115 47.6089 114.665ZM65.4296 114.89C68.6696 114.89 70.6046 113.135 70.6046 108.605C70.6046 104.195 68.7896 102.32 65.4296 102.32C62.0696 102.32 60.2546 104.195 60.2546 108.605C60.2546 113.045 62.0846 114.89 65.4296 114.89ZM65.4296 112.745C63.5696 112.745 62.5646 111.695 62.5646 108.605C62.5646 105.59 63.5096 104.465 65.4296 104.465C67.5296 104.465 68.2946 105.83 68.2946 108.605C68.2946 111.755 67.2446 112.745 65.4296 112.745ZM74.2238 114.89C76.7288 114.89 77.8988 113.48 77.9438 110.555C77.9888 107.93 77.9588 105.2 77.9438 102.5C77.4188 102.395 76.2788 102.41 75.6338 102.5C75.6488 105.185 75.6638 107.915 75.6338 110.495C75.6188 112.04 75.2288 112.64 74.1188 112.64C73.4288 112.64 72.8288 112.325 72.3788 111.785C71.8238 112.265 71.3288 112.79 70.9388 113.375C71.6738 114.455 72.7838 114.89 74.2238 114.89ZM79.7333 114.665C80.4233 114.755 81.2333 114.755 81.9983 114.665C82.0283 112.19 82.0283 105.14 81.9983 102.5C81.3983 102.425 80.2733 102.425 79.7333 102.5C79.6733 105.23 79.6733 112.295 79.7333 114.665ZM94.8122 105.98C94.7672 106.55 94.7672 107.42 94.8122 107.99C95.2622 108.02 96.0122 108.02 96.7322 108.005C96.7472 108.59 96.7472 109.07 96.7622 109.355C97.2872 109.4 98.5322 109.415 98.9972 109.355C99.0422 107.87 99.0272 103.445 98.9972 101.825C98.4722 101.75 97.1672 101.765 96.7622 101.825C96.7472 102.035 96.7472 102.365 96.7472 102.785C95.9972 102.785 95.2472 102.785 94.8122 102.8C94.7672 103.37 94.7672 104.24 94.8122 104.81C95.2622 104.84 96.0122 104.84 96.7322 104.825V105.965C95.9822 105.965 95.2472 105.965 94.8122 105.98ZM91.8122 104.06C91.8272 105.155 91.8122 107.525 91.8122 108.635C92.3522 108.695 93.5072 108.695 94.0472 108.635C94.1372 106.895 94.1072 103.82 94.0022 102.08C92.6822 102.005 88.0022 102.02 86.8022 102.08C86.7422 102.635 86.7422 103.475 86.8022 104.06C87.9422 104.09 90.8822 104.09 91.8122 104.06ZM93.4322 109.64C88.9922 109.64 87.6122 110.435 87.6122 112.595C87.6122 114.56 88.7672 115.55 93.4322 115.55C97.8722 115.55 99.2522 114.755 99.2522 112.595C99.2522 110.63 98.0972 109.64 93.4322 109.64ZM93.4322 113.69C90.2822 113.69 89.8922 113.285 89.8922 112.595C89.8922 111.86 90.2672 111.5 93.4322 111.5C96.5822 111.5 96.9722 111.905 96.9722 112.595C96.9722 113.33 96.5972 113.69 93.4322 113.69ZM112.586 106.91C112.631 106.22 112.631 105.68 112.586 105.095C112.181 105.08 111.506 105.08 110.666 105.065V103.79C111.416 103.775 112.046 103.775 112.436 103.76C112.466 103.1 112.466 102.5 112.436 101.945C111.041 101.885 103.661 101.9 101.171 101.945C101.126 102.5 101.126 103.175 101.171 103.76C101.546 103.775 102.161 103.775 102.926 103.79V105.065C102.086 105.08 101.396 105.08 101.021 105.095C100.976 105.68 100.976 106.295 101.021 106.91C102.791 106.97 110.651 106.97 112.586 106.91ZM105.131 103.805C106.211 103.805 107.381 103.805 108.461 103.805V105.05C107.381 105.05 106.211 105.05 105.131 105.065V103.805ZM113.246 107.66C111.836 107.63 103.466 107.6 100.346 107.66C100.286 108.215 100.286 109.025 100.346 109.535C101.096 109.565 103.271 109.58 105.626 109.595C105.626 109.955 105.626 110.315 105.641 110.63C103.481 110.63 101.561 110.63 101.171 110.645C101.126 111.875 101.096 114.185 101.171 115.37C102.341 115.475 111.266 115.46 112.421 115.37C112.481 114.245 112.481 111.98 112.421 110.645C112.061 110.63 110.126 110.63 107.966 110.63C107.966 110.3 107.981 109.955 107.966 109.595C110.441 109.595 112.676 109.58 113.246 109.535C113.306 108.95 113.306 108.185 113.246 107.66ZM110.261 113.57C109.631 113.6 104.021 113.615 103.331 113.57V112.46C104.321 112.43 109.421 112.445 110.261 112.46V113.57ZM123.744 106.985C128.364 106.985 129.549 106.13 129.549 104.315C129.549 102.515 128.364 101.66 123.744 101.66C119.124 101.66 117.939 102.515 117.939 104.315C117.939 106.13 119.124 106.985 123.744 106.985ZM123.744 105.02C120.624 105.02 120.264 104.75 120.264 104.315C120.264 103.895 120.624 103.625 123.744 103.625C126.864 103.625 127.224 103.895 127.224 104.315C127.224 104.75 126.864 105.02 123.744 105.02ZM117.294 109.505C119.064 109.565 128.904 109.595 130.194 109.505C130.254 108.92 130.254 108.155 130.194 107.63C128.784 107.6 120.414 107.57 117.294 107.63C117.234 108.185 117.234 108.995 117.294 109.505ZM123.744 115.55C128.454 115.55 129.669 114.695 129.669 112.88C129.669 111.08 128.454 110.225 123.744 110.225C119.034 110.225 117.819 111.08 117.819 112.88C117.819 114.695 119.034 115.55 123.744 115.55ZM123.744 113.585C120.564 113.585 120.204 113.3 120.204 112.88C120.204 112.475 120.564 112.19 123.744 112.19C126.924 112.19 127.284 112.475 127.284 112.88C127.284 113.3 126.924 113.585 123.744 113.585ZM143.183 109.505C143.273 108.605 143.273 104.165 143.183 102.365C142.793 102.305 132.848 102.305 131.918 102.365C131.843 104.045 131.813 107.705 131.918 109.505C133.088 109.625 142.178 109.61 143.183 109.505ZM134.153 104.39C135.893 104.36 139.508 104.375 140.948 104.39C140.978 104.87 140.978 107.03 140.948 107.51C139.718 107.54 135.593 107.54 134.153 107.51C134.123 107.03 134.123 104.87 134.153 104.39ZM143.993 113.015C143.333 113 141.158 112.985 138.713 112.985C138.713 112.055 138.713 110.945 138.698 110.345C138.143 110.27 136.853 110.255 136.403 110.345C136.373 110.87 136.373 111.995 136.373 112.985C134.303 112.985 132.308 112.985 131.093 113.015C131.033 113.6 131.033 114.425 131.093 114.965C132.863 115.025 142.703 115.055 143.993 114.965C144.053 114.335 144.053 113.57 143.993 113.015ZM144.937 105.59C145.387 105.635 146.527 105.665 146.977 105.59C147.112 104.66 147.262 102.935 147.277 102.035C146.857 101.975 145.417 101.975 144.937 102.035C144.907 102.725 144.892 104.84 144.937 105.59ZM161.551 107.045C161.161 107.03 160.651 107.03 160.081 107.03C160.081 104.735 160.066 102.68 160.036 101.87C159.616 101.81 158.626 101.795 158.281 101.87C158.236 103.67 158.221 113.51 158.281 115.28C158.716 115.325 159.661 115.325 160.036 115.28C160.066 114.395 160.081 111.59 160.081 108.725C160.711 108.74 161.206 108.725 161.551 108.695C161.596 108.245 161.596 107.48 161.551 107.045ZM148.501 102.35C148.456 102.77 148.456 103.49 148.501 103.94C149.686 103.97 153.121 103.97 154.066 103.94C154.081 105.035 154.066 113 154.066 114.275C154.486 114.335 155.521 114.335 155.851 114.275C155.941 112.58 155.911 104.09 155.806 102.35C154.351 102.275 149.731 102.29 148.501 102.35ZM178.424 105.635C178.109 105.62 177.584 105.605 177.014 105.605C177.014 104.045 176.999 102.635 176.984 101.87C176.564 101.795 175.589 101.795 175.244 101.87C175.214 103.58 175.214 109.88 175.244 111.725C175.679 111.755 176.609 111.785 176.984 111.725C176.999 110.855 177.014 109.085 177.014 107.24C177.629 107.255 178.169 107.24 178.424 107.21C178.469 106.76 178.469 106.07 178.424 105.635ZM174.329 110.03C174.389 109.58 174.389 108.995 174.329 108.5C173.744 108.47 172.289 108.455 170.699 108.455V107.405C172.874 107.225 173.819 106.295 173.819 104.66C173.819 102.83 172.604 101.87 169.784 101.87C166.979 101.87 165.764 102.83 165.764 104.66C165.764 106.295 166.709 107.21 168.869 107.405C168.854 107.735 168.854 108.095 168.854 108.455C167.294 108.455 165.869 108.47 165.269 108.5C165.194 108.935 165.194 109.565 165.269 110.03C167.399 110.09 173.264 110.09 174.329 110.03ZM167.444 104.66C167.444 103.835 167.954 103.37 169.784 103.37C171.599 103.37 172.139 103.835 172.139 104.66C172.139 105.485 171.599 105.95 169.784 105.95C167.954 105.95 167.444 105.485 167.444 104.66ZM168.104 113.75C168.134 112.97 168.134 111.83 168.104 111.035C167.669 110.99 166.739 110.99 166.364 111.035C166.319 111.92 166.289 114.17 166.364 115.265C167.744 115.34 175.904 115.34 177.239 115.265C177.299 114.845 177.299 114.155 177.239 113.75C175.964 113.72 170.699 113.735 168.104 113.75ZM191.143 110.27C191.203 109.835 191.203 109.175 191.143 108.74C189.883 108.71 182.908 108.725 181.723 108.74V107.06C183.058 107.075 189.553 107.12 190.843 107.06C190.933 105.47 190.948 103.925 190.843 102.335C189.358 102.26 181.138 102.26 179.998 102.32C179.938 102.755 179.938 103.415 179.998 103.85C181.243 103.88 187.873 103.88 189.073 103.85V105.53C188.143 105.5 181.183 105.5 179.938 105.53C179.848 107.09 179.833 108.665 179.938 110.27C181.498 110.345 189.898 110.315 191.143 110.27ZM191.863 113.33C191.443 113.315 190.438 113.315 189.178 113.315C189.178 112.415 189.178 111.41 189.163 110.96C188.773 110.9 187.843 110.9 187.393 110.96C187.378 111.47 187.363 112.445 187.378 113.3H183.538C183.538 112.445 183.538 111.47 183.523 110.96C183.073 110.9 182.128 110.9 181.753 110.96C181.738 111.41 181.723 112.415 181.738 113.315C180.643 113.315 179.683 113.315 179.053 113.33C179.008 113.795 179.008 114.425 179.053 114.86C180.913 114.92 190.453 114.95 191.863 114.86C191.908 114.365 191.908 113.78 191.863 113.33ZM205.047 101.87C204.627 101.795 203.637 101.795 203.277 101.87C203.232 103.655 203.217 113.495 203.277 115.28C203.712 115.325 204.672 115.325 205.047 115.28C205.092 113.465 205.092 103.85 205.047 101.87ZM201.777 108.98C201.822 108.605 201.822 107.855 201.777 107.405C200.562 107.39 196.647 107.405 195.477 107.405C195.462 106.61 195.462 104.735 195.477 103.895C196.602 103.925 200.022 103.925 201.192 103.895C201.252 103.445 201.252 102.755 201.192 102.32C199.722 102.275 195.252 102.26 193.722 102.32C193.647 104.015 193.632 107.285 193.722 108.98C195.162 109.025 200.472 109.04 201.777 108.98ZM198.537 112.58C198.552 111.65 198.567 110.66 198.537 109.925C198.087 109.865 197.112 109.865 196.737 109.925C196.707 110.6 196.692 111.62 196.722 112.58C195.027 112.58 193.482 112.595 192.867 112.61C192.807 113.06 192.807 113.675 192.867 114.14C195.027 114.2 201.297 114.2 202.392 114.14C202.437 113.69 202.437 113.12 202.392 112.61C201.792 112.595 200.247 112.58 198.537 112.58ZM217.181 106.1C217.181 107.3 217.196 108.44 217.211 109.01C217.646 109.055 218.576 109.07 218.951 109.01C218.996 107.525 218.981 103.43 218.951 101.87C218.531 101.81 217.556 101.81 217.211 101.87C217.196 102.35 217.181 103.355 217.181 104.45C216.446 104.45 215.621 104.45 215.216 104.465C215.171 104.9 215.171 105.62 215.216 106.07C215.636 106.085 216.461 106.1 217.181 106.1ZM210.761 108.5C213.551 108.5 214.706 107.315 214.706 105.26C214.706 103.22 213.551 102.02 210.761 102.02C207.971 102.02 206.816 103.22 206.816 105.26C206.816 107.315 207.971 108.5 210.761 108.5ZM210.761 103.52C212.351 103.52 212.996 104.15 212.996 105.26C212.996 106.37 212.351 107 210.761 107C209.156 107 208.526 106.37 208.526 105.26C208.526 104.15 209.156 103.52 210.761 103.52ZM217.001 111.56C217.001 110.9 217.001 110.105 216.986 109.7C216.551 109.625 215.531 109.625 215.186 109.7C215.171 110.12 215.171 110.9 215.171 111.56C214.541 112.265 213.656 113.315 213.356 113.66C213.056 113.3 212.126 112.265 211.466 111.56C211.466 110.9 211.466 110.105 211.451 109.7C211.016 109.625 209.996 109.625 209.651 109.7C209.636 110.135 209.636 110.96 209.636 111.65C208.736 112.535 207.551 113.75 207.026 114.35C207.266 114.68 207.791 115.175 208.166 115.4C208.841 114.77 210.116 113.435 210.581 112.88C211.031 113.45 212.141 114.695 212.741 115.25C213.056 115.295 213.671 115.295 213.971 115.25C214.511 114.74 215.681 113.435 216.131 112.88C216.596 113.435 217.931 114.83 218.546 115.4C218.936 115.175 219.446 114.695 219.686 114.335C219.101 113.66 217.916 112.43 217.001 111.56ZM221.545 106.895C222.61 106.55 225.025 105.65 226.885 104.885C228.745 105.62 231.145 106.49 232.24 106.85C232.51 106.505 232.795 105.815 232.87 105.38C231.595 104.885 229.51 104.15 227.8 103.55C227.815 102.965 227.8 102.32 227.77 101.825C227.35 101.765 226.285 101.78 225.94 101.825C225.91 102.305 225.895 102.95 225.91 103.55C224.215 104.18 222.16 104.96 220.9 105.44C220.96 105.845 221.29 106.595 221.545 106.895ZM233.26 107.735C231.325 107.705 223.63 107.675 220.45 107.735C220.405 108.17 220.405 108.8 220.45 109.22C222.73 109.265 231.415 109.28 233.26 109.22C233.305 108.755 233.305 108.155 233.26 107.735ZM230.695 111.26C228.58 111.245 225.1 111.245 223.015 111.26V110.195C222.7 110.165 221.665 110.135 221.32 110.195C221.26 111.365 221.26 113.66 221.335 115.295C222.76 115.385 231.055 115.385 232.375 115.295C232.435 113.6 232.42 111.725 232.375 110.195C231.94 110.165 231.295 110.165 230.695 110.195V111.26ZM223.015 112.7C225.085 112.715 228.49 112.7 230.695 112.7V113.855C229.405 113.885 224.5 113.885 223.015 113.855V112.7ZM244.793 115.28C245.228 115.325 246.188 115.325 246.563 115.28C246.608 113.495 246.608 103.88 246.563 101.87C246.143 101.81 245.153 101.795 244.793 101.87C244.748 103.67 244.748 113.51 244.793 115.28ZM234.833 114.215C236.393 114.275 241.838 114.26 243.113 114.215C243.173 113.78 243.173 113.075 243.113 112.625C241.883 112.595 237.758 112.595 236.603 112.625C236.633 110.105 236.648 104.48 236.603 102.29C236.183 102.245 235.193 102.245 234.818 102.29C234.758 104.36 234.743 111.365 234.833 114.215ZM261.292 107.045C260.902 107.03 260.392 107.03 259.822 107.03C259.822 104.735 259.807 102.68 259.777 101.87C259.357 101.81 258.367 101.795 258.022 101.87C257.977 103.67 257.962 113.51 258.022 115.28C258.457 115.325 259.402 115.325 259.777 115.28C259.807 114.395 259.822 111.59 259.822 108.725C260.452 108.74 260.947 108.725 261.292 108.695C261.337 108.245 261.337 107.48 261.292 107.045ZM250.477 112.655C250.492 110.525 250.492 105.95 250.477 103.925C251.632 103.955 254.542 103.955 255.667 103.925C255.727 103.475 255.727 102.785 255.667 102.35C254.182 102.29 250.207 102.305 248.677 102.35C248.602 104.045 248.587 112.49 248.677 114.215C249.997 114.275 255.277 114.26 256.417 114.215C256.477 113.78 256.477 113.105 256.417 112.655C255.052 112.625 251.842 112.625 250.477 112.655ZM262.086 114.68C262.731 114.71 263.421 114.725 264.066 114.665C264.096 114.05 264.096 113.375 264.066 112.745C263.436 112.7 262.761 112.7 262.086 112.745C262.056 113.36 262.056 114.05 262.086 114.68Z" fill="#504E48"/>
<path d="M117.596 76.178C124.372 76.178 126.11 74.924 126.11 72.262C126.11 69.622 124.372 68.368 117.596 68.368C110.82 68.368 109.082 69.622 109.082 72.262C109.082 74.924 110.82 76.178 117.596 76.178ZM117.596 73.296C113.02 73.296 112.492 72.9 112.492 72.262C112.492 71.646 113.02 71.25 117.596 71.25C122.172 71.25 122.7 71.646 122.7 72.262C122.7 72.9 122.172 73.296 117.596 73.296ZM108.136 79.874C110.732 79.962 125.164 80.006 127.056 79.874C127.144 79.016 127.144 77.894 127.056 77.124C124.988 77.08 112.712 77.036 108.136 77.124C108.048 77.938 108.048 79.126 108.136 79.874ZM117.596 88.74C124.504 88.74 126.286 87.486 126.286 84.824C126.286 82.184 124.504 80.93 117.596 80.93C110.688 80.93 108.906 82.184 108.906 84.824C108.906 87.486 110.688 88.74 117.596 88.74ZM117.596 85.858C112.932 85.858 112.404 85.44 112.404 84.824C112.404 84.23 112.932 83.812 117.596 83.812C122.26 83.812 122.788 84.23 122.788 84.824C122.788 85.44 122.26 85.858 117.596 85.858ZM146.106 79.874C146.238 78.554 146.238 72.042 146.106 69.402C145.534 69.314 130.948 69.314 129.584 69.402C129.474 71.866 129.43 77.234 129.584 79.874C131.3 80.05 144.632 80.028 146.106 79.874ZM132.862 72.372C135.414 72.328 140.716 72.35 142.828 72.372C142.872 73.076 142.872 76.244 142.828 76.948C141.024 76.992 134.974 76.992 132.862 76.948C132.818 76.244 132.818 73.076 132.862 72.372ZM147.294 85.022C146.326 85 143.136 84.978 139.55 84.978C139.55 83.614 139.55 81.986 139.528 81.106C138.714 80.996 136.822 80.974 136.162 81.106C136.118 81.876 136.118 83.526 136.118 84.978C133.082 84.978 130.156 84.978 128.374 85.022C128.286 85.88 128.286 87.09 128.374 87.882C130.97 87.97 145.402 88.014 147.294 87.882C147.382 86.958 147.382 85.836 147.294 85.022ZM172.657 73.868C172.195 73.846 171.557 73.824 170.765 73.824C170.765 71.624 170.743 69.644 170.721 68.61C169.951 68.478 168.037 68.478 167.443 68.61C167.399 70.92 167.399 80.578 167.443 83.13C168.213 83.174 170.039 83.218 170.721 83.13C170.743 81.942 170.765 79.5 170.765 76.904C171.645 76.904 172.305 76.882 172.657 76.838C172.723 76.002 172.723 74.704 172.657 73.868ZM166.255 80.93C166.343 80.094 166.343 78.994 166.255 78.07C165.507 78.026 163.593 78.004 161.459 78.004V76.926C164.385 76.552 165.705 75.144 165.705 72.768C165.705 70.018 163.879 68.522 159.765 68.522C155.651 68.522 153.825 70.018 153.825 72.768C153.825 75.144 155.145 76.53 158.027 76.904V78.004C155.871 78.004 153.979 78.026 153.253 78.07C153.143 78.884 153.143 80.072 153.253 80.93C156.619 81.018 165.067 81.018 166.255 80.93ZM156.927 72.768C156.927 71.822 157.543 71.294 159.765 71.294C161.943 71.294 162.603 71.822 162.603 72.768C162.603 73.714 161.943 74.242 159.765 74.242C157.543 74.242 156.927 73.714 156.927 72.768ZM157.983 85.616C158.027 84.428 158.027 83.218 157.983 82.118C157.191 82.052 155.387 82.052 154.705 82.118C154.639 83.416 154.595 86.848 154.705 88.476C156.707 88.586 169.335 88.586 171.095 88.476C171.183 87.662 171.183 86.408 171.095 85.616C169.445 85.572 162.845 85.594 157.983 85.616ZM191.422 81.15C191.51 80.314 191.51 79.104 191.422 78.268C189.574 78.224 179.762 78.246 178.09 78.268V76.596C180.246 76.618 189.486 76.684 190.982 76.596C191.114 74.066 191.136 71.778 190.982 69.204C189.046 69.094 176.396 69.094 174.768 69.182C174.68 70.018 174.68 71.228 174.768 72.064C176.616 72.108 185.79 72.108 187.616 72.064V73.736C186.406 73.692 176.176 73.692 174.68 73.736C174.548 76.266 174.526 78.554 174.68 81.15C176.682 81.26 189.618 81.216 191.422 81.15ZM192.39 85.022C191.818 85 190.476 85 188.716 84.978C188.716 83.856 188.716 82.756 188.694 82.162C188.034 82.074 186.186 82.074 185.372 82.162C185.35 82.822 185.35 83.9 185.35 84.978H180.488C180.488 83.9 180.488 82.822 180.466 82.162C179.652 82.074 177.804 82.074 177.144 82.162C177.122 82.756 177.122 83.856 177.122 84.978C175.67 85 174.416 85 173.47 85.022C173.382 85.88 173.382 87.09 173.47 87.882C176.066 87.97 190.498 88.014 192.39 87.882C192.478 86.958 192.478 85.836 192.39 85.022ZM195.138 82.558C196.238 82.624 197.404 82.624 198.372 82.558C198.46 80.71 198.592 71.448 198.592 69.402C197.206 69.292 196.37 69.292 194.94 69.402C194.962 71.448 195.05 80.688 195.138 82.558ZM195.072 87.574C196.15 87.64 197.426 87.662 198.526 87.552C198.57 86.54 198.57 85.418 198.526 84.384C197.448 84.296 196.194 84.296 195.072 84.384C195.006 85.396 195.028 86.54 195.072 87.574Z" fill="#504E48"/>
<path d="M98.7236 16.4472C98.3912 15.7823 98.8747 15 99.618 15H208.382C209.125 15 209.609 15.7823 209.276 16.4472L204.224 26.5528C204.083 26.8343 204.083 27.1657 204.224 27.4472L209.276 37.5528C209.609 38.2177 209.125 39 208.382 39H99.618C98.8747 39 98.3912 38.2177 98.7236 37.5528L103.776 27.4472C103.917 27.1657 103.917 26.8343 103.776 26.5528L98.7236 16.4472Z" fill="#FF8A00"/>
<path d="M128.959 26.697C128.998 25.449 128.985 22.667 128.959 21.354C128.595 21.302 127.75 21.302 127.451 21.354C127.412 22.381 127.412 25.566 127.451 26.697C127.828 26.736 128.634 26.736 128.959 26.697ZM125.631 26.463C125.852 26.177 126.099 25.605 126.177 25.241C125.436 24.942 124.11 24.474 123.07 24.123C123.083 23.746 123.083 23.317 123.07 22.914C124.253 22.901 125.319 22.901 125.787 22.888C125.826 22.524 125.826 21.965 125.787 21.575C123.954 21.536 119.703 21.549 118.715 21.575C118.663 21.939 118.663 22.485 118.715 22.888C119.105 22.901 120.223 22.914 121.484 22.914C121.471 23.343 121.471 23.811 121.484 24.188C120.418 24.682 119.053 25.306 118.468 25.618C118.559 25.956 118.845 26.489 119.118 26.801C120.054 26.385 121.354 25.787 122.355 25.28C123.408 25.683 124.825 26.19 125.631 26.463ZM121.12 31.741V30.714H128.959C129.024 29.947 129.024 28.01 128.959 27.295C127.308 27.256 122.758 27.256 119.625 27.295C119.586 27.555 119.586 28.192 119.625 28.53H127.438V29.544H119.599C119.534 30.649 119.56 32.3 119.599 32.963C121.237 33.041 128.14 33.041 129.18 32.963C129.206 32.638 129.219 32.079 129.18 31.741H121.12ZM140.333 25.852C140.411 25.033 140.411 22.823 140.333 21.484C139.514 21.445 131.883 21.432 131.025 21.484C130.96 22.758 130.934 24.552 131.025 25.852C132.026 25.917 139.423 25.904 140.333 25.852ZM132.468 22.732C133.326 22.706 138.123 22.719 138.89 22.732V24.617C138.24 24.643 133.144 24.643 132.468 24.617V22.732ZM141.23 26.97C139.553 26.931 132.884 26.918 130.128 26.97C130.089 27.347 130.089 27.893 130.128 28.244C131.012 28.27 132.988 28.283 135.055 28.283C135.055 28.998 135.068 29.791 135.081 30.311C135.497 30.35 136.238 30.35 136.628 30.311C136.641 29.739 136.654 28.972 136.641 28.283C138.669 28.283 140.528 28.27 141.23 28.244C141.269 27.854 141.269 27.321 141.23 26.97ZM132.442 31.663C132.468 31.078 132.468 29.986 132.442 29.284C132.078 29.245 131.207 29.232 130.895 29.271C130.856 30.051 130.83 32.027 130.895 32.989C132.065 33.054 139.644 33.054 140.775 32.989C140.827 32.612 140.827 32.027 140.775 31.663C139.696 31.637 134.886 31.65 132.442 31.663ZM152.929 27.464C152.136 27.451 150.238 27.438 148.171 27.438V26.606C149.939 26.606 151.551 26.593 152.032 26.567C152.071 26.229 152.071 25.761 152.032 25.358C151.005 25.345 145.272 25.358 144.245 25.358V24.552C146.13 24.565 150.238 24.578 151.525 24.552C151.564 24.175 151.564 23.772 151.525 23.395C150.212 23.395 146.143 23.382 144.245 23.395V22.576C145.22 22.602 150.927 22.602 151.902 22.576C151.954 22.186 151.954 21.77 151.902 21.38C150.667 21.341 143.998 21.315 142.724 21.38C142.659 22.407 142.646 25.514 142.724 26.567C143.27 26.58 144.869 26.593 146.598 26.606C146.585 26.866 146.585 27.152 146.585 27.438C144.752 27.438 142.958 27.451 141.827 27.464C141.788 27.841 141.788 28.361 141.827 28.712C143.803 28.764 151.33 28.777 152.929 28.712C152.968 28.322 152.968 27.815 152.929 27.464ZM142.555 29.557C142.503 29.947 142.503 30.454 142.555 30.844C143.621 30.883 148.379 30.844 150.615 30.844C150.615 31.468 150.589 32.313 150.615 32.976C150.979 33.002 151.798 33.002 152.162 32.976C152.201 32.313 152.24 30.571 152.162 29.557C150.836 29.492 143.673 29.505 142.555 29.557ZM165.134 32.976C165.511 33.015 166.343 33.015 166.668 32.976C166.707 31.429 166.707 23.096 166.668 21.354C166.304 21.302 165.446 21.289 165.134 21.354C165.095 22.914 165.095 31.442 165.134 32.976ZM159.726 32.365C162.235 32.365 163.314 31.117 163.314 26.918C163.314 22.719 162.235 21.471 159.726 21.471C157.217 21.471 156.125 22.719 156.125 26.918C156.125 31.117 157.217 32.365 159.726 32.365ZM159.726 30.948C158.231 30.948 157.685 30.142 157.685 26.918C157.685 23.694 158.231 22.888 159.726 22.888C161.234 22.888 161.754 23.694 161.754 26.918C161.754 30.142 161.234 30.948 159.726 30.948ZM178.497 29.895C178.523 28.725 178.536 22.498 178.497 21.354C178.185 21.289 177.353 21.289 177.054 21.354C177.028 22.316 177.015 28.725 177.054 29.895C177.431 29.921 178.211 29.947 178.497 29.895ZM173.024 27.75C173.037 27.451 173.05 26.463 173.05 25.358C173.505 25.371 173.999 25.371 174.441 25.358C174.441 27.243 174.454 29.206 174.48 29.804C174.857 29.843 175.624 29.843 175.923 29.804C175.936 28.66 175.962 22.563 175.923 21.419C175.598 21.367 174.779 21.354 174.48 21.419C174.467 21.77 174.454 22.784 174.454 24.019C173.999 24.006 173.505 24.006 173.05 24.019C173.05 23.044 173.037 22.16 173.024 21.718C172.621 21.679 171.997 21.679 171.607 21.718V23.486C170.931 23.473 170.073 23.473 169.397 23.486V21.718C169.046 21.679 168.357 21.679 167.967 21.718C167.941 22.745 167.941 26.736 167.967 27.75C168.981 27.815 172.114 27.802 173.024 27.75ZM169.397 24.76C170.06 24.773 170.931 24.773 171.607 24.76V26.502C171.009 26.528 170.06 26.528 169.397 26.502V24.76ZM178.718 31.65C177.574 31.624 172.985 31.637 170.463 31.65C170.489 30.896 170.489 29.544 170.463 28.842C170.086 28.803 169.28 28.803 168.955 28.842C168.916 29.622 168.89 32.001 168.955 32.963C170.567 33.028 177.535 33.028 178.718 32.976C178.77 32.586 178.77 32.014 178.718 31.65ZM189.871 28.894C189.91 28.569 189.91 27.958 189.871 27.555C188.896 27.542 182.773 27.555 181.72 27.555C181.72 27.269 181.707 26.671 181.707 25.995C183.54 26.008 187.869 26.021 189.221 25.995C189.26 25.618 189.273 25.033 189.221 24.643C187.856 24.643 183.553 24.63 181.707 24.643C181.707 23.98 181.72 23.395 181.72 23.096C182.734 23.122 188.636 23.122 189.611 23.096C189.663 22.706 189.663 22.121 189.611 21.744C188.376 21.705 181.447 21.679 180.16 21.744C180.095 23.291 180.082 27.321 180.16 28.894C181.447 28.933 188.818 28.946 189.871 28.894ZM190.495 31.286C189.195 31.26 181.785 31.247 179.393 31.286C179.354 31.689 179.354 32.235 179.393 32.612C181.005 32.664 189.273 32.69 190.495 32.612C190.534 32.183 190.534 31.676 190.495 31.286Z" fill="white"/>
</g>
<defs>
<filter id="filter0_d_160_367" x="0" y="0" width="308" height="170" filterUnits="userSpaceOnUse" color-interpolation-filters="sRGB">
<feFlood flood-opacity="0" result="BackgroundImageFix"/>
<feColorMatrix in="SourceAlpha" type="matrix" values="0 0 0 0 0 0 0 0 0 0 0 0 0 0 0 0 0 0 127 0" result="hardAlpha"/>
<feOffset dy="4"/>
<feGaussianBlur stdDeviation="2"/>
<feComposite in2="hardAlpha" operator="out"/>
<feColorMatrix type="matrix" values="0 0 0 0 0 0 0 0 0 0 0 0 0 0 0 0 0 0 0.25 0"/>
<feBlend mode="normal" in2="BackgroundImageFix" result="effect1_dropShadow_160_367"/>
<feBlend mode="normal" in="SourceGraphic" in2="effect1_dropShadow_160_367" result="shape"/>
</filter>
</defs>
</svg>
