<svg width="18" height="18" viewBox="0 0 18 18" fill="none" xmlns="http://www.w3.org/2000/svg">
<path d="M15.8819 13.079C16.8756 11.4026 17.2231 9.42119 16.8594 7.50669C16.4956 5.5922 15.4456 3.87631 13.9063 2.68116C12.3671 1.48601 10.4445 0.893785 8.49962 1.01567C6.55468 1.13756 4.72112 1.96518 3.34315 3.34315C1.96518 4.72112 1.13756 6.55469 1.01567 8.49962C0.893783 10.4445 1.486 12.3671 2.68116 13.9063C3.87631 15.4456 5.5922 16.4956 7.50669 16.8594C9.42119 17.2231 11.4026 16.8756 13.079 15.8819L15.8486 16.6661C15.962 16.6993 16.0824 16.7013 16.1969 16.672C16.3114 16.6427 16.416 16.5832 16.4996 16.4996C16.5832 16.416 16.6427 16.3114 16.672 16.1969C16.7013 16.0824 16.6993 15.962 16.6661 15.8486L15.8819 13.079Z" stroke="#7384B8" stroke-linecap="round"/>
<rect x="8" y="8" width="2" height="2" rx="1" fill="#7384B8"/>
<rect x="12" y="8" width="2" height="2" rx="1" fill="#7384B8"/>
<rect x="4" y="8" width="2" height="2" rx="1" fill="#7384B8"/>
</svg>
