<svg xmlns="http://www.w3.org/2000/svg" xmlns:xlink="http://www.w3.org/1999/xlink" width="105.107" height="51.229" viewBox="0 0 105.107 51.229">
  <defs>
    <filter id="타원_94" x="0" y="0" width="15.582" height="15.582" filterUnits="userSpaceOnUse">
      <feOffset dx="1" dy="1" input="SourceAlpha"/>
      <feGaussianBlur stdDeviation="0.5" result="blur"/>
      <feFlood flood-opacity="0.161"/>
      <feComposite operator="in" in2="blur"/>
      <feComposite in="SourceGraphic"/>
    </filter>
    <filter id="패스_550" x="0.708" y="17.228" width="40.248" height="34.002" filterUnits="userSpaceOnUse">
      <feOffset dx="1" dy="1" input="SourceAlpha"/>
      <feGaussianBlur stdDeviation="0.5" result="blur-2"/>
      <feFlood flood-opacity="0.161"/>
      <feComposite operator="in" in2="blur-2"/>
      <feComposite in="SourceGraphic"/>
    </filter>
  </defs>
  <g id="linker_logo" transform="translate(0.5 0.5)">
    <g id="그룹_2703" data-name="그룹 2703" transform="translate(0 0)">
      <rect id="사각형_1797" data-name="사각형 1797" width="11.07" height="30.978" rx="5.535" transform="translate(26.802 17.275)" fill="#302cc8"/>
      <g transform="matrix(1, 0, 0, 1, -0.5, -0.5)" filter="url(#타원_94)">
        <circle id="타원_94-2" data-name="타원 94" cx="6.291" cy="6.291" r="6.291" transform="translate(0.5 0.5)" fill="#302cc8"/>
      </g>
      <circle id="타원_95" data-name="타원 95" cx="6.291" cy="6.291" r="6.291" transform="translate(26.046)" fill="#302cc8"/>
      <g transform="matrix(1, 0, 0, 1, -0.5, -0.5)" filter="url(#패스_550)">
        <path id="패스_550-2" data-name="패스 550" d="M1634.173,2017.913v23.5a3.828,3.828,0,0,0,3.906,3.745h29.429a3.725,3.725,0,0,0,2.5-6.623l-29.429-23.5A3.923,3.923,0,0,0,1634.173,2017.913Z" transform="translate(-1632.97 -1996.43)" fill="#302cc8"/>
      </g>
    </g>
    <g id="그룹_2704" data-name="그룹 2704" transform="translate(40.345 26.783)">
      <path id="패스_551" data-name="패스 551" d="M1917.711,2133.089c0-4.929,2.91-7.453,7.246-7.453s7.245,2.494,7.245,7.453v7.6h-4.455v-7.6c0-2.316-1.128-3.3-2.791-3.3s-2.791.98-2.791,3.3v7.6h-4.455Z" transform="translate(-1917.711 -2119.607)" fill="#302cc8"/>
      <path id="패스_552" data-name="패스 552" d="M2045.591,2082.514h4.454v12.59l4.661-6.176h5.524l-5.969,7.186,6.206,7.483h-5.642l-4.781-6.325v6.325h-4.454Z" transform="translate(-2027.714 -2082.514)" fill="#302cc8"/>
      <path id="패스_553" data-name="패스 553" d="M2154.14,2133.356a7.856,7.856,0,0,1,15.709,0v1.247h-11.076a3.047,3.047,0,0,0,3.267,2.495,3.133,3.133,0,0,0,2.792-1.069h4.6a7.381,7.381,0,0,1-7.394,5.048A7.535,7.535,0,0,1,2154.14,2133.356Zm11.136-1.574a3.1,3.1,0,0,0-3.237-2.167,3.018,3.018,0,0,0-3.177,2.167Z" transform="translate(-2121.088 -2119.607)" fill="#302cc8"/>
      <path id="패스_554" data-name="패스 554" d="M2283.08,2132.346c0-4.573,2.673-6.711,6.593-6.711s6.562,2.108,6.592,6.741v.089h-4.454v-.119c0-1.96-.891-2.554-2.138-2.554s-2.138.594-2.138,2.554v8.344h-4.454Z" transform="translate(-2232.003 -2119.607)" fill="#302cc8"/>
    </g>
  </g>
</svg>
