<svg width="90" height="34" viewBox="0 0 90 34" fill="none" xmlns="http://www.w3.org/2000/svg">
<path d="M24.8015 15.0718C24.8015 13.0971 23.2007 11.4964 21.226 11.4964C19.2514 11.4964 17.6506 13.0971 17.6506 15.0718V27.9318C17.6506 29.9064 19.2514 31.5072 21.226 31.5072C23.2007 31.5072 24.8015 29.9064 24.8015 27.9318V15.0718Z" fill="#302CC8"/>
<g filter="url(#filter0_d_1_19)">
<path d="M4.40119 8.46488C6.64555 8.46488 8.46497 6.64545 8.46497 4.40108C8.46497 2.1567 6.64555 0.33728 4.40119 0.33728C2.15682 0.33728 0.337402 2.1567 0.337402 4.40108C0.337402 6.64545 2.15682 8.46488 4.40119 8.46488Z" fill="#302CC8"/>
</g>
<path d="M21.226 8.46488C23.4704 8.46488 25.2898 6.64545 25.2898 4.40108C25.2898 2.1567 23.4704 0.337281 21.226 0.337281C18.9817 0.337281 17.1623 2.1567 17.1623 4.40108C17.1623 6.64545 18.9817 8.46488 21.226 8.46488Z" fill="#302CC8"/>
<g filter="url(#filter1_d_1_19)">
<path d="M0.791397 13.8915V29.0717C0.80547 29.727 1.07914 30.35 1.55226 30.8036C2.02538 31.2572 2.65925 31.5044 3.31456 31.4909H22.3248C22.8314 31.5132 23.332 31.375 23.7553 31.0959C24.1786 30.8168 24.5029 30.4111 24.682 29.9368C24.8611 29.4624 24.8857 28.9436 24.7524 28.4544C24.6191 27.9652 24.3347 27.5306 23.9398 27.2127L4.92948 12.0324C4.56494 11.7338 4.1244 11.5427 3.65725 11.4806C3.19011 11.4186 2.7149 11.488 2.28504 11.6811C1.85518 11.8743 1.48768 12.1834 1.22383 12.5738C0.959985 12.9643 0.810214 13.4206 0.791397 13.8915Z" fill="#302CC8"/>
</g>
<path d="M26.3994 23.6508C26.3994 18.7909 29.2686 16.3021 33.5438 16.3021C37.819 16.3021 40.6872 18.7613 40.6872 23.6508V31.1441H36.2946V23.6508C36.2946 21.3672 35.1825 20.397 33.5428 20.397C31.9031 20.397 30.7909 21.3633 30.7909 23.6508V31.1441H26.3983L26.3994 23.6508Z" fill="#302CC8"/>
<path d="M44.0258 10.358H48.4173V22.7716L53.0131 16.6821H58.4596L52.5743 23.7675L58.6934 31.1455H53.1304L48.4164 24.9092V31.1455H44.0248L44.0258 10.358Z" fill="#302CC8"/>
<path d="M58.9883 23.9144C59.0279 21.8866 59.8613 19.9553 61.3093 18.5353C62.7573 17.1153 64.7046 16.3199 66.7327 16.3199C68.7608 16.3199 70.708 17.1153 72.1561 18.5353C73.6041 19.9553 74.4377 21.8866 74.4773 23.9144V25.144H63.5564C63.6894 25.8821 64.0936 26.5437 64.6897 26.9989C65.2858 27.4542 66.0306 27.6699 66.7777 27.6039C67.288 27.6715 67.8072 27.6105 68.288 27.4265C68.7687 27.2424 69.1959 26.9412 69.5306 26.55H74.0659C73.564 28.0638 72.5787 29.3708 71.2616 30.2701C69.9444 31.1693 68.3684 31.6109 66.7758 31.5271C65.7548 31.5767 64.7345 31.4151 63.7788 31.0524C62.8232 30.6897 61.9526 30.1337 61.2217 29.4191C60.4908 28.7046 59.9152 27.8469 59.5309 26.8998C59.1466 25.9526 58.9619 24.9362 58.9883 23.9144ZM69.9682 22.3625C69.7606 21.6951 69.3307 21.1189 68.7499 20.7302C68.1691 20.3414 67.4728 20.1634 66.7767 20.2258C66.0876 20.1622 65.3977 20.3407 64.826 20.7306C64.2542 21.1206 63.8365 21.6976 63.6443 22.3625H69.9682Z" fill="#302CC8"/>
<path d="M76.7604 22.9185C76.7604 18.4096 79.396 16.3016 83.261 16.3016C87.1261 16.3016 89.7308 18.38 89.7604 22.9481V23.036H85.369V22.9185C85.369 20.986 84.4906 20.4003 83.261 20.4003C82.0315 20.4003 81.1528 20.986 81.1528 22.9185V31.1455H76.7614L76.7604 22.9185Z" fill="#302CC8"/>
<defs>
<filter id="filter0_d_1_19" x="0.337402" y="0.33728" width="10.1276" height="10.1276" filterUnits="userSpaceOnUse" color-interpolation-filters="sRGB">
<feFlood flood-opacity="0" result="BackgroundImageFix"/>
<feColorMatrix in="SourceAlpha" type="matrix" values="0 0 0 0 0 0 0 0 0 0 0 0 0 0 0 0 0 0 127 0" result="hardAlpha"/>
<feOffset dx="1" dy="1"/>
<feGaussianBlur stdDeviation="0.5"/>
<feColorMatrix type="matrix" values="0 0 0 0 0 0 0 0 0 0 0 0 0 0 0 0 0 0 0.161 0"/>
<feBlend mode="normal" in2="BackgroundImageFix" result="effect1_dropShadow_1_19"/>
<feBlend mode="normal" in="SourceGraphic" in2="effect1_dropShadow_1_19" result="shape"/>
</filter>
<filter id="filter1_d_1_19" x="0.791397" y="11.4585" width="26.0457" height="22.0347" filterUnits="userSpaceOnUse" color-interpolation-filters="sRGB">
<feFlood flood-opacity="0" result="BackgroundImageFix"/>
<feColorMatrix in="SourceAlpha" type="matrix" values="0 0 0 0 0 0 0 0 0 0 0 0 0 0 0 0 0 0 127 0" result="hardAlpha"/>
<feOffset dx="1" dy="1"/>
<feGaussianBlur stdDeviation="0.5"/>
<feColorMatrix type="matrix" values="0 0 0 0 0 0 0 0 0 0 0 0 0 0 0 0 0 0 0.161 0"/>
<feBlend mode="normal" in2="BackgroundImageFix" result="effect1_dropShadow_1_19"/>
<feBlend mode="normal" in="SourceGraphic" in2="effect1_dropShadow_1_19" result="shape"/>
</filter>
</defs>
</svg>
