<svg width="71" height="20" viewBox="0 0 71 20" fill="none" xmlns="http://www.w3.org/2000/svg">
<path d="M34.9119 20C32.9123 19.9998 30.9576 19.413 29.295 18.314C27.6325 17.215 26.3368 15.6531 25.5718 13.8257C24.8067 11.9984 24.6067 9.98771 24.9971 8.04794C25.3874 6.10818 26.3506 4.32646 27.7647 2.9281C29.1789 1.52974 30.9805 0.577546 32.9418 0.191922C34.9031 -0.193702 36.936 0.00456834 38.7834 0.76166C40.6307 1.51875 42.2096 2.80066 43.3204 4.44528C44.4312 6.0899 45.0239 8.02337 45.0237 10.0012C45.0199 12.6523 43.9533 15.1937 42.0577 17.0681C40.1621 18.9425 37.5924 19.9969 34.9119 20ZM34.9119 2.61466C33.4355 2.61466 31.9921 3.0477 30.7645 3.85902C29.5369 4.67034 28.58 5.82349 28.015 7.17267C27.45 8.52184 27.3021 10.0064 27.5902 11.4387C27.8782 12.871 28.5892 14.1866 29.6332 15.2192C30.6773 16.2518 32.0074 16.955 33.4556 17.2399C34.9037 17.5248 36.4047 17.3786 37.7687 16.8198C39.1328 16.2609 40.2987 15.3146 41.119 14.1003C41.9393 12.8861 42.3771 11.4586 42.3771 9.99824C42.3746 8.04076 41.5873 6.16416 40.1878 4.78001C38.7884 3.39587 36.8911 2.61716 34.9119 2.61466Z" fill="#13D86F"/>
<path d="M37.9556 10.0011C37.9556 10.5963 37.7772 11.1782 37.4429 11.6731C37.1086 12.168 36.6334 12.5538 36.0774 12.7816C35.5215 13.0094 34.9097 13.0691 34.3194 12.9531C33.7292 12.837 33.187 12.5505 32.7614 12.1297C32.3357 11.7089 32.0458 11.1727 31.9283 10.589C31.8107 10.0052 31.8708 9.40011 32.101 8.85013C32.3311 8.30016 32.7209 7.83003 33.2212 7.49917C33.7214 7.16832 34.3097 6.99161 34.9114 6.99137C35.3112 6.99122 35.707 7.06895 36.0763 7.22014C36.4456 7.37132 36.7812 7.59299 37.0639 7.87248C37.3466 8.15197 37.5709 8.48382 37.7239 8.84905C37.8769 9.21428 37.9556 9.60575 37.9556 10.0011Z" fill="#242D3F"/>
<path d="M15.4983 1.36642C13.8123 1.36668 12.1933 2.01968 10.988 3.18567C10.0769 2.30616 8.92369 1.71209 7.67281 1.47784C6.42193 1.24359 5.12898 1.37959 3.95589 1.8688C2.78281 2.35801 1.78173 3.17868 1.07805 4.22803C0.374366 5.27739 -0.000638826 6.50876 8.16912e-07 7.76794V16.6929C0.0262722 17.1899 0.244408 17.658 0.609415 18.0007C0.974422 18.3433 1.45846 18.5343 1.96169 18.5343C2.46492 18.5343 2.94896 18.3433 3.31396 18.0007C3.67897 17.658 3.89711 17.1899 3.92338 16.6929V7.76794C3.92338 7.0987 4.19218 6.45686 4.67064 5.98363C5.1491 5.5104 5.79803 5.24454 6.47468 5.24454C7.15132 5.24454 7.80025 5.5104 8.27872 5.98363C8.75718 6.45686 9.02597 7.0987 9.02597 7.76794V16.6929C9.05224 17.1899 9.27038 17.658 9.63539 18.0007C10.0004 18.3433 10.4844 18.5343 10.9877 18.5343C11.4909 18.5343 11.9749 18.3433 12.3399 18.0007C12.7049 17.658 12.9231 17.1899 12.9494 16.6929V7.76794C12.9494 7.09901 13.218 6.45747 13.6963 5.98446C14.1745 5.51145 14.8231 5.24572 15.4995 5.24572C16.1758 5.24572 16.8244 5.51145 17.3027 5.98446C17.7809 6.45747 18.0496 7.09901 18.0496 7.76794V16.6929C18.0356 16.9562 18.0761 17.2196 18.1684 17.467C18.2607 17.7143 18.4029 17.9405 18.5864 18.1318C18.77 18.3231 18.9909 18.4754 19.2359 18.5794C19.4808 18.6835 19.7447 18.7372 20.0113 18.7372C20.2779 18.7372 20.5417 18.6835 20.7866 18.5794C21.0316 18.4754 21.2525 18.3231 21.4361 18.1318C21.6196 17.9405 21.7618 17.7143 21.8541 17.467C21.9464 17.2196 21.9869 16.9562 21.9729 16.6929V7.76794C21.9709 6.07037 21.288 4.44293 20.0741 3.24279C18.8603 2.04264 17.2146 1.36782 15.4983 1.36642Z" fill="#242D3F"/>
<path d="M54.2802 18.6331C52.5638 18.6312 50.9182 17.9559 49.7048 16.7552C48.4913 15.5546 47.8091 13.9269 47.8079 12.2292C47.8341 11.7322 48.0523 11.2641 48.4173 10.9214C48.7823 10.5788 49.2663 10.3878 49.7696 10.3878C50.2728 10.3878 50.7568 10.5788 51.1218 10.9214C51.4868 11.2641 51.705 11.7322 51.7312 12.2292C51.7312 12.8982 51.9999 13.5397 52.4782 14.0127C52.9564 14.4857 53.605 14.7515 54.2813 14.7515C54.9577 14.7515 55.6063 14.4857 56.0845 14.0127C56.5628 13.5397 56.8315 12.8982 56.8315 12.2292V3.30723C56.8577 2.81019 57.0759 2.34206 57.4409 1.99943C57.8059 1.65679 58.2899 1.46577 58.7931 1.46577C59.2964 1.46577 59.7804 1.65679 60.1454 1.99943C60.5104 2.34206 60.7286 2.81019 60.7548 3.30723V12.2292C60.7528 13.9268 60.0699 15.5542 58.856 16.7544C57.6422 17.9545 55.9965 18.6294 54.2802 18.6308V18.6331Z" fill="#242D3F"/>
<path d="M68.4014 18.8268C67.8804 18.8268 67.3808 18.6221 67.0124 18.2577C66.644 17.8934 66.4371 17.3992 66.4371 16.8839V3.30722C66.4231 3.0439 66.4636 2.78053 66.5559 2.53315C66.6482 2.28577 66.7904 2.05956 66.9739 1.8683C67.1575 1.67705 67.3784 1.52474 67.6234 1.42066C67.8683 1.31658 68.1322 1.2629 68.3988 1.2629C68.6654 1.2629 68.9292 1.31658 69.1741 1.42066C69.4191 1.52474 69.64 1.67705 69.8236 1.8683C70.0071 2.05956 70.1493 2.28577 70.2416 2.53315C70.3339 2.78053 70.3744 3.0439 70.3604 3.30722V16.8892C70.3604 17.1443 70.3096 17.397 70.2109 17.6327C70.1122 17.8684 69.9675 18.0826 69.7851 18.263C69.6027 18.4434 69.3861 18.5866 69.1478 18.6842C68.9095 18.7818 68.6541 18.8321 68.3961 18.8321L68.4014 18.8268Z" fill="#242D3F"/>
</svg>
