<svg width="106" height="32" viewBox="0 0 106 32" fill="none" xmlns="http://www.w3.org/2000/svg">
<rect width="106" height="32" rx="16" fill="#1C1C1C"/>
<path d="M19.333 16.524V18.933H20.477V16.524H19.333ZM19.905 11.453C17.782 11.453 16.209 12.52 16.209 14.148C16.209 15.787 17.782 16.843 19.905 16.843C22.039 16.843 23.601 15.787 23.601 14.148C23.601 12.52 22.039 11.453 19.905 11.453ZM19.905 12.366C21.412 12.366 22.479 13.059 22.479 14.148C22.479 15.248 21.412 15.93 19.905 15.93C18.409 15.93 17.331 15.248 17.331 14.148C17.331 13.059 18.409 12.366 19.905 12.366ZM15.373 18.735V19.681H24.481V18.735H15.373ZM26.4491 13.081V14.005H33.3131V13.081H26.4491ZM25.2611 14.841V15.765H34.3691V14.841H25.2611ZM26.4491 10.991V13.543H27.5821V10.991H26.4491ZM26.3501 16.535V17.415H32.1031V18.196H26.3611V20.143H27.5161V19.032H33.2471V16.535H26.3501ZM26.3611 19.901V20.792H33.5661V19.901H26.3611ZM44.0659 10.859V20.913H45.2099V10.859H44.0659ZM44.9459 14.896V15.853H46.7719V14.896H44.9459ZM37.3669 12.41V13.334H43.2629V12.41H37.3669ZM40.3479 14.06C38.9069 14.06 37.8509 15.028 37.8509 16.403C37.8509 17.789 38.9069 18.757 40.3479 18.757C41.7779 18.757 42.8339 17.789 42.8339 16.403C42.8339 15.028 41.7779 14.06 40.3479 14.06ZM40.3479 15.006C41.1509 15.006 41.7339 15.556 41.7339 16.403C41.7339 17.25 41.1509 17.811 40.3479 17.811C39.5339 17.811 38.9509 17.25 38.9509 16.403C38.9509 15.556 39.5339 15.006 40.3479 15.006ZM39.7539 11.002V12.795H40.9089V11.002H39.7539ZM48.3771 11.222V12.146H54.1741V13.136H48.3991V15.655H49.5651V14.016H55.3401V11.222H48.3771ZM48.3991 15.094V16.018H55.5711V15.094H48.3991ZM47.3101 16.92V17.855H56.4181V16.92H47.3101ZM51.2701 17.272V20.924H52.4141V17.272H51.2701ZM66.1589 10.859V18.218H67.3139V10.859H66.1589ZM66.9729 13.829V14.786H68.7329V13.829H66.9729ZM60.9559 19.78V20.715H67.7209V19.78H60.9559ZM60.9559 17.459V20.176H62.1109V17.459H60.9559ZM62.2649 11.541C60.7469 11.541 59.6029 12.586 59.6029 14.049C59.6029 15.512 60.7469 16.557 62.2649 16.557C63.7829 16.557 64.9379 15.512 64.9379 14.049C64.9379 12.586 63.7829 11.541 62.2649 11.541ZM62.2649 12.542C63.1449 12.542 63.8159 13.136 63.8159 14.049C63.8159 14.962 63.1449 15.556 62.2649 15.556C61.3959 15.556 60.7249 14.962 60.7249 14.049C60.7249 13.136 61.3959 12.542 62.2649 12.542ZM71.6208 18.735V19.681H80.7288V18.735H71.6208ZM75.5808 16.447V18.988H76.7248V16.447H75.5808ZM72.6328 11.541V16.722H79.6728V11.541H78.5288V13.224H73.7878V11.541H72.6328ZM73.7878 14.137H78.5288V15.787H73.7878V14.137ZM88.6589 10.859V20.913H89.8139V10.859H88.6589ZM85.7109 11.926V12.124C85.7109 14.808 84.4899 16.799 81.5969 18.196L82.2019 19.12C85.6559 17.437 86.8439 14.907 86.8439 11.926H85.7109ZM82.0919 11.926V12.85H86.2279V11.926H82.0919Z" fill="#B1B1B1"/>
</svg>
