<svg width="461" height="461" viewBox="0 0 461 461" fill="none" xmlns="http://www.w3.org/2000/svg">
<g clip-path="url(#clip0_54_2)">
<path d="M26.7784 11.5406H11.5408V26.7783H26.7784V11.5406Z" fill="black"/>
<path d="M41.9005 11.5406H26.6628V26.7783H41.9005V11.5406Z" fill="black"/>
<path d="M57.0228 11.5406H41.7852V26.7783H57.0228V11.5406Z" fill="black"/>
<path d="M72.1452 11.5406H56.9075V26.7783H72.1452V11.5406Z" fill="black"/>
<path d="M87.2675 11.5406H72.0298V26.7783H87.2675V11.5406Z" fill="black"/>
<path d="M102.39 11.5406H87.1521V26.7783H102.39V11.5406Z" fill="black"/>
<path d="M117.512 11.5406H102.274V26.7783H117.512V11.5406Z" fill="black"/>
<path d="M147.756 11.5406H132.519V26.7783H147.756V11.5406Z" fill="black"/>
<path d="M162.879 11.5406H147.641V26.7783H162.879V11.5406Z" fill="black"/>
<path d="M178.001 11.5406H162.763V26.7783H178.001V11.5406Z" fill="black"/>
<path d="M208.246 11.5406H193.008V26.7783H208.246V11.5406Z" fill="black"/>
<path d="M238.49 11.5406H223.252V26.7783H238.49V11.5406Z" fill="black"/>
<path d="M253.612 11.5406H238.375V26.7783H253.612V11.5406Z" fill="black"/>
<path d="M268.735 11.5406H253.497V26.7783H268.735V11.5406Z" fill="black"/>
<path d="M283.857 11.5406H268.619V26.7783H283.857V11.5406Z" fill="black"/>
<path d="M298.979 11.5406H283.742V26.7783H298.979V11.5406Z" fill="black"/>
<path d="M359.468 11.5406H344.231V26.7783H359.468V11.5406Z" fill="black"/>
<path d="M374.591 11.5406H359.353V26.7783H374.591V11.5406Z" fill="black"/>
<path d="M389.713 11.5406H374.475V26.7783H389.713V11.5406Z" fill="black"/>
<path d="M404.835 11.5406H389.597V26.7783H404.835V11.5406Z" fill="black"/>
<path d="M419.957 11.5406H404.72V26.7783H419.957V11.5406Z" fill="black"/>
<path d="M435.08 11.5406H419.842V26.7783H435.08V11.5406Z" fill="black"/>
<path d="M450.202 11.5406H434.964V26.7783H450.202V11.5406Z" fill="black"/>
<path d="M26.7784 26.663H11.5408V41.9006H26.7784V26.663Z" fill="black"/>
<path d="M117.512 26.663H102.274V41.9006H117.512V26.663Z" fill="black"/>
<path d="M147.756 26.663H132.519V41.9006H147.756V26.663Z" fill="black"/>
<path d="M162.879 26.663H147.641V41.9006H162.879V26.663Z" fill="black"/>
<path d="M178.001 26.663H162.763V41.9006H178.001V26.663Z" fill="black"/>
<path d="M223.368 26.663H208.13V41.9006H223.368V26.663Z" fill="black"/>
<path d="M238.49 26.663H223.252V41.9006H238.49V26.663Z" fill="black"/>
<path d="M283.857 26.663H268.619V41.9006H283.857V26.663Z" fill="black"/>
<path d="M298.979 26.663H283.742V41.9006H298.979V26.663Z" fill="black"/>
<path d="M314.101 26.663H298.864V41.9006H314.101V26.663Z" fill="black"/>
<path d="M329.224 26.663H313.986V41.9006H329.224V26.663Z" fill="black"/>
<path d="M359.468 26.663H344.231V41.9006H359.468V26.663Z" fill="black"/>
<path d="M450.202 26.663H434.964V41.9006H450.202V26.663Z" fill="black"/>
<path d="M26.7784 41.7853H11.5408V57.023H26.7784V41.7853Z" fill="black"/>
<path d="M57.0228 41.7853H41.7852V57.023H57.0228V41.7853Z" fill="black"/>
<path d="M72.1452 41.7853H56.9075V57.023H72.1452V41.7853Z" fill="black"/>
<path d="M87.2675 41.7853H72.0298V57.023H87.2675V41.7853Z" fill="black"/>
<path d="M117.512 41.7853H102.274V57.023H117.512V41.7853Z" fill="black"/>
<path d="M147.756 41.7853H132.519V57.023H147.756V41.7853Z" fill="black"/>
<path d="M178.001 41.7853H162.763V57.023H178.001V41.7853Z" fill="black"/>
<path d="M193.123 41.7853H177.886V57.023H193.123V41.7853Z" fill="black"/>
<path d="M268.735 41.7853H253.497V57.023H268.735V41.7853Z" fill="black"/>
<path d="M283.857 41.7853H268.619V57.023H283.857V41.7853Z" fill="black"/>
<path d="M298.979 41.7853H283.742V57.023H298.979V41.7853Z" fill="black"/>
<path d="M314.101 41.7853H298.864V57.023H314.101V41.7853Z" fill="black"/>
<path d="M329.224 41.7853H313.986V57.023H329.224V41.7853Z" fill="black"/>
<path d="M359.468 41.7853H344.231V57.023H359.468V41.7853Z" fill="black"/>
<path d="M389.713 41.7853H374.475V57.023H389.713V41.7853Z" fill="black"/>
<path d="M404.835 41.7853H389.597V57.023H404.835V41.7853Z" fill="black"/>
<path d="M419.957 41.7853H404.72V57.023H419.957V41.7853Z" fill="black"/>
<path d="M450.202 41.7853H434.964V57.023H450.202V41.7853Z" fill="black"/>
<path d="M26.7784 56.9075H11.5408V72.1452H26.7784V56.9075Z" fill="black"/>
<path d="M57.0228 56.9075H41.7852V72.1452H57.0228V56.9075Z" fill="black"/>
<path d="M72.1452 56.9075H56.9075V72.1452H72.1452V56.9075Z" fill="black"/>
<path d="M87.2675 56.9075H72.0298V72.1452H87.2675V56.9075Z" fill="black"/>
<path d="M117.512 56.9075H102.274V72.1452H117.512V56.9075Z" fill="black"/>
<path d="M147.756 56.9075H132.519V72.1452H147.756V56.9075Z" fill="black"/>
<path d="M162.879 56.9075H147.641V72.1452H162.879V56.9075Z" fill="black"/>
<path d="M193.123 56.9075H177.886V72.1452H193.123V56.9075Z" fill="black"/>
<path d="M223.368 56.9075H208.13V72.1452H223.368V56.9075Z" fill="black"/>
<path d="M238.49 56.9075H223.252V72.1452H238.49V56.9075Z" fill="black"/>
<path d="M253.612 56.9075H238.375V72.1452H253.612V56.9075Z" fill="black"/>
<path d="M268.735 56.9075H253.497V72.1452H268.735V56.9075Z" fill="black"/>
<path d="M314.101 56.9075H298.864V72.1452H314.101V56.9075Z" fill="black"/>
<path d="M359.468 56.9075H344.231V72.1452H359.468V56.9075Z" fill="black"/>
<path d="M389.713 56.9075H374.475V72.1452H389.713V56.9075Z" fill="black"/>
<path d="M404.835 56.9075H389.597V72.1452H404.835V56.9075Z" fill="black"/>
<path d="M419.957 56.9075H404.72V72.1452H419.957V56.9075Z" fill="black"/>
<path d="M450.202 56.9075H434.964V72.1452H450.202V56.9075Z" fill="black"/>
<path d="M26.7784 72.0298H11.5408V87.2675H26.7784V72.0298Z" fill="black"/>
<path d="M57.0228 72.0298H41.7852V87.2675H57.0228V72.0298Z" fill="black"/>
<path d="M72.1452 72.0298H56.9075V87.2675H72.1452V72.0298Z" fill="black"/>
<path d="M87.2675 72.0298H72.0298V87.2675H87.2675V72.0298Z" fill="black"/>
<path d="M117.512 72.0298H102.274V87.2675H117.512V72.0298Z" fill="black"/>
<path d="M238.49 72.0298H223.252V87.2675H238.49V72.0298Z" fill="black"/>
<path d="M253.612 72.0298H238.375V87.2675H253.612V72.0298Z" fill="black"/>
<path d="M268.735 72.0298H253.497V87.2675H268.735V72.0298Z" fill="black"/>
<path d="M283.857 72.0298H268.619V87.2675H283.857V72.0298Z" fill="black"/>
<path d="M298.979 72.0298H283.742V87.2675H298.979V72.0298Z" fill="black"/>
<path d="M359.468 72.0298H344.231V87.2675H359.468V72.0298Z" fill="black"/>
<path d="M389.713 72.0298H374.475V87.2675H389.713V72.0298Z" fill="black"/>
<path d="M404.835 72.0298H389.597V87.2675H404.835V72.0298Z" fill="black"/>
<path d="M419.957 72.0298H404.72V87.2675H419.957V72.0298Z" fill="black"/>
<path d="M450.202 72.0298H434.964V87.2675H450.202V72.0298Z" fill="black"/>
<path d="M26.7784 87.152H11.5408V102.39H26.7784V87.152Z" fill="black"/>
<path d="M117.512 87.152H102.274V102.39H117.512V87.152Z" fill="black"/>
<path d="M147.756 87.152H132.519V102.39H147.756V87.152Z" fill="black"/>
<path d="M193.123 87.152H177.886V102.39H193.123V87.152Z" fill="black"/>
<path d="M208.246 87.152H193.008V102.39H208.246V87.152Z" fill="black"/>
<path d="M283.857 87.152H268.619V102.39H283.857V87.152Z" fill="black"/>
<path d="M314.101 87.152H298.864V102.39H314.101V87.152Z" fill="black"/>
<path d="M359.468 87.152H344.231V102.39H359.468V87.152Z" fill="black"/>
<path d="M450.202 87.152H434.964V102.39H450.202V87.152Z" fill="black"/>
<path d="M26.7784 102.274H11.5408V117.512H26.7784V102.274Z" fill="black"/>
<path d="M41.9005 102.274H26.6628V117.512H41.9005V102.274Z" fill="black"/>
<path d="M57.0228 102.274H41.7852V117.512H57.0228V102.274Z" fill="black"/>
<path d="M72.1452 102.274H56.9075V117.512H72.1452V102.274Z" fill="black"/>
<path d="M87.2675 102.274H72.0298V117.512H87.2675V102.274Z" fill="black"/>
<path d="M102.39 102.274H87.1521V117.512H102.39V102.274Z" fill="black"/>
<path d="M117.512 102.274H102.274V117.512H117.512V102.274Z" fill="black"/>
<path d="M147.756 102.274H132.519V117.512H147.756V102.274Z" fill="black"/>
<path d="M178.001 102.274H162.763V117.512H178.001V102.274Z" fill="black"/>
<path d="M208.246 102.274H193.008V117.512H208.246V102.274Z" fill="black"/>
<path d="M238.49 102.274H223.252V117.512H238.49V102.274Z" fill="black"/>
<path d="M268.735 102.274H253.497V117.512H268.735V102.274Z" fill="black"/>
<path d="M298.979 102.274H283.742V117.512H298.979V102.274Z" fill="black"/>
<path d="M329.224 102.274H313.986V117.512H329.224V102.274Z" fill="black"/>
<path d="M359.468 102.274H344.231V117.512H359.468V102.274Z" fill="black"/>
<path d="M374.591 102.274H359.353V117.512H374.591V102.274Z" fill="black"/>
<path d="M389.713 102.274H374.475V117.512H389.713V102.274Z" fill="black"/>
<path d="M404.835 102.274H389.597V117.512H404.835V102.274Z" fill="black"/>
<path d="M419.957 102.274H404.72V117.512H419.957V102.274Z" fill="black"/>
<path d="M435.08 102.274H419.842V117.512H435.08V102.274Z" fill="black"/>
<path d="M450.202 102.274H434.964V117.512H450.202V102.274Z" fill="black"/>
<path d="M162.879 117.397H147.641V132.634H162.879V117.397Z" fill="black"/>
<path d="M208.246 117.397H193.008V132.634H208.246V117.397Z" fill="black"/>
<path d="M253.612 117.397H238.375V132.634H253.612V117.397Z" fill="black"/>
<path d="M268.735 117.397H253.497V132.634H268.735V117.397Z" fill="black"/>
<path d="M283.857 117.397H268.619V132.634H283.857V117.397Z" fill="black"/>
<path d="M26.7784 132.519H11.5408V147.757H26.7784V132.519Z" fill="black"/>
<path d="M41.9005 132.519H26.6628V147.757H41.9005V132.519Z" fill="black"/>
<path d="M87.2675 132.519H72.0298V147.757H87.2675V132.519Z" fill="black"/>
<path d="M102.39 132.519H87.1521V147.757H102.39V132.519Z" fill="black"/>
<path d="M117.512 132.519H102.274V147.757H117.512V132.519Z" fill="black"/>
<path d="M193.123 132.519H177.886V147.757H193.123V132.519Z" fill="black"/>
<path d="M238.49 132.519H223.252V147.757H238.49V132.519Z" fill="black"/>
<path d="M268.735 132.519H253.497V147.757H268.735V132.519Z" fill="black"/>
<path d="M283.857 132.519H268.619V147.757H283.857V132.519Z" fill="black"/>
<path d="M329.224 132.519H313.986V147.757H329.224V132.519Z" fill="black"/>
<path d="M374.591 132.519H359.353V147.757H374.591V132.519Z" fill="black"/>
<path d="M404.835 132.519H389.597V147.757H404.835V132.519Z" fill="black"/>
<path d="M419.957 132.519H404.72V147.757H419.957V132.519Z" fill="black"/>
<path d="M435.08 132.519H419.842V147.757H435.08V132.519Z" fill="black"/>
<path d="M450.202 132.519H434.964V147.757H450.202V132.519Z" fill="black"/>
<path d="M26.7784 147.641H11.5408V162.879H26.7784V147.641Z" fill="black"/>
<path d="M41.9005 147.641H26.6628V162.879H41.9005V147.641Z" fill="black"/>
<path d="M57.0228 147.641H41.7852V162.879H57.0228V147.641Z" fill="black"/>
<path d="M102.39 147.641H87.1521V162.879H102.39V147.641Z" fill="black"/>
<path d="M147.756 147.641H132.519V162.879H147.756V147.641Z" fill="black"/>
<path d="M162.879 147.641H147.641V162.879H162.879V147.641Z" fill="black"/>
<path d="M178.001 147.641H162.763V162.879H178.001V147.641Z" fill="black"/>
<path d="M208.246 147.641H193.008V162.879H208.246V147.641Z" fill="black"/>
<path d="M223.368 147.641H208.13V162.879H223.368V147.641Z" fill="black"/>
<path d="M253.612 147.641H238.375V162.879H253.612V147.641Z" fill="black"/>
<path d="M283.857 147.641H268.619V162.879H283.857V147.641Z" fill="black"/>
<path d="M298.979 147.641H283.742V162.879H298.979V147.641Z" fill="black"/>
<path d="M359.468 147.641H344.231V162.879H359.468V147.641Z" fill="black"/>
<path d="M374.591 147.641H359.353V162.879H374.591V147.641Z" fill="black"/>
<path d="M389.713 147.641H374.475V162.879H389.713V147.641Z" fill="black"/>
<path d="M404.835 147.641H389.597V162.879H404.835V147.641Z" fill="black"/>
<path d="M419.957 147.641H404.72V162.879H419.957V147.641Z" fill="black"/>
<path d="M435.08 147.641H419.842V162.879H435.08V147.641Z" fill="black"/>
<path d="M450.202 147.641H434.964V162.879H450.202V147.641Z" fill="black"/>
<path d="M41.9005 162.763H26.6628V178.001H41.9005V162.763Z" fill="black"/>
<path d="M87.2675 162.763H72.0298V178.001H87.2675V162.763Z" fill="black"/>
<path d="M117.512 162.763H102.274V178.001H117.512V162.763Z" fill="black"/>
<path d="M193.123 162.763H177.886V178.001H193.123V162.763Z" fill="black"/>
<path d="M208.246 162.763H193.008V178.001H208.246V162.763Z" fill="black"/>
<path d="M223.368 162.763H208.13V178.001H223.368V162.763Z" fill="black"/>
<path d="M238.49 162.763H223.252V178.001H238.49V162.763Z" fill="black"/>
<path d="M253.612 162.763H238.375V178.001H253.612V162.763Z" fill="black"/>
<path d="M283.857 162.763H268.619V178.001H283.857V162.763Z" fill="black"/>
<path d="M298.979 162.763H283.742V178.001H298.979V162.763Z" fill="black"/>
<path d="M344.346 162.763H329.108V178.001H344.346V162.763Z" fill="black"/>
<path d="M374.591 162.763H359.353V178.001H374.591V162.763Z" fill="black"/>
<path d="M389.713 162.763H374.475V178.001H389.713V162.763Z" fill="black"/>
<path d="M450.202 162.763H434.964V178.001H450.202V162.763Z" fill="black"/>
<path d="M26.7784 177.886H11.5408V193.123H26.7784V177.886Z" fill="black"/>
<path d="M87.2675 177.886H72.0298V193.123H87.2675V177.886Z" fill="black"/>
<path d="M132.634 177.886H117.396V193.123H132.634V177.886Z" fill="black"/>
<path d="M178.001 177.886H162.763V193.123H178.001V177.886Z" fill="black"/>
<path d="M193.123 177.886H177.886V193.123H193.123V177.886Z" fill="black"/>
<path d="M268.735 177.886H253.497V193.123H268.735V177.886Z" fill="black"/>
<path d="M283.857 177.886H268.619V193.123H283.857V177.886Z" fill="black"/>
<path d="M298.979 177.886H283.742V193.123H298.979V177.886Z" fill="black"/>
<path d="M329.224 177.886H313.986V193.123H329.224V177.886Z" fill="black"/>
<path d="M389.713 177.886H374.475V193.123H389.713V177.886Z" fill="black"/>
<path d="M404.835 177.886H389.597V193.123H404.835V177.886Z" fill="black"/>
<path d="M435.08 177.886H419.842V193.123H435.08V177.886Z" fill="black"/>
<path d="M450.202 177.886H434.964V193.123H450.202V177.886Z" fill="black"/>
<path d="M41.9005 193.008H26.6628V208.246H41.9005V193.008Z" fill="black"/>
<path d="M72.1452 193.008H56.9075V208.246H72.1452V193.008Z" fill="black"/>
<path d="M87.2675 193.008H72.0298V208.246H87.2675V193.008Z" fill="black"/>
<path d="M117.512 193.008H102.274V208.246H117.512V193.008Z" fill="black"/>
<path d="M178.001 193.008H162.763V208.246H178.001V193.008Z" fill="black"/>
<path d="M208.246 193.008H193.008V208.246H208.246V193.008Z" fill="black"/>
<path d="M238.49 193.008H223.252V208.246H238.49V193.008Z" fill="black"/>
<path d="M253.612 193.008H238.375V208.246H253.612V193.008Z" fill="black"/>
<path d="M283.857 193.008H268.619V208.246H283.857V193.008Z" fill="black"/>
<path d="M329.224 193.008H313.986V208.246H329.224V193.008Z" fill="black"/>
<path d="M344.346 193.008H329.108V208.246H344.346V193.008Z" fill="black"/>
<path d="M435.08 193.008H419.842V208.246H435.08V193.008Z" fill="black"/>
<path d="M72.1452 208.13H56.9075V223.368H72.1452V208.13Z" fill="black"/>
<path d="M87.2675 208.13H72.0298V223.368H87.2675V208.13Z" fill="black"/>
<path d="M102.39 208.13H87.1521V223.368H102.39V208.13Z" fill="black"/>
<path d="M147.756 208.13H132.519V223.368H147.756V208.13Z" fill="black"/>
<path d="M223.368 208.13H208.13V223.368H223.368V208.13Z" fill="black"/>
<path d="M253.612 208.13H238.375V223.368H253.612V208.13Z" fill="black"/>
<path d="M268.735 208.13H253.497V223.368H268.735V208.13Z" fill="black"/>
<path d="M298.979 208.13H283.742V223.368H298.979V208.13Z" fill="black"/>
<path d="M359.468 208.13H344.231V223.368H359.468V208.13Z" fill="black"/>
<path d="M374.591 208.13H359.353V223.368H374.591V208.13Z" fill="black"/>
<path d="M389.713 208.13H374.475V223.368H389.713V208.13Z" fill="black"/>
<path d="M404.835 208.13H389.597V223.368H404.835V208.13Z" fill="black"/>
<path d="M419.957 208.13H404.72V223.368H419.957V208.13Z" fill="black"/>
<path d="M435.08 208.13H419.842V223.368H435.08V208.13Z" fill="black"/>
<path d="M450.202 208.13H434.964V223.368H450.202V208.13Z" fill="black"/>
<path d="M26.7784 223.253H11.5408V238.49H26.7784V223.253Z" fill="black"/>
<path d="M87.2675 223.253H72.0298V238.49H87.2675V223.253Z" fill="black"/>
<path d="M102.39 223.253H87.1521V238.49H102.39V223.253Z" fill="black"/>
<path d="M117.512 223.253H102.274V238.49H117.512V223.253Z" fill="black"/>
<path d="M132.634 223.253H117.396V238.49H132.634V223.253Z" fill="black"/>
<path d="M147.756 223.253H132.519V238.49H147.756V223.253Z" fill="black"/>
<path d="M223.368 223.253H208.13V238.49H223.368V223.253Z" fill="black"/>
<path d="M238.49 223.253H223.252V238.49H238.49V223.253Z" fill="black"/>
<path d="M253.612 223.253H238.375V238.49H253.612V223.253Z" fill="black"/>
<path d="M268.735 223.253H253.497V238.49H268.735V223.253Z" fill="black"/>
<path d="M283.857 223.253H268.619V238.49H283.857V223.253Z" fill="black"/>
<path d="M298.979 223.253H283.742V238.49H298.979V223.253Z" fill="black"/>
<path d="M329.224 223.253H313.986V238.49H329.224V223.253Z" fill="black"/>
<path d="M359.468 223.253H344.231V238.49H359.468V223.253Z" fill="black"/>
<path d="M404.835 223.253H389.597V238.49H404.835V223.253Z" fill="black"/>
<path d="M419.957 223.253H404.72V238.49H419.957V223.253Z" fill="black"/>
<path d="M450.202 223.253H434.964V238.49H450.202V223.253Z" fill="black"/>
<path d="M26.7784 238.375H11.5408V253.612H26.7784V238.375Z" fill="black"/>
<path d="M57.0228 238.375H41.7852V253.612H57.0228V238.375Z" fill="black"/>
<path d="M72.1452 238.375H56.9075V253.612H72.1452V238.375Z" fill="black"/>
<path d="M102.39 238.375H87.1521V253.612H102.39V238.375Z" fill="black"/>
<path d="M147.756 238.375H132.519V253.612H147.756V238.375Z" fill="black"/>
<path d="M162.879 238.375H147.641V253.612H162.879V238.375Z" fill="black"/>
<path d="M178.001 238.375H162.763V253.612H178.001V238.375Z" fill="black"/>
<path d="M208.246 238.375H193.008V253.612H208.246V238.375Z" fill="black"/>
<path d="M238.49 238.375H223.252V253.612H238.49V238.375Z" fill="black"/>
<path d="M283.857 238.375H268.619V253.612H283.857V238.375Z" fill="black"/>
<path d="M298.979 238.375H283.742V253.612H298.979V238.375Z" fill="black"/>
<path d="M329.224 238.375H313.986V253.612H329.224V238.375Z" fill="black"/>
<path d="M359.468 238.375H344.231V253.612H359.468V238.375Z" fill="black"/>
<path d="M374.591 238.375H359.353V253.612H374.591V238.375Z" fill="black"/>
<path d="M389.713 238.375H374.475V253.612H389.713V238.375Z" fill="black"/>
<path d="M435.08 238.375H419.842V253.612H435.08V238.375Z" fill="black"/>
<path d="M450.202 238.375H434.964V253.612H450.202V238.375Z" fill="black"/>
<path d="M57.0228 253.497H41.7852V268.735H57.0228V253.497Z" fill="black"/>
<path d="M72.1452 253.497H56.9075V268.735H72.1452V253.497Z" fill="black"/>
<path d="M117.512 253.497H102.274V268.735H117.512V253.497Z" fill="black"/>
<path d="M132.634 253.497H117.396V268.735H132.634V253.497Z" fill="black"/>
<path d="M147.756 253.497H132.519V268.735H147.756V253.497Z" fill="black"/>
<path d="M193.123 253.497H177.886V268.735H193.123V253.497Z" fill="black"/>
<path d="M223.368 253.497H208.13V268.735H223.368V253.497Z" fill="black"/>
<path d="M238.49 253.497H223.252V268.735H238.49V253.497Z" fill="black"/>
<path d="M268.735 253.497H253.497V268.735H268.735V253.497Z" fill="black"/>
<path d="M283.857 253.497H268.619V268.735H283.857V253.497Z" fill="black"/>
<path d="M298.979 253.497H283.742V268.735H298.979V253.497Z" fill="black"/>
<path d="M314.101 253.497H298.864V268.735H314.101V253.497Z" fill="black"/>
<path d="M329.224 253.497H313.986V268.735H329.224V253.497Z" fill="black"/>
<path d="M344.346 253.497H329.108V268.735H344.346V253.497Z" fill="black"/>
<path d="M435.08 253.497H419.842V268.735H435.08V253.497Z" fill="black"/>
<path d="M26.7784 268.619H11.5408V283.857H26.7784V268.619Z" fill="black"/>
<path d="M41.9005 268.619H26.6628V283.857H41.9005V268.619Z" fill="black"/>
<path d="M57.0228 268.619H41.7852V283.857H57.0228V268.619Z" fill="black"/>
<path d="M72.1452 268.619H56.9075V283.857H72.1452V268.619Z" fill="black"/>
<path d="M102.39 268.619H87.1521V283.857H102.39V268.619Z" fill="black"/>
<path d="M162.879 268.619H147.641V283.857H162.879V268.619Z" fill="black"/>
<path d="M208.246 268.619H193.008V283.857H208.246V268.619Z" fill="black"/>
<path d="M238.49 268.619H223.252V283.857H238.49V268.619Z" fill="black"/>
<path d="M253.612 268.619H238.375V283.857H253.612V268.619Z" fill="black"/>
<path d="M283.857 268.619H268.619V283.857H283.857V268.619Z" fill="black"/>
<path d="M298.979 268.619H283.742V283.857H298.979V268.619Z" fill="black"/>
<path d="M344.346 268.619H329.108V283.857H344.346V268.619Z" fill="black"/>
<path d="M359.468 268.619H344.231V283.857H359.468V268.619Z" fill="black"/>
<path d="M374.591 268.619H359.353V283.857H374.591V268.619Z" fill="black"/>
<path d="M389.713 268.619H374.475V283.857H389.713V268.619Z" fill="black"/>
<path d="M404.835 268.619H389.597V283.857H404.835V268.619Z" fill="black"/>
<path d="M435.08 268.619H419.842V283.857H435.08V268.619Z" fill="black"/>
<path d="M450.202 268.619H434.964V283.857H450.202V268.619Z" fill="black"/>
<path d="M57.0228 283.742H41.7852V298.979H57.0228V283.742Z" fill="black"/>
<path d="M72.1452 283.742H56.9075V298.979H72.1452V283.742Z" fill="black"/>
<path d="M87.2675 283.742H72.0298V298.979H87.2675V283.742Z" fill="black"/>
<path d="M117.512 283.742H102.274V298.979H117.512V283.742Z" fill="black"/>
<path d="M147.756 283.742H132.519V298.979H147.756V283.742Z" fill="black"/>
<path d="M162.879 283.742H147.641V298.979H162.879V283.742Z" fill="black"/>
<path d="M178.001 283.742H162.763V298.979H178.001V283.742Z" fill="black"/>
<path d="M193.123 283.742H177.886V298.979H193.123V283.742Z" fill="black"/>
<path d="M208.246 283.742H193.008V298.979H208.246V283.742Z" fill="black"/>
<path d="M223.368 283.742H208.13V298.979H223.368V283.742Z" fill="black"/>
<path d="M238.49 283.742H223.252V298.979H238.49V283.742Z" fill="black"/>
<path d="M253.612 283.742H238.375V298.979H253.612V283.742Z" fill="black"/>
<path d="M298.979 283.742H283.742V298.979H298.979V283.742Z" fill="black"/>
<path d="M344.346 283.742H329.108V298.979H344.346V283.742Z" fill="black"/>
<path d="M359.468 283.742H344.231V298.979H359.468V283.742Z" fill="black"/>
<path d="M374.591 283.742H359.353V298.979H374.591V283.742Z" fill="black"/>
<path d="M419.957 283.742H404.72V298.979H419.957V283.742Z" fill="black"/>
<path d="M450.202 283.742H434.964V298.979H450.202V283.742Z" fill="black"/>
<path d="M72.1452 298.864H56.9075V314.102H72.1452V298.864Z" fill="black"/>
<path d="M87.2675 298.864H72.0298V314.102H87.2675V298.864Z" fill="black"/>
<path d="M132.634 298.864H117.396V314.102H132.634V298.864Z" fill="black"/>
<path d="M162.879 298.864H147.641V314.102H162.879V298.864Z" fill="black"/>
<path d="M193.123 298.864H177.886V314.102H193.123V298.864Z" fill="black"/>
<path d="M223.368 298.864H208.13V314.102H223.368V298.864Z" fill="black"/>
<path d="M283.857 298.864H268.619V314.102H283.857V298.864Z" fill="black"/>
<path d="M298.979 298.864H283.742V314.102H298.979V298.864Z" fill="black"/>
<path d="M314.101 298.864H298.864V314.102H314.101V298.864Z" fill="black"/>
<path d="M329.224 298.864H313.986V314.102H329.224V298.864Z" fill="black"/>
<path d="M344.346 298.864H329.108V314.102H344.346V298.864Z" fill="black"/>
<path d="M389.713 298.864H374.475V314.102H389.713V298.864Z" fill="black"/>
<path d="M435.08 298.864H419.842V314.102H435.08V298.864Z" fill="black"/>
<path d="M450.202 298.864H434.964V314.102H450.202V298.864Z" fill="black"/>
<path d="M26.7784 313.986H11.5408V329.224H26.7784V313.986Z" fill="black"/>
<path d="M41.9005 313.986H26.6628V329.224H41.9005V313.986Z" fill="black"/>
<path d="M87.2675 313.986H72.0298V329.224H87.2675V313.986Z" fill="black"/>
<path d="M102.39 313.986H87.1521V329.224H102.39V313.986Z" fill="black"/>
<path d="M117.512 313.986H102.274V329.224H117.512V313.986Z" fill="black"/>
<path d="M147.756 313.986H132.519V329.224H147.756V313.986Z" fill="black"/>
<path d="M162.879 313.986H147.641V329.224H162.879V313.986Z" fill="black"/>
<path d="M208.246 313.986H193.008V329.224H208.246V313.986Z" fill="black"/>
<path d="M223.368 313.986H208.13V329.224H223.368V313.986Z" fill="black"/>
<path d="M253.612 313.986H238.375V329.224H253.612V313.986Z" fill="black"/>
<path d="M283.857 313.986H268.619V329.224H283.857V313.986Z" fill="black"/>
<path d="M329.224 313.986H313.986V329.224H329.224V313.986Z" fill="black"/>
<path d="M344.346 313.986H329.108V329.224H344.346V313.986Z" fill="black"/>
<path d="M359.468 313.986H344.231V329.224H359.468V313.986Z" fill="black"/>
<path d="M374.591 313.986H359.353V329.224H374.591V313.986Z" fill="black"/>
<path d="M389.713 313.986H374.475V329.224H389.713V313.986Z" fill="black"/>
<path d="M404.835 313.986H389.597V329.224H404.835V313.986Z" fill="black"/>
<path d="M450.202 313.986H434.964V329.224H450.202V313.986Z" fill="black"/>
<path d="M147.756 329.108H132.519V344.346H147.756V329.108Z" fill="black"/>
<path d="M162.879 329.108H147.641V344.346H162.879V329.108Z" fill="black"/>
<path d="M223.368 329.108H208.13V344.346H223.368V329.108Z" fill="black"/>
<path d="M238.49 329.108H223.252V344.346H238.49V329.108Z" fill="black"/>
<path d="M253.612 329.108H238.375V344.346H253.612V329.108Z" fill="black"/>
<path d="M283.857 329.108H268.619V344.346H283.857V329.108Z" fill="black"/>
<path d="M314.101 329.108H298.864V344.346H314.101V329.108Z" fill="black"/>
<path d="M329.224 329.108H313.986V344.346H329.224V329.108Z" fill="black"/>
<path d="M389.713 329.108H374.475V344.346H389.713V329.108Z" fill="black"/>
<path d="M450.202 329.108H434.964V344.346H450.202V329.108Z" fill="black"/>
<path d="M26.7784 344.231H11.5408V359.468H26.7784V344.231Z" fill="black"/>
<path d="M41.9005 344.231H26.6628V359.468H41.9005V344.231Z" fill="black"/>
<path d="M57.0228 344.231H41.7852V359.468H57.0228V344.231Z" fill="black"/>
<path d="M72.1452 344.231H56.9075V359.468H72.1452V344.231Z" fill="black"/>
<path d="M87.2675 344.231H72.0298V359.468H87.2675V344.231Z" fill="black"/>
<path d="M102.39 344.231H87.1521V359.468H102.39V344.231Z" fill="black"/>
<path d="M117.512 344.231H102.274V359.468H117.512V344.231Z" fill="black"/>
<path d="M162.879 344.231H147.641V359.468H162.879V344.231Z" fill="black"/>
<path d="M178.001 344.231H162.763V359.468H178.001V344.231Z" fill="black"/>
<path d="M253.612 344.231H238.375V359.468H253.612V344.231Z" fill="black"/>
<path d="M268.735 344.231H253.497V359.468H268.735V344.231Z" fill="black"/>
<path d="M283.857 344.231H268.619V359.468H283.857V344.231Z" fill="black"/>
<path d="M314.101 344.231H298.864V359.468H314.101V344.231Z" fill="black"/>
<path d="M329.224 344.231H313.986V359.468H329.224V344.231Z" fill="black"/>
<path d="M359.468 344.231H344.231V359.468H359.468V344.231Z" fill="black"/>
<path d="M389.713 344.231H374.475V359.468H389.713V344.231Z" fill="black"/>
<path d="M404.835 344.231H389.597V359.468H404.835V344.231Z" fill="black"/>
<path d="M419.957 344.231H404.72V359.468H419.957V344.231Z" fill="black"/>
<path d="M450.202 344.231H434.964V359.468H450.202V344.231Z" fill="black"/>
<path d="M26.7784 359.353H11.5408V374.591H26.7784V359.353Z" fill="black"/>
<path d="M117.512 359.353H102.274V374.591H117.512V359.353Z" fill="black"/>
<path d="M147.756 359.353H132.519V374.591H147.756V359.353Z" fill="black"/>
<path d="M162.879 359.353H147.641V374.591H162.879V359.353Z" fill="black"/>
<path d="M178.001 359.353H162.763V374.591H178.001V359.353Z" fill="black"/>
<path d="M208.246 359.353H193.008V374.591H208.246V359.353Z" fill="black"/>
<path d="M238.49 359.353H223.252V374.591H238.49V359.353Z" fill="black"/>
<path d="M283.857 359.353H268.619V374.591H283.857V359.353Z" fill="black"/>
<path d="M314.101 359.353H298.864V374.591H314.101V359.353Z" fill="black"/>
<path d="M329.224 359.353H313.986V374.591H329.224V359.353Z" fill="black"/>
<path d="M389.713 359.353H374.475V374.591H389.713V359.353Z" fill="black"/>
<path d="M435.08 359.353H419.842V374.591H435.08V359.353Z" fill="black"/>
<path d="M450.202 359.353H434.964V374.591H450.202V359.353Z" fill="black"/>
<path d="M26.7784 374.475H11.5408V389.713H26.7784V374.475Z" fill="black"/>
<path d="M57.0228 374.475H41.7852V389.713H57.0228V374.475Z" fill="black"/>
<path d="M72.1452 374.475H56.9075V389.713H72.1452V374.475Z" fill="black"/>
<path d="M87.2675 374.475H72.0298V389.713H87.2675V374.475Z" fill="black"/>
<path d="M117.512 374.475H102.274V389.713H117.512V374.475Z" fill="black"/>
<path d="M147.756 374.475H132.519V389.713H147.756V374.475Z" fill="black"/>
<path d="M178.001 374.475H162.763V389.713H178.001V374.475Z" fill="black"/>
<path d="M193.123 374.475H177.886V389.713H193.123V374.475Z" fill="black"/>
<path d="M223.368 374.475H208.13V389.713H223.368V374.475Z" fill="black"/>
<path d="M238.49 374.475H223.252V389.713H238.49V374.475Z" fill="black"/>
<path d="M268.735 374.475H253.497V389.713H268.735V374.475Z" fill="black"/>
<path d="M314.101 374.475H298.864V389.713H314.101V374.475Z" fill="black"/>
<path d="M329.224 374.475H313.986V389.713H329.224V374.475Z" fill="black"/>
<path d="M344.346 374.475H329.108V389.713H344.346V374.475Z" fill="black"/>
<path d="M359.468 374.475H344.231V389.713H359.468V374.475Z" fill="black"/>
<path d="M374.591 374.475H359.353V389.713H374.591V374.475Z" fill="black"/>
<path d="M389.713 374.475H374.475V389.713H389.713V374.475Z" fill="black"/>
<path d="M404.835 374.475H389.597V389.713H404.835V374.475Z" fill="black"/>
<path d="M450.202 374.475H434.964V389.713H450.202V374.475Z" fill="black"/>
<path d="M26.7784 389.597H11.5408V404.835H26.7784V389.597Z" fill="black"/>
<path d="M57.0228 389.597H41.7852V404.835H57.0228V389.597Z" fill="black"/>
<path d="M72.1452 389.597H56.9075V404.835H72.1452V389.597Z" fill="black"/>
<path d="M87.2675 389.597H72.0298V404.835H87.2675V389.597Z" fill="black"/>
<path d="M117.512 389.597H102.274V404.835H117.512V389.597Z" fill="black"/>
<path d="M162.879 389.597H147.641V404.835H162.879V389.597Z" fill="black"/>
<path d="M178.001 389.597H162.763V404.835H178.001V389.597Z" fill="black"/>
<path d="M208.246 389.597H193.008V404.835H208.246V389.597Z" fill="black"/>
<path d="M268.735 389.597H253.497V404.835H268.735V389.597Z" fill="black"/>
<path d="M283.857 389.597H268.619V404.835H283.857V389.597Z" fill="black"/>
<path d="M298.979 389.597H283.742V404.835H298.979V389.597Z" fill="black"/>
<path d="M450.202 389.597H434.964V404.835H450.202V389.597Z" fill="black"/>
<path d="M26.7784 404.72H11.5408V419.957H26.7784V404.72Z" fill="black"/>
<path d="M57.0228 404.72H41.7852V419.957H57.0228V404.72Z" fill="black"/>
<path d="M72.1452 404.72H56.9075V419.957H72.1452V404.72Z" fill="black"/>
<path d="M87.2675 404.72H72.0298V419.957H87.2675V404.72Z" fill="black"/>
<path d="M117.512 404.72H102.274V419.957H117.512V404.72Z" fill="black"/>
<path d="M162.879 404.72H147.641V419.957H162.879V404.72Z" fill="black"/>
<path d="M193.123 404.72H177.886V419.957H193.123V404.72Z" fill="black"/>
<path d="M208.246 404.72H193.008V419.957H208.246V404.72Z" fill="black"/>
<path d="M223.368 404.72H208.13V419.957H223.368V404.72Z" fill="black"/>
<path d="M238.49 404.72H223.252V419.957H238.49V404.72Z" fill="black"/>
<path d="M253.612 404.72H238.375V419.957H253.612V404.72Z" fill="black"/>
<path d="M268.735 404.72H253.497V419.957H268.735V404.72Z" fill="black"/>
<path d="M283.857 404.72H268.619V419.957H283.857V404.72Z" fill="black"/>
<path d="M298.979 404.72H283.742V419.957H298.979V404.72Z" fill="black"/>
<path d="M314.101 404.72H298.864V419.957H314.101V404.72Z" fill="black"/>
<path d="M329.224 404.72H313.986V419.957H329.224V404.72Z" fill="black"/>
<path d="M344.346 404.72H329.108V419.957H344.346V404.72Z" fill="black"/>
<path d="M404.835 404.72H389.597V419.957H404.835V404.72Z" fill="black"/>
<path d="M419.957 404.72H404.72V419.957H419.957V404.72Z" fill="black"/>
<path d="M435.08 404.72H419.842V419.957H435.08V404.72Z" fill="black"/>
<path d="M450.202 404.72H434.964V419.957H450.202V404.72Z" fill="black"/>
<path d="M26.7784 419.842H11.5408V435.08H26.7784V419.842Z" fill="black"/>
<path d="M117.512 419.842H102.274V435.08H117.512V419.842Z" fill="black"/>
<path d="M147.756 419.842H132.519V435.08H147.756V419.842Z" fill="black"/>
<path d="M162.879 419.842H147.641V435.08H162.879V419.842Z" fill="black"/>
<path d="M178.001 419.842H162.763V435.08H178.001V419.842Z" fill="black"/>
<path d="M193.123 419.842H177.886V435.08H193.123V419.842Z" fill="black"/>
<path d="M223.368 419.842H208.13V435.08H223.368V419.842Z" fill="black"/>
<path d="M253.612 419.842H238.375V435.08H253.612V419.842Z" fill="black"/>
<path d="M283.857 419.842H268.619V435.08H283.857V419.842Z" fill="black"/>
<path d="M329.224 419.842H313.986V435.08H329.224V419.842Z" fill="black"/>
<path d="M404.835 419.842H389.597V435.08H404.835V419.842Z" fill="black"/>
<path d="M435.08 419.842H419.842V435.08H435.08V419.842Z" fill="black"/>
<path d="M450.202 419.842H434.964V435.08H450.202V419.842Z" fill="black"/>
<path d="M26.7784 434.964H11.5408V450.202H26.7784V434.964Z" fill="black"/>
<path d="M41.9005 434.964H26.6628V450.202H41.9005V434.964Z" fill="black"/>
<path d="M57.0228 434.964H41.7852V450.202H57.0228V434.964Z" fill="black"/>
<path d="M72.1452 434.964H56.9075V450.202H72.1452V434.964Z" fill="black"/>
<path d="M87.2675 434.964H72.0298V450.202H87.2675V434.964Z" fill="black"/>
<path d="M102.39 434.964H87.1521V450.202H102.39V434.964Z" fill="black"/>
<path d="M117.512 434.964H102.274V450.202H117.512V434.964Z" fill="black"/>
<path d="M147.756 434.964H132.519V450.202H147.756V434.964Z" fill="black"/>
<path d="M208.246 434.964H193.008V450.202H208.246V434.964Z" fill="black"/>
<path d="M223.368 434.964H208.13V450.202H223.368V434.964Z" fill="black"/>
<path d="M283.857 434.964H268.619V450.202H283.857V434.964Z" fill="black"/>
<path d="M329.224 434.964H313.986V450.202H329.224V434.964Z" fill="black"/>
<path d="M359.468 434.964H344.231V450.202H359.468V434.964Z" fill="black"/>
<path d="M404.835 434.964H389.597V450.202H404.835V434.964Z" fill="black"/>
<path d="M435.08 434.964H419.842V450.202H435.08V434.964Z" fill="black"/>
</g>
<defs>
<clipPath id="clip0_54_2">
<rect width="461" height="461" fill="white"/>
</clipPath>
</defs>
</svg>
