<svg width="260" height="75" viewBox="0 0 260 75" fill="none" xmlns="http://www.w3.org/2000/svg">
<path d="M129.006 74.7208C108.407 74.7208 91.6406 57.9636 91.6406 37.356C91.6406 16.7484 108.408 0 129.006 0C149.604 0 166.371 16.7572 166.371 37.3648C166.371 57.9724 149.605 74.7299 129.006 74.7299V74.7208ZM129.006 9.77053C123.55 9.77053 118.216 11.3884 113.68 14.4196C109.143 17.4508 105.608 21.7591 103.52 26.7998C101.432 31.8405 100.885 37.3871 101.95 42.7383C103.014 48.0894 105.642 53.0048 109.499 56.8628C113.357 60.7207 118.273 63.348 123.624 64.4124C128.975 65.4769 134.522 64.9306 139.562 62.8427C144.603 60.7547 148.911 57.219 151.943 52.6825C154.974 48.146 156.592 42.8125 156.592 37.3565C156.582 30.0431 153.673 23.0319 148.502 17.8605C143.33 12.6892 136.319 9.77982 129.006 9.77053Z" fill="#25D86F"/>
<path d="M140.25 37.365C140.25 39.5889 139.59 41.7628 138.355 43.6119C137.119 45.4609 135.363 46.9021 133.308 47.7531C131.254 48.6042 128.993 48.8268 126.812 48.3929C124.631 47.9591 122.627 46.8882 121.055 45.3156C119.482 43.7431 118.412 41.7396 117.978 39.5585C117.544 37.3773 117.767 35.1166 118.618 33.062C119.469 31.0074 120.91 29.2514 122.759 28.0159C124.608 26.7804 126.782 26.121 129.006 26.1211C131.988 26.1212 134.848 27.3059 136.956 29.4145C139.065 31.5232 140.25 34.383 140.25 37.365Z" fill="#242D3F"/>
<path d="M57.2676 5.1066C51.0375 5.10761 45.0554 7.54731 40.6016 11.9035C37.2351 8.6177 32.974 6.39821 28.3518 5.52304C23.7297 4.64787 18.9521 5.15592 14.6174 6.98357C10.2828 8.81121 6.58367 11.8772 3.98349 15.7975C1.38331 19.7178 -0.00236909 24.3182 3.04053e-06 29.0224V62.3651C3.06918e-06 64.2876 0.763713 66.1313 2.12313 67.4907C3.48254 68.8502 5.3263 69.6139 7.2488 69.6139C9.1713 69.6139 11.0151 68.8502 12.3745 67.4907C13.7339 66.1313 14.4976 64.2876 14.4976 62.3651V29.0224C14.4976 26.5222 15.4908 24.1244 17.2587 22.3565C19.0266 20.5886 21.4245 19.5954 23.9247 19.5954C26.4249 19.5954 28.8227 20.5886 30.5906 22.3565C32.3585 24.1244 33.3517 26.5222 33.3517 29.0224V62.3651C33.3517 64.2876 34.1155 66.1313 35.4749 67.4907C36.8343 68.8502 38.678 69.6139 40.6005 69.6139C42.523 69.6139 44.3668 68.8502 45.7262 67.4907C47.0856 66.1313 47.8493 64.2876 47.8493 62.3651V29.0224C47.8624 26.532 48.8609 24.148 50.6266 22.3916C52.3922 20.6352 54.7814 19.6493 57.2719 19.6493C59.7623 19.6493 62.1515 20.6352 63.9172 22.3916C65.6828 24.148 66.6813 26.532 66.6944 29.0224V62.3651C66.6944 64.2876 67.4581 66.1313 68.8175 67.4907C70.1769 68.8502 72.0207 69.6139 73.9432 69.6139C75.8657 69.6139 77.7094 68.8502 79.0689 67.4907C80.4283 66.1313 81.192 64.2876 81.192 62.3651V29.0224C81.184 22.6805 78.6606 16.6008 74.1753 12.1172C69.6901 7.63357 63.6095 5.11231 57.2676 5.1066Z" fill="#242D3F"/>
<path d="M200.573 69.6142C194.232 69.6071 188.153 67.0851 183.67 62.6015C179.186 58.118 176.664 52.0391 176.657 45.6984C176.657 43.7759 177.421 41.9321 178.78 40.5727C180.14 39.2133 181.984 38.4496 183.906 38.4496C185.829 38.4496 187.672 39.2133 189.032 40.5727C190.391 41.9321 191.155 43.7759 191.155 45.6984C191.168 48.1888 192.166 50.5728 193.932 52.3292C195.698 54.0856 198.087 55.0716 200.577 55.0716C203.068 55.0716 205.457 54.0856 207.223 52.3292C208.988 50.5728 209.987 48.1888 210 45.6984V12.3555C210 11.4036 210.187 10.461 210.552 9.58149C210.916 8.70203 211.45 7.90293 212.123 7.22981C212.796 6.5567 213.595 6.02276 214.475 5.65847C215.354 5.29419 216.297 5.10669 217.249 5.10669C218.201 5.10669 219.143 5.29419 220.023 5.65847C220.902 6.02276 221.701 6.5567 222.374 7.22981C223.047 7.90293 223.581 8.70203 223.946 9.58149C224.31 10.461 224.497 11.4036 224.497 12.3555V45.6984C224.489 52.0403 221.966 58.12 217.481 62.6037C212.996 67.0873 206.915 69.6085 200.573 69.6142Z" fill="#242D3F"/>
<path d="M252.752 70.3372C251.8 70.3373 250.857 70.1499 249.978 69.7857C249.098 69.4214 248.299 68.8875 247.626 68.2143C246.953 67.5412 246.419 66.7421 246.055 65.8625C245.69 64.983 245.503 64.0404 245.503 63.0884V12.3554C245.497 11.3999 245.681 10.4526 246.042 9.56814C246.404 8.68367 246.937 7.87944 247.611 7.20173C248.284 6.52401 249.085 5.98618 249.968 5.61918C250.85 5.25217 251.796 5.06323 252.752 5.06323C253.707 5.06323 254.653 5.25217 255.536 5.61918C256.418 5.98618 257.219 6.52401 257.893 7.20173C258.566 7.87944 259.099 8.68367 259.461 9.56814C259.823 10.4526 260.006 11.3999 260 12.3554V63.0973C260 64.0492 259.813 64.9918 259.449 65.8713C259.085 66.7508 258.551 67.55 257.878 68.2231C257.204 68.8962 256.405 69.4302 255.526 69.7944C254.646 70.1587 253.704 70.3461 252.752 70.3461V70.3372Z" fill="#242D3F"/>
</svg>
