<svg width="112" height="32" viewBox="0 0 112 32" fill="none" xmlns="http://www.w3.org/2000/svg">
<path d="M55.2422 31.9961C46.4217 31.9961 39.2422 24.8205 39.2422 15.9962C39.2422 7.17181 46.4219 0 55.2422 0C64.0626 0 71.2424 7.1756 71.2424 15.9999C71.2424 24.8243 64.0629 32 55.2422 32V31.9961ZM55.2422 4.18383C52.9059 4.18383 50.6221 4.87662 48.6795 6.1746C46.737 7.47258 45.2229 9.31745 44.3289 11.4759C43.4348 13.6344 43.2009 16.0095 43.6567 18.3009C44.1125 20.5923 45.2375 22.6971 46.8895 24.3491C48.5415 26.0011 50.6463 27.1262 52.9377 27.582C55.2291 28.0378 57.6043 27.8038 59.7627 26.9098C61.9212 26.0157 63.766 24.5016 65.064 22.5591C66.362 20.6165 67.0548 18.3327 67.0548 15.9964C67.0508 12.8647 65.805 9.86246 63.5906 7.64804C61.3762 5.43361 58.3739 4.1878 55.2422 4.18383Z" fill="#25D86F"/>
<path d="M60.0553 16.0001C60.0553 16.9523 59.7729 17.8832 59.2439 18.675C58.7148 19.4668 57.9628 20.0839 57.083 20.4483C56.2033 20.8127 55.2352 20.9081 54.3012 20.7223C53.3672 20.5365 52.5093 20.0779 51.836 19.4046C51.1626 18.7312 50.7041 17.8733 50.5183 16.9393C50.3325 16.0053 50.4279 15.0372 50.7923 14.1575C51.1568 13.2777 51.7739 12.5257 52.5657 11.9967C53.3575 11.4676 54.2884 11.1853 55.2407 11.1853C56.5176 11.1854 57.7422 11.6927 58.6451 12.5956C59.548 13.4985 60.0553 14.7231 60.0553 16.0001Z" fill="white"/>
<path d="M24.5225 2.18666C21.8547 2.18709 19.2931 3.23179 17.3859 5.09716C15.9444 3.69014 14.1197 2.73974 12.1405 2.36498C10.1613 1.99023 8.11547 2.20778 6.25932 2.99039C4.40317 3.77301 2.81919 5.08588 1.70577 6.7646C0.592346 8.44331 -0.00101447 10.4132 1.30198e-06 12.4276V26.7052C1.31425e-06 27.5285 0.327029 28.318 0.909141 28.9001C1.49125 29.4822 2.28077 29.8092 3.104 29.8092C3.92723 29.8092 4.71674 29.4822 5.29885 28.9001C5.88097 28.318 6.20799 27.5285 6.20799 26.7052V12.4276C6.20799 11.357 6.63329 10.3302 7.39033 9.5732C8.14737 8.81617 9.17414 8.39087 10.2447 8.39087C11.3154 8.39087 12.3421 8.81617 13.0992 9.5732C13.8562 10.3302 14.2815 11.357 14.2815 12.4276V26.7052C14.2815 27.5285 14.6085 28.318 15.1906 28.9001C15.7728 29.4822 16.5623 29.8092 17.3855 29.8092C18.2087 29.8092 18.9982 29.4822 19.5804 28.9001C20.1625 28.318 20.4895 27.5285 20.4895 26.7052V12.4276C20.4951 11.3612 20.9227 10.3404 21.6787 9.58825C22.4348 8.83615 23.4579 8.41395 24.5243 8.41395C25.5907 8.41395 26.6138 8.83615 27.3699 9.58825C28.1259 10.3404 28.5535 11.3612 28.5591 12.4276V26.7052C28.5591 27.5285 28.8861 28.318 29.4682 28.9001C30.0504 29.4822 30.8399 29.8092 31.6631 29.8092C32.4863 29.8092 33.2758 29.4822 33.858 28.9001C34.4401 28.318 34.7671 27.5285 34.7671 26.7052V12.4276C34.7637 9.71196 33.6831 7.10856 31.7625 5.18865C29.8419 3.26873 27.2381 2.1891 24.5225 2.18666Z" fill="white"/>
<path d="M85.8855 29.8094C83.1704 29.8064 80.5673 28.7264 78.6474 26.8066C76.7275 24.8867 75.6476 22.2836 75.6445 19.5685C75.6445 18.7453 75.9716 17.9557 76.5537 17.3736C77.1358 16.7915 77.9253 16.4645 78.7485 16.4645C79.5718 16.4645 80.3613 16.7915 80.9434 17.3736C81.5255 17.9557 81.8525 18.7453 81.8525 19.5685C81.8581 20.6349 82.2857 21.6557 83.0418 22.4079C83.7978 23.16 84.8209 23.5822 85.8873 23.5822C86.9538 23.5822 87.9768 23.16 88.7329 22.4079C89.489 21.6557 89.9165 20.6349 89.9221 19.5685V5.29076C89.9221 4.88314 90.0024 4.47951 90.1584 4.10292C90.3144 3.72632 90.543 3.38414 90.8313 3.09591C91.1195 2.80767 91.4617 2.57904 91.8383 2.42305C92.2149 2.26705 92.6185 2.18677 93.0261 2.18677C93.4338 2.18677 93.8374 2.26705 94.214 2.42305C94.5906 2.57904 94.9328 2.80767 95.221 3.09591C95.5092 3.38414 95.7379 3.72632 95.8939 4.10292C96.0498 4.47951 96.1301 4.88314 96.1301 5.29076V19.5685C96.1267 22.2841 95.0462 24.8875 93.1255 26.8075C91.2049 28.7274 88.6012 29.807 85.8855 29.8094Z" fill="white"/>
<path d="M108.231 30.1189C107.823 30.1189 107.42 30.0386 107.043 29.8827C106.666 29.7267 106.324 29.4981 106.036 29.2098C105.748 28.9216 105.519 28.5794 105.363 28.2028C105.207 27.8261 105.127 27.4225 105.127 27.0149V5.29055C105.125 4.88138 105.203 4.47575 105.358 4.09701C105.513 3.71827 105.741 3.37389 106.03 3.08369C106.318 2.79349 106.661 2.56318 107.039 2.40603C107.417 2.24887 107.822 2.16797 108.231 2.16797C108.64 2.16797 109.045 2.24887 109.423 2.40603C109.801 2.56318 110.144 2.79349 110.432 3.08369C110.721 3.37389 110.949 3.71827 111.104 4.09701C111.259 4.47575 111.337 4.88138 111.335 5.29055V27.0186C111.335 27.4263 111.255 27.8299 111.099 28.2065C110.943 28.5831 110.714 28.9253 110.426 29.2136C110.138 29.5018 109.795 29.7304 109.419 29.8864C109.042 30.0424 108.639 30.1227 108.231 30.1226V30.1189Z" fill="white"/>
</svg>
