<svg width="1080" height="725" viewBox="0 0 1080 725" fill="none" xmlns="http://www.w3.org/2000/svg">
<rect width="1080" height="725" rx="28" fill="#151515"/>
<path d="M867.384 666.38H870.18V665.372H866.172V672.344H866.892C868.416 672.344 869.532 672.296 870.84 672.044L870.732 671.024C869.616 671.252 868.632 671.312 867.384 671.324V666.38ZM873.876 664.076V668.36H872.592V664.304H871.428V674.384H872.592V669.368H873.876V674.912H875.052V664.076H873.876ZM882.911 669.044C881.303 668.516 880.379 667.196 880.379 665.804V664.64H879.131V665.708C879.131 667.268 878.207 668.744 876.503 669.332L877.163 670.316C878.411 669.86 879.299 668.924 879.779 667.748C880.235 668.768 881.099 669.596 882.263 670.016L882.911 669.044ZM881.579 673.952C880.067 673.952 879.191 673.58 879.191 672.884C879.191 672.212 880.067 671.828 881.579 671.828C883.091 671.828 883.967 672.212 883.967 672.884C883.967 673.58 883.091 673.952 881.579 673.952ZM881.579 670.856C879.347 670.856 877.967 671.612 877.967 672.884C877.967 674.168 879.347 674.924 881.579 674.924C883.823 674.924 885.191 674.168 885.191 672.884C885.191 671.612 883.823 670.856 881.579 670.856ZM885.071 666.764V664.076H883.835V670.592H885.071V667.784H886.607V666.764H885.071ZM891.042 669.44C891.558 669.44 891.966 669.032 891.966 668.48C891.966 667.916 891.558 667.496 891.042 667.496C890.526 667.496 890.118 667.916 890.118 668.48C890.118 669.032 890.526 669.44 891.042 669.44ZM891.042 674.156C891.558 674.156 891.966 673.76 891.966 673.196C891.966 672.62 891.558 672.212 891.042 672.212C890.526 672.212 890.118 672.62 890.118 673.196C890.118 673.76 890.526 674.156 891.042 674.156ZM897.227 666.38H900.023V665.372H896.015V672.344H896.735C898.259 672.344 899.375 672.296 900.683 672.044L900.575 671.024C899.459 671.252 898.475 671.312 897.227 671.324V666.38ZM903.719 664.076V668.36H902.435V664.304H901.271V674.384H902.435V669.368H903.719V674.912H904.895V664.076H903.719ZM912.862 665.144H910.282V664.028H909.046V665.144H906.466V666.128H912.862V665.144ZM908.218 668.576C908.218 667.928 908.794 667.544 909.658 667.544C910.522 667.544 911.11 667.928 911.11 668.576C911.11 669.212 910.522 669.596 909.658 669.596C908.794 669.596 908.218 669.212 908.218 668.576ZM912.286 668.576C912.286 667.388 911.218 666.596 909.658 666.596C908.098 666.596 907.03 667.388 907.03 668.576C907.03 669.752 908.098 670.544 909.658 670.544C911.218 670.544 912.286 669.752 912.286 668.576ZM907.786 672.392H913.678V674.924H914.914V671.396H907.786V672.392ZM916.45 666.992H914.914V664.088H913.678V670.868H914.914V668.012H916.45V666.992ZM924.105 667.88H925.245V670.748H926.421V664.1H925.245V666.872H924.105V664.292H922.941V670.4H924.105V667.88ZM922.689 669.056C921.285 668.504 920.577 667.316 920.577 666.116V664.748H919.377V666.116C919.377 667.352 918.645 668.708 917.193 669.368L917.841 670.316C918.885 669.86 919.593 669.02 919.989 668.024C920.397 668.888 921.069 669.608 922.029 669.98L922.689 669.056ZM922.809 673.976C921.285 673.976 920.373 673.604 920.373 672.944C920.373 672.272 921.285 671.9 922.809 671.9C924.333 671.9 925.245 672.272 925.245 672.944C925.245 673.604 924.333 673.976 922.809 673.976ZM922.809 670.952C920.553 670.952 919.137 671.696 919.137 672.944C919.137 674.18 920.553 674.924 922.809 674.924C925.065 674.924 926.481 674.18 926.481 672.944C926.481 671.696 925.065 670.952 922.809 670.952ZM939.676 664.088H938.5V672.176H939.676V664.088ZM934.024 669.2H932.092V666.092H934.024V669.2ZM935.176 668.072H936.4V671.864H937.564V664.292H936.4V667.064H935.176V665.132H930.94V670.16H935.176V668.072ZM933.76 673.712V671.192H932.512V674.72H939.976V673.712H933.76ZM946.827 672.632V670.592H950.031V669.608H943.779V668.192H949.695V667.22H943.779V665.912H949.935V664.904H942.519V670.592H945.579V672.632H941.307V673.652H951.123V672.632H946.827ZM954.981 674H960.021V672.86H958.293V665.156H957.249C956.745 665.48 956.157 665.684 955.329 665.84V666.716H956.913V672.86H954.981V674ZM961.585 674H966.625V672.86H964.897V665.156H963.853C963.349 665.48 962.761 665.684 961.933 665.84V666.716H963.517V672.86H961.585V674ZM969.473 674H970.889C971.033 670.544 971.357 668.588 973.433 666.008V665.156H967.745V666.332H971.897C970.193 668.708 969.629 670.772 969.473 674ZM978.657 668.792H976.053V665.876H978.657V668.792ZM982.113 666.764V667.904H979.857V666.764H982.113ZM979.857 668.912H982.113V670.472H983.349V664.088H982.113V665.756H979.857V664.892H974.841V669.776H979.857V668.912ZM979.737 673.964C978.201 673.964 977.325 673.568 977.325 672.848C977.325 672.14 978.201 671.744 979.737 671.744C981.273 671.744 982.161 672.14 982.161 672.848C982.161 673.568 981.273 673.964 979.737 673.964ZM979.737 670.772C977.481 670.772 976.089 671.54 976.089 672.848C976.089 674.156 977.481 674.924 979.737 674.924C982.005 674.924 983.397 674.156 983.397 672.848C983.397 671.54 982.005 670.772 979.737 670.772Z" fill="#666666"/>
<circle cx="860" cy="670" r="1" fill="#666666"/>
<circle cx="727" cy="670" r="1" fill="#666666"/>
<path d="M733.634 668.408C735.554 668.276 737.018 667.748 737.702 666.836C738.386 667.748 739.874 668.276 741.794 668.408L742.13 667.484C740.018 667.364 738.674 666.764 738.434 665.912H741.638V664.988H738.326V664.04H737.09V664.988H733.79V665.912H736.982C736.742 666.764 735.41 667.364 733.274 667.484L733.634 668.408ZM742.61 669.728V668.804H732.83V669.728H737.09V670.568H733.97V671.48H740.174V672.236H733.994V674.828H741.698V673.904H735.218V673.088H741.386V670.568H738.326V669.728H742.61ZM747.494 666.908H749.786V665.912H747.506V664.304H746.258V665.912H743.93V666.908H746.27V667.532C746.27 669.308 745.25 671.144 743.594 671.924L744.278 672.884C745.526 672.296 746.426 671.108 746.894 669.692C747.374 671.024 748.298 672.128 749.522 672.692L750.17 671.744C748.526 670.988 747.494 669.224 747.494 667.532V666.908ZM751.37 664.064V668.348H749.222V669.356H751.37V674.948H752.606V664.064H751.37ZM758.048 669.44C758.564 669.44 758.972 669.032 758.972 668.48C758.972 667.916 758.564 667.496 758.048 667.496C757.532 667.496 757.124 667.916 757.124 668.48C757.124 669.032 757.532 669.44 758.048 669.44ZM758.048 674.156C758.564 674.156 758.972 673.76 758.972 673.196C758.972 672.62 758.564 672.212 758.048 672.212C757.532 672.212 757.124 672.62 757.124 673.196C757.124 673.76 757.532 674.156 758.048 674.156ZM771.589 664.088H770.353V670.724H771.589V664.088ZM769.225 668.816C767.653 669.08 766.297 669.14 764.437 669.14V667.88H768.145V664.748H763.189V665.744H766.933V666.944H763.213V670.148H764.125C766.201 670.148 767.665 670.1 769.369 669.824L769.225 668.816ZM767.989 673.952C766.441 673.952 765.553 673.592 765.553 672.932C765.553 672.26 766.441 671.9 767.989 671.9C769.549 671.9 770.425 672.26 770.425 672.932C770.425 673.592 769.549 673.952 767.989 673.952ZM767.989 670.928C765.709 670.928 764.329 671.672 764.329 672.932C764.329 674.192 765.709 674.936 767.989 674.936C770.269 674.936 771.661 674.192 771.661 672.932C771.661 671.672 770.269 670.928 767.989 670.928ZM774.037 665.168V666.176H777.709C777.673 666.776 777.565 667.34 777.421 667.88L773.473 668.12L773.653 669.176L777.037 668.864C776.401 670.196 775.261 671.324 773.425 672.26L774.097 673.22C777.949 671.252 778.945 668.396 778.945 665.168H774.037ZM781.189 664.088V668.348H778.909V669.368H781.189V674.936H782.437V664.088H781.189ZM795.883 664.088H794.707V672.176H795.883V664.088ZM790.231 669.2H788.299V666.092H790.231V669.2ZM791.383 668.072H792.607V671.864H793.771V664.292H792.607V667.064H791.383V665.132H787.147V670.16H791.383V668.072ZM789.967 673.712V671.192H788.719V674.72H796.183V673.712H789.967ZM803.034 672.632V670.592H806.238V669.608H799.986V668.192H805.902V667.22H799.986V665.912H806.142V664.904H798.726V670.592H801.786V672.632H797.514V673.652H807.33V672.632H803.034ZM819.516 668.636H813.252V667.544H819.144V666.584H813.252V665.54H819.396V664.556H812.016V669.62H819.516V668.636ZM820.572 670.592H810.744V671.6H815.04V674.948H816.276V671.6H820.572V670.592ZM825.383 670.328H827.519V672.656H825.383V670.328ZM825.203 666.02H827.699V669.332H825.203V666.02ZM828.743 672.656V670.328H830.483V669.332H828.923V666.02H830.519V665.024H822.371V666.02H823.967V669.332H822.407V670.328H824.147V672.656H821.567V673.676H831.395V672.656H828.743ZM833.446 672.68H839.686V674.924H840.922V671.696H833.446V672.68ZM837.874 669.896V668.9H841.066V667.952H834.838V667.076H840.73V666.152H834.838V665.312H840.994V664.364H833.602V668.9H836.626V669.896H832.342V670.892H842.158V669.896H837.874Z" fill="#666666"/>
<rect x="129" y="155" width="1" height="456" fill="#999999"/>
<rect x="129" y="610" width="848" height="1" fill="#999999"/>
<path d="M102.209 204.63C104.421 204.392 106.157 203.482 106.843 202.18C107.515 203.482 109.251 204.392 111.477 204.63L111.981 203.496C109.643 203.258 108.019 202.278 107.823 201.144H111.519V199.982H102.181V201.144H105.849C105.653 202.278 104.029 203.258 101.691 203.496L102.209 204.63ZM109.713 209.838C109.713 210.566 108.663 210.972 106.815 210.972C104.967 210.972 103.931 210.566 103.931 209.838C103.931 209.082 104.967 208.69 106.815 208.69C108.663 208.69 109.713 209.082 109.713 209.838ZM112.555 206.422V205.274H101.117V206.422H106.115V207.584C103.819 207.724 102.461 208.522 102.461 209.838C102.461 211.266 104.099 212.078 106.815 212.078C109.545 212.078 111.169 211.266 111.169 209.838C111.169 208.522 109.839 207.738 107.557 207.598V206.422H112.555ZM116.768 211.182C118.658 211.182 120.212 210.09 120.212 208.228C120.212 206.842 119.274 205.946 118.084 205.652V205.582C119.176 205.176 119.862 204.35 119.862 203.16C119.862 201.466 118.56 200.5 116.712 200.5C115.522 200.5 114.57 201.018 113.758 201.746L114.598 202.754C115.186 202.18 115.858 201.802 116.656 201.788C117.636 201.802 118.238 202.362 118.238 203.272C118.238 204.308 117.566 205.078 115.536 205.078V206.268C117.86 206.268 118.588 207.01 118.588 208.144C118.588 209.222 117.79 209.866 116.628 209.866C115.564 209.866 114.794 209.348 114.192 208.732L113.408 209.768C114.094 210.538 115.144 211.182 116.768 211.182Z" fill="#999999"/>
<path d="M193.264 208.112L196.744 202.784C197.248 201.872 197.728 200.96 198.16 200.048H198.256C198.208 201.032 198.136 202.52 198.136 203.48V208.112H193.264ZM198.136 215H200.728V210.248H202.96V208.112H200.728V197.312H197.512L190.48 208.4V210.248H198.136V215Z" fill="url(#paint0_linear_198_1813)"/>
<path d="M369.064 304H379.144V301.72H375.688V286.312H373.6C372.592 286.96 371.416 287.368 369.76 287.68V289.432H372.928V301.72H369.064V304ZM387.072 304.312C390.48 304.312 392.784 302.296 392.784 299.68C392.784 297.28 391.392 295.888 389.808 295V294.88C390.912 294.064 392.136 292.528 392.136 290.728C392.136 287.968 390.216 286.048 387.144 286.048C384.264 286.048 382.104 287.848 382.104 290.608C382.104 292.48 383.16 293.8 384.48 294.736V294.856C382.848 295.72 381.312 297.28 381.312 299.608C381.312 302.344 383.76 304.312 387.072 304.312ZM388.224 294.184C386.256 293.416 384.576 292.528 384.576 290.608C384.576 289.024 385.656 288.04 387.096 288.04C388.824 288.04 389.808 289.264 389.808 290.896C389.808 292.072 389.28 293.2 388.224 294.184ZM387.12 302.32C385.224 302.32 383.76 301.096 383.76 299.344C383.76 297.808 384.6 296.488 385.824 295.648C388.224 296.632 390.168 297.448 390.168 299.608C390.168 301.264 388.944 302.32 387.12 302.32Z" fill="url(#paint1_linear_198_1813)"/>
<path d="M887.176 383.976C889.072 383.976 890.104 385.248 890.104 387.504C890.104 389.808 888.88 391.2 887.344 391.2C885.448 391.2 884.176 389.544 883.888 386.04C884.944 384.528 886.168 383.976 887.176 383.976ZM887.368 393.312C890.248 393.312 892.648 391.008 892.648 387.504C892.648 383.784 890.656 381.96 887.68 381.96C886.408 381.96 884.872 382.728 883.84 384C883.96 378.96 885.832 377.256 888.088 377.256C889.12 377.256 890.2 377.808 890.848 378.576L892.36 376.896C891.352 375.84 889.912 375 887.944 375C884.464 375 881.272 377.712 881.272 384.504C881.272 390.504 884.008 393.312 887.368 393.312ZM894.264 393H905.664V390.648H901.248C900.384 390.648 899.28 390.72 898.368 390.816C902.112 387.24 904.824 383.712 904.824 380.304C904.824 377.112 902.736 375 899.496 375C897.192 375 895.632 375.984 894.12 377.64L895.68 379.176C896.616 378.096 897.768 377.208 899.16 377.208C901.152 377.208 902.16 378.528 902.16 380.448C902.16 383.352 899.472 386.784 894.264 391.392V393Z" fill="url(#paint2_linear_198_1813)"/>
<path d="M477.528 477H483.228V475.824H481.02C480.588 475.824 480.036 475.86 479.58 475.908C481.452 474.12 482.808 472.356 482.808 470.652C482.808 469.056 481.764 468 480.144 468C478.992 468 478.212 468.492 477.456 469.32L478.236 470.088C478.704 469.548 479.28 469.104 479.976 469.104C480.972 469.104 481.476 469.764 481.476 470.724C481.476 472.176 480.132 473.892 477.528 476.196V477ZM485.92 477H487.336C487.48 473.544 487.804 471.588 489.88 469.008V468.156H484.192V469.332H488.344C486.64 471.708 486.076 473.772 485.92 477Z" fill="#999999"/>
<path d="M214.588 561.488C215.536 561.488 216.052 562.124 216.052 563.252C216.052 564.404 215.44 565.1 214.672 565.1C213.724 565.1 213.088 564.272 212.944 562.52C213.472 561.764 214.084 561.488 214.588 561.488ZM214.684 566.156C216.124 566.156 217.324 565.004 217.324 563.252C217.324 561.392 216.328 560.48 214.84 560.48C214.204 560.48 213.436 560.864 212.92 561.5C212.98 558.98 213.916 558.128 215.044 558.128C215.56 558.128 216.1 558.404 216.424 558.788L217.18 557.948C216.676 557.42 215.956 557 214.972 557C213.232 557 211.636 558.356 211.636 561.752C211.636 564.752 213.004 566.156 214.684 566.156Z" fill="#999999"/>
<path d="M109.867 290.858C109.867 292.37 109.867 294.162 109.377 296.64L110.833 296.794C111.323 294.176 111.323 292.426 111.323 290.858V289.612H102.321V290.788H109.867V290.858ZM106.843 298.236V293.784H105.387V298.236H101.131V299.426H112.555V298.236H106.843ZM114.22 300H120.1V298.67H118.084V289.682H116.866C116.278 290.06 115.592 290.298 114.626 290.48V291.502H116.474V298.67H114.22V300Z" fill="#999999"/>
<path d="M109.867 379.858C109.867 381.37 109.867 383.162 109.377 385.64L110.833 385.794C111.323 383.176 111.323 381.426 111.323 379.858V378.612H102.321V379.788H109.867V379.858ZM106.843 387.236V382.784H105.387V387.236H101.131V388.426H112.555V387.236H106.843ZM113.632 389H120.282V387.628H117.706C117.202 387.628 116.558 387.67 116.026 387.726C118.21 385.64 119.792 383.582 119.792 381.594C119.792 379.732 118.574 378.5 116.684 378.5C115.34 378.5 114.43 379.074 113.548 380.04L114.458 380.936C115.004 380.306 115.676 379.788 116.488 379.788C117.65 379.788 118.238 380.558 118.238 381.678C118.238 383.372 116.67 385.374 113.632 388.062V389Z" fill="#999999"/>
<path d="M96.9502 556.766V557.942H101.458C101.206 560.854 99.6382 563.08 96.3202 564.676L97.0902 565.824C101.43 563.724 102.942 560.532 102.942 556.766H96.9502ZM105.224 555.436V568.078H106.666V555.436H105.224ZM110.795 561.232H115.023V560.07H110.795V557.718H115.261V556.528H109.353V565.124H110.375C112.643 565.124 114.323 565.054 116.269 564.746L116.129 563.57C114.351 563.864 112.811 563.934 110.795 563.948V561.232ZM120.595 560.392H118.621V555.422H117.179V568.092H118.621V561.582H120.595V560.392Z" fill="#999999"/>
<path d="M129.998 632.182C132.014 632.182 133.33 630.39 133.33 626.806C133.33 623.25 132.014 621.5 129.998 621.5C127.982 621.5 126.666 623.236 126.666 626.806C126.666 630.39 127.982 632.182 129.998 632.182ZM129.998 630.908C128.948 630.908 128.206 629.788 128.206 626.806C128.206 623.852 128.948 622.774 129.998 622.774C131.048 622.774 131.79 623.852 131.79 626.806C131.79 629.788 131.048 630.908 129.998 630.908Z" fill="#999999"/>
<path d="M244.36 632H250.24V630.67H248.224V621.682H247.006C246.418 622.06 245.732 622.298 244.766 622.48V623.502H246.614V630.67H244.36V632ZM254.85 632.182C256.866 632.182 258.182 630.39 258.182 626.806C258.182 623.25 256.866 621.5 254.85 621.5C252.834 621.5 251.518 623.236 251.518 626.806C251.518 630.39 252.834 632.182 254.85 632.182ZM254.85 630.908C253.8 630.908 253.058 629.788 253.058 626.806C253.058 623.852 253.8 622.774 254.85 622.774C255.9 622.774 256.642 623.852 256.642 626.806C256.642 629.788 255.9 630.908 254.85 630.908Z" fill="#999999"/>
<path d="M364.772 632H371.422V630.628H368.846C368.342 630.628 367.698 630.67 367.166 630.726C369.35 628.64 370.932 626.582 370.932 624.594C370.932 622.732 369.714 621.5 367.824 621.5C366.48 621.5 365.57 622.074 364.688 623.04L365.598 623.936C366.144 623.306 366.816 622.788 367.628 622.788C368.79 622.788 369.378 623.558 369.378 624.678C369.378 626.372 367.81 628.374 364.772 631.062V632ZM375.85 632.182C377.866 632.182 379.182 630.39 379.182 626.806C379.182 623.25 377.866 621.5 375.85 621.5C373.834 621.5 372.518 623.236 372.518 626.806C372.518 630.39 373.834 632.182 375.85 632.182ZM375.85 630.908C374.8 630.908 374.058 629.788 374.058 626.806C374.058 623.852 374.8 622.774 375.85 622.774C376.9 622.774 377.642 623.852 377.642 626.806C377.642 629.788 376.9 630.908 375.85 630.908Z" fill="#999999"/>
<path d="M488.908 632.182C490.798 632.182 492.352 631.09 492.352 629.228C492.352 627.842 491.414 626.946 490.224 626.652V626.582C491.316 626.176 492.002 625.35 492.002 624.16C492.002 622.466 490.7 621.5 488.852 621.5C487.662 621.5 486.71 622.018 485.898 622.746L486.738 623.754C487.326 623.18 487.998 622.802 488.796 622.788C489.776 622.802 490.378 623.362 490.378 624.272C490.378 625.308 489.706 626.078 487.676 626.078V627.268C490 627.268 490.728 628.01 490.728 629.144C490.728 630.222 489.93 630.866 488.768 630.866C487.704 630.866 486.934 630.348 486.332 629.732L485.548 630.768C486.234 631.538 487.284 632.182 488.908 632.182ZM496.85 632.182C498.866 632.182 500.182 630.39 500.182 626.806C500.182 623.25 498.866 621.5 496.85 621.5C494.834 621.5 493.518 623.236 493.518 626.806C493.518 630.39 494.834 632.182 496.85 632.182ZM496.85 630.908C495.8 630.908 495.058 629.788 495.058 626.806C495.058 623.852 495.8 622.774 496.85 622.774C497.9 622.774 498.642 623.852 498.642 626.806C498.642 629.788 497.9 630.908 496.85 630.908Z" fill="#999999"/>
<path d="M608.06 627.982L610.09 624.874C610.384 624.342 610.664 623.81 610.916 623.278H610.972C610.944 623.852 610.902 624.72 610.902 625.28V627.982H608.06ZM610.902 632H612.414V629.228H613.716V627.982H612.414V621.682H610.538L606.436 628.15V629.228H610.902V632ZM617.85 632.182C619.866 632.182 621.182 630.39 621.182 626.806C621.182 623.25 619.866 621.5 617.85 621.5C615.834 621.5 614.518 623.236 614.518 626.806C614.518 630.39 615.834 632.182 617.85 632.182ZM617.85 630.908C616.8 630.908 616.058 629.788 616.058 626.806C616.058 623.852 616.8 622.774 617.85 622.774C618.9 622.774 619.642 623.852 619.642 626.806C619.642 629.788 618.9 630.908 617.85 630.908Z" fill="#999999"/>
<path d="M730.908 632.182C732.714 632.182 734.38 630.894 734.38 628.612C734.38 626.358 732.966 625.336 731.244 625.336C730.684 625.336 730.278 625.476 729.83 625.7L730.068 623.054H733.89V621.682H728.668L728.36 626.582L729.144 627.1C729.746 626.708 730.138 626.512 730.796 626.512C731.972 626.512 732.756 627.296 732.756 628.668C732.756 630.04 731.874 630.866 730.712 630.866C729.634 630.866 728.892 630.348 728.304 629.76L727.534 630.81C728.262 631.524 729.284 632.182 730.908 632.182ZM738.85 632.182C740.866 632.182 742.182 630.39 742.182 626.806C742.182 623.25 740.866 621.5 738.85 621.5C736.834 621.5 735.518 623.236 735.518 626.806C735.518 630.39 736.834 632.182 738.85 632.182ZM738.85 630.908C737.8 630.908 737.058 629.788 737.058 626.806C737.058 623.852 737.8 622.774 738.85 622.774C739.9 622.774 740.642 623.852 740.642 626.806C740.642 629.788 739.9 630.908 738.85 630.908Z" fill="#999999"/>
<path d="M852.342 626.736C853.448 626.736 854.05 627.478 854.05 628.794C854.05 630.138 853.336 630.95 852.44 630.95C851.334 630.95 850.592 629.984 850.424 627.94C851.04 627.058 851.754 626.736 852.342 626.736ZM852.454 632.182C854.134 632.182 855.534 630.838 855.534 628.794C855.534 626.624 854.372 625.56 852.636 625.56C851.894 625.56 850.998 626.008 850.396 626.75C850.466 623.81 851.558 622.816 852.874 622.816C853.476 622.816 854.106 623.138 854.484 623.586L855.366 622.606C854.778 621.99 853.938 621.5 852.79 621.5C850.76 621.5 848.898 623.082 848.898 627.044C848.898 630.544 850.494 632.182 852.454 632.182ZM859.85 632.182C861.866 632.182 863.182 630.39 863.182 626.806C863.182 623.25 861.866 621.5 859.85 621.5C857.834 621.5 856.518 623.236 856.518 626.806C856.518 630.39 857.834 632.182 859.85 632.182ZM859.85 630.908C858.8 630.908 858.058 629.788 858.058 626.806C858.058 623.852 858.8 622.774 859.85 622.774C860.9 622.774 861.642 623.852 861.642 626.806C861.642 629.788 860.9 630.908 859.85 630.908Z" fill="#999999"/>
<path d="M971.858 632H973.51C973.678 627.968 974.056 625.686 976.478 622.676V621.682H969.842V623.054H974.686C972.698 625.826 972.04 628.234 971.858 632ZM980.85 632.182C982.866 632.182 984.182 630.39 984.182 626.806C984.182 623.25 982.866 621.5 980.85 621.5C978.834 621.5 977.518 623.236 977.518 626.806C977.518 630.39 978.834 632.182 980.85 632.182ZM980.85 630.908C979.8 630.908 979.058 629.788 979.058 626.806C979.058 623.852 979.8 622.774 980.85 622.774C981.9 622.774 982.642 623.852 982.642 626.806C982.642 629.788 981.9 630.908 980.85 630.908Z" fill="#999999"/>
<path d="M109.867 468.858C109.867 470.37 109.867 472.162 109.377 474.64L110.833 474.794C111.323 472.176 111.323 470.426 111.323 468.858V467.612H102.321V468.788H109.867V468.858ZM106.843 476.236V471.784H105.387V476.236H101.131V477.426H112.555V476.236H106.843ZM116.768 478.182C118.658 478.182 120.212 477.09 120.212 475.228C120.212 473.842 119.274 472.946 118.084 472.652V472.582C119.176 472.176 119.862 471.35 119.862 470.16C119.862 468.466 118.56 467.5 116.712 467.5C115.522 467.5 114.57 468.018 113.758 468.746L114.598 469.754C115.186 469.18 115.858 468.802 116.656 468.788C117.636 468.802 118.238 469.362 118.238 470.272C118.238 471.308 117.566 472.078 115.536 472.078V473.268C117.86 473.268 118.588 474.01 118.588 475.144C118.588 476.222 117.79 476.866 116.628 476.866C115.564 476.866 114.794 476.348 114.192 475.732L113.408 476.768C114.094 477.538 115.144 478.182 116.768 478.182Z" fill="#999999"/>
<rect x="130" y="185" width="50" height="40" fill="url(#paint3_linear_198_1813)"/>
<rect x="130" y="274" width="227" height="40" fill="url(#paint4_linear_198_1813)"/>
<rect x="130" y="363" width="740" height="40" fill="url(#paint5_linear_198_1813)"/>
<rect x="130" y="452" width="337" height="40" fill="#989898"/>
<rect x="130" y="541" width="71" height="40" fill="#999999"/>
<path d="M105.767 79.95H112.757V77.43H102.737V94.86H104.537C108.347 94.86 111.137 94.74 114.407 94.11L114.137 91.56C111.347 92.13 108.887 92.28 105.767 92.31V79.95ZM121.997 74.19V84.9H118.787V74.76H115.877V99.96H118.787V87.42H121.997V101.28H124.937V74.19H121.997ZM148.065 74.22V88.77H151.155V74.22H148.065ZM133.455 90.03V100.98H151.155V90.03H148.095V93.03H136.515V90.03H133.455ZM136.515 95.43H148.095V98.49H136.515V95.43ZM136.545 75.45C132.405 75.45 129.345 78.03 129.345 81.75C129.345 85.47 132.405 88.05 136.545 88.05C140.685 88.05 143.715 85.47 143.715 81.75C143.715 78.03 140.685 75.45 136.545 75.45ZM136.545 78C138.975 78 140.715 79.5 140.715 81.75C140.715 84.03 138.975 85.5 136.545 85.5C134.085 85.5 132.375 84.03 132.375 81.75C132.375 79.5 134.085 78 136.545 78ZM171.961 79.47H177.991V76.92H162.811V79.47H168.841V82.05C168.841 86.7 166.051 91.74 161.851 93.69L163.621 96.15C166.801 94.62 169.231 91.41 170.431 87.63C171.691 91.14 174.121 94.08 177.271 95.46L178.981 93.03C174.751 91.23 171.961 86.55 171.961 82.05V79.47ZM181.141 74.22V101.31H184.261V74.22H181.141ZM203.008 90.12V92.28H208.318V94.8H211.408V74.19H208.318V90.12H203.008ZM197.608 77.52C199.828 77.52 201.358 78.48 201.358 80.01C201.358 81.54 199.828 82.5 197.608 82.5C195.358 82.5 193.828 81.54 193.828 80.01C193.828 78.48 195.358 77.52 197.608 77.52ZM197.608 84.78C201.568 84.78 204.298 82.89 204.298 80.01C204.298 77.13 201.568 75.24 197.608 75.24C193.618 75.24 190.888 77.13 190.888 80.01C190.888 82.89 193.618 84.78 197.608 84.78ZM196.378 93.93H199.468V88.71C201.778 88.56 204.148 88.32 206.428 87.93L206.188 85.71C200.458 86.43 193.798 86.49 188.818 86.52L189.208 89.04C191.368 89.04 193.798 89.01 196.378 88.89V93.93ZM195.568 98.28V92.79H192.478V100.8H212.038V98.28H195.568ZM236.534 81.48V84.03H241.454V94.05H244.544V74.25H241.454V81.48H236.534ZM238.214 87.81C234.164 86.4 231.854 83.01 231.854 79.68V78.75H237.494V76.26H223.004V78.75H228.734V79.68C228.734 83.34 226.274 86.91 222.074 88.38L223.664 90.81C226.874 89.7 229.154 87.33 230.354 84.39C231.494 87.06 233.684 89.19 236.684 90.21L238.214 87.81ZM230.084 98.28V92.34H226.994V100.8H245.234V98.28H230.084ZM264.852 86.07C261.132 86.76 257.862 86.91 253.212 86.94V83.64H262.422V75.75H250.122V78.24H259.362V81.3H250.182V89.46H252.372C257.562 89.46 261.102 89.31 265.182 88.59L264.852 86.07ZM252.432 94.53H267.162V101.34H270.252V92.04H252.432V94.53ZM274.062 80.82V78.3H270.252V74.28H267.162V90.69H270.252V86.55H274.062V84H270.252V80.82H274.062ZM288.34 76.95C292.54 76.95 294.79 77.76 294.79 79.32C294.79 80.85 292.54 81.66 288.34 81.66C284.14 81.66 281.89 80.85 281.89 79.32C281.89 77.76 284.14 76.95 288.34 76.95ZM288.34 83.97C294.4 83.97 298 82.32 298 79.32C298 76.29 294.4 74.64 288.34 74.64C282.25 74.64 278.68 76.29 278.68 79.32C278.68 82.32 282.25 83.97 288.34 83.97ZM282.1 96.45H297.52V89.97H278.98V92.31H294.49V94.26H279.04V101.07H298.3V98.7H282.1V96.45ZM276.07 85.56V88.02H300.61V85.56H276.07ZM328.586 80.31V83.1H321.956V85.5H328.586V87.96H331.676V74.22H328.586V77.91H322.976C323.126 77.13 323.186 76.29 323.186 75.42H311.066V77.91H319.766C319.346 81.69 316.016 84.66 309.596 86.04L310.676 88.56C316.646 87.21 320.636 84.45 322.316 80.31H328.586ZM317.186 98.58V96.09H331.676V89.07H314.036V91.53H328.586V93.78H314.096V101.07H332.426V98.58H317.186ZM350.783 81.03V83.55H355.583V90.36H358.673V74.22H355.583V81.03H350.783ZM352.343 87.06C348.293 85.65 345.983 82.29 345.983 78.9V78.54H351.623V76.05H337.133V78.54H342.863V78.93C342.863 82.65 340.433 86.25 336.233 87.75L337.823 90.21C341.033 89.07 343.313 86.67 344.513 83.7C345.653 86.31 347.813 88.44 350.813 89.49L352.343 87.06ZM349.673 98.94C345.803 98.94 343.613 97.98 343.613 96.21C343.613 94.44 345.803 93.48 349.673 93.48C353.483 93.48 355.703 94.44 355.703 96.21C355.703 97.98 353.483 98.94 349.673 98.94ZM349.673 91.08C344.003 91.08 340.523 93 340.523 96.21C340.523 99.45 344.003 101.34 349.673 101.34C355.313 101.34 358.793 99.45 358.793 96.21C358.793 93 355.313 91.08 349.673 91.08ZM379.251 77.31H372.801V74.22H369.711V77.31H363.261V79.77H379.251V77.31ZM367.641 86.16C367.641 84.45 369.111 83.43 371.241 83.43C373.401 83.43 374.871 84.45 374.871 86.16C374.871 87.87 373.401 88.89 371.241 88.89C369.111 88.89 367.641 87.87 367.641 86.16ZM377.811 86.16C377.811 83.1 375.141 81.03 371.241 81.03C367.371 81.03 364.671 83.1 364.671 86.16C364.671 89.25 367.371 91.29 371.241 91.29C375.141 91.29 377.811 89.25 377.811 86.16ZM370.341 92.97H367.221V100.8H385.461V98.28H370.341V92.97ZM384.381 82.86V74.22H381.291V94.53H384.381V85.41H388.221V82.86H384.381ZM406.357 76.47H403.267V80.91C403.267 86.13 400.447 91.32 396.127 93.27L397.957 95.85C401.227 94.26 403.627 91.05 404.857 87.12C406.087 90.78 408.457 93.78 411.577 95.25L413.377 92.79C409.117 90.87 406.357 85.89 406.357 80.91V76.47ZM415.537 74.19V101.37H418.657V74.19H415.537ZM439.445 86.88C435.425 85.47 433.115 82.08 433.115 78.72V78.27H438.755V75.78H424.265V78.27H429.995V78.72C429.995 82.41 427.535 85.98 423.335 87.45L424.925 89.88C428.135 88.77 430.415 86.4 431.615 83.49C432.755 86.13 434.945 88.23 437.945 89.28L439.445 86.88ZM431.045 93.66H442.775V98.52H431.045V93.66ZM428.015 100.98H445.805V91.2H428.015V100.98ZM442.715 74.19V80.79H437.915V83.31H442.715V89.97H445.805V74.19H442.715ZM462.602 77.55C466.562 77.55 469.052 78.66 469.052 80.55C469.052 82.47 466.562 83.58 462.602 83.58C458.612 83.58 456.122 82.47 456.122 80.55C456.122 78.66 458.612 77.55 462.602 77.55ZM462.602 86.07C468.452 86.07 472.262 84 472.262 80.55C472.262 77.13 468.452 75.06 462.602 75.06C456.752 75.06 452.942 77.13 452.942 80.55C452.942 84 456.752 86.07 462.602 86.07ZM456.542 92.91H453.422V100.8H472.112V98.28H456.542V92.91ZM450.332 88.26V90.78H474.842V88.26H450.332ZM486.828 82.71C486.828 80.22 488.598 78.63 490.938 78.63C493.248 78.63 495.018 80.22 495.018 82.71C495.018 85.2 493.248 86.85 490.938 86.85C488.598 86.85 486.828 85.2 486.828 82.71ZM502.848 84.06V94.14H505.938V74.25H502.848V81.54H497.868C497.358 78.24 494.538 75.93 490.938 75.93C486.918 75.93 483.858 78.78 483.858 82.71C483.858 86.7 486.918 89.52 490.938 89.52C494.478 89.52 497.238 87.33 497.838 84.06H502.848ZM491.478 98.28V92.13H488.388V100.8H506.628V98.28H491.478ZM518.716 79.71H523.186V77.16H510.946V79.71H515.716V81.66C515.716 86.49 513.916 91.38 510.076 93.78L511.936 96.06C514.546 94.41 516.286 91.5 517.246 88.08C518.206 91.23 519.886 93.9 522.436 95.4L524.236 93.15C520.456 90.96 518.716 86.28 518.716 81.66V79.71ZM525.196 83.73H521.206V86.25H525.196V99.99H528.106V74.73H525.196V83.73ZM530.656 74.19V101.28H533.596V74.19H530.656ZM544.933 78.18C547.273 78.18 548.983 79.74 548.983 82.08C548.983 84.39 547.273 85.95 544.933 85.95C542.563 85.95 540.823 84.39 540.823 82.08C540.823 79.74 542.563 78.18 544.933 78.18ZM556.843 80.25V83.79H551.683C551.833 83.25 551.923 82.68 551.923 82.08C551.923 81.42 551.833 80.82 551.653 80.25H556.843ZM556.843 86.28V89.55H559.933V74.22H556.843V77.76H550.243C548.983 76.44 547.123 75.63 544.933 75.63C540.883 75.63 537.883 78.3 537.883 82.08C537.883 85.86 540.883 88.53 544.933 88.53C547.183 88.53 549.103 87.69 550.363 86.28H556.843ZM557.173 90.45H554.143V91.95C554.143 94.02 553.033 96.6 550.633 98.25C548.263 96.75 547.213 94.29 547.213 91.95V90.45H544.213V91.95C544.213 94.62 542.413 97.5 538.933 98.73L540.463 101.01C542.953 100.05 544.723 98.28 545.683 96.15C546.523 98.37 548.113 100.26 550.663 101.22C553.153 100.2 554.743 98.25 555.613 96.09C556.543 98.28 558.313 100.08 560.923 101.01L562.453 98.73C558.943 97.56 557.173 94.8 557.173 91.95V90.45ZM568.511 76.86H565.421V94.56H567.671C571.751 94.56 575.951 94.26 580.541 93.36L580.181 90.81C576.071 91.65 572.171 91.95 568.511 91.98V76.86ZM589.571 84.78H585.461V74.22H582.371V101.31H585.461V87.33H589.571V84.78ZM600.309 89.58C601.359 89.82 602.529 89.94 603.729 89.94C604.929 89.94 606.099 89.82 607.149 89.55V95.46H600.309V89.58ZM603.729 78.21C607.809 78.21 610.659 80.01 610.659 82.86C610.659 85.74 607.809 87.54 603.729 87.54C599.619 87.54 596.769 85.74 596.769 82.86C596.769 80.01 599.619 78.21 603.729 78.21ZM610.239 95.46V88.41C612.399 87.18 613.689 85.26 613.689 82.86C613.689 78.54 609.489 75.78 603.729 75.78C597.939 75.78 593.769 78.54 593.769 82.86C593.769 85.26 595.059 87.21 597.219 88.41V95.46H591.489V97.98H616.029V95.46H610.239ZM622.296 91.95H625.326C624.816 87.48 630.156 85.86 630.156 81.48C630.156 77.97 627.756 75.99 624.246 75.99C621.756 75.99 619.746 77.19 618.276 78.87L620.226 80.64C621.216 79.53 622.446 78.81 623.856 78.81C625.746 78.81 626.796 80.04 626.796 81.72C626.796 84.99 621.576 86.91 622.296 91.95ZM623.856 99.39C625.146 99.39 626.166 98.4 626.166 96.99C626.166 95.55 625.146 94.53 623.856 94.53C622.536 94.53 621.546 95.55 621.546 96.99C621.546 98.4 622.536 99.39 623.856 99.39Z" fill="white"/>
<defs>
<linearGradient id="paint0_linear_198_1813" x1="190" y1="204.5" x2="204" y2="204.5" gradientUnits="userSpaceOnUse">
<stop stop-color="#0FC5DB"/>
<stop offset="1" stop-color="#27D86F"/>
</linearGradient>
<linearGradient id="paint1_linear_198_1813" x1="367" y1="293.5" x2="394" y2="293.5" gradientUnits="userSpaceOnUse">
<stop stop-color="#0FC5DB"/>
<stop offset="1" stop-color="#27D86F"/>
</linearGradient>
<linearGradient id="paint2_linear_198_1813" x1="880" y1="382.5" x2="907" y2="382.5" gradientUnits="userSpaceOnUse">
<stop stop-color="#0FC5DB"/>
<stop offset="1" stop-color="#27D86F"/>
</linearGradient>
<linearGradient id="paint3_linear_198_1813" x1="130" y1="205" x2="180" y2="205" gradientUnits="userSpaceOnUse">
<stop stop-color="#0FC5DB"/>
<stop offset="1" stop-color="#27D86F"/>
</linearGradient>
<linearGradient id="paint4_linear_198_1813" x1="130" y1="294" x2="357" y2="294" gradientUnits="userSpaceOnUse">
<stop stop-color="#0FC5DB"/>
<stop offset="1" stop-color="#27D86F"/>
</linearGradient>
<linearGradient id="paint5_linear_198_1813" x1="130" y1="383" x2="870" y2="383" gradientUnits="userSpaceOnUse">
<stop stop-color="#0FC5DB"/>
<stop offset="1" stop-color="#27D86F"/>
</linearGradient>
</defs>
</svg>
