<svg width="158" height="50" viewBox="0 0 158 50" fill="none" xmlns="http://www.w3.org/2000/svg">
<path fill-rule="evenodd" clip-rule="evenodd" d="M8 0C3.58172 0 0 3.58172 0 8V32C0 36.4183 3.58172 40 8 40H74.1361L78.8394 48.1465C79.6092 49.4798 81.5337 49.4798 82.3036 48.1465L87.0069 40H150C154.418 40 158 36.4183 158 32V8C158 3.58172 154.418 0 150 0H8Z" fill="#FF3DB1"/>
<path d="M26.766 19.028H19.374V17.768H26.36V16.9H19.374V15.71H26.696V14.814H18.226V19.924H26.766V19.028ZM18.002 24.166H25.478V27.05H26.626V23.256H18.002V24.166ZM16.728 21.114V22.038H28.096V21.114H16.728ZM38.8049 17.166V18.552H35.9069V17.166H38.8049ZM34.7729 19.616H31.3849V17.754H34.7729V19.616ZM35.9069 19.448H38.8049V21.044H39.9529V14.492H38.8049V16.27H35.9069V15.08H34.7729V16.858H31.3849V15.066H30.2509V20.54H35.9069V19.448ZM33.0229 25.958V24.628H39.9529V21.646H31.8609V22.556H38.8189V23.76H31.8889V26.868H40.4289V25.958H33.0229ZM43.7878 18.426C43.7878 17.18 44.6978 16.284 45.9298 16.284C47.1478 16.284 48.0578 17.18 48.0578 18.426C48.0578 19.672 47.1478 20.568 45.9298 20.568C44.6978 20.568 43.7878 19.672 43.7878 18.426ZM51.6838 17.376V19.462H48.9818C49.0938 19.14 49.1498 18.79 49.1498 18.426C49.1498 18.048 49.0938 17.698 48.9818 17.376H51.6838ZM51.6838 20.386V23.76H52.8458V14.492H51.6838V16.452H48.4918C47.9038 15.724 47.0078 15.276 45.9298 15.276C44.0818 15.276 42.6958 16.592 42.6958 18.426C42.6958 20.26 44.0818 21.576 45.9298 21.576C47.0078 21.576 47.9178 21.128 48.5058 20.386H51.6838ZM45.9718 25.818V22.808H44.8098V26.756H53.1958V25.818H45.9718ZM62.6587 20.554C60.8107 19.938 59.6207 18.468 59.6207 16.83V16.34H62.3927V15.416H55.6587V16.34H58.4727V16.83C58.4727 18.636 57.2127 20.26 55.3227 20.918L55.9107 21.828C57.4087 21.296 58.5427 20.176 59.0747 18.748C59.6067 19.994 60.6847 20.988 62.1127 21.45L62.6587 20.554ZM61.1327 26.112C59.2567 26.112 58.1367 25.594 58.1367 24.698C58.1367 23.816 59.2567 23.298 61.1327 23.298C62.9807 23.298 64.1147 23.816 64.1147 24.698C64.1147 25.594 62.9807 26.112 61.1327 26.112ZM61.1327 22.388C58.5567 22.388 56.9887 23.242 56.9887 24.698C56.9887 26.168 58.5567 27.022 61.1327 27.022C63.6807 27.022 65.2627 26.168 65.2627 24.698C65.2627 23.242 63.6807 22.388 61.1327 22.388ZM65.1227 17.656V14.492H63.9747V22.066H65.1227V18.622H66.9847V17.656H65.1227Z" fill="white"/>
<path d="M78.384 26.224C80.64 26.224 82.544 24.96 82.544 22.784C82.544 21.232 81.52 20.24 80.192 19.872V19.792C81.44 19.296 82.16 18.368 82.16 17.088C82.16 15.072 80.608 13.936 78.32 13.936C76.928 13.936 75.792 14.496 74.768 15.392L75.968 16.832C76.672 16.176 77.36 15.792 78.208 15.792C79.216 15.792 79.792 16.336 79.792 17.264C79.792 18.32 79.088 19.072 76.912 19.072V20.752C79.488 20.752 80.176 21.488 80.176 22.64C80.176 23.712 79.36 24.304 78.16 24.304C77.088 24.304 76.224 23.776 75.52 23.088L74.416 24.576C75.248 25.52 76.512 26.224 78.384 26.224ZM88.1419 26.224C90.5579 26.224 92.1419 24.112 92.1419 20.032C92.1419 15.952 90.5579 13.936 88.1419 13.936C85.7259 13.936 84.1259 15.936 84.1259 20.032C84.1259 24.112 85.7259 26.224 88.1419 26.224ZM88.1419 24.384C87.1179 24.384 86.3499 23.36 86.3499 20.032C86.3499 16.72 87.1179 15.76 88.1419 15.76C89.1659 15.76 89.9179 16.72 89.9179 20.032C89.9179 23.36 89.1659 24.384 88.1419 24.384ZM96.2358 21.44C97.9318 21.44 99.1318 20.048 99.1318 17.664C99.1318 15.296 97.9318 13.936 96.2358 13.936C94.5398 13.936 93.3558 15.296 93.3558 17.664C93.3558 20.048 94.5398 21.44 96.2358 21.44ZM96.2358 20.112C95.5478 20.112 95.0198 19.408 95.0198 17.664C95.0198 15.92 95.5478 15.264 96.2358 15.264C96.9238 15.264 97.4678 15.92 97.4678 17.664C97.4678 19.408 96.9238 20.112 96.2358 20.112ZM96.6358 26.224H98.0278L104.46 13.936H103.068L96.6358 26.224ZM104.844 26.224C106.524 26.224 107.74 24.816 107.74 22.448C107.74 20.064 106.524 18.704 104.844 18.704C103.164 18.704 101.964 20.064 101.964 22.448C101.964 24.816 103.164 26.224 104.844 26.224ZM104.844 24.88C104.156 24.88 103.628 24.192 103.628 22.448C103.628 20.704 104.156 20.032 104.844 20.032C105.532 20.032 106.076 20.704 106.076 22.448C106.076 24.192 105.532 24.88 104.844 24.88ZM121.235 13.728H117.955V12.528H115.827V13.728H112.547V15.312H121.235V13.728ZM115.299 18.08C115.299 17.456 115.923 17.152 116.899 17.152C117.875 17.152 118.499 17.456 118.499 18.08C118.499 18.688 117.875 18.992 116.899 18.992C115.923 18.992 115.299 18.688 115.299 18.08ZM120.515 18.08C120.515 16.592 119.091 15.664 116.899 15.664C114.723 15.664 113.283 16.592 113.283 18.08C113.283 19.552 114.723 20.48 116.899 20.48C119.091 20.48 120.515 19.552 120.515 18.08ZM116.547 24.912H124.163V21.168H114.435V22.704H122.083V23.472H114.451V27.264H124.595V25.728H116.547V24.912ZM124.163 15.76V12.624H122.051V20.592H124.163V17.488H126.115V15.76H124.163ZM139.522 12.656H137.394V23.232H139.522V12.656ZM129.554 17.328C129.554 16.112 130.418 15.408 131.506 15.408C132.61 15.408 133.442 16.112 133.442 17.328C133.442 18.512 132.61 19.232 131.506 19.232C130.418 19.232 129.554 18.512 129.554 17.328ZM135.506 17.328C135.506 15.152 133.762 13.584 131.506 13.584C129.25 13.584 127.49 15.152 127.49 17.328C127.49 19.472 129.25 21.056 131.506 21.056C133.762 21.056 135.506 19.472 135.506 17.328ZM131.826 25.44V22.192H129.714V27.12H139.89V25.44H131.826Z" fill="white"/>
</svg>
