<svg width="159" height="50" viewBox="0 0 159 50" fill="none" xmlns="http://www.w3.org/2000/svg">
<path fill-rule="evenodd" clip-rule="evenodd" d="M8 0C3.58172 0 0 3.58172 0 8V32C0 36.4183 3.58173 40 8 40H72.9915L77.6949 48.1465C78.4647 49.4798 80.3892 49.4798 81.159 48.1465L85.8624 40H151C155.418 40 159 36.4183 159 32V8C159 3.58172 155.418 0 151 0H8Z" fill="#FF3DB1"/>
<path d="M17.82 18.874C17.82 17.474 18.576 16.55 19.556 16.55C20.872 16.55 21.656 17.67 21.796 19.784C21.138 20.75 20.354 21.156 19.654 21.156C18.436 21.156 17.82 20.26 17.82 18.874ZM19.276 26.182C21.208 26.182 23 24.586 23 20.428C23 17.166 21.53 15.542 19.556 15.542C17.96 15.542 16.616 16.886 16.616 18.874C16.616 21.002 17.736 22.108 19.444 22.108C20.298 22.108 21.18 21.618 21.81 20.848C21.712 24.026 20.564 25.118 19.234 25.118C18.576 25.118 17.946 24.824 17.526 24.334L16.812 25.132C17.386 25.734 18.17 26.182 19.276 26.182ZM23.9196 28.506H24.8576L29.0436 14.884H28.1196L23.9196 28.506ZM30.48 26H36.108V24.936H34.05V15.724H33.07C32.51 16.06 31.852 16.298 30.942 16.466V17.278H32.762V24.936H30.48V26ZM38.2457 26H43.8737V24.936H41.8157V15.724H40.8357C40.2757 16.06 39.6177 16.298 38.7077 16.466V17.278H40.5277V24.936H38.2457V26ZM45.8853 15.836V16.788H48.1953C48.0693 19.308 47.3413 21.632 45.4793 23.564L46.3753 24.208C48.6573 21.8 49.2873 18.86 49.2873 15.836H45.8853ZM49.7073 15.836V16.788H51.6393C51.5413 19.448 50.9813 22.192 49.0493 24.418L49.9733 25.048C52.2833 22.318 52.7173 18.86 52.7173 15.836H49.7073ZM57.2533 19.658H55.3913V14.478H54.2433V27.036H55.3913V20.61H57.2533V19.658ZM62.8802 16.718H65.8342V15.766H58.8202V16.718H61.7322V18.314C61.7322 20.484 60.2062 22.85 58.4002 23.704L59.0722 24.628C60.5002 23.9 61.7322 22.318 62.3062 20.484C62.9082 22.206 64.1402 23.648 65.5962 24.32L66.2402 23.396C64.3922 22.612 62.8802 20.442 62.8802 18.314V16.718ZM67.5282 14.492V27.036H68.6762V14.492H67.5282Z" fill="white"/>
<path d="M75.688 26H83.624V24.016H81.064C80.504 24.016 79.72 24.08 79.128 24.144C81.288 22.032 83.064 19.728 83.064 17.584C83.064 15.376 81.576 13.936 79.336 13.936C77.72 13.936 76.664 14.56 75.576 15.728L76.856 17.008C77.464 16.352 78.168 15.792 79.032 15.792C80.168 15.792 80.808 16.512 80.808 17.712C80.808 19.536 78.904 21.76 75.688 24.64V26ZM88.8379 26.224C91.0299 26.224 92.9819 24.704 92.9819 22.064C92.9819 19.488 91.3179 18.304 89.3339 18.304C88.7899 18.304 88.3899 18.416 87.9099 18.64L88.1339 16.128H92.4379V14.144H86.1019L85.7819 19.904L86.8539 20.608C87.5419 20.16 87.9259 19.984 88.6299 19.984C89.8299 19.984 90.6299 20.752 90.6299 22.128C90.6299 23.52 89.7659 24.304 88.5339 24.304C87.4299 24.304 86.5979 23.76 85.9259 23.104L84.8379 24.608C85.7179 25.488 86.9659 26.224 88.8379 26.224ZM97.2358 21.44C98.9318 21.44 100.132 20.048 100.132 17.664C100.132 15.296 98.9318 13.936 97.2358 13.936C95.5398 13.936 94.3558 15.296 94.3558 17.664C94.3558 20.048 95.5398 21.44 97.2358 21.44ZM97.2358 20.112C96.5478 20.112 96.0198 19.408 96.0198 17.664C96.0198 15.92 96.5478 15.264 97.2358 15.264C97.9238 15.264 98.4678 15.92 98.4678 17.664C98.4678 19.408 97.9238 20.112 97.2358 20.112ZM97.6358 26.224H99.0278L105.46 13.936H104.068L97.6358 26.224ZM105.844 26.224C107.524 26.224 108.74 24.816 108.74 22.448C108.74 20.064 107.524 18.704 105.844 18.704C104.164 18.704 102.964 20.064 102.964 22.448C102.964 24.816 104.164 26.224 105.844 26.224ZM105.844 24.88C105.156 24.88 104.628 24.192 104.628 22.448C104.628 20.704 105.156 20.032 105.844 20.032C106.532 20.032 107.076 20.704 107.076 22.448C107.076 24.192 106.532 24.88 105.844 24.88ZM122.235 13.728H118.955V12.528H116.827V13.728H113.547V15.312H122.235V13.728ZM116.299 18.08C116.299 17.456 116.923 17.152 117.899 17.152C118.875 17.152 119.499 17.456 119.499 18.08C119.499 18.688 118.875 18.992 117.899 18.992C116.923 18.992 116.299 18.688 116.299 18.08ZM121.515 18.08C121.515 16.592 120.091 15.664 117.899 15.664C115.723 15.664 114.283 16.592 114.283 18.08C114.283 19.552 115.723 20.48 117.899 20.48C120.091 20.48 121.515 19.552 121.515 18.08ZM117.547 24.912H125.163V21.168H115.435V22.704H123.083V23.472H115.451V27.264H125.595V25.728H117.547V24.912ZM125.163 15.76V12.624H123.051V20.592H125.163V17.488H127.115V15.76H125.163ZM140.522 12.656H138.394V23.232H140.522V12.656ZM130.554 17.328C130.554 16.112 131.418 15.408 132.506 15.408C133.61 15.408 134.442 16.112 134.442 17.328C134.442 18.512 133.61 19.232 132.506 19.232C131.418 19.232 130.554 18.512 130.554 17.328ZM136.506 17.328C136.506 15.152 134.762 13.584 132.506 13.584C130.25 13.584 128.49 15.152 128.49 17.328C128.49 19.472 130.25 21.056 132.506 21.056C134.762 21.056 136.506 19.472 136.506 17.328ZM132.826 25.44V22.192H130.714V27.12H140.89V25.44H132.826Z" fill="white"/>
</svg>
