<svg width="154" height="50" viewBox="0 0 154 50" fill="none" xmlns="http://www.w3.org/2000/svg">
<path fill-rule="evenodd" clip-rule="evenodd" d="M8 0C3.58172 0 0 3.58172 0 8V32C0 36.4183 3.58172 40 8 40H70.1361L74.8394 48.1465C75.6092 49.4798 77.5337 49.4798 78.3036 48.1465L83.0069 40H146C150.418 40 154 36.4183 154 32V8C154 3.58172 150.418 0 146 0H8Z" fill="#FF3DB1"/>
<path d="M17.82 18.874C17.82 17.474 18.576 16.55 19.556 16.55C20.872 16.55 21.656 17.67 21.796 19.784C21.138 20.75 20.354 21.156 19.654 21.156C18.436 21.156 17.82 20.26 17.82 18.874ZM19.276 26.182C21.208 26.182 23 24.586 23 20.428C23 17.166 21.53 15.542 19.556 15.542C17.96 15.542 16.616 16.886 16.616 18.874C16.616 21.002 17.736 22.108 19.444 22.108C20.298 22.108 21.18 21.618 21.81 20.848C21.712 24.026 20.564 25.118 19.234 25.118C18.576 25.118 17.946 24.824 17.526 24.334L16.812 25.132C17.386 25.734 18.17 26.182 19.276 26.182ZM31.1436 20.456V21.212H33.6356V21.87H34.7836V14.492H33.6356V20.456H31.1436ZM28.5256 15.528C29.7576 15.528 30.5416 15.948 30.5416 16.62C30.5416 17.264 29.7576 17.698 28.5256 17.698C27.3076 17.698 26.5096 17.264 26.5096 16.62C26.5096 15.948 27.3076 15.528 28.5256 15.528ZM28.5256 18.482C30.3876 18.482 31.6196 17.768 31.6196 16.62C31.6196 15.444 30.3876 14.73 28.5256 14.73C26.6636 14.73 25.4316 15.444 25.4316 16.62C25.4316 17.768 26.6636 18.482 28.5256 18.482ZM27.8816 21.912H29.0296V19.98C30.2476 19.91 31.4936 19.812 32.7116 19.644L32.6416 18.888C29.9536 19.196 26.8876 19.21 24.4656 19.21L24.6056 20.078C25.6136 20.078 26.7196 20.064 27.8816 20.036V21.912ZM27.5316 26.042V24.95H34.7836V22.332H26.3696V23.158H33.6636V24.166H26.3976V26.896H35.2176V26.042H27.5316ZM47.9654 16.018H44.8294V14.478H43.6814V16.018H40.5594V16.942H47.9654V16.018ZM42.3514 19.966C42.3514 19.098 43.1214 18.538 44.2554 18.538C45.3894 18.538 46.1734 19.098 46.1734 19.966C46.1734 20.848 45.3894 21.408 44.2554 21.408C43.1214 21.408 42.3514 20.848 42.3514 19.966ZM47.2654 19.966C47.2654 18.566 46.0334 17.642 44.2554 17.642C42.4774 17.642 41.2594 18.566 41.2594 19.966C41.2594 21.38 42.4774 22.304 44.2554 22.304C46.0334 22.304 47.2654 21.38 47.2654 19.966ZM43.5974 23.158H42.4494V26.756H50.8214V25.818H43.5974V23.158ZM50.2614 18.622V14.478H49.1134V23.9H50.2614V19.588H52.1094V18.622H50.2614ZM60.1023 17.74V18.678H62.5803V21.968H63.7423V14.492H62.5803V17.74H60.1023ZM60.8023 20.596C58.9823 19.952 57.7503 18.37 57.7503 16.76V16.326H60.5083V15.402H53.8023V16.326H56.6023V16.76C56.6023 18.566 55.3143 20.26 53.4383 20.946L54.0403 21.856C55.5103 21.296 56.6723 20.12 57.2043 18.664C57.7503 19.952 58.8283 20.988 60.2283 21.492L60.8023 20.596ZM59.5983 26.14C57.7083 26.14 56.5603 25.608 56.5603 24.698C56.5603 23.788 57.7083 23.242 59.5983 23.242C61.4883 23.242 62.6363 23.788 62.6363 24.698C62.6363 25.608 61.4883 26.14 59.5983 26.14ZM59.5983 22.36C57.0223 22.36 55.4123 23.214 55.4123 24.698C55.4123 26.182 57.0223 27.036 59.5983 27.036C62.1743 27.036 63.7843 26.182 63.7843 24.698C63.7843 23.214 62.1743 22.36 59.5983 22.36Z" fill="white"/>
<path d="M74.384 26.224C76.64 26.224 78.544 24.96 78.544 22.784C78.544 21.232 77.52 20.24 76.192 19.872V19.792C77.44 19.296 78.16 18.368 78.16 17.088C78.16 15.072 76.608 13.936 74.32 13.936C72.928 13.936 71.792 14.496 70.768 15.392L71.968 16.832C72.672 16.176 73.36 15.792 74.208 15.792C75.216 15.792 75.792 16.336 75.792 17.264C75.792 18.32 75.088 19.072 72.912 19.072V20.752C75.488 20.752 76.176 21.488 76.176 22.64C76.176 23.712 75.36 24.304 74.16 24.304C73.088 24.304 72.224 23.776 71.52 23.088L70.416 24.576C71.248 25.52 72.512 26.224 74.384 26.224ZM84.1419 26.224C86.5579 26.224 88.1419 24.112 88.1419 20.032C88.1419 15.952 86.5579 13.936 84.1419 13.936C81.7259 13.936 80.1259 15.936 80.1259 20.032C80.1259 24.112 81.7259 26.224 84.1419 26.224ZM84.1419 24.384C83.1179 24.384 82.3499 23.36 82.3499 20.032C82.3499 16.72 83.1179 15.76 84.1419 15.76C85.1659 15.76 85.9179 16.72 85.9179 20.032C85.9179 23.36 85.1659 24.384 84.1419 24.384ZM92.2358 21.44C93.9318 21.44 95.1318 20.048 95.1318 17.664C95.1318 15.296 93.9318 13.936 92.2358 13.936C90.5398 13.936 89.3558 15.296 89.3558 17.664C89.3558 20.048 90.5398 21.44 92.2358 21.44ZM92.2358 20.112C91.5478 20.112 91.0198 19.408 91.0198 17.664C91.0198 15.92 91.5478 15.264 92.2358 15.264C92.9238 15.264 93.4678 15.92 93.4678 17.664C93.4678 19.408 92.9238 20.112 92.2358 20.112ZM92.6358 26.224H94.0278L100.46 13.936H99.0678L92.6358 26.224ZM100.844 26.224C102.524 26.224 103.74 24.816 103.74 22.448C103.74 20.064 102.524 18.704 100.844 18.704C99.1638 18.704 97.9638 20.064 97.9638 22.448C97.9638 24.816 99.1638 26.224 100.844 26.224ZM100.844 24.88C100.156 24.88 99.6278 24.192 99.6278 22.448C99.6278 20.704 100.156 20.032 100.844 20.032C101.532 20.032 102.076 20.704 102.076 22.448C102.076 24.192 101.532 24.88 100.844 24.88ZM117.235 13.728H113.955V12.528H111.827V13.728H108.547V15.312H117.235V13.728ZM111.299 18.08C111.299 17.456 111.923 17.152 112.899 17.152C113.875 17.152 114.499 17.456 114.499 18.08C114.499 18.688 113.875 18.992 112.899 18.992C111.923 18.992 111.299 18.688 111.299 18.08ZM116.515 18.08C116.515 16.592 115.091 15.664 112.899 15.664C110.723 15.664 109.283 16.592 109.283 18.08C109.283 19.552 110.723 20.48 112.899 20.48C115.091 20.48 116.515 19.552 116.515 18.08ZM112.547 24.912H120.163V21.168H110.435V22.704H118.083V23.472H110.451V27.264H120.595V25.728H112.547V24.912ZM120.163 15.76V12.624H118.051V20.592H120.163V17.488H122.115V15.76H120.163ZM135.522 12.656H133.394V23.232H135.522V12.656ZM125.554 17.328C125.554 16.112 126.418 15.408 127.506 15.408C128.61 15.408 129.442 16.112 129.442 17.328C129.442 18.512 128.61 19.232 127.506 19.232C126.418 19.232 125.554 18.512 125.554 17.328ZM131.506 17.328C131.506 15.152 129.762 13.584 127.506 13.584C125.25 13.584 123.49 15.152 123.49 17.328C123.49 19.472 125.25 21.056 127.506 21.056C129.762 21.056 131.506 19.472 131.506 17.328ZM127.826 25.44V22.192H125.714V27.12H135.89V25.44H127.826Z" fill="white"/>
</svg>
