<svg width="528" height="367" viewBox="0 0 528 367" fill="none" xmlns="http://www.w3.org/2000/svg">
<rect width="528" height="367" rx="28" fill="#151515"/>
<path d="M24 54C24 50.6863 26.6863 48 30 48H498C501.314 48 504 50.6863 504 54V80H24V54Z" fill="#333333"/>
<path opacity="0.7" d="M218.172 63.293C218.458 61.772 218.458 60.615 218.458 59.822V59.146H212.556V60.238H217.145C217.132 60.966 217.093 61.889 216.859 63.15L218.172 63.293ZM219.147 63.878C217.99 64.06 216.729 64.138 215.507 64.19V61.824H214.181V64.229C213.349 64.255 212.543 64.255 211.841 64.255L211.984 65.347C214.025 65.347 216.794 65.282 219.238 64.853L219.147 63.878ZM214.961 66.296H213.609V69.78H221.591V68.688H214.961V66.296ZM221.214 61.98V58.262H219.862V67.076H221.214V63.085H222.774V61.98H221.214ZM231.067 63.41C229.26 62.838 228.207 61.395 228.207 59.848V58.717H226.842V59.848C226.842 61.447 225.789 62.994 223.943 63.618L224.593 64.671C225.997 64.19 227.011 63.189 227.544 61.928C228.064 63.111 229.065 64.008 230.417 64.45L231.067 63.41ZM227.232 66.608H232.289V68.792H227.232V66.608ZM225.919 69.858H233.602V65.542H225.919V69.858ZM232.263 58.275V64.931H233.602V58.275H232.263ZM242.272 61.434H240.79C240.881 60.888 240.92 60.303 240.92 59.705H236.383V60.784H239.594C239.399 63.189 238.229 65.1 235.811 66.569L236.578 67.518C238.775 66.205 240.01 64.502 240.556 62.526H242.272V64.385H240.348V65.477H242.272V69.429H243.52V58.548H242.272V61.434ZM244.638 58.262V70.001H245.925V58.262H244.638ZM249.278 61.317C249.278 60.355 250.032 59.718 251.072 59.718C252.086 59.718 252.84 60.355 252.84 61.317C252.84 62.279 252.086 62.916 251.072 62.916C250.032 62.916 249.278 62.279 249.278 61.317ZM256.22 60.615V61.98H254.036C254.088 61.772 254.114 61.538 254.114 61.317C254.114 61.07 254.088 60.836 254.023 60.615H256.22ZM256.22 63.033V64.216H257.572V58.249H256.22V59.562H253.451C252.905 58.964 252.06 58.613 251.072 58.613C249.304 58.613 248.004 59.731 248.004 61.317C248.004 62.89 249.304 64.021 251.072 64.021C252.073 64.021 252.944 63.644 253.477 63.033H256.22ZM251.267 68.805V67.765H257.572V64.775H249.928V65.815H256.246V66.777H249.941V69.858H257.962V68.805H251.267ZM264.001 64.06C264.56 64.06 265.002 63.618 265.002 63.02C265.002 62.409 264.56 61.954 264.001 61.954C263.442 61.954 263 62.409 263 63.02C263 63.618 263.442 64.06 264.001 64.06ZM264.001 69.169C264.56 69.169 265.002 68.74 265.002 68.129C265.002 67.505 264.56 67.063 264.001 67.063C263.442 67.063 263 67.505 263 68.129C263 68.74 263.442 69.169 264.001 69.169ZM273.302 59.081C271.469 59.081 270.117 60.238 270.117 61.902C270.117 63.566 271.469 64.723 273.302 64.723C275.135 64.723 276.5 63.566 276.5 61.902C276.5 60.238 275.135 59.081 273.302 59.081ZM273.302 60.225C274.394 60.225 275.187 60.875 275.187 61.902C275.187 62.916 274.394 63.579 273.302 63.579C272.223 63.579 271.43 62.916 271.43 61.902C271.43 60.875 272.223 60.225 273.302 60.225ZM277.826 58.249V70.014H279.178V58.249H277.826ZM269.74 67.531C271.82 67.531 274.628 67.505 277.215 67.011L277.124 66.036C274.602 66.413 271.677 66.426 269.571 66.426L269.74 67.531ZM282.934 61.759C282.934 60.732 283.701 60.069 284.741 60.069C285.794 60.069 286.561 60.732 286.561 61.759C286.561 62.786 285.794 63.449 284.741 63.449C283.701 63.449 282.934 62.786 282.934 61.759ZM287.874 61.759C287.874 60.095 286.535 58.938 284.741 58.938C282.96 58.938 281.621 60.095 281.621 61.759C281.621 63.423 282.96 64.58 284.741 64.58C286.535 64.58 287.874 63.423 287.874 61.759ZM282.921 66.816H289.304V70.014H290.643V65.737H282.921V66.816ZM292.268 61.044V59.939H290.643V58.262H289.304V65.217H290.643V63.566H292.268V62.461H290.643V61.044H292.268ZM299.82 61.434H298.338C298.429 60.888 298.468 60.303 298.468 59.705H293.931V60.784H297.142C296.947 63.189 295.777 65.1 293.359 66.569L294.126 67.518C296.323 66.205 297.558 64.502 298.104 62.526H299.82V64.385H297.896V65.477H299.82V69.429H301.068V58.548H299.82V61.434ZM302.186 58.262V70.001H303.473V58.262H302.186ZM306.826 61.317C306.826 60.355 307.58 59.718 308.62 59.718C309.634 59.718 310.388 60.355 310.388 61.317C310.388 62.279 309.634 62.916 308.62 62.916C307.58 62.916 306.826 62.279 306.826 61.317ZM313.768 60.615V61.98H311.584C311.636 61.772 311.662 61.538 311.662 61.317C311.662 61.07 311.636 60.836 311.571 60.615H313.768ZM313.768 63.033V64.216H315.12V58.249H313.768V59.562H310.999C310.453 58.964 309.608 58.613 308.62 58.613C306.852 58.613 305.552 59.731 305.552 61.317C305.552 62.89 306.852 64.021 308.62 64.021C309.621 64.021 310.492 63.644 311.025 63.033H313.768ZM308.815 68.805V67.765H315.12V64.775H307.476V65.815H313.794V66.777H307.489V69.858H315.51V68.805H308.815Z" fill="white"/>
<path opacity="0.7" d="M248.181 176.759C248.181 175.732 248.948 175.069 249.988 175.069C251.041 175.069 251.808 175.732 251.808 176.759C251.808 177.786 251.041 178.449 249.988 178.449C248.948 178.449 248.181 177.786 248.181 176.759ZM253.121 176.759C253.121 175.095 251.782 173.938 249.988 173.938C248.207 173.938 246.868 175.095 246.868 176.759C246.868 178.423 248.207 179.58 249.988 179.58C251.782 179.58 253.121 178.423 253.121 176.759ZM248.168 181.816H254.551V185.014H255.89V180.737H248.168V181.816ZM257.515 176.044V174.939H255.89V173.262H254.551V180.217H255.89V178.566H257.515V177.461H255.89V176.044H257.515ZM265.626 174.406H262.831V173.197H261.492V174.406H258.697V175.472H265.626V174.406ZM260.595 178.124C260.595 177.422 261.219 177.006 262.155 177.006C263.091 177.006 263.728 177.422 263.728 178.124C263.728 178.813 263.091 179.229 262.155 179.229C261.219 179.229 260.595 178.813 260.595 178.124ZM265.002 178.124C265.002 176.837 263.845 175.979 262.155 175.979C260.465 175.979 259.308 176.837 259.308 178.124C259.308 179.398 260.465 180.256 262.155 180.256C263.845 180.256 265.002 179.398 265.002 178.124ZM260.127 182.258H266.51V185.001H267.849V181.179H260.127V182.258ZM269.513 176.408H267.849V173.262H266.51V180.607H267.849V177.513H269.513V176.408ZM276.791 179.866C277.116 177.786 277.116 176.304 277.116 175.277V174.497H271.149V175.576H275.803C275.803 176.564 275.777 177.929 275.478 179.749L276.791 179.866ZM274.165 177.864H272.852V181.4C272.033 181.413 271.24 181.426 270.525 181.426L270.668 182.531C272.722 182.531 275.413 182.479 277.831 182.076L277.766 181.101C276.622 181.244 275.387 181.322 274.165 181.374V177.864ZM281.471 178.085H279.742V173.262H278.39V185.001H279.742V179.216H281.471V178.085Z" fill="white"/>
<path d="M259.685 98.826C257.93 98.215 256.929 96.746 256.929 95.29V95.069H259.373V93.99H253.094V95.069H255.577V95.303C255.577 96.889 254.511 98.436 252.691 99.06L253.38 100.113C254.771 99.632 255.759 98.618 256.279 97.357C256.786 98.488 257.722 99.411 259.022 99.866L259.685 98.826ZM254.511 101.933H261.089V105.001H262.428V100.854H254.511V101.933ZM261.089 93.249V96.2H259.035V97.305H261.089V100.269H262.428V93.249H261.089ZM270.968 96.213V97.305H273.048V100.256H274.387V93.262H273.048V96.213H270.968ZM271.644 98.826C269.889 98.215 268.888 96.759 268.888 95.29V95.134H271.332V94.055H265.053V95.134H267.536V95.303C267.536 96.915 266.483 98.475 264.663 99.125L265.352 100.191C266.743 99.697 267.731 98.657 268.251 97.37C268.745 98.501 269.681 99.424 270.981 99.879L271.644 98.826ZM270.487 103.974C268.81 103.974 267.861 103.558 267.861 102.791C267.861 102.024 268.81 101.608 270.487 101.608C272.138 101.608 273.1 102.024 273.1 102.791C273.1 103.558 272.138 103.974 270.487 103.974ZM270.487 100.568C268.03 100.568 266.522 101.4 266.522 102.791C266.522 104.195 268.03 105.014 270.487 105.014C272.931 105.014 274.439 104.195 274.439 102.791C274.439 101.4 272.931 100.568 270.487 100.568Z" fill="#37DD85"/>
<path d="M258.2 200.112C259.227 200.112 259.786 200.801 259.786 202.023C259.786 203.271 259.123 204.025 258.291 204.025C257.264 204.025 256.575 203.128 256.419 201.23C256.991 200.411 257.654 200.112 258.2 200.112ZM258.304 205.169C259.864 205.169 261.164 203.921 261.164 202.023C261.164 200.008 260.085 199.02 258.473 199.02C257.784 199.02 256.952 199.436 256.393 200.125C256.458 197.395 257.472 196.472 258.694 196.472C259.253 196.472 259.838 196.771 260.189 197.187L261.008 196.277C260.462 195.705 259.682 195.25 258.616 195.25C256.731 195.25 255.002 196.719 255.002 200.398C255.002 203.648 256.484 205.169 258.304 205.169ZM263.08 195.133V196.212H266.967C266.915 196.641 266.824 197.057 266.681 197.434L262.495 197.616L262.69 198.682L266.161 198.409C265.459 199.384 264.289 200.19 262.534 200.762L263.067 201.828C266.837 200.554 268.371 198.266 268.371 195.133H263.08ZM265.459 202.153H264.107V205.78H272.011V204.688H265.459V202.153ZM271.543 197.785V194.262H270.204V202.946H271.543V198.89H273.22V197.785H271.543Z" fill="#37DD85"/>
<path opacity="0.7" d="M393.043 174.601H390.248V173.262H388.909V174.601H386.114V175.667H393.043V174.601ZM388.012 178.436C388.012 177.695 388.649 177.253 389.572 177.253C390.508 177.253 391.145 177.695 391.145 178.436C391.145 179.177 390.508 179.619 389.572 179.619C388.649 179.619 388.012 179.177 388.012 178.436ZM392.419 178.436C392.419 177.11 391.262 176.213 389.572 176.213C387.895 176.213 386.725 177.11 386.725 178.436C386.725 179.775 387.895 180.659 389.572 180.659C391.262 180.659 392.419 179.775 392.419 178.436ZM389.182 181.387H387.83V184.78H395.734V183.688H389.182V181.387ZM395.266 177.006V173.262H393.927V182.063H395.266V178.111H396.93V177.006H395.266ZM401.843 174.081C400.01 174.081 398.658 175.238 398.658 176.902C398.658 178.566 400.01 179.723 401.843 179.723C403.676 179.723 405.041 178.566 405.041 176.902C405.041 175.238 403.676 174.081 401.843 174.081ZM401.843 175.225C402.935 175.225 403.728 175.875 403.728 176.902C403.728 177.916 402.935 178.579 401.843 178.579C400.764 178.579 399.971 177.916 399.971 176.902C399.971 175.875 400.764 175.225 401.843 175.225ZM406.367 173.249V185.014H407.719V173.249H406.367ZM398.281 182.531C400.361 182.531 403.169 182.505 405.756 182.011L405.665 181.036C403.143 181.413 400.218 181.426 398.112 181.426L398.281 182.531ZM415.089 179.593C415.154 179.203 415.18 178.8 415.18 178.345C415.18 177.89 415.154 177.474 415.089 177.084H416.441V179.593H415.089ZM412.658 181.244C411.852 181.244 411.345 180.204 411.345 178.345C411.345 176.486 411.852 175.433 412.658 175.433C413.464 175.433 413.971 176.486 413.971 178.345C413.971 180.204 413.464 181.244 412.658 181.244ZM416.441 175.979H414.816C414.413 174.822 413.633 174.172 412.658 174.172C411.137 174.172 410.136 175.758 410.136 178.345C410.136 180.919 411.137 182.505 412.658 182.505C413.646 182.505 414.413 181.829 414.829 180.685H416.441V184.442H417.689V173.483H416.441V175.979ZM418.768 173.262V184.988H420.042V173.262H418.768ZM428.127 179.866C428.452 177.786 428.452 176.304 428.452 175.277V174.497H422.485V175.576H427.139C427.139 176.564 427.113 177.929 426.814 179.749L428.127 179.866ZM425.501 177.864H424.188V181.4C423.369 181.413 422.576 181.426 421.861 181.426L422.004 182.531C424.058 182.531 426.749 182.479 429.167 182.076L429.102 181.101C427.958 181.244 426.723 181.322 425.501 181.374V177.864ZM432.807 178.085H431.078V173.262H429.726V185.001H431.078V179.216H432.807V178.085ZM436.355 186.587L437.291 186.171C436.173 184.312 435.653 182.115 435.653 179.931C435.653 177.76 436.173 175.563 437.291 173.691L436.355 173.288C435.146 175.251 434.431 177.37 434.431 179.931C434.431 182.518 435.146 184.611 436.355 186.587ZM440.989 178.8C441.301 177.76 441.6 176.707 441.873 175.615H441.938C442.224 176.694 442.51 177.76 442.835 178.8L443.212 180.087H440.599L440.989 178.8ZM437.895 184H439.429L440.248 181.27H443.576L444.382 184H445.981L442.809 174.419H441.067L437.895 184ZM455.03 180.802H456.369V173.262H455.03V175.966H453.262V177.058H455.03V178.293H453.236V179.372H455.03V180.802ZM453.184 174.445H450.649V173.158H449.31V174.445H446.671V175.511H453.184V174.445ZM448.53 178.215C448.53 177.5 449.115 177.045 449.973 177.045C450.844 177.045 451.429 177.5 451.429 178.215C451.429 178.956 450.844 179.398 449.973 179.398C449.115 179.398 448.53 178.956 448.53 178.215ZM452.677 178.215C452.677 176.915 451.572 176.031 449.973 176.031C448.387 176.031 447.282 176.915 447.282 178.215C447.282 179.528 448.387 180.412 449.973 180.412C451.572 180.412 452.677 179.528 452.677 178.215ZM452.482 183.974C450.87 183.974 449.921 183.623 449.921 182.96C449.921 182.297 450.87 181.959 452.482 181.959C454.068 181.959 455.017 182.297 455.017 182.96C455.017 183.623 454.068 183.974 452.482 183.974ZM452.482 180.932C450.025 180.932 448.517 181.686 448.517 182.96C448.517 184.247 450.025 185.001 452.482 185.001C454.913 185.001 456.434 184.247 456.434 182.96C456.434 181.686 454.913 180.932 452.482 180.932ZM459.475 186.587C460.697 184.611 461.412 182.518 461.412 179.931C461.412 177.37 460.697 175.251 459.475 173.288L458.539 173.691C459.657 175.563 460.177 177.76 460.177 179.931C460.177 182.115 459.657 184.312 458.539 186.171L459.475 186.587Z" fill="white"/>
<path d="M422.883 98.813C420.569 98.423 418.684 96.681 418.684 94.861V93.977H417.267V94.861C417.267 96.668 415.382 98.423 413.055 98.813L413.627 99.931C415.538 99.554 417.202 98.384 417.982 96.824C418.736 98.384 420.4 99.554 422.324 99.931L422.883 98.813ZM418.632 102.44V99.697H417.293V102.44H412.704V103.545H423.338V102.44H418.632ZM434.335 93.275H432.996V101.855H434.335V93.275ZM431.774 98.943C429.967 98.319 428.94 96.746 428.94 95.082V93.912H427.575V95.082C427.575 96.798 426.548 98.475 424.702 99.151L425.391 100.23C426.769 99.71 427.744 98.644 428.277 97.331C428.784 98.553 429.746 99.515 431.085 100.009L431.774 98.943ZM428.017 103.688V101.049H426.665V104.78H434.673V103.688H428.017Z" fill="#FF7F89"/>
<path d="M416.081 201.269L417.966 198.383C418.239 197.889 418.499 197.395 418.733 196.901H418.785C418.759 197.434 418.72 198.24 418.72 198.76V201.269H416.081ZM418.72 205H420.124V202.426H421.333V201.269H420.124V195.419H418.382L414.573 201.425V202.426H418.72V205ZM423.08 195.133V196.212H426.967C426.915 196.641 426.824 197.057 426.681 197.434L422.495 197.616L422.69 198.682L426.161 198.409C425.459 199.384 424.289 200.19 422.534 200.762L423.067 201.828C426.837 200.554 428.371 198.266 428.371 195.133H423.08ZM425.459 202.153H424.107V205.78H432.011V204.688H425.459V202.153ZM431.543 197.785V194.262H430.204V202.946H431.543V198.89H433.22V197.785H431.543Z" fill="#FF7F89"/>
<rect x="24" y="118" width="480" height="32" fill="#333333"/>
<path opacity="0.7" d="M253.602 133.566C251.847 132.955 250.846 131.473 250.846 129.926V128.86H249.494V129.965C249.494 131.655 248.48 133.228 246.621 133.878L247.336 134.931C248.727 134.424 249.702 133.423 250.209 132.11C250.716 133.254 251.639 134.151 252.9 134.606L253.602 133.566ZM249.715 136.66H254.577V138.792H249.715V136.66ZM248.389 139.858H255.89V135.594H248.389V139.858ZM257.554 131.07H255.89V128.262H254.551V135.087H255.89V132.175H257.554V131.07ZM263.988 129.562C265.73 129.562 266.783 130.004 266.783 130.797C266.783 131.577 265.73 132.019 263.988 132.019C262.233 132.019 261.18 131.577 261.18 130.797C261.18 130.004 262.233 129.562 263.988 129.562ZM263.988 133.072C266.536 133.072 268.174 132.214 268.174 130.797C268.174 129.38 266.536 128.522 263.988 128.522C261.427 128.522 259.802 129.38 259.802 130.797C259.802 132.214 261.427 133.072 263.988 133.072ZM265.275 136.205H262.675V134.918H265.275V136.205ZM269.292 134.918V133.839H258.658V134.918H261.336V136.205H259.854V137.271H266.653V140.001H267.992V136.205H266.614V134.918H269.292ZM272.345 130.745H275.374V129.653H271.032V137.206H271.812C273.463 137.206 274.672 137.154 276.089 136.881L275.972 135.776C274.763 136.023 273.697 136.088 272.345 136.101V130.745ZM279.378 128.249V132.89H277.987V128.496H276.726V139.416H277.987V133.982H279.378V139.988H280.652V128.249H279.378Z" fill="white"/>
<path opacity="0.7" d="M413.55 133.631C411.808 133.059 410.807 131.629 410.807 130.121V128.86H409.455V130.017C409.455 131.707 408.454 133.306 406.608 133.943L407.323 135.009C408.675 134.515 409.637 133.501 410.157 132.227C410.651 133.332 411.587 134.229 412.848 134.684L413.55 133.631ZM412.107 138.948C410.469 138.948 409.52 138.545 409.52 137.791C409.52 137.063 410.469 136.647 412.107 136.647C413.745 136.647 414.694 137.063 414.694 137.791C414.694 138.545 413.745 138.948 412.107 138.948ZM412.107 135.594C409.689 135.594 408.194 136.413 408.194 137.791C408.194 139.182 409.689 140.001 412.107 140.001C414.538 140.001 416.02 139.182 416.02 137.791C416.02 136.413 414.538 135.594 412.107 135.594ZM415.89 131.161V128.249H414.551V135.308H415.89V132.266H417.554V131.161H415.89ZM423.013 130.537H425.626V129.432H419.048V130.537H421.661V131.655C421.661 133.67 420.452 135.854 418.632 136.699L419.399 137.765C420.777 137.102 421.83 135.711 422.35 134.073C422.896 135.594 423.949 136.868 425.314 137.466L426.055 136.413C424.222 135.633 423.013 133.605 423.013 131.655V130.537ZM426.991 128.262V140.001H428.343V128.262H426.991ZM432.345 130.745H435.374V129.653H431.032V137.206H431.812C433.463 137.206 434.672 137.154 436.089 136.881L435.972 135.776C434.763 136.023 433.697 136.088 432.345 136.101V130.745ZM439.378 128.249V132.89H437.987V128.496H436.726V139.416H437.987V133.982H439.378V139.988H440.652V128.249H439.378Z" fill="white"/>
<path opacity="0.7" d="M87.9075 137.31H94.6935V140.001H96.0325V136.231H87.9075V137.31ZM89.3765 129.796H94.6675V131.733H89.3765V129.796ZM92.6915 134.112V132.799H95.9805V128.73H88.0635V132.799H91.3395V134.112H86.7115V135.191H97.3455V134.112H92.6915ZM102.623 130.394H105.327V134.008H102.623V130.394ZM104.638 137.505V135.087H108.356V134.008H106.653V130.394H108.382V129.315H99.5545V130.394H101.284V134.008H99.5935V135.087H103.299V137.505H98.6705V138.61H109.331V137.505H104.638ZM112.345 130.745H115.374V129.653H111.032V137.206H111.812C113.463 137.206 114.672 137.154 116.089 136.881L115.972 135.776C114.763 136.023 113.697 136.088 112.345 136.101V130.745ZM119.378 128.249V132.89H117.987V128.496H116.726V139.416H117.987V133.982H119.378V139.988H120.652V128.249H119.378Z" fill="white"/>
<path opacity="0.7" d="M88.1805 176.759C88.1805 175.732 88.9475 175.069 89.9875 175.069C91.0405 175.069 91.8075 175.732 91.8075 176.759C91.8075 177.786 91.0405 178.449 89.9875 178.449C88.9475 178.449 88.1805 177.786 88.1805 176.759ZM93.1205 176.759C93.1205 175.095 91.7815 173.938 89.9875 173.938C88.2065 173.938 86.8675 175.095 86.8675 176.759C86.8675 178.423 88.2065 179.58 89.9875 179.58C91.7815 179.58 93.1205 178.423 93.1205 176.759ZM88.1675 181.816H94.5505V185.014H95.8895V180.737H88.1675V181.816ZM97.5145 176.044V174.939H95.8895V173.262H94.5505V180.217H95.8895V178.566H97.5145V177.461H95.8895V176.044H97.5145ZM105.626 174.406H102.831V173.197H101.492V174.406H98.6965V175.472H105.626V174.406ZM100.595 178.124C100.595 177.422 101.219 177.006 102.155 177.006C103.091 177.006 103.728 177.422 103.728 178.124C103.728 178.813 103.091 179.229 102.155 179.229C101.219 179.229 100.595 178.813 100.595 178.124ZM105.002 178.124C105.002 176.837 103.845 175.979 102.155 175.979C100.465 175.979 99.3075 176.837 99.3075 178.124C99.3075 179.398 100.465 180.256 102.155 180.256C103.845 180.256 105.002 179.398 105.002 178.124ZM100.127 182.258H106.51V185.001H107.849V181.179H100.127V182.258ZM109.513 176.408H107.849V173.262H106.51V180.607H107.849V177.513H109.513V176.408ZM116.791 179.866C117.116 177.786 117.116 176.304 117.116 175.277V174.497H111.149V175.576H115.803C115.803 176.564 115.777 177.929 115.478 179.749L116.791 179.866ZM114.165 177.864H112.852V181.4C112.033 181.413 111.24 181.426 110.525 181.426L110.668 182.531C112.722 182.531 115.413 182.479 117.831 182.076L117.766 181.101C116.622 181.244 115.387 181.322 114.165 181.374V177.864ZM121.471 178.085H119.742V173.262H118.39V185.001H119.742V179.216H121.471V178.085Z" fill="white"/>
<path d="M94.16 96.98C94.16 95.914 94.94 95.212 95.967 95.212C96.994 95.212 97.787 95.914 97.787 96.98C97.787 98.059 96.994 98.761 95.967 98.761C94.94 98.761 94.16 98.059 94.16 96.98ZM99.1 96.98C99.1 95.264 97.748 94.055 95.967 94.055C94.199 94.055 92.847 95.264 92.847 96.98C92.847 98.696 94.199 99.918 95.967 99.918C97.748 99.918 99.1 98.696 99.1 96.98ZM95.785 100.984H94.433V104.78H102.337V103.688H95.785V100.984ZM101.869 96.746V93.262H100.53V101.868H101.869V97.851H103.533V96.746H101.869ZM110.968 96.213V97.305H113.048V100.256H114.387V93.262H113.048V96.213H110.968ZM111.644 98.826C109.889 98.215 108.888 96.759 108.888 95.29V95.134H111.332V94.055H105.053V95.134H107.536V95.303C107.536 96.915 106.483 98.475 104.663 99.125L105.352 100.191C106.743 99.697 107.731 98.657 108.251 97.37C108.745 98.501 109.681 99.424 110.981 99.879L111.644 98.826ZM110.487 103.974C108.81 103.974 107.861 103.558 107.861 102.791C107.861 102.024 108.81 101.608 110.487 101.608C112.138 101.608 113.1 102.024 113.1 102.791C113.1 103.558 112.138 103.974 110.487 103.974ZM110.487 100.568C108.03 100.568 106.522 101.4 106.522 102.791C106.522 104.195 108.03 105.014 110.487 105.014C112.931 105.014 114.439 104.195 114.439 102.791C114.439 101.4 112.931 100.568 110.487 100.568Z" fill="#33D1E2"/>
<path d="M98.0315 205.169C99.8775 205.169 101.125 204.077 101.125 202.66C101.125 201.36 100.371 200.606 99.5135 200.125V200.06C100.111 199.618 100.774 198.786 100.774 197.811C100.774 196.316 99.7345 195.276 98.0705 195.276C96.5105 195.276 95.3405 196.251 95.3405 197.746C95.3405 198.76 95.9125 199.475 96.6275 199.982V200.047C95.7435 200.515 94.9115 201.36 94.9115 202.621C94.9115 204.103 96.2375 205.169 98.0315 205.169ZM98.6555 199.683C97.5895 199.267 96.6795 198.786 96.6795 197.746C96.6795 196.888 97.2645 196.355 98.0445 196.355C98.9805 196.355 99.5135 197.018 99.5135 197.902C99.5135 198.539 99.2275 199.15 98.6555 199.683ZM98.0575 204.09C97.0305 204.09 96.2375 203.427 96.2375 202.478C96.2375 201.646 96.6925 200.931 97.3555 200.476C98.6555 201.009 99.7085 201.451 99.7085 202.621C99.7085 203.518 99.0455 204.09 98.0575 204.09ZM103.08 195.133V196.212H106.967C106.915 196.641 106.824 197.057 106.681 197.434L102.495 197.616L102.69 198.682L106.161 198.409C105.459 199.384 104.289 200.19 102.534 200.762L103.067 201.828C106.837 200.554 108.371 198.266 108.371 195.133H103.08ZM105.459 202.153H104.107V205.78H112.011V204.688H105.459V202.153ZM111.543 197.785V194.262H110.204V202.946H111.543V198.89H113.22V197.785H111.543Z" fill="#33D1E2"/>
<rect x="33" y="245" width="119" height="30" rx="1" fill="#33D1E2"/>
<rect x="47" y="245" width="1" height="30" fill="#333333"/>
<rect x="62" y="245" width="1" height="30" fill="#333333"/>
<rect x="77" y="245" width="1" height="30" fill="#333333"/>
<rect x="92" y="245" width="1" height="30" fill="#333333"/>
<rect x="107" y="245" width="1" height="30" fill="#333333"/>
<rect x="122" y="245" width="1" height="30" fill="#333333"/>
<rect x="137" y="245" width="1" height="30" fill="#333333"/>
<rect x="192" y="245" width="89" height="30" fill="#37DD85"/>
<rect x="206" y="245" width="1" height="30" fill="#333333"/>
<rect x="221" y="245" width="1" height="30" fill="#333333"/>
<rect x="236" y="245" width="1" height="30" fill="#333333"/>
<rect x="251" y="245" width="1" height="30" fill="#333333"/>
<rect x="266" y="245" width="1" height="30" fill="#333333"/>
<rect x="353" y="245" width="59" height="30" fill="#FF7F89"/>
<rect x="368" y="245" width="1" height="30" fill="#333333"/>
<rect x="383" y="245" width="1" height="30" fill="#333333"/>
<rect x="398" y="245" width="1" height="30" fill="#333333"/>
<rect x="183" y="74" width="1" height="245" fill="#333333"/>
<rect x="24" y="74" width="1" height="245" fill="#333333"/>
<rect x="344" y="74" width="1" height="245" fill="#333333"/>
<rect x="503" y="74" width="1" height="245" fill="#333333"/>
<rect x="24" y="318" width="480" height="1" fill="#333333"/>
</svg>
