<svg width="267" height="84" viewBox="0 0 267 84" fill="none" xmlns="http://www.w3.org/2000/svg">
<path fill-rule="evenodd" clip-rule="evenodd" d="M8 0C3.58172 0 0 3.58172 0 8V64C0 68.4183 3.58172 72 8 72H124.762L130.536 82C132.076 84.6667 135.924 84.6667 137.464 82L143.238 72H259C263.418 72 267 68.4183 267 64V8C267 3.58172 263.418 0 259 0H8Z" fill="#FF3DB1"/>
<path d="M35.12 34.784C35.12 32.384 36.416 30.8 38.096 30.8C40.352 30.8 41.696 32.72 41.936 36.344C40.808 38 39.464 38.696 38.264 38.696C36.176 38.696 35.12 37.16 35.12 34.784ZM37.616 47.312C40.928 47.312 44 44.576 44 37.448C44 31.856 41.48 29.072 38.096 29.072C35.36 29.072 33.056 31.376 33.056 34.784C33.056 38.432 34.976 40.328 37.904 40.328C39.368 40.328 40.88 39.488 41.96 38.168C41.792 43.616 39.824 45.488 37.544 45.488C36.416 45.488 35.336 44.984 34.616 44.144L33.392 45.512C34.376 46.544 35.72 47.312 37.616 47.312ZM57.9605 37.496V38.792H62.2325V39.92H64.2005V27.272H62.2325V37.496H57.9605ZM53.4725 29.048C55.5845 29.048 56.9285 29.768 56.9285 30.92C56.9285 32.024 55.5845 32.768 53.4725 32.768C51.3845 32.768 50.0165 32.024 50.0165 30.92C50.0165 29.768 51.3845 29.048 53.4725 29.048ZM53.4725 34.112C56.6645 34.112 58.7765 32.888 58.7765 30.92C58.7765 28.904 56.6645 27.68 53.4725 27.68C50.2805 27.68 48.1685 28.904 48.1685 30.92C48.1685 32.888 50.2805 34.112 53.4725 34.112ZM52.3685 39.992H54.3365V36.68C56.4245 36.56 58.5605 36.392 60.6485 36.104L60.5285 34.808C55.9205 35.336 50.6645 35.36 46.5125 35.36L46.7525 36.848C48.4805 36.848 50.3765 36.824 52.3685 36.776V39.992ZM51.7685 47.072V45.2H64.2005V40.712H49.7765V42.128H62.2805V43.856H49.8245V48.536H64.9445V47.072H51.7685ZM86.7978 29.888H81.4218V27.248H79.4538V29.888H74.1018V31.472H86.7978V29.888ZM77.1738 36.656C77.1738 35.168 78.4938 34.208 80.4378 34.208C82.3818 34.208 83.7258 35.168 83.7258 36.656C83.7258 38.168 82.3818 39.128 80.4378 39.128C78.4938 39.128 77.1738 38.168 77.1738 36.656ZM85.5978 36.656C85.5978 34.256 83.4858 32.672 80.4378 32.672C77.3898 32.672 75.3018 34.256 75.3018 36.656C75.3018 39.08 77.3898 40.664 80.4378 40.664C83.4858 40.664 85.5978 39.08 85.5978 36.656ZM79.3098 42.128H77.3418V48.296H91.6938V46.688H79.3098V42.128ZM90.7338 34.352V27.248H88.7658V43.4H90.7338V36.008H93.9018V34.352H90.7338ZM107.604 32.84V34.448H111.852V40.088H113.844V27.272H111.852V32.84H107.604ZM108.804 37.736C105.684 36.632 103.572 33.92 103.572 31.16V30.416H108.3V28.832H96.8039V30.416H101.604V31.16C101.604 34.256 99.3959 37.16 96.1799 38.336L97.2119 39.896C99.7319 38.936 101.724 36.92 102.636 34.424C103.572 36.632 105.42 38.408 107.82 39.272L108.804 37.736ZM106.74 47.24C103.5 47.24 101.532 46.328 101.532 44.768C101.532 43.208 103.5 42.272 106.74 42.272C109.98 42.272 111.948 43.208 111.948 44.768C111.948 46.328 109.98 47.24 106.74 47.24ZM106.74 40.76C102.324 40.76 99.5639 42.224 99.5639 44.768C99.5639 47.312 102.324 48.776 106.74 48.776C111.156 48.776 113.916 47.312 113.916 44.768C113.916 42.224 111.156 40.76 106.74 40.76Z" fill="white"/>
<path d="M130.398 47.378C134.205 47.378 137.418 45.245 137.418 41.573C137.418 38.954 135.69 37.28 133.449 36.659V36.524C135.555 35.687 136.77 34.121 136.77 31.961C136.77 28.559 134.151 26.642 130.29 26.642C127.941 26.642 126.024 27.587 124.296 29.099L126.321 31.529C127.509 30.422 128.67 29.774 130.101 29.774C131.802 29.774 132.774 30.692 132.774 32.258C132.774 34.04 131.586 35.309 127.914 35.309V38.144C132.261 38.144 133.422 39.386 133.422 41.33C133.422 43.139 132.045 44.138 130.02 44.138C128.211 44.138 126.753 43.247 125.565 42.086L123.702 44.597C125.106 46.19 127.239 47.378 130.398 47.378ZM146.864 47.378C150.941 47.378 153.614 43.814 153.614 36.929C153.614 30.044 150.941 26.642 146.864 26.642C142.787 26.642 140.087 30.017 140.087 36.929C140.087 43.814 142.787 47.378 146.864 47.378ZM146.864 44.273C145.136 44.273 143.84 42.545 143.84 36.929C143.84 31.34 145.136 29.72 146.864 29.72C148.592 29.72 149.861 31.34 149.861 36.929C149.861 42.545 148.592 44.273 146.864 44.273ZM160.523 39.305C163.385 39.305 165.41 36.956 165.41 32.933C165.41 28.937 163.385 26.642 160.523 26.642C157.661 26.642 155.663 28.937 155.663 32.933C155.663 36.956 157.661 39.305 160.523 39.305ZM160.523 37.064C159.362 37.064 158.471 35.876 158.471 32.933C158.471 29.99 159.362 28.883 160.523 28.883C161.684 28.883 162.602 29.99 162.602 32.933C162.602 35.876 161.684 37.064 160.523 37.064ZM161.198 47.378H163.547L174.401 26.642H172.052L161.198 47.378ZM175.049 47.378C177.884 47.378 179.936 45.002 179.936 41.006C179.936 36.983 177.884 34.688 175.049 34.688C172.214 34.688 170.189 36.983 170.189 41.006C170.189 45.002 172.214 47.378 175.049 47.378ZM175.049 45.11C173.888 45.11 172.997 43.949 172.997 41.006C172.997 38.063 173.888 36.929 175.049 36.929C176.21 36.929 177.128 38.063 177.128 41.006C177.128 43.949 176.21 45.11 175.049 45.11ZM202.709 26.291H197.174V24.266H193.583V26.291H188.048V28.964H202.709V26.291ZM192.692 33.635C192.692 32.582 193.745 32.069 195.392 32.069C197.039 32.069 198.092 32.582 198.092 33.635C198.092 34.661 197.039 35.174 195.392 35.174C193.745 35.174 192.692 34.661 192.692 33.635ZM201.494 33.635C201.494 31.124 199.091 29.558 195.392 29.558C191.72 29.558 189.29 31.124 189.29 33.635C189.29 36.119 191.72 37.685 195.392 37.685C199.091 37.685 201.494 36.119 201.494 33.635ZM194.798 45.164H207.65V38.846H191.234V41.438H204.14V42.734H191.261V49.133H208.379V46.541H194.798V45.164ZM207.65 29.72V24.428H204.086V37.874H207.65V32.636H210.944V29.72H207.65ZM233.568 24.482H229.977V42.329H233.568V24.482ZM216.747 32.366C216.747 30.314 218.205 29.126 220.041 29.126C221.904 29.126 223.308 30.314 223.308 32.366C223.308 34.364 221.904 35.579 220.041 35.579C218.205 35.579 216.747 34.364 216.747 32.366ZM226.791 32.366C226.791 28.694 223.848 26.048 220.041 26.048C216.234 26.048 213.264 28.694 213.264 32.366C213.264 35.984 216.234 38.657 220.041 38.657C223.848 38.657 226.791 35.984 226.791 32.366ZM220.581 46.055V40.574H217.017V48.89H234.189V46.055H220.581Z" fill="white"/>
</svg>
