<svg width="536" height="375" viewBox="0 0 536 375" fill="none" xmlns="http://www.w3.org/2000/svg">
<g filter="url(#filter0_d_281_1607)">
<rect x="4" width="528" height="367" rx="28" fill="#151515"/>
<path d="M401.35 326.624L402.346 325.46L403.342 326.624L403.966 326.168L403.186 324.86L404.542 324.284L404.302 323.552L402.862 323.888L402.73 322.388H401.95L401.818 323.888L400.378 323.552L400.138 324.284L401.494 324.86L400.726 326.168L401.35 326.624ZM406.623 327.896C408.399 327.656 409.815 326.864 410.511 325.784C411.219 326.864 412.635 327.668 414.399 327.896L414.843 326.924C412.743 326.672 411.255 325.52 411.147 324.368H414.495V323.372H411.135V322.1H409.899V323.372H406.551V324.368H409.887C409.779 325.532 408.291 326.672 406.191 326.924L406.623 327.896ZM415.419 328.604H405.627V329.624H409.899V332.948H411.135V329.624H415.419V328.604ZM425.678 323.276H421.934V322.064H420.698V323.276H416.906V324.26H425.678V323.276ZM423.638 326.624C423.638 327.212 422.834 327.536 421.322 327.536C419.81 327.536 418.994 327.212 418.994 326.624C418.994 326.036 419.81 325.724 421.322 325.724C422.834 325.724 423.638 326.036 423.638 326.624ZM417.71 326.624C417.71 327.8 419.066 328.46 421.322 328.46C423.578 328.46 424.934 327.8 424.934 326.624C424.934 325.448 423.578 324.788 421.322 324.788C419.066 324.788 417.71 325.448 417.71 326.624ZM426.242 329.108H416.414V330.104H420.698V332.936H421.934V330.104H426.242V329.108ZM437.432 331.796H432.836V330.596H437.432V331.796ZM437.432 329.636H432.836V328.412H431.612V332.792H438.656V328.412H437.432V329.636ZM432.656 326.624C431.696 326.624 431.012 326.012 431.012 325.1C431.012 324.176 431.696 323.588 432.656 323.588C433.592 323.588 434.288 324.176 434.288 325.1C434.288 326.012 433.592 326.624 432.656 326.624ZM437.42 322.088V324.584H435.416C435.176 323.372 434.084 322.568 432.656 322.568C431.024 322.568 429.824 323.612 429.824 325.1C429.824 326.6 431.024 327.644 432.656 327.644C434.096 327.644 435.2 326.816 435.416 325.592H437.42V327.896H438.656V322.088H437.42ZM442.063 324.368H444.943V323.36H440.839V330.404H441.571C443.227 330.404 444.283 330.344 445.507 330.104L445.399 329.084C444.331 329.312 443.407 329.372 442.063 329.384V324.368ZM446.335 326.144H444.199V327.152H446.335V332.408H447.499V322.316H446.335V326.144ZM448.543 322.076V332.912H449.731V322.076H448.543ZM458.946 322.076V332.948H460.194V322.076H458.946ZM454.422 322.88C452.814 322.88 451.638 324.368 451.638 326.696C451.638 329.048 452.814 330.524 454.422 330.524C456.042 330.524 457.218 329.048 457.218 326.696C457.218 324.368 456.042 322.88 454.422 322.88ZM454.422 323.996C455.37 323.996 456.03 325.016 456.03 326.696C456.03 328.4 455.37 329.42 454.422 329.42C453.486 329.42 452.826 328.4 452.826 326.696C452.826 325.016 453.486 323.996 454.422 323.996ZM470.801 327.812H464.549V326.324H470.477V325.352H464.549V323.96H470.717V322.964H463.289V328.808H470.801V327.812ZM462.077 330.584V331.592H471.905V330.584H462.077ZM480.012 327.932C480.072 327.572 480.096 327.2 480.096 326.78C480.096 326.36 480.072 325.976 480.012 325.616H481.26V327.932H480.012ZM477.768 329.456C477.024 329.456 476.556 328.496 476.556 326.78C476.556 325.064 477.024 324.092 477.768 324.092C478.512 324.092 478.98 325.064 478.98 326.78C478.98 328.496 478.512 329.456 477.768 329.456ZM481.26 324.596H479.76C479.388 323.528 478.668 322.928 477.768 322.928C476.364 322.928 475.44 324.392 475.44 326.78C475.44 329.156 476.364 330.62 477.768 330.62C478.68 330.62 479.388 329.996 479.772 328.94H481.26V332.408H482.412V322.292H481.26V324.596ZM483.408 322.088V332.912H484.584V322.088H483.408ZM491.951 324.812V325.82H493.871V328.544H495.107V322.088H493.871V324.812H491.951ZM492.575 327.224C490.955 326.66 490.031 325.316 490.031 323.96V323.816H492.287V322.82H486.491V323.816H488.783V323.972C488.783 325.46 487.811 326.9 486.131 327.5L486.767 328.484C488.051 328.028 488.963 327.068 489.443 325.88C489.899 326.924 490.763 327.776 491.963 328.196L492.575 327.224ZM491.507 331.976C489.959 331.976 489.083 331.592 489.083 330.884C489.083 330.176 489.959 329.792 491.507 329.792C493.031 329.792 493.919 330.176 493.919 330.884C493.919 331.592 493.031 331.976 491.507 331.976ZM491.507 328.832C489.239 328.832 487.847 329.6 487.847 330.884C487.847 332.18 489.239 332.936 491.507 332.936C493.763 332.936 495.155 332.18 495.155 330.884C495.155 329.6 493.763 328.832 491.507 328.832Z" fill="#666666"/>
<rect x="268" y="94" width="1" height="48" fill="#AAAAAA"/>
<path d="M78.5 278L268 189.5" stroke="#AAAAAA"/>
<path d="M268 189.5L442.5 277.5" stroke="#AAAAAA"/>
<path d="M189.5 278.5L268 189L317.5 278.5" stroke="#AAAAAA"/>
<rect x="189" y="48" width="158" height="56" rx="28" fill="#25D86F"/>
<path d="M225.865 83.048V79.76H232.561V77.216H219.745V74.744H232.057V67.376H216.577V69.896H228.937V72.272H216.601V79.76H222.697V83.048H214.297V85.64H234.313V83.048H225.865ZM247.487 80.336H244.247V80.696C244.247 82.832 242.111 85.016 237.239 85.568L238.319 87.992C241.967 87.512 244.535 86.144 245.879 84.248C247.223 86.144 249.791 87.512 253.439 87.992L254.519 85.568C249.671 85.016 247.487 82.832 247.487 80.696V80.336ZM241.583 70.832H250.199V72.488H241.583V70.832ZM247.463 76.712V74.96H253.343V66.584H250.199V68.456H241.583V66.584H238.439V74.96H244.295V76.712H235.895V79.208H255.887V76.712H247.463ZM260.781 72.992C260.781 71.168 261.981 70.04 263.589 70.04C265.221 70.04 266.421 71.168 266.421 72.992C266.421 74.84 265.221 75.968 263.589 75.968C261.981 75.968 260.781 74.84 260.781 72.992ZM272.805 71.552V74.408H269.253C269.373 73.976 269.421 73.472 269.421 72.992C269.421 72.488 269.349 72.008 269.253 71.552H272.805ZM272.805 76.928V82.136H275.973V65.96H272.805V69.032H267.885C266.805 67.928 265.317 67.28 263.589 67.28C260.325 67.28 257.781 69.704 257.781 72.992C257.781 76.304 260.325 78.728 263.589 78.728C265.317 78.728 266.853 78.056 267.933 76.928H272.805ZM264.573 85.16V80.552H261.405V87.68H276.477V85.16H264.573ZM299.083 76.64H296.179C296.731 73.544 296.731 71.288 296.731 69.224V67.232H281.395V69.776H293.635C293.635 71.672 293.587 73.832 293.035 76.64H279.115V79.184H287.371V88.064H290.587V79.184H299.083V76.64ZM311.969 78.8V80.96H316.121V82.712H319.289V65.96H316.121V78.8H311.969ZM307.721 69.008C309.185 69.008 310.217 69.584 310.217 70.664C310.217 71.744 309.185 72.296 307.721 72.296C306.233 72.296 305.201 71.744 305.201 70.664C305.201 69.584 306.233 69.008 307.721 69.008ZM307.721 74.6C310.937 74.6 313.217 73.016 313.217 70.664C313.217 68.312 310.937 66.704 307.721 66.704C304.481 66.704 302.225 68.312 302.225 70.664C302.225 73.016 304.481 74.6 307.721 74.6ZM306.545 85.16V82.136H309.593V77.96C311.369 77.816 313.145 77.624 314.873 77.336L314.657 75.08C310.001 75.68 304.625 75.728 300.593 75.752L301.001 78.272C302.657 78.272 304.505 78.248 306.449 78.152V81.104H303.377V87.68H319.769V85.16H306.545Z" fill="#151515"/>
<rect x="206" y="142" width="124" height="48" rx="8" fill="#333333"/>
<path d="M232.504 171.72V168.64H238.144V166.98H227.324V164.46H237.744V158.74H225.264V160.4H235.704V162.82H225.304V168.64H230.444V171.72H223.324V173.42H239.684V171.72H232.504ZM250.522 169.2H248.422V169.6C248.422 171.68 246.082 173.44 242.482 173.88L243.222 175.48C246.102 175.08 248.362 173.86 249.462 172.12C250.562 173.86 252.822 175.08 255.722 175.48L256.442 173.88C252.842 173.44 250.522 171.68 250.522 169.6V169.2ZM245.462 161.34H253.502V163.08H245.462V161.34ZM250.502 166.46V164.72H255.542V157.98H253.502V159.76H245.462V157.98H243.422V164.72H248.442V166.46H241.282V168.12H257.662V166.46H250.502ZM273.121 164.66C273.621 162.8 273.621 161.3 273.621 159.86V158.34H261.221V160H271.581C271.581 161.36 271.561 162.66 271.101 164.44L273.121 164.66ZM267.421 173.96C264.741 173.96 263.101 173.3 263.101 172.16C263.101 171.04 264.741 170.38 267.421 170.38C270.081 170.38 271.681 171.04 271.681 172.16C271.681 173.3 270.081 173.96 267.421 173.96ZM267.421 168.8C263.521 168.8 261.061 170.08 261.061 172.16C261.061 174.26 263.521 175.54 267.421 175.54C271.261 175.54 273.741 174.26 273.741 172.16C273.741 170.08 271.261 168.8 267.421 168.8ZM267.821 165.74V162.42H265.741V165.74H259.341V167.4H275.621V165.74H267.821ZM287.999 159.24H283.699V157.38H281.639V159.24H277.339V160.88H287.999V159.24ZM280.259 164.96C280.259 163.88 281.219 163.24 282.659 163.24C284.099 163.24 285.079 163.88 285.079 164.96C285.079 166.02 284.099 166.66 282.659 166.66C281.219 166.66 280.259 166.02 280.259 164.96ZM287.039 164.96C287.039 162.98 285.259 161.66 282.659 161.66C280.059 161.66 278.279 162.98 278.279 164.96C278.279 166.92 280.059 168.24 282.659 168.24C285.259 168.24 287.039 166.92 287.039 164.96ZM279.539 171.32H289.359V175.54H291.419V169.66H279.539V171.32ZM293.979 162.32H291.419V157.48H289.359V168.78H291.419V164.02H293.979V162.32ZM304.778 167.64C305.278 164.44 305.278 162.16 305.278 160.58V159.38H296.098V161.04H303.258C303.258 162.56 303.218 164.66 302.758 167.46L304.778 167.64ZM300.738 164.56H298.718V170C297.458 170.02 296.238 170.04 295.138 170.04L295.358 171.74C298.518 171.74 302.658 171.66 306.378 171.04L306.278 169.54C304.518 169.76 302.618 169.88 300.738 169.96V164.56ZM311.978 164.9H309.318V157.48H307.238V175.54H309.318V166.64H311.978V164.9Z" fill="white"/>
<rect x="39.5" y="276.5" width="82" height="31" rx="15.5" fill="#151515" stroke="#AAAAAA"/>
<path d="M50.3676 298H51.9916V287.682H50.3676V298ZM56.5079 298H58.1319V289.054H61.1699V287.682H53.4839V289.054H56.5079V298ZM67.7408 287.794C69.6168 287.794 70.7508 288.242 70.7508 289.068C70.7508 289.88 69.6168 290.342 67.7408 290.342C65.8648 290.342 64.7168 289.88 64.7168 289.068C64.7168 288.242 65.8648 287.794 67.7408 287.794ZM67.7408 291.448C70.4988 291.448 72.2488 290.552 72.2488 289.068C72.2488 287.57 70.4988 286.674 67.7408 286.674C64.9688 286.674 63.2328 287.57 63.2328 289.068C63.2328 290.552 64.9688 291.448 67.7408 291.448ZM69.3088 294.64C68.8328 294.57 68.3008 294.528 67.7128 294.528C67.1668 294.528 66.6488 294.57 66.1868 294.64V293.408H69.3088V294.64ZM67.7128 297.972C65.8648 297.972 64.8288 297.58 64.8288 296.81C64.8288 296.054 65.8648 295.648 67.7128 295.648C69.5608 295.648 70.6108 296.054 70.6108 296.81C70.6108 297.58 69.5608 297.972 67.7128 297.972ZM73.4528 293.408V292.246H62.0148V293.408H64.7588V295.018C63.8628 295.41 63.3588 296.026 63.3588 296.81C63.3588 298.266 64.9968 299.092 67.7128 299.092C70.4428 299.092 72.0668 298.266 72.0668 296.81C72.0668 296.04 71.6048 295.438 70.7368 295.046V293.408H73.4528ZM82.1037 287.64H79.0937V286.324H77.6517V287.64H74.6417V288.802H82.1037V287.64ZM76.6857 291.49C76.6857 290.776 77.3577 290.342 78.3657 290.342C79.3737 290.342 80.0597 290.776 80.0597 291.49C80.0597 292.218 79.3737 292.652 78.3657 292.652C77.3577 292.652 76.6857 292.218 76.6857 291.49ZM81.4317 291.49C81.4317 290.16 80.1997 289.264 78.3657 289.264C76.5457 289.264 75.2997 290.16 75.2997 291.49C75.2997 292.834 76.5457 293.73 78.3657 293.73C80.1997 293.73 81.4317 292.834 81.4317 291.49ZM83.0697 297.776H77.8477V296.614H83.0697V297.776ZM83.0697 295.494H77.8477V294.332H76.4197V298.924H84.4977V294.332H83.0697V295.494ZM86.2897 289.586H84.4977V286.436H83.0557V293.814H84.4977V290.776H86.2897V289.586ZM94.7026 287.668H91.6926V286.366H90.2506V287.668H87.2406V288.816H94.7026V287.668ZM89.2846 291.672C89.2846 290.916 89.9566 290.468 90.9646 290.468C91.9726 290.468 92.6586 290.916 92.6586 291.672C92.6586 292.414 91.9726 292.862 90.9646 292.862C89.9566 292.862 89.2846 292.414 89.2846 291.672ZM94.0306 291.672C94.0306 290.286 92.7846 289.362 90.9646 289.362C89.1446 289.362 87.8986 290.286 87.8986 291.672C87.8986 293.044 89.1446 293.968 90.9646 293.968C92.7846 293.968 94.0306 293.044 94.0306 291.672ZM88.7806 296.124H95.6546V299.078H97.0966V294.962H88.7806V296.124ZM98.8886 289.824H97.0966V286.436H95.6546V294.346H97.0966V291.014H98.8886V289.824ZM106.448 293.548C106.798 291.308 106.798 289.712 106.798 288.606V287.766H100.372V288.928H105.384C105.384 289.992 105.356 291.462 105.034 293.422L106.448 293.548ZM103.62 291.392H102.206V295.2C101.324 295.214 100.47 295.228 99.6995 295.228L99.8535 296.418C102.066 296.418 104.964 296.362 107.568 295.928L107.498 294.878C106.266 295.032 104.936 295.116 103.62 295.172V291.392ZM111.488 291.63H109.626V286.436H108.17V299.078H109.626V292.848H111.488V291.63Z" fill="#AAAAAA"/>
<rect x="138.5" y="276.5" width="108" height="31" rx="15.5" fill="#151515" stroke="#AAAAAA"/>
<path d="M155.712 289.824V291.014H158.008V295.69H159.45V286.45H158.008V289.824H155.712ZM156.496 292.778C154.606 292.12 153.528 290.538 153.528 288.984V288.55H156.16V287.388H149.398V288.55H152.072V288.984C152.072 290.692 150.924 292.358 148.964 293.044L149.706 294.178C151.204 293.66 152.268 292.554 152.828 291.182C153.36 292.428 154.382 293.422 155.782 293.898L156.496 292.778ZM152.702 297.664V294.892H151.26V298.84H159.772V297.664H152.702ZM162.291 287.766V288.942H166.799C166.547 291.854 164.979 294.08 161.661 295.676L162.431 296.824C166.771 294.724 168.283 291.532 168.283 287.766H162.291ZM170.565 286.436V299.078H172.007V286.436H170.565ZM180.91 289.824V291.014H183.206V295.69H184.648V286.45H183.206V289.824H180.91ZM181.694 292.778C179.804 292.12 178.726 290.538 178.726 288.984V288.55H181.358V287.388H174.596V288.55H177.27V288.984C177.27 290.692 176.122 292.358 174.162 293.044L174.904 294.178C176.402 293.66 177.466 292.554 178.026 291.182C178.558 292.428 179.58 293.422 180.98 293.898L181.694 292.778ZM177.9 297.664V294.892H176.458V298.84H184.97V297.664H177.9ZM191.199 288.886H193.873V287.696H186.999V288.886H189.757V290.104C189.757 292.204 188.469 294.598 186.537 295.522L187.363 296.67C188.819 295.956 189.939 294.444 190.499 292.68C191.073 294.276 192.151 295.676 193.565 296.348L194.363 295.214C192.445 294.304 191.199 292.064 191.199 290.104V288.886ZM198.535 291.42H196.561V286.436H195.119V299.078H196.561V292.61H198.535V291.42ZM209.033 291.462C209.383 290.16 209.383 289.11 209.383 288.102V287.038H200.703V288.2H207.955C207.955 289.152 207.941 290.062 207.619 291.308L209.033 291.462ZM205.043 297.972C203.167 297.972 202.019 297.51 202.019 296.712C202.019 295.928 203.167 295.466 205.043 295.466C206.905 295.466 208.025 295.928 208.025 296.712C208.025 297.51 206.905 297.972 205.043 297.972ZM205.043 294.36C202.313 294.36 200.591 295.256 200.591 296.712C200.591 298.182 202.313 299.078 205.043 299.078C207.731 299.078 209.467 298.182 209.467 296.712C209.467 295.256 207.731 294.36 205.043 294.36ZM205.323 292.218V289.894H203.867V292.218H199.387V293.38H210.783V292.218H205.323ZM219.448 287.668H216.438V286.366H214.996V287.668H211.986V288.816H219.448V287.668ZM214.03 291.672C214.03 290.916 214.702 290.468 215.71 290.468C216.718 290.468 217.404 290.916 217.404 291.672C217.404 292.414 216.718 292.862 215.71 292.862C214.702 292.862 214.03 292.414 214.03 291.672ZM218.776 291.672C218.776 290.286 217.53 289.362 215.71 289.362C213.89 289.362 212.644 290.286 212.644 291.672C212.644 293.044 213.89 293.968 215.71 293.968C217.53 293.968 218.776 293.044 218.776 291.672ZM213.526 296.124H220.4V299.078H221.842V294.962H213.526V296.124ZM223.634 289.824H221.842V286.436H220.4V294.346H221.842V291.014H223.634V289.824ZM231.193 293.548C231.543 291.308 231.543 289.712 231.543 288.606V287.766H225.117V288.928H230.129C230.129 289.992 230.101 291.462 229.779 293.422L231.193 293.548ZM228.365 291.392H226.951V295.2C226.069 295.214 225.215 295.228 224.445 295.228L224.599 296.418C226.811 296.418 229.709 296.362 232.313 295.928L232.243 294.878C231.011 295.032 229.681 295.116 228.365 295.172V291.392ZM236.233 291.63H234.371V286.436H232.915V299.078H234.371V292.848H236.233V291.63Z" fill="#AAAAAA"/>
<rect x="263.5" y="276.5" width="108" height="31" rx="15.5" fill="#151515" stroke="#AAAAAA"/>
<path d="M280.712 289.824V291.014H283.008V295.69H284.45V286.45H283.008V289.824H280.712ZM281.496 292.778C279.606 292.12 278.528 290.538 278.528 288.984V288.55H281.16V287.388H274.398V288.55H277.072V288.984C277.072 290.692 275.924 292.358 273.964 293.044L274.706 294.178C276.204 293.66 277.268 292.554 277.828 291.182C278.36 292.428 279.382 293.422 280.782 293.898L281.496 292.778ZM277.702 297.664V294.892H276.26V298.84H284.772V297.664H277.702ZM287.291 287.766V288.942H291.799C291.547 291.854 289.979 294.08 286.661 295.676L287.431 296.824C291.771 294.724 293.283 291.532 293.283 287.766H287.291ZM295.565 286.436V299.078H297.007V286.436H295.565ZM303.012 288.998H305.098V287.808H299.386V288.998H301.612V289.908C301.612 292.162 300.772 294.444 298.98 295.564L299.848 296.628C301.066 295.858 301.878 294.5 302.326 292.904C302.774 294.374 303.558 295.62 304.748 296.32L305.588 295.27C303.824 294.248 303.012 292.064 303.012 289.908V288.998ZM306.036 290.874H304.174V292.05H306.036V298.462H307.394V286.674H306.036V290.874ZM308.584 286.422V299.064H309.956V286.422H308.584ZM315.177 294.99C314.099 294.99 313.357 293.814 313.357 291.812C313.357 289.852 314.099 288.662 315.177 288.662C316.269 288.662 317.011 289.852 317.011 291.812C317.011 293.814 316.269 294.99 315.177 294.99ZM320.819 286.422V291.14H318.355C318.159 288.816 316.871 287.36 315.177 287.36C313.315 287.36 311.985 289.096 311.985 291.812C311.985 294.556 313.315 296.278 315.177 296.278C316.913 296.278 318.201 294.766 318.369 292.316H320.819V299.106H322.275V286.422H320.819ZM334.033 291.462C334.383 290.16 334.383 289.11 334.383 288.102V287.038H325.703V288.2H332.955C332.955 289.152 332.941 290.062 332.619 291.308L334.033 291.462ZM330.043 297.972C328.167 297.972 327.019 297.51 327.019 296.712C327.019 295.928 328.167 295.466 330.043 295.466C331.905 295.466 333.025 295.928 333.025 296.712C333.025 297.51 331.905 297.972 330.043 297.972ZM330.043 294.36C327.313 294.36 325.591 295.256 325.591 296.712C325.591 298.182 327.313 299.078 330.043 299.078C332.731 299.078 334.467 298.182 334.467 296.712C334.467 295.256 332.731 294.36 330.043 294.36ZM330.323 292.218V289.894H328.867V292.218H324.387V293.38H335.783V292.218H330.323ZM344.448 287.668H341.438V286.366H339.996V287.668H336.986V288.816H344.448V287.668ZM339.03 291.672C339.03 290.916 339.702 290.468 340.71 290.468C341.718 290.468 342.404 290.916 342.404 291.672C342.404 292.414 341.718 292.862 340.71 292.862C339.702 292.862 339.03 292.414 339.03 291.672ZM343.776 291.672C343.776 290.286 342.53 289.362 340.71 289.362C338.89 289.362 337.644 290.286 337.644 291.672C337.644 293.044 338.89 293.968 340.71 293.968C342.53 293.968 343.776 293.044 343.776 291.672ZM338.526 296.124H345.4V299.078H346.842V294.962H338.526V296.124ZM348.634 289.824H346.842V286.436H345.4V294.346H346.842V291.014H348.634V289.824ZM356.193 293.548C356.543 291.308 356.543 289.712 356.543 288.606V287.766H350.117V288.928H355.129C355.129 289.992 355.101 291.462 354.779 293.422L356.193 293.548ZM353.365 291.392H351.951V295.2C351.069 295.214 350.215 295.228 349.445 295.228L349.599 296.418C351.811 296.418 354.709 296.362 357.313 295.928L357.243 294.878C356.011 295.032 354.681 295.116 353.365 295.172V291.392ZM361.233 291.63H359.371V286.436H357.915V299.078H359.371V292.848H361.233V291.63Z" fill="#AAAAAA"/>
<rect x="388.5" y="276.5" width="108" height="31" rx="15.5" fill="#151515" stroke="#AAAAAA"/>
<path d="M402.814 288.998H404.9V287.808H399.188V288.998H401.414V289.908C401.414 292.162 400.574 294.444 398.782 295.564L399.65 296.628C400.868 295.858 401.68 294.5 402.128 292.904C402.576 294.374 403.36 295.62 404.55 296.32L405.39 295.27C403.626 294.248 402.814 292.064 402.814 289.908V288.998ZM405.838 290.874H403.976V292.05H405.838V298.462H407.196V286.674H405.838V290.874ZM408.386 286.422V299.064H409.758V286.422H408.386ZM414.979 294.99C413.901 294.99 413.159 293.814 413.159 291.812C413.159 289.852 413.901 288.662 414.979 288.662C416.071 288.662 416.813 289.852 416.813 291.812C416.813 293.814 416.071 294.99 414.979 294.99ZM420.621 286.422V291.14H418.157C417.961 288.816 416.673 287.36 414.979 287.36C413.117 287.36 411.787 289.096 411.787 291.812C411.787 294.556 413.117 296.278 414.979 296.278C416.715 296.278 418.003 294.766 418.171 292.316H420.621V299.106H422.077V286.422H420.621ZM431.05 289.852H429.454C429.552 289.264 429.594 288.634 429.594 287.99H424.708V289.152H428.166C427.956 291.742 426.696 293.8 424.092 295.382L424.918 296.404C427.284 294.99 428.614 293.156 429.202 291.028H431.05V293.03H428.978V294.206H431.05V298.462H432.394V286.744H431.05V289.852ZM433.598 286.436V299.078H434.984V286.436H433.598ZM437.797 292.176C439.995 291.994 441.689 291.266 442.473 290.132C443.257 291.266 444.951 291.994 447.149 292.176L447.597 291.084C445.021 290.888 443.439 289.95 443.299 288.802H447.051V287.668H443.201V286.422H441.759V287.668H437.895V288.802H441.661C441.521 289.95 439.925 290.888 437.363 291.084L437.797 292.176ZM438.035 296.25H445.357V299.092H446.799V295.088H438.035V296.25ZM436.761 292.778V293.94H448.199V292.778H436.761ZM459.033 291.462C459.383 290.16 459.383 289.11 459.383 288.102V287.038H450.703V288.2H457.955C457.955 289.152 457.941 290.062 457.619 291.308L459.033 291.462ZM455.043 297.972C453.167 297.972 452.019 297.51 452.019 296.712C452.019 295.928 453.167 295.466 455.043 295.466C456.905 295.466 458.025 295.928 458.025 296.712C458.025 297.51 456.905 297.972 455.043 297.972ZM455.043 294.36C452.313 294.36 450.591 295.256 450.591 296.712C450.591 298.182 452.313 299.078 455.043 299.078C457.731 299.078 459.467 298.182 459.467 296.712C459.467 295.256 457.731 294.36 455.043 294.36ZM455.323 292.218V289.894H453.867V292.218H449.387V293.38H460.783V292.218H455.323ZM469.448 287.668H466.438V286.366H464.996V287.668H461.986V288.816H469.448V287.668ZM464.03 291.672C464.03 290.916 464.702 290.468 465.71 290.468C466.718 290.468 467.404 290.916 467.404 291.672C467.404 292.414 466.718 292.862 465.71 292.862C464.702 292.862 464.03 292.414 464.03 291.672ZM468.776 291.672C468.776 290.286 467.53 289.362 465.71 289.362C463.89 289.362 462.644 290.286 462.644 291.672C462.644 293.044 463.89 293.968 465.71 293.968C467.53 293.968 468.776 293.044 468.776 291.672ZM463.526 296.124H470.4V299.078H471.842V294.962H463.526V296.124ZM473.634 289.824H471.842V286.436H470.4V294.346H471.842V291.014H473.634V289.824ZM481.193 293.548C481.543 291.308 481.543 289.712 481.543 288.606V287.766H475.117V288.928H480.129C480.129 289.992 480.101 291.462 479.779 293.422L481.193 293.548ZM478.365 291.392H476.951V295.2C476.069 295.214 475.215 295.228 474.445 295.228L474.599 296.418C476.811 296.418 479.709 296.362 482.313 295.928L482.243 294.878C481.011 295.032 479.681 295.116 478.365 295.172V291.392ZM486.233 291.63H484.371V286.436H482.915V299.078H484.371V292.848H486.233V291.63Z" fill="#AAAAAA"/>
</g>
<defs>
<filter id="filter0_d_281_1607" x="0" y="0" width="536" height="375" filterUnits="userSpaceOnUse" color-interpolation-filters="sRGB">
<feFlood flood-opacity="0" result="BackgroundImageFix"/>
<feColorMatrix in="SourceAlpha" type="matrix" values="0 0 0 0 0 0 0 0 0 0 0 0 0 0 0 0 0 0 127 0" result="hardAlpha"/>
<feOffset dy="4"/>
<feGaussianBlur stdDeviation="2"/>
<feComposite in2="hardAlpha" operator="out"/>
<feColorMatrix type="matrix" values="0 0 0 0 0 0 0 0 0 0 0 0 0 0 0 0 0 0 0.25 0"/>
<feBlend mode="normal" in2="BackgroundImageFix" result="effect1_dropShadow_281_1607"/>
<feBlend mode="normal" in="SourceGraphic" in2="effect1_dropShadow_281_1607" result="shape"/>
</filter>
</defs>
</svg>
