<svg width="269" height="84" viewBox="0 0 269 84" fill="none" xmlns="http://www.w3.org/2000/svg">
<path fill-rule="evenodd" clip-rule="evenodd" d="M8 0C3.58172 0 0 3.58172 0 8V64C0 68.4183 3.58173 72 8.00001 72H125.762L131.536 82C133.076 84.6667 136.924 84.6667 138.464 82L144.238 72H261C265.418 72 269 68.4183 269 64V8C269 3.58172 265.418 0 261 0H8Z" fill="#FF3DB1"/>
<path d="M48.456 35.048H35.784V32.888H47.76V31.4H35.784V29.36H48.336V27.824H33.816V36.584H48.456V35.048ZM33.432 43.856H46.248V48.8H48.216V42.296H33.432V43.856ZM31.248 38.624V40.208H50.736V38.624H31.248ZM69.0941 31.856V34.232H64.1261V31.856H69.0941ZM62.1821 36.056H56.3741V32.864H62.1821V36.056ZM64.1261 35.768H69.0941V38.504H71.0621V27.272H69.0941V30.32H64.1261V28.28H62.1821V31.328H56.3741V28.256H54.4301V37.64H64.1261V35.768ZM59.1821 46.928V44.648H71.0621V39.536H57.1901V41.096H69.1181V43.16H57.2381V48.488H71.8781V46.928H59.1821ZM77.6363 34.016C77.6363 31.88 79.1963 30.344 81.3083 30.344C83.3963 30.344 84.9563 31.88 84.9563 34.016C84.9563 36.152 83.3963 37.688 81.3083 37.688C79.1963 37.688 77.6363 36.152 77.6363 34.016ZM91.1723 32.216V35.792H86.5403C86.7323 35.24 86.8282 34.64 86.8282 34.016C86.8282 33.368 86.7323 32.768 86.5403 32.216H91.1723ZM91.1723 37.376V43.16H93.1643V27.272H91.1723V30.632H85.7003C84.6923 29.384 83.1563 28.616 81.3083 28.616C78.1403 28.616 75.7643 30.872 75.7643 34.016C75.7643 37.16 78.1403 39.416 81.3083 39.416C83.1563 39.416 84.7163 38.648 85.7243 37.376H91.1723ZM81.3803 46.688V41.528H79.3883V48.296H93.7643V46.688H81.3803ZM109.986 37.664C106.818 36.608 104.778 34.088 104.778 31.28V30.44H109.53V28.856H97.9864V30.44H102.81V31.28C102.81 34.376 100.65 37.16 97.4104 38.288L98.4184 39.848C100.986 38.936 102.93 37.016 103.842 34.568C104.754 36.704 106.602 38.408 109.05 39.2L109.986 37.664ZM107.37 47.192C104.154 47.192 102.234 46.304 102.234 44.768C102.234 43.256 104.154 42.368 107.37 42.368C110.538 42.368 112.482 43.256 112.482 44.768C112.482 46.304 110.538 47.192 107.37 47.192ZM107.37 40.808C102.954 40.808 100.266 42.272 100.266 44.768C100.266 47.288 102.954 48.752 107.37 48.752C111.738 48.752 114.45 47.288 114.45 44.768C114.45 42.272 111.738 40.808 107.37 40.808ZM114.21 32.696V27.272H112.242V40.256H114.21V34.352H117.402V32.696H114.21Z" fill="white"/>
<path d="M132.398 47.378C136.205 47.378 139.418 45.245 139.418 41.573C139.418 38.954 137.69 37.28 135.449 36.659V36.524C137.555 35.687 138.77 34.121 138.77 31.961C138.77 28.559 136.151 26.642 132.29 26.642C129.941 26.642 128.024 27.587 126.296 29.099L128.321 31.529C129.509 30.422 130.67 29.774 132.101 29.774C133.802 29.774 134.774 30.692 134.774 32.258C134.774 34.04 133.586 35.309 129.914 35.309V38.144C134.261 38.144 135.422 39.386 135.422 41.33C135.422 43.139 134.045 44.138 132.02 44.138C130.211 44.138 128.753 43.247 127.565 42.086L125.702 44.597C127.106 46.19 129.239 47.378 132.398 47.378ZM148.864 47.378C152.941 47.378 155.614 43.814 155.614 36.929C155.614 30.044 152.941 26.642 148.864 26.642C144.787 26.642 142.087 30.017 142.087 36.929C142.087 43.814 144.787 47.378 148.864 47.378ZM148.864 44.273C147.136 44.273 145.84 42.545 145.84 36.929C145.84 31.34 147.136 29.72 148.864 29.72C150.592 29.72 151.861 31.34 151.861 36.929C151.861 42.545 150.592 44.273 148.864 44.273ZM162.523 39.305C165.385 39.305 167.41 36.956 167.41 32.933C167.41 28.937 165.385 26.642 162.523 26.642C159.661 26.642 157.663 28.937 157.663 32.933C157.663 36.956 159.661 39.305 162.523 39.305ZM162.523 37.064C161.362 37.064 160.471 35.876 160.471 32.933C160.471 29.99 161.362 28.883 162.523 28.883C163.684 28.883 164.602 29.99 164.602 32.933C164.602 35.876 163.684 37.064 162.523 37.064ZM163.198 47.378H165.547L176.401 26.642H174.052L163.198 47.378ZM177.049 47.378C179.884 47.378 181.936 45.002 181.936 41.006C181.936 36.983 179.884 34.688 177.049 34.688C174.214 34.688 172.189 36.983 172.189 41.006C172.189 45.002 174.214 47.378 177.049 47.378ZM177.049 45.11C175.888 45.11 174.997 43.949 174.997 41.006C174.997 38.063 175.888 36.929 177.049 36.929C178.21 36.929 179.128 38.063 179.128 41.006C179.128 43.949 178.21 45.11 177.049 45.11ZM204.709 26.291H199.174V24.266H195.583V26.291H190.048V28.964H204.709V26.291ZM194.692 33.635C194.692 32.582 195.745 32.069 197.392 32.069C199.039 32.069 200.092 32.582 200.092 33.635C200.092 34.661 199.039 35.174 197.392 35.174C195.745 35.174 194.692 34.661 194.692 33.635ZM203.494 33.635C203.494 31.124 201.091 29.558 197.392 29.558C193.72 29.558 191.29 31.124 191.29 33.635C191.29 36.119 193.72 37.685 197.392 37.685C201.091 37.685 203.494 36.119 203.494 33.635ZM196.798 45.164H209.65V38.846H193.234V41.438H206.14V42.734H193.261V49.133H210.379V46.541H196.798V45.164ZM209.65 29.72V24.428H206.086V37.874H209.65V32.636H212.944V29.72H209.65ZM235.568 24.482H231.977V42.329H235.568V24.482ZM218.747 32.366C218.747 30.314 220.205 29.126 222.041 29.126C223.904 29.126 225.308 30.314 225.308 32.366C225.308 34.364 223.904 35.579 222.041 35.579C220.205 35.579 218.747 34.364 218.747 32.366ZM228.791 32.366C228.791 28.694 225.848 26.048 222.041 26.048C218.234 26.048 215.264 28.694 215.264 32.366C215.264 35.984 218.234 38.657 222.041 38.657C225.848 38.657 228.791 35.984 228.791 32.366ZM222.581 46.055V40.574H219.017V48.89H236.189V46.055H222.581Z" fill="white"/>
</svg>
