<svg width="56" height="20" viewBox="0 0 56 20" fill="none" xmlns="http://www.w3.org/2000/svg">
<path d="M0 10C0 4.47715 4.47715 0 10 0H46C51.5229 0 56 4.47715 56 10C56 15.5228 51.5228 20 46 20H10C4.47715 20 0 15.5228 0 10Z" fill="#FF3DB1"/>
<path d="M10.85 14.14C12.81 14.14 14.16 12.67 14.16 10.27C14.16 7.87 12.81 6.46 10.85 6.46C8.89 6.46 7.54 7.86 7.54 10.27C7.54 12.67 8.89 14.14 10.85 14.14ZM10.85 12.86C9.75 12.86 9.05 11.85 9.05 10.27C9.05 8.68 9.75 7.73 10.85 7.73C11.95 7.73 12.65 8.68 12.65 10.27C12.65 11.85 11.95 12.86 10.85 12.86ZM15.0853 14H16.5553V10.15C16.9653 9.74 17.2553 9.52 17.7153 9.52C18.2653 9.52 18.5053 9.82 18.5053 10.69V14H19.9753V10.51C19.9753 9.1 19.4553 8.26 18.2453 8.26C17.4853 8.26 16.9153 8.66 16.4253 9.14H16.3953L16.2853 8.4H15.0853V14ZM22.4716 14.14C22.8216 14.14 23.0616 14.08 23.2316 14.01L23.0516 12.92C22.9516 12.94 22.9116 12.94 22.8516 12.94C22.7116 12.94 22.5616 12.83 22.5616 12.49V6.02H21.0916V12.43C21.0916 13.47 21.4516 14.14 22.4716 14.14ZM24.3359 16.25C25.5859 16.25 26.1859 15.49 26.6759 14.17L28.6659 8.4H27.2559L26.4859 11C26.3559 11.52 26.2159 12.06 26.0859 12.58H26.0359C25.8759 12.04 25.7359 11.5 25.5659 11L24.6759 8.4H23.1959L25.3759 13.9L25.2759 14.23C25.1159 14.72 24.7959 15.08 24.2259 15.08C24.0959 15.08 23.9359 15.04 23.8359 15.01L23.5659 16.14C23.7859 16.21 24.0059 16.25 24.3359 16.25ZM32.8637 7.37H36.8337V9.81H32.8637V7.37ZM35.5137 12.72V10.85H38.1237V6.33H31.5737V10.85H34.1937V12.72H30.6937V13.79H39.0337V12.72H35.5137ZM43.0529 7.62H44.9529V6.53H39.7929V7.62H41.7129V8.13C41.7129 9.7 40.9629 11.39 39.4229 12.08L40.1729 13.13C41.2529 12.64 41.9929 11.63 42.4029 10.43C42.8129 11.54 43.5429 12.44 44.6129 12.9L45.3329 11.86C43.7929 11.22 43.0529 9.63 43.0529 8.13V7.62ZM45.8029 5.65V14.86H47.1229V5.65H45.8029Z" fill="white"/>
</svg>
